# Blender 4.5.2 LTS
# www.blender.org
mtllib advertising_column_01_big.mtl
g advertising_column_01_big_Mesh
v 0.000000 0.000000 -0.750000
v 0.000000 4.500000 -0.000000
v 0.073513 0.000000 -0.746389
v 0.146318 0.000000 -0.735589
v 0.217714 0.000000 -0.717705
v 0.287013 0.000000 -0.692910
v 0.353548 0.000000 -0.661441
v 0.416678 0.000000 -0.623602
v 0.475795 0.000000 -0.579758
v 0.530330 0.000000 -0.530330
v 0.579758 0.000000 -0.475795
v 0.623602 0.000000 -0.416678
v 0.661441 0.000000 -0.353548
v 0.692910 0.000000 -0.287013
v 0.717705 0.000000 -0.217714
v 0.735589 0.000000 -0.146318
v 0.746389 0.000000 -0.073513
v 0.750000 0.000000 0.000000
v 0.746389 0.000000 0.073513
v 0.735589 0.000000 0.146318
v 0.717705 0.000000 0.217714
v 0.692910 0.000000 0.287013
v 0.661441 0.000000 0.353548
v 0.623602 0.000000 0.416678
v 0.579758 0.000000 0.475795
v 0.530330 0.000000 0.530330
v 0.475795 0.000000 0.579758
v 0.416678 0.000000 0.623602
v 0.353548 0.000000 0.661441
v 0.287013 0.000000 0.692910
v 0.217714 0.000000 0.717705
v 0.146318 0.000000 0.735589
v 0.073513 0.000000 0.746389
v 0.000000 0.000000 0.750000
v -0.073513 0.000000 0.746389
v -0.146318 0.000000 0.735589
v -0.217714 0.000000 0.717705
v -0.287013 0.000000 0.692910
v -0.353548 0.000000 0.661441
v -0.416678 0.000000 0.623602
v -0.475795 0.000000 0.579758
v -0.530330 0.000000 0.530330
v -0.579758 0.000000 0.475795
v -0.623602 0.000000 0.416678
v -0.661441 0.000000 0.353548
v -0.692910 0.000000 0.287013
v -0.717705 0.000000 0.217714
v -0.735589 0.000000 0.146318
v -0.746389 0.000000 0.073513
v -0.750000 0.000000 0.000000
v -0.746389 0.000000 -0.073513
v -0.735589 0.000000 -0.146318
v -0.717705 0.000000 -0.217714
v -0.692910 0.000000 -0.287013
v -0.661441 0.000000 -0.353548
v -0.623602 0.000000 -0.416678
v -0.579758 0.000000 -0.475795
v -0.530330 0.000000 -0.530330
v -0.475795 0.000000 -0.579758
v -0.416678 0.000000 -0.623602
v -0.353548 0.000000 -0.661441
v -0.287013 0.000000 -0.692910
v -0.217714 0.000000 -0.717705
v -0.146318 0.000000 -0.735589
v -0.073513 0.000000 -0.746389
v 0.000000 0.035553 -0.750000
v 0.073513 0.035553 -0.746389
v 0.146318 0.035553 -0.735589
v 0.217714 0.035553 -0.717705
v 0.287013 0.035553 -0.692910
v 0.353548 0.035553 -0.661441
v 0.416678 0.035553 -0.623602
v 0.475795 0.035553 -0.579758
v 0.530330 0.035553 -0.530330
v 0.579758 0.035553 -0.475795
v 0.623602 0.035553 -0.416678
v 0.661441 0.035553 -0.353548
v 0.692910 0.035553 -0.287013
v 0.717705 0.035553 -0.217714
v 0.735589 0.035553 -0.146318
v 0.746389 0.035553 -0.073513
v 0.750000 0.035553 0.000000
v 0.746389 0.035553 0.073513
v 0.735589 0.035553 0.146318
v 0.717705 0.035553 0.217714
v 0.692910 0.035553 0.287013
v 0.661441 0.035553 0.353548
v 0.623602 0.035553 0.416678
v 0.579758 0.035553 0.475795
v 0.530330 0.035553 0.530330
v 0.475795 0.035553 0.579758
v 0.416678 0.035553 0.623602
v 0.353548 0.035553 0.661441
v 0.287013 0.035553 0.692910
v 0.217714 0.035553 0.717705
v 0.146318 0.035553 0.735589
v 0.073513 0.035553 0.746389
v 0.000000 0.035553 0.750000
v -0.073513 0.035553 0.746389
v -0.146318 0.035553 0.735589
v -0.217714 0.035553 0.717705
v -0.287013 0.035553 0.692910
v -0.353548 0.035553 0.661441
v -0.416678 0.035553 0.623602
v -0.475795 0.035553 0.579758
v -0.530330 0.035553 0.530330
v -0.579758 0.035553 0.475795
v -0.623602 0.035553 0.416678
v -0.661441 0.035553 0.353548
v -0.692910 0.035553 0.287013
v -0.717705 0.035553 0.217714
v -0.735589 0.035553 0.146318
v -0.746389 0.035553 0.073513
v -0.750000 0.035553 0.000000
v -0.746389 0.035553 -0.073513
v -0.735589 0.035553 -0.146318
v -0.717705 0.035553 -0.217714
v -0.692910 0.035553 -0.287013
v -0.661441 0.035553 -0.353548
v -0.623602 0.035553 -0.416678
v -0.579758 0.035553 -0.475795
v -0.530330 0.035553 -0.530330
v -0.475795 0.035553 -0.579758
v -0.416678 0.035553 -0.623602
v -0.353548 0.035553 -0.661441
v -0.287013 0.035553 -0.692910
v -0.217714 0.035553 -0.717705
v -0.146318 0.035553 -0.735589
v -0.073513 0.035553 -0.746389
v 0.000000 0.623001 -0.750000
v 0.073513 0.623001 -0.746389
v 0.146318 0.623001 -0.735589
v 0.217714 0.623001 -0.717705
v 0.287013 0.623001 -0.692910
v 0.353548 0.623001 -0.661441
v 0.416678 0.623001 -0.623602
v 0.475795 0.623001 -0.579758
v 0.530330 0.623001 -0.530330
v 0.579758 0.623001 -0.475795
v 0.623602 0.623001 -0.416678
v 0.661441 0.623001 -0.353548
v 0.692910 0.623001 -0.287013
v 0.717705 0.623001 -0.217714
v 0.735589 0.623001 -0.146318
v 0.746389 0.623001 -0.073513
v 0.750000 0.623001 0.000000
v 0.746389 0.623001 0.073513
v 0.735589 0.623001 0.146318
v 0.717705 0.623001 0.217714
v 0.692910 0.623001 0.287013
v 0.661441 0.623001 0.353548
v 0.623602 0.623001 0.416678
v 0.579758 0.623001 0.475795
v 0.530330 0.623001 0.530330
v 0.475795 0.623001 0.579758
v 0.416678 0.623001 0.623602
v 0.353548 0.623001 0.661441
v 0.287013 0.623001 0.692910
v 0.217714 0.623001 0.717705
v 0.146318 0.623001 0.735589
v 0.073513 0.623001 0.746389
v 0.000000 0.623001 0.750000
v -0.073513 0.623001 0.746389
v -0.146318 0.623001 0.735589
v -0.217714 0.623001 0.717705
v -0.287013 0.623001 0.692910
v -0.353548 0.623001 0.661441
v -0.416678 0.623001 0.623602
v -0.475795 0.623001 0.579758
v -0.530330 0.623001 0.530330
v -0.579758 0.623001 0.475795
v -0.623602 0.623001 0.416678
v -0.661441 0.623001 0.353548
v -0.692910 0.623001 0.287013
v -0.717705 0.623001 0.217714
v -0.735589 0.623001 0.146318
v -0.746389 0.623001 0.073513
v -0.750000 0.623001 0.000000
v -0.746389 0.623001 -0.073513
v -0.735589 0.623001 -0.146318
v -0.717705 0.623001 -0.217714
v -0.692910 0.623001 -0.287013
v -0.661441 0.623001 -0.353548
v -0.623602 0.623001 -0.416678
v -0.579758 0.623001 -0.475795
v -0.530330 0.623001 -0.530330
v -0.475795 0.623001 -0.579758
v -0.416678 0.623001 -0.623602
v -0.353548 0.623001 -0.661441
v -0.287013 0.623001 -0.692910
v -0.217714 0.623001 -0.717705
v -0.146318 0.623001 -0.735589
v -0.073513 0.623001 -0.746389
v 0.047272 0.623001 -0.479959
v 0.047272 0.035553 -0.479959
v 0.094089 0.623001 -0.473015
v 0.094089 0.035553 -0.473015
v 0.139999 0.623001 -0.461515
v 0.139999 0.035553 -0.461515
v 0.184561 0.623001 -0.445570
v 0.184561 0.035553 -0.445570
v 0.227346 0.623001 -0.425335
v 0.227346 0.035553 -0.425335
v 0.267941 0.623001 -0.401003
v 0.267941 0.035553 -0.401003
v 0.305956 0.623001 -0.372809
v 0.305956 0.035553 -0.372809
v 0.341025 0.623001 -0.341025
v 0.341025 0.035553 -0.341025
v 0.372809 0.623001 -0.305956
v 0.372809 0.035553 -0.305956
v 0.401003 0.623001 -0.267941
v 0.401003 0.035553 -0.267941
v 0.425335 0.623001 -0.227346
v 0.425335 0.035553 -0.227346
v 0.445570 0.623001 -0.184561
v 0.445570 0.035553 -0.184561
v 0.461515 0.623001 -0.139999
v 0.461515 0.035553 -0.139999
v 0.473015 0.623001 -0.094089
v 0.473015 0.035553 -0.094089
v 0.479959 0.623001 -0.047272
v 0.479959 0.035553 -0.047272
v 0.482282 0.623001 -0.000000
v 0.482282 0.035553 -0.000000
v 0.479959 0.623001 0.047272
v 0.479959 0.035553 0.047272
v 0.473015 0.623001 0.094088
v 0.473015 0.035553 0.094088
v 0.461515 0.623001 0.139999
v 0.461515 0.035553 0.139999
v 0.445570 0.623001 0.184561
v 0.445570 0.035553 0.184561
v 0.425335 0.623001 0.227346
v 0.425335 0.035553 0.227346
v 0.401003 0.623001 0.267941
v 0.401003 0.035553 0.267941
v 0.372809 0.623001 0.305956
v 0.372809 0.035553 0.305956
v 0.341025 0.623001 0.341025
v 0.341025 0.035553 0.341025
v 0.305956 0.623001 0.372809
v 0.305956 0.035553 0.372809
v 0.267941 0.623001 0.401003
v 0.267941 0.035553 0.401003
v 0.227346 0.623001 0.425335
v 0.227346 0.035553 0.425335
v 0.184561 0.623001 0.445570
v 0.184561 0.035553 0.445570
v 0.139999 0.623001 0.461515
v 0.139999 0.035553 0.461515
v 0.094089 0.623001 0.473015
v 0.094089 0.035553 0.473015
v 0.047272 0.623001 0.479959
v 0.047272 0.035553 0.479959
v 0.000000 0.623001 0.482282
v 0.000000 0.035553 0.482282
v -0.047272 0.623001 0.479959
v -0.047272 0.035553 0.479959
v -0.094088 0.623001 0.473015
v -0.094088 0.035553 0.473015
v -0.139999 0.623001 0.461515
v -0.139999 0.035553 0.461515
v -0.184561 0.623001 0.445570
v -0.184561 0.035553 0.445570
v -0.227346 0.623001 0.425335
v -0.227346 0.035553 0.425335
v -0.267941 0.623001 0.401003
v -0.267941 0.035553 0.401003
v -0.305956 0.623001 0.372809
v -0.305956 0.035553 0.372809
v -0.341025 0.623001 0.341025
v -0.341025 0.035553 0.341025
v -0.372809 0.623001 0.305956
v -0.372809 0.035553 0.305956
v -0.401003 0.623001 0.267941
v -0.401003 0.035553 0.267941
v -0.425334 0.623001 0.227346
v -0.425334 0.035553 0.227346
v -0.445570 0.623001 0.184561
v -0.445570 0.035553 0.184561
v -0.461515 0.623001 0.139999
v -0.461515 0.035553 0.139999
v -0.473015 0.623001 0.094088
v -0.473015 0.035553 0.094088
v -0.479959 0.623001 0.047272
v -0.479959 0.035553 0.047272
v -0.482282 0.623001 -0.000000
v -0.482282 0.035553 -0.000000
v -0.479959 0.623001 -0.047272
v -0.479959 0.035553 -0.047272
v -0.473015 0.623001 -0.094089
v -0.473015 0.035553 -0.094089
v -0.461515 0.623001 -0.139999
v -0.461515 0.035553 -0.139999
v -0.445570 0.623001 -0.184561
v -0.445570 0.035553 -0.184561
v -0.425334 0.623001 -0.227346
v -0.425334 0.035553 -0.227346
v -0.401003 0.623001 -0.267941
v -0.401003 0.035553 -0.267941
v -0.372809 0.623001 -0.305956
v -0.372809 0.035553 -0.305956
v -0.341025 0.623001 -0.341025
v -0.341025 0.035553 -0.341025
v -0.305956 0.623001 -0.372809
v -0.305956 0.035553 -0.372809
v -0.267941 0.623001 -0.401003
v -0.267941 0.035553 -0.401003
v -0.227346 0.623001 -0.425335
v -0.227346 0.035553 -0.425335
v -0.184561 0.623001 -0.445570
v -0.184561 0.035553 -0.445570
v -0.139999 0.623001 -0.461515
v -0.139999 0.035553 -0.461515
v -0.094088 0.623001 -0.473015
v -0.094088 0.035553 -0.473015
v -0.047272 0.623001 -0.479959
v -0.047272 0.035553 -0.479959
v 0.000000 0.035553 -0.482282
v 0.000000 0.623001 -0.482282
v 0.000000 0.686678 -0.750000
v 0.073513 0.686678 -0.746389
v 0.146318 0.686678 -0.735589
v 0.217714 0.686678 -0.717705
v 0.287013 0.686678 -0.692910
v 0.353548 0.686678 -0.661441
v 0.416678 0.686678 -0.623602
v 0.475795 0.686678 -0.579758
v 0.530330 0.686678 -0.530330
v 0.579758 0.686678 -0.475795
v 0.623602 0.686678 -0.416678
v 0.661441 0.686678 -0.353548
v 0.692910 0.686678 -0.287013
v 0.717705 0.686678 -0.217714
v 0.735589 0.686678 -0.146318
v 0.746389 0.686678 -0.073513
v 0.750000 0.686678 0.000000
v 0.746389 0.686678 0.073513
v 0.735589 0.686678 0.146318
v 0.717705 0.686678 0.217714
v 0.692910 0.686678 0.287013
v 0.661441 0.686678 0.353548
v 0.623602 0.686678 0.416678
v 0.579758 0.686678 0.475795
v 0.530330 0.686678 0.530330
v 0.475795 0.686678 0.579758
v 0.416678 0.686678 0.623602
v 0.353548 0.686678 0.661441
v 0.287013 0.686678 0.692910
v 0.217714 0.686678 0.717705
v 0.146318 0.686678 0.735589
v 0.073513 0.686678 0.746389
v 0.000000 0.686678 0.750000
v -0.073513 0.686678 0.746389
v -0.146318 0.686678 0.735589
v -0.217714 0.686678 0.717705
v -0.287013 0.686678 0.692910
v -0.353548 0.686678 0.661441
v -0.416678 0.686678 0.623602
v -0.475795 0.686678 0.579758
v -0.530330 0.686678 0.530330
v -0.579758 0.686678 0.475795
v -0.623602 0.686678 0.416678
v -0.661441 0.686678 0.353548
v -0.692910 0.686678 0.287013
v -0.717705 0.686678 0.217714
v -0.735589 0.686678 0.146318
v -0.746389 0.686678 0.073513
v -0.750000 0.686678 0.000000
v -0.746389 0.686678 -0.073513
v -0.735589 0.686678 -0.146318
v -0.717705 0.686678 -0.217714
v -0.692910 0.686678 -0.287013
v -0.661441 0.686678 -0.353548
v -0.623602 0.686678 -0.416678
v -0.579758 0.686678 -0.475795
v -0.530330 0.686678 -0.530330
v -0.475795 0.686678 -0.579758
v -0.416678 0.686678 -0.623602
v -0.353548 0.686678 -0.661441
v -0.287013 0.686678 -0.692910
v -0.217714 0.686678 -0.717705
v -0.146318 0.686678 -0.735589
v -0.073513 0.686678 -0.746389
v 0.000000 4.387865 -0.750000
v 0.073513 4.387865 -0.746389
v 0.146318 4.387865 -0.735589
v 0.217714 4.387865 -0.717705
v 0.287013 4.387865 -0.692910
v 0.353548 4.387865 -0.661441
v 0.416678 4.387865 -0.623602
v 0.475795 4.387865 -0.579758
v 0.530330 4.387865 -0.530330
v 0.579758 4.387865 -0.475795
v 0.623602 4.387865 -0.416678
v 0.661441 4.387865 -0.353548
v 0.692910 4.387865 -0.287013
v 0.717705 4.387865 -0.217714
v 0.735589 4.387865 -0.146318
v 0.746389 4.387865 -0.073513
v 0.750000 4.387865 0.000000
v 0.746389 4.387865 0.073513
v 0.735589 4.387865 0.146318
v 0.717705 4.387865 0.217714
v 0.692910 4.387865 0.287013
v 0.661441 4.387865 0.353548
v 0.623602 4.387865 0.416678
v 0.579758 4.387865 0.475795
v 0.530330 4.387865 0.530330
v 0.475795 4.387865 0.579758
v 0.416678 4.387865 0.623602
v 0.353548 4.387865 0.661441
v 0.287013 4.387865 0.692910
v 0.217714 4.387865 0.717705
v 0.146318 4.387865 0.735589
v 0.073513 4.387865 0.746389
v 0.000000 4.387865 0.750000
v -0.073513 4.387865 0.746389
v -0.146318 4.387865 0.735589
v -0.217714 4.387865 0.717705
v -0.287013 4.387865 0.692910
v -0.353548 4.387865 0.661441
v -0.416678 4.387865 0.623602
v -0.475795 4.387865 0.579758
v -0.530330 4.387865 0.530330
v -0.579758 4.387865 0.475795
v -0.623602 4.387865 0.416678
v -0.661441 4.387865 0.353548
v -0.692910 4.387865 0.287013
v -0.717705 4.387865 0.217714
v -0.735589 4.387865 0.146318
v -0.746389 4.387865 0.073513
v -0.750000 4.387865 0.000000
v -0.746389 4.387865 -0.073513
v -0.735589 4.387865 -0.146318
v -0.717705 4.387865 -0.217714
v -0.692910 4.387865 -0.287013
v -0.661441 4.387865 -0.353548
v -0.623602 4.387865 -0.416678
v -0.579758 4.387865 -0.475795
v -0.530330 4.387865 -0.530330
v -0.475795 4.387865 -0.579758
v -0.416678 4.387865 -0.623602
v -0.353548 4.387865 -0.661441
v -0.287013 4.387865 -0.692910
v -0.217714 4.387865 -0.717705
v -0.146318 4.387865 -0.735589
v -0.073513 4.387865 -0.746389
v 0.089342 4.500000 -0.907109
v -0.000000 4.500000 -0.911499
v -0.000000 4.387865 -0.911499
v 0.177825 4.500000 -0.893984
v 0.264594 4.500000 -0.872250
v 0.348815 4.500000 -0.842115
v 0.429677 4.500000 -0.803870
v 0.506401 4.500000 -0.757883
v 0.578249 4.500000 -0.704598
v 0.644527 4.500000 -0.644527
v 0.704598 4.500000 -0.578249
v 0.757883 4.500000 -0.506402
v 0.803870 4.500000 -0.429677
v 0.842115 4.500000 -0.348815
v 0.872250 4.500000 -0.264594
v 0.893984 4.500000 -0.177825
v 0.907109 4.500000 -0.089342
v 0.911499 4.500000 0.000000
v 0.907109 4.500000 0.089342
v 0.893984 4.500000 0.177825
v 0.872250 4.500000 0.264594
v 0.842115 4.500000 0.348815
v 0.803870 4.500000 0.429677
v 0.757883 4.500000 0.506402
v 0.704598 4.500000 0.578249
v 0.644527 4.500000 0.644527
v 0.578249 4.500000 0.704598
v 0.506401 4.500000 0.757883
v 0.429677 4.500000 0.803870
v 0.348815 4.500000 0.842115
v 0.264594 4.500000 0.872250
v 0.177825 4.500000 0.893984
v 0.089342 4.500000 0.907110
v -0.000000 4.500000 0.911499
v -0.089343 4.500000 0.907110
v -0.177825 4.500000 0.893984
v -0.264594 4.500000 0.872250
v -0.348815 4.500000 0.842115
v -0.429677 4.500000 0.803870
v -0.506402 4.500000 0.757883
v -0.578249 4.500000 0.704598
v -0.644527 4.500000 0.644527
v -0.704598 4.500000 0.578249
v -0.757883 4.500000 0.506402
v -0.803870 4.500000 0.429677
v -0.842115 4.500000 0.348815
v -0.872250 4.500000 0.264594
v -0.893984 4.500000 0.177825
v -0.907109 4.500000 0.089342
v -0.911499 4.500000 0.000000
v -0.907109 4.500000 -0.089342
v -0.893984 4.500000 -0.177825
v -0.872250 4.500000 -0.264594
v -0.842115 4.500000 -0.348815
v -0.803870 4.500000 -0.429677
v -0.757883 4.500000 -0.506402
v -0.704598 4.500000 -0.578249
v -0.644527 4.500000 -0.644527
v -0.578249 4.500000 -0.704598
v -0.506402 4.500000 -0.757883
v -0.429677 4.500000 -0.803870
v -0.348815 4.500000 -0.842115
v -0.264594 4.500000 -0.872250
v -0.177825 4.500000 -0.893984
v -0.089343 4.500000 -0.907109
v 0.089342 4.387865 -0.907109
v 0.177825 4.387865 -0.893984
v 0.264594 4.387865 -0.872250
v 0.348815 4.387865 -0.842115
v 0.429677 4.387865 -0.803870
v 0.506401 4.387865 -0.757883
v 0.578249 4.387865 -0.704598
v 0.644527 4.387865 -0.644527
v 0.704598 4.387865 -0.578249
v 0.757883 4.387865 -0.506402
v 0.803870 4.387865 -0.429677
v 0.842115 4.387865 -0.348815
v 0.872250 4.387865 -0.264594
v 0.893984 4.387865 -0.177825
v 0.907109 4.387865 -0.089342
v 0.911499 4.387865 0.000000
v 0.907109 4.387865 0.089342
v 0.893984 4.387865 0.177825
v 0.872250 4.387865 0.264594
v 0.842115 4.387865 0.348815
v 0.803870 4.387865 0.429677
v 0.757883 4.387865 0.506402
v 0.704598 4.387865 0.578249
v 0.644527 4.387865 0.644527
v 0.578249 4.387865 0.704598
v 0.506401 4.387865 0.757883
v 0.429677 4.387865 0.803870
v 0.348815 4.387865 0.842115
v 0.264594 4.387865 0.872250
v 0.177825 4.387865 0.893984
v 0.089342 4.387865 0.907110
v -0.000000 4.387865 0.911499
v -0.089343 4.387865 0.907110
v -0.177825 4.387865 0.893984
v -0.264594 4.387865 0.872250
v -0.348815 4.387865 0.842115
v -0.429677 4.387865 0.803870
v -0.506402 4.387865 0.757883
v -0.578249 4.387865 0.704598
v -0.644527 4.387865 0.644527
v -0.704598 4.387865 0.578249
v -0.757883 4.387865 0.506402
v -0.803870 4.387865 0.429677
v -0.842115 4.387865 0.348815
v -0.872250 4.387865 0.264594
v -0.893984 4.387865 0.177825
v -0.907109 4.387865 0.089342
v -0.911499 4.387865 0.000000
v -0.907109 4.387865 -0.089342
v -0.893984 4.387865 -0.177825
v -0.872250 4.387865 -0.264594
v -0.842115 4.387865 -0.348815
v -0.803870 4.387865 -0.429677
v -0.757883 4.387865 -0.506402
v -0.704598 4.387865 -0.578249
v -0.644527 4.387865 -0.644527
v -0.578249 4.387865 -0.704598
v -0.506402 4.387865 -0.757883
v -0.429677 4.387865 -0.803870
v -0.348815 4.387865 -0.842115
v -0.264594 4.387865 -0.872250
v -0.177825 4.387865 -0.893984
v -0.089343 4.387865 -0.907109
v 0.071331 4.387865 -0.724237
v 0.071331 0.686678 -0.724237
v 0.141975 4.387865 -0.713758
v 0.141975 0.686678 -0.713758
v 0.211252 4.387865 -0.696405
v 0.211252 0.686678 -0.696405
v 0.278494 4.387865 -0.672345
v 0.278494 0.686678 -0.672345
v 0.343055 4.387865 -0.641810
v 0.343055 0.686678 -0.641810
v 0.404311 4.387865 -0.605095
v 0.404311 0.686678 -0.605095
v 0.461674 4.387865 -0.562551
v 0.461674 0.686678 -0.562551
v 0.514591 4.387865 -0.514591
v 0.514591 0.686678 -0.514591
v 0.562551 4.387865 -0.461674
v 0.562551 0.686678 -0.461674
v 0.605095 4.387865 -0.404311
v 0.605095 0.686678 -0.404311
v 0.641810 4.387865 -0.343055
v 0.641810 0.686678 -0.343055
v 0.672345 4.387865 -0.278494
v 0.672345 0.686678 -0.278494
v 0.696405 4.387865 -0.211252
v 0.696405 0.686678 -0.211252
v 0.713758 4.387865 -0.141975
v 0.713758 0.686678 -0.141975
v 0.724237 4.387865 -0.071331
v 0.724237 0.686678 -0.071331
v 0.724237 4.387865 0.071331
v 0.724237 0.686678 0.071331
v 0.713758 4.387865 0.141975
v 0.713758 0.686678 0.141975
v 0.696405 4.387865 0.211252
v 0.696405 0.686678 0.211252
v 0.672345 4.387865 0.278494
v 0.672345 0.686678 0.278494
v 0.641810 4.387865 0.343055
v 0.641810 0.686678 0.343055
v 0.605095 4.387865 0.404311
v 0.605095 0.686678 0.404311
v 0.562551 4.387865 0.461674
v 0.562551 0.686678 0.461674
v 0.514591 4.387865 0.514591
v 0.514591 0.686678 0.514591
v 0.461674 4.387865 0.562551
v 0.461674 0.686678 0.562551
v 0.404311 4.387865 0.605095
v 0.404311 0.686678 0.605095
v 0.343055 4.387865 0.641810
v 0.343055 0.686678 0.641810
v 0.278494 4.387865 0.672345
v 0.278494 0.686678 0.672345
v 0.211252 4.387865 0.696405
v 0.211252 0.686678 0.696405
v 0.141975 4.387865 0.713758
v 0.141975 0.686678 0.713758
v 0.071331 4.387865 0.724237
v 0.071331 0.686678 0.724237
v 0.000000 4.387865 0.727741
v 0.000000 0.686678 0.727741
v -0.071331 4.387865 0.724237
v -0.071331 0.686678 0.724237
v -0.141975 4.387865 0.713758
v -0.141975 0.686678 0.713758
v -0.211252 4.387865 0.696405
v -0.211252 0.686678 0.696405
v -0.278494 4.387865 0.672345
v -0.278494 0.686678 0.672345
v -0.343055 4.387865 0.641810
v -0.343055 0.686678 0.641810
v -0.404311 4.387865 0.605095
v -0.404311 0.686678 0.605095
v -0.461674 4.387865 0.562551
v -0.461674 0.686678 0.562551
v -0.514591 4.387865 0.514591
v -0.514591 0.686678 0.514591
v -0.562551 4.387865 0.461674
v -0.562551 0.686678 0.461674
v -0.605094 4.387865 0.404311
v -0.605094 0.686678 0.404311
v -0.641810 4.387865 0.343055
v -0.641810 0.686678 0.343055
v -0.672345 4.387865 0.278494
v -0.672345 0.686678 0.278494
v -0.696405 4.387865 0.211252
v -0.696405 0.686678 0.211252
v -0.713758 4.387865 0.141975
v -0.713758 0.686678 0.141975
v -0.724237 4.387865 0.071331
v -0.724237 0.686678 0.071331
v -0.724237 4.387865 -0.071331
v -0.724237 0.686678 -0.071331
v -0.713758 4.387865 -0.141975
v -0.713758 0.686678 -0.141975
v -0.696405 4.387865 -0.211252
v -0.696405 0.686678 -0.211252
v -0.672345 4.387865 -0.278494
v -0.672345 0.686678 -0.278494
v -0.641810 4.387865 -0.343055
v -0.641810 0.686678 -0.343055
v -0.605094 4.387865 -0.404311
v -0.605094 0.686678 -0.404311
v -0.562551 4.387865 -0.461674
v -0.562551 0.686678 -0.461674
v -0.514591 4.387865 -0.514591
v -0.514591 0.686678 -0.514591
v -0.461674 4.387865 -0.562551
v -0.461674 0.686678 -0.562551
v -0.404311 4.387865 -0.605095
v -0.404311 0.686678 -0.605095
v -0.343055 4.387865 -0.641810
v -0.343055 0.686678 -0.641810
v -0.278494 4.387865 -0.672345
v -0.278494 0.686678 -0.672345
v -0.211252 4.387865 -0.696405
v -0.211252 0.686678 -0.696405
v -0.141975 4.387865 -0.713758
v -0.141975 0.686678 -0.713758
v -0.071331 4.387865 -0.724237
v -0.071331 0.686678 -0.724237
v 0.000000 0.686678 -0.727741
v 0.000000 4.387865 -0.727741
v -0.000000 0.000000 0.000000
vn -0.0000 1.0000 -0.0000
vn -0.0000 -1.0000 -0.0000
vn -0.0980 -0.0000 -0.9952
vn -0.0000 -0.0000 -1.0000
vn -0.1951 -0.0000 -0.9808
vn -0.2903 -0.0000 -0.9569
vn -0.3827 -0.0000 -0.9239
vn -0.4714 -0.0000 -0.8819
vn -0.5556 -0.0000 -0.8315
vn -0.6344 -0.0000 -0.7730
vn -0.7071 -0.0000 -0.7071
vn -0.7730 -0.0000 -0.6344
vn -0.8315 -0.0000 -0.5556
vn -0.8819 -0.0000 -0.4714
vn -0.9239 -0.0000 -0.3827
vn -0.9569 -0.0000 -0.2903
vn -0.9808 -0.0000 -0.1951
vn -0.9952 -0.0000 -0.0980
vn -1.0000 -0.0000 -0.0000
vn -0.9952 -0.0000 0.0980
vn -0.9808 -0.0000 0.1951
vn -0.9569 -0.0000 0.2903
vn -0.9239 -0.0000 0.3827
vn -0.8819 -0.0000 0.4714
vn -0.8315 -0.0000 0.5556
vn -0.7730 -0.0000 0.6344
vn -0.7071 -0.0000 0.7071
vn -0.6344 -0.0000 0.7730
vn -0.5556 -0.0000 0.8315
vn -0.4714 -0.0000 0.8819
vn -0.3827 -0.0000 0.9239
vn -0.2903 -0.0000 0.9569
vn -0.1951 -0.0000 0.9808
vn -0.0980 -0.0000 0.9952
vn -0.0000 -0.0000 1.0000
vn 0.0980 -0.0000 0.9952
vn 0.1951 -0.0000 0.9808
vn 0.2903 -0.0000 0.9569
vn 0.3827 -0.0000 0.9239
vn 0.4714 -0.0000 0.8819
vn 0.5556 -0.0000 0.8315
vn 0.6344 -0.0000 0.7730
vn 0.7071 -0.0000 0.7071
vn 0.7730 -0.0000 0.6344
vn 0.8315 -0.0000 0.5556
vn 0.8819 -0.0000 0.4714
vn 0.9239 -0.0000 0.3827
vn 0.9569 -0.0000 0.2903
vn 0.9808 -0.0000 0.1951
vn 0.9952 -0.0000 0.0980
vn 1.0000 -0.0000 -0.0000
vn 0.9952 -0.0000 -0.0980
vn 0.9808 -0.0000 -0.1951
vn 0.9569 -0.0000 -0.2903
vn 0.9239 -0.0000 -0.3827
vn 0.8819 -0.0000 -0.4714
vn 0.8315 -0.0000 -0.5556
vn 0.7730 -0.0000 -0.6344
vn 0.7071 -0.0000 -0.7071
vn 0.6344 -0.0000 -0.7730
vn 0.5556 -0.0000 -0.8315
vn 0.4714 -0.0000 -0.8819
vn 0.3827 -0.0000 -0.9239
vn 0.2903 -0.0000 -0.9569
vn 0.1951 -0.0000 -0.9808
vn 0.0980 -0.0000 -0.9952
vn -0.9967 -0.0000 -0.0817
vn -0.9967 -0.0000 0.0817
vn 0.9967 -0.0000 0.0817
vn 0.9967 -0.0000 -0.0817
vn -0.9988 -0.0000 0.0491
vn 0.9988 -0.0000 -0.0491
vn -0.9892 -0.0000 -0.1467
vn -0.9892 -0.0000 0.1467
vn 0.9892 -0.0000 0.1467
vn 0.9892 -0.0000 -0.1467
vn -0.9988 -0.0000 -0.0491
vn 0.9988 -0.0000 0.0491
vt 0.095024 0.112801
vt 0.098295 0.112801
vt 0.099053 0.112801
vt 0.089588 0.110193
vt 0.087917 0.110193
vt 0.088417 0.110193
vt 0.086845 0.112801
vt 0.087127 0.112801
vt 0.093356 0.112801
vt 0.092543 0.112801
vt 0.097065 0.110193
vt 0.098295 0.110193
vt 0.097715 0.110193
vt 0.088980 0.110193
vt 0.090051 0.110193
vt 0.099053 0.110193
vt 0.098339 0.110193
vt 0.090562 0.110193
vt 0.089602 0.110193
vt 0.102130 0.112801
vt 0.101631 0.112801
vt 0.099772 0.110193
vt 0.098931 0.110193
vt 0.099772 0.112801
vt 0.090275 0.110193
vt 0.091117 0.110193
vt 0.087486 0.112801
vt 0.091753 0.112801
vt 0.099485 0.110193
vt 0.100446 0.110193
vt 0.090995 0.110193
vt 0.091709 0.110193
vt 0.101068 0.110193
vt 0.099997 0.110193
vt 0.092333 0.110193
vt 0.091753 0.110193
vt 0.101068 0.112801
vt 0.100460 0.110193
vt 0.101631 0.110193
vt 0.100446 0.112801
vt 0.092543 0.110193
vt 0.092982 0.110193
vt 0.087917 0.112801
vt 0.090995 0.112801
vt 0.100871 0.110193
vt 0.102130 0.110193
vt 0.093356 0.110193
vt 0.093652 0.110193
vt 0.102562 0.110193
vt 0.101226 0.110193
vt 0.094335 0.110193
vt 0.094186 0.110193
vt 0.100446 0.112801
vt 0.102920 0.110193
vt 0.101521 0.110193
vt 0.101068 0.112801
vt 0.088417 0.112801
vt 0.095024 0.110193
vt 0.090275 0.112801
vt 0.101754 0.110193
vt 0.103203 0.110193
vt 0.103407 0.110193
vt 0.101921 0.110193
vt 0.099772 0.112801
vt 0.103530 0.110193
vt 0.102023 0.110193
vt 0.101631 0.112801
vt 0.088980 0.112801
vt 0.089602 0.112801
vt 0.102057 0.110193
vt 0.103571 0.110193
vt 0.099053 0.112801
vt 0.102130 0.112801
vt 0.089602 0.112801
vt 0.088980 0.112801
vt 0.098295 0.112801
vt 0.102562 0.112801
vt 0.090275 0.112801
vt 0.088417 0.112801
vt 0.097505 0.112801
vt 0.102920 0.112801
vt 0.090995 0.112801
vt 0.087917 0.112801
vt 0.094335 0.008976
vt 0.095024 0.008149
vt 0.094335 0.008149
vt 0.093652 0.008976
vt 0.093652 0.008149
vt 0.092982 0.008976
vt 0.092982 0.008149
vt 0.092333 0.008976
vt 0.092333 0.008149
vt 0.091709 0.008976
vt 0.091709 0.008149
vt 0.091117 0.008976
vt 0.091117 0.008149
vt 0.090562 0.008976
vt 0.090562 0.008149
vt 0.090051 0.008976
vt 0.090051 0.008149
vt 0.089588 0.008976
vt 0.089588 0.008149
vt 0.089176 0.008976
vt 0.089176 0.008149
vt 0.088822 0.008976
vt 0.088822 0.008149
vt 0.088526 0.008976
vt 0.088526 0.008149
vt 0.088294 0.008976
vt 0.088294 0.008149
vt 0.088126 0.008976
vt 0.088126 0.008149
vt 0.088025 0.008976
vt 0.088025 0.008149
vt 0.087991 0.008976
vt 0.087991 0.008149
vt 0.095024 0.008976
vt 0.095713 0.008976
vt 0.095713 0.008149
vt 0.096396 0.008976
vt 0.096396 0.008149
vt 0.097065 0.008976
vt 0.097065 0.008149
vt 0.097715 0.008976
vt 0.097715 0.008149
vt 0.098339 0.008976
vt 0.098339 0.008149
vt 0.098931 0.008976
vt 0.098931 0.008149
vt 0.099485 0.008976
vt 0.099485 0.008149
vt 0.099997 0.008976
vt 0.099997 0.008149
vt 0.100460 0.008976
vt 0.100460 0.008149
vt 0.100871 0.008976
vt 0.100871 0.008149
vt 0.101226 0.008976
vt 0.101226 0.008149
vt 0.101521 0.008976
vt 0.101521 0.008149
vt 0.101754 0.008976
vt 0.101754 0.008149
vt 0.101921 0.008976
vt 0.101921 0.008149
vt 0.102023 0.008976
vt 0.102023 0.008149
vt 0.102057 0.008976
vt 0.102057 0.008149
vt 0.093652 0.022638
vt 0.093711 0.022638
vt 0.094142 0.022638
vt 0.098784 0.008976
vt 0.093711 0.008976
vt 0.094142 0.008976
vt 0.092333 0.022638
vt 0.092982 0.022638
vt 0.099012 0.008976
vt 0.094581 0.008976
vt 0.092892 0.022638
vt 0.093293 0.022638
vt 0.099202 0.008976
vt 0.091709 0.022638
vt 0.092511 0.022638
vt 0.099351 0.008976
vt 0.091117 0.022638
vt 0.092155 0.022638
vt 0.099459 0.008976
vt 0.090051 0.022638
vt 0.090562 0.022638
vt 0.099524 0.008976
vt 0.089588 0.022638
vt 0.091826 0.022638
vt 0.099546 0.008976
vt 0.089176 0.022638
vt 0.091528 0.022638
vt 0.088822 0.022638
vt 0.091264 0.022638
vt 0.088526 0.022638
vt 0.091036 0.022638
vt 0.090696 0.022638
vt 0.090846 0.022638
vt 0.088126 0.022638
vt 0.088294 0.022638
vt 0.090523 0.022638
vt 0.090588 0.022638
vt 0.087991 0.022638
vt 0.088025 0.022638
vt 0.098520 0.008976
vt 0.090502 0.022638
vt 0.098222 0.008976
vt 0.097893 0.008976
vt 0.097536 0.008976
vt 0.097156 0.008976
vt 0.095713 0.022638
vt 0.095024 0.022638
vt 0.096754 0.008976
vt 0.096396 0.022638
vt 0.095467 0.022638
vt 0.096337 0.008976
vt 0.096337 0.022638
vt 0.095906 0.022638
vt 0.095906 0.008976
vt 0.097065 0.022638
vt 0.096754 0.022638
vt 0.095467 0.008976
vt 0.098339 0.022638
vt 0.097715 0.022638
vt 0.098931 0.022638
vt 0.097156 0.022638
vt 0.097893 0.022638
vt 0.097536 0.022638
vt 0.099997 0.022638
vt 0.099485 0.022638
vt 0.100460 0.022638
vt 0.098222 0.022638
vt 0.094581 0.022638
vt 0.093293 0.008976
vt 0.092892 0.008976
vt 0.092511 0.008976
vt 0.092155 0.008976
vt 0.091826 0.008976
vt 0.091528 0.008976
vt 0.091264 0.008976
vt 0.091036 0.008976
vt 0.090846 0.008976
vt 0.090696 0.008976
vt 0.090588 0.008976
vt 0.090523 0.008976
vt 0.090502 0.008976
vt 0.098520 0.022638
vt 0.098784 0.022638
vt 0.099012 0.022638
vt 0.099202 0.022638
vt 0.099351 0.022638
vt 0.099459 0.022638
vt 0.099524 0.022638
vt 0.099546 0.022638
vt 0.094335 0.022638
vt 0.100871 0.022638
vt 0.101226 0.022638
vt 0.101521 0.022638
vt 0.101754 0.022638
vt 0.101921 0.022638
vt 0.102023 0.022638
vt 0.102057 0.022638
vt 0.094335 0.024118
vt 0.093652 0.024118
vt 0.092982 0.024118
vt 0.092333 0.024118
vt 0.091709 0.024118
vt 0.091117 0.024118
vt 0.090562 0.024118
vt 0.090051 0.024118
vt 0.089588 0.024118
vt 0.089176 0.024118
vt 0.088822 0.024118
vt 0.088526 0.024118
vt 0.088294 0.024118
vt 0.088126 0.024118
vt 0.088025 0.024118
vt 0.087991 0.024118
vt 0.095024 0.024118
vt 0.095713 0.024118
vt 0.096396 0.024118
vt 0.097065 0.024118
vt 0.097715 0.024118
vt 0.098339 0.024118
vt 0.098931 0.024118
vt 0.099485 0.024118
vt 0.099997 0.024118
vt 0.100460 0.024118
vt 0.100871 0.024118
vt 0.101226 0.024118
vt 0.101521 0.024118
vt 0.101754 0.024118
vt 0.101921 0.024118
vt 0.102023 0.024118
vt 0.102057 0.024118
vt 0.088126 0.110193
vt 0.088494 0.110193
vt 0.088331 0.110193
vt 0.091233 0.024118
vt 0.098815 0.024118
vt 0.099353 0.024118
vt 0.088526 0.110193
vt 0.088294 0.110193
vt 0.091807 0.024118
vt 0.095713 0.110193
vt 0.099849 0.024118
vt 0.101815 0.024118
vt 0.088822 0.110193
vt 0.088719 0.110193
vt 0.092412 0.024118
vt 0.096355 0.110193
vt 0.095693 0.110193
vt 0.100299 0.024118
vt 0.089176 0.110193
vt 0.089006 0.110193
vt 0.093043 0.024118
vt 0.096396 0.110193
vt 0.087991 0.110193
vt 0.088025 0.110193
vt 0.100698 0.024118
vt 0.101815 0.110193
vt 0.089350 0.110193
vt 0.093693 0.024118
vt 0.097005 0.110193
vt 0.101042 0.024118
vt 0.089749 0.110193
vt 0.094355 0.024118
vt 0.097635 0.110193
vt 0.101328 0.024118
vt 0.090199 0.110193
vt 0.098241 0.110193
vt 0.101554 0.024118
vt 0.091233 0.110193
vt 0.090695 0.110193
vt 0.098815 0.110193
vt 0.101717 0.024118
vt 0.099353 0.110193
vt 0.091807 0.110193
vt 0.099849 0.110193
vt 0.092412 0.110193
vt 0.100698 0.110193
vt 0.100299 0.110193
vt 0.093043 0.110193
vt 0.093693 0.110193
vt 0.101328 0.110193
vt 0.101042 0.110193
vt 0.094355 0.110193
vt 0.101554 0.110193
vt 0.101717 0.110193
vt 0.098241 0.024118
vt 0.095862 0.110193
vt 0.095862 0.112801
vt 0.096691 0.110193
vt 0.096691 0.112801
vt 0.097505 0.110193
vt 0.102562 0.112801
vt 0.102920 0.112801
vt 0.103203 0.112801
vt 0.103407 0.112801
vt 0.103530 0.112801
vt 0.103571 0.112801
vt 0.103203 0.112801
vt 0.097505 0.112801
vt 0.096691 0.112801
vt 0.095862 0.112801
vt 0.095024 0.112801
vt 0.094186 0.112801
vt 0.093356 0.112801
vt 0.092543 0.112801
vt 0.091753 0.112801
vt 0.087486 0.110193
vt 0.087127 0.110193
vt 0.086845 0.110193
vt 0.086641 0.110193
vt 0.086641 0.112801
vt 0.086518 0.110193
vt 0.086518 0.112801
vt 0.086477 0.110193
vt 0.086477 0.112801
vt 0.086845 0.112801
vt 0.087127 0.112801
vt 0.087486 0.112801
vt 0.094186 0.112801
vt 0.265853 0.908239
vt 0.250000 0.086673
vt 0.265853 0.086673
vt 0.281705 0.908239
vt 0.281705 0.086673
vt 0.297558 0.908239
vt 0.297558 0.086673
vt 0.313411 0.908239
vt 0.313411 0.086673
vt 0.329264 0.908239
vt 0.329264 0.086673
vt 0.345116 0.908239
vt 0.345116 0.086673
vt 0.360969 0.908239
vt 0.360969 0.086673
vt 0.376822 0.908239
vt 0.376822 0.086673
vt 0.392674 0.908239
vt 0.392674 0.086673
vt 0.408527 0.908239
vt 0.408527 0.086673
vt 0.424380 0.908239
vt 0.424380 0.086673
vt 0.440233 0.908239
vt 0.440233 0.086673
vt 0.456085 0.908239
vt 0.456085 0.086673
vt 0.471938 0.908239
vt 0.471938 0.086673
vt 0.487791 0.908239
vt 0.487791 0.086673
vt 0.528062 0.908239
vt 0.512209 0.086673
vt 0.528062 0.086673
vt 0.543915 0.908239
vt 0.543915 0.086673
vt 0.559767 0.908239
vt 0.559767 0.086673
vt 0.575620 0.908239
vt 0.575620 0.086673
vt 0.591473 0.908239
vt 0.591473 0.086673
vt 0.607326 0.908239
vt 0.607326 0.086673
vt 0.623178 0.908239
vt 0.623178 0.086673
vt 0.639031 0.908239
vt 0.639031 0.086673
vt 0.654884 0.908239
vt 0.654884 0.086673
vt 0.670736 0.908239
vt 0.670736 0.086673
vt 0.686589 0.908239
vt 0.686589 0.086673
vt 0.702442 0.908239
vt 0.702442 0.086673
vt 0.718295 0.908239
vt 0.718295 0.086673
vt 0.734147 0.908239
vt 0.734147 0.086673
vt 0.750000 0.908239
vt 0.750000 0.086673
vt 0.765853 0.908239
vt 0.765853 0.086673
vt 0.781705 0.908239
vt 0.781705 0.086673
vt 0.797558 0.908239
vt 0.797558 0.086673
vt 0.813411 0.908239
vt 0.813411 0.086673
vt 0.829264 0.908239
vt 0.829264 0.086673
vt 0.845116 0.908239
vt 0.845116 0.086673
vt 0.860969 0.908239
vt 0.860969 0.086673
vt 0.876822 0.908239
vt 0.876822 0.086673
vt 0.892674 0.908239
vt 0.892674 0.086673
vt 0.908527 0.908239
vt 0.908527 0.086673
vt 0.924380 0.908239
vt 0.924380 0.086673
vt 0.940233 0.908239
vt 0.940233 0.086673
vt 0.956085 0.908239
vt 0.956085 0.086673
vt 0.971938 0.908239
vt 0.971938 0.086673
vt 0.987791 0.908239
vt 0.987791 0.086673
vt 0.028062 0.908239
vt 0.012209 0.086673
vt 0.028062 0.086673
vt 0.043915 0.908239
vt 0.043915 0.086673
vt 0.059767 0.908239
vt 0.059767 0.086673
vt 0.075620 0.908239
vt 0.075620 0.086673
vt 0.091473 0.908239
vt 0.091473 0.086673
vt 0.107326 0.908239
vt 0.107326 0.086673
vt 0.123178 0.908239
vt 0.123178 0.086673
vt 0.139031 0.908239
vt 0.139031 0.086673
vt 0.154884 0.908239
vt 0.154884 0.086673
vt 0.170736 0.908239
vt 0.170736 0.086673
vt 0.186589 0.908239
vt 0.186589 0.086673
vt 0.202442 0.908239
vt 0.202442 0.086673
vt 0.218295 0.908239
vt 0.218295 0.086673
vt 0.234147 0.908239
vt 0.234147 0.086673
vt 0.250000 0.908239
vt 0.090695 0.024118
vt 0.088233 0.110193
vt 0.090199 0.024118
vt 0.097635 0.024118
vt 0.089350 0.024118
vt 0.089749 0.024118
vt 0.097005 0.024118
vt 0.089006 0.024118
vt 0.096355 0.024118
vt 0.088719 0.024118
vt 0.095693 0.024118
vt 0.088494 0.024118
vt 0.088331 0.024118
vt 0.088233 0.024118
vt 0.512209 0.908239
vt 0.012209 0.908239
s 1
g advertising_column_01_big_metal_rough
usemtl metal_rough
f 2/1/1 479/2/1 478/3/1
s 2
f 441/4/2 568/5/2 569/6/2
s 1
f 2/1/1 496/7/1 495/8/1
f 2/1/1 513/9/1 512/10/1
s 2
f 389/11/2 518/12/2 390/13/2
f 441/4/2 570/14/2 442/15/2
f 390/13/2 519/16/2 391/17/2
f 443/18/2 570/14/2 571/19/2
s 1
f 2/1/1 461/20/1 460/21/1
s 2
f 391/17/2 520/22/2 392/23/2
s 1
f 2/1/1 478/3/1 477/24/1
s 2
f 443/18/2 572/25/2 444/26/2
s 1
f 2/1/1 495/8/1 494/27/1
f 2/1/1 512/10/1 511/28/1
s 2
f 393/29/2 520/22/2 521/30/2
f 444/26/2 573/31/2 445/32/2
f 393/29/2 522/33/2 394/34/2
f 446/35/2 573/31/2 574/36/2
s 1
f 2/1/1 460/21/1 459/37/1
s 2
f 395/38/2 522/33/2 523/39/2
s 1
f 2/1/1 477/24/1 476/40/1
s 2
f 446/35/2 575/41/2 447/42/2
s 1
f 2/1/1 494/27/1 493/43/1
f 2/1/1 511/28/1 510/44/1
s 2
f 396/45/2 523/39/2 524/46/2
f 447/42/2 576/47/2 448/48/2
f 396/45/2 525/49/2 397/50/2
f 449/51/2 576/47/2 577/52/2
s 1
f 2/1/1 459/37/1 458/53/1
s 2
f 397/50/2 526/54/2 398/55/2
s 1
f 2/1/1 476/40/1 475/56/1
f 2/1/1 493/43/1 492/57/1
s 2
f 449/51/2 452/58/2 386/58/2
s 1
f 2/1/1 510/44/1 509/59/1
s 2
f 399/60/2 526/54/2 527/61/2
f 399/60/2 528/62/2 400/63/2
s 1
f 2/1/1 458/53/1 457/64/1
s 2
f 400/63/2 529/65/2 401/66/2
s 1
f 2/1/1 475/56/1 474/67/1
f 2/1/1 492/57/1 491/68/1
f 2/1/1 509/59/1 508/69/1
s 2
f 402/70/2 529/65/2 530/71/2
f 402/70/2 531/65/2 403/66/2
s 1
f 2/1/1 457/64/1 456/72/1
s 2
f 403/66/2 532/62/2 404/63/2
s 1
f 2/1/1 474/67/1 473/73/1
f 2/1/1 491/68/1 490/74/1
f 2/1/1 508/69/1 507/75/1
s 2
f 405/60/2 532/62/2 533/61/2
f 405/60/2 534/54/2 406/55/2
s 1
f 2/1/1 456/72/1 455/76/1
s 2
f 407/50/2 534/54/2 535/49/2
s 1
f 2/1/1 473/73/1 472/77/1
f 2/1/1 490/74/1 489/78/1
f 2/1/1 507/75/1 506/79/1
s 2
f 408/45/2 535/49/2 536/46/2
f 408/45/2 537/39/2 409/38/2
s 1
f 2/1/1 455/76/1 454/80/1
s 2
f 409/38/2 538/33/2 410/34/2
s 1
f 2/1/1 472/77/1 471/81/1
f 2/1/1 489/78/1 488/82/1
f 2/1/1 506/79/1 505/83/1
s 2
f 411/29/2 538/33/2 539/30/2
f 411/29/2 540/22/2 412/23/2
s 3
f 129/84/3 1/85/4 65/86/3
f 128/87/5 65/86/3 64/88/5
f 127/89/6 64/88/5 63/90/6
f 126/91/7 63/90/6 62/92/7
f 125/93/8 62/92/7 61/94/8
f 124/95/9 61/94/8 60/96/9
f 123/97/10 60/96/9 59/98/10
f 122/99/11 59/98/10 58/100/11
f 121/101/12 58/100/11 57/102/12
f 120/103/13 57/102/12 56/104/13
f 119/105/14 56/104/13 55/106/14
f 118/107/15 55/106/14 54/108/15
f 117/109/16 54/108/15 53/110/16
f 116/111/17 53/110/16 52/112/17
f 115/113/18 52/112/17 51/114/18
f 114/115/19 51/114/18 50/116/19
f 113/113/20 50/116/19 49/114/20
f 112/111/21 49/114/20 48/112/21
f 111/109/22 48/112/21 47/110/22
f 110/107/23 47/110/22 46/108/23
f 109/105/24 46/108/23 45/106/24
f 108/103/25 45/106/24 44/104/25
f 107/101/26 44/104/25 43/102/26
f 106/99/27 43/102/26 42/100/27
f 105/97/28 42/100/27 41/98/28
f 104/95/29 41/98/28 40/96/29
f 103/93/30 40/96/29 39/94/30
f 102/91/31 39/94/30 38/92/31
f 101/89/32 38/92/31 37/90/32
f 100/87/33 37/90/32 36/88/33
f 99/84/34 36/88/33 35/86/34
f 98/117/35 35/86/34 34/85/35
f 97/118/36 34/85/35 33/119/36
f 96/120/37 33/119/36 32/121/37
f 95/122/38 32/121/37 31/123/38
f 94/124/39 31/123/38 30/125/39
f 93/126/40 30/125/39 29/127/40
f 92/128/41 29/127/40 28/129/41
f 91/130/42 28/129/41 27/131/42
f 90/132/43 27/131/42 26/133/43
f 89/134/44 26/133/43 25/135/44
f 88/136/45 25/135/44 24/137/45
f 87/138/46 24/137/45 23/139/46
f 86/140/47 23/139/46 22/141/47
f 85/142/48 22/141/47 21/143/48
f 84/144/49 21/143/48 20/145/49
f 83/146/50 20/145/49 19/147/50
f 82/148/51 19/147/50 18/149/51
f 81/146/52 18/149/51 17/147/52
f 80/144/53 17/147/52 16/145/53
f 79/142/54 16/145/53 15/143/54
f 78/140/55 15/143/54 14/141/55
f 77/138/56 14/141/55 13/139/56
f 76/136/57 13/139/56 12/137/57
f 75/134/58 12/137/57 11/135/58
f 74/132/59 11/135/58 10/133/59
f 73/130/60 10/133/59 9/131/60
f 72/128/61 9/131/60 8/129/61
f 71/126/62 8/129/61 7/127/62
f 70/124/63 7/127/62 6/125/63
f 69/122/64 6/125/63 5/123/64
f 68/120/65 5/123/64 4/121/65
f 67/118/66 4/121/65 3/119/66
f 66/117/4 3/119/66 1/85/4
s 4
f 164/150/2 262/151/2 260/152/2
s 5
f 75/134/1 213/153/1 76/136/1
f 128/87/1 315/154/1 317/155/1
s 4
f 166/156/2 262/151/2 165/157/2
s 5
f 77/138/1 213/153/1 215/158/1
f 128/87/1 319/159/1 129/84/1
s 4
f 166/156/2 266/160/2 264/161/2
s 5
f 77/138/1 217/162/1 78/140/1
f 66/117/1 319/159/1 320/117/1
s 4
f 167/163/2 268/164/2 266/160/2
s 5
f 78/140/1 219/165/1 79/142/1
s 4
f 168/166/2 270/167/2 268/164/2
s 5
f 80/144/1 219/165/1 221/168/1
s 4
f 170/169/2 270/167/2 169/170/2
s 5
f 80/144/1 223/171/1 81/146/1
s 4
f 171/172/2 272/173/2 170/169/2
s 5
f 81/146/1 225/174/1 82/148/1
s 4
f 172/175/2 274/176/2 171/172/2
s 5
f 82/148/1 227/171/1 83/146/1
s 4
f 173/177/2 276/178/2 172/175/2
s 5
f 84/144/1 227/171/1 229/168/1
s 4
f 174/179/2 278/180/2 173/177/2
s 5
f 84/144/1 231/165/1 85/142/1
s 4
f 174/179/2 282/181/2 280/182/2
s 5
f 85/142/1 233/162/1 86/140/1
s 4
f 176/183/2 282/181/2 175/184/2
s 5
f 86/140/1 235/158/1 87/138/1
s 4
f 176/183/2 286/185/2 284/186/2
s 5
f 87/138/1 237/153/1 88/136/1
s 4
f 178/187/2 286/185/2 177/188/2
s 5
f 88/136/1 239/189/1 89/134/1
s 4
f 179/188/2 288/190/2 178/187/2
s 5
f 89/134/1 241/191/1 90/132/1
s 4
f 180/183/2 290/185/2 179/188/2
s 5
f 90/132/1 243/192/1 91/130/1
s 4
f 181/184/2 292/186/2 180/183/2
s 5
f 92/128/1 243/192/1 245/193/1
s 4
f 182/179/2 294/181/2 181/184/2
s 5
f 92/128/1 247/194/1 93/126/1
s 4
f 131/195/2 321/196/2 130/196/2
f 182/179/2 298/180/2 296/182/2
s 5
f 94/124/1 247/194/1 249/197/1
s 4
f 132/198/2 194/199/2 131/195/2
f 184/175/2 298/180/2 183/177/2
s 5
f 94/124/1 251/200/1 95/122/1
s 4
f 132/198/2 198/201/2 196/202/2
f 185/172/2 300/178/2 184/175/2
s 5
f 96/120/1 251/200/1 253/203/1
s 4
f 133/204/2 200/205/2 198/201/2
f 186/169/2 302/176/2 185/172/2
s 5
f 96/120/1 255/206/1 97/118/1
s 4
f 135/207/2 200/205/2 134/208/2
f 187/170/2 304/173/2 186/169/2
s 5
f 97/118/1 257/117/1 98/117/1
s 4
f 136/209/2 202/210/2 135/207/2
f 188/166/2 306/167/2 187/170/2
s 5
f 98/117/1 259/159/1 99/84/1
s 4
f 136/209/2 206/211/2 204/212/2
f 189/163/2 308/164/2 188/166/2
s 5
f 100/87/1 259/159/1 261/155/1
s 4
f 138/213/2 206/211/2 137/214/2
f 190/156/2 310/160/2 189/163/2
s 5
f 100/87/1 263/154/1 101/89/1
s 4
f 139/215/2 208/216/2 138/213/2
s 6
f 318/217/3 320/117/4 319/159/3
f 316/152/5 319/159/3 317/155/5
f 314/151/6 317/155/5 315/154/6
f 312/161/7 315/154/6 313/218/7
f 310/160/8 313/218/7 311/219/8
f 308/164/9 311/219/8 309/220/9
f 306/167/10 309/220/9 307/221/10
f 304/173/11 307/221/10 305/222/11
f 302/176/12 305/222/11 303/223/12
f 300/178/13 303/223/12 301/224/13
f 298/180/14 301/224/13 299/225/14
f 296/182/15 299/225/14 297/226/15
f 294/181/16 297/226/15 295/227/16
f 292/186/17 295/227/16 293/228/17
f 290/185/18 293/228/17 291/229/18
f 288/190/19 291/229/18 289/230/19
f 286/185/20 289/230/19 287/229/20
f 284/186/21 287/229/20 285/228/21
f 282/181/22 285/228/21 283/227/22
f 280/182/23 283/227/22 281/226/23
f 278/180/24 281/226/23 279/225/24
f 276/178/25 279/225/24 277/224/25
f 274/176/26 277/224/25 275/223/26
f 272/173/27 275/223/26 273/222/27
f 270/167/28 273/222/27 271/221/28
f 268/164/29 271/221/28 269/220/29
f 266/160/30 269/220/29 267/219/30
f 264/161/31 267/219/30 265/218/31
f 262/151/32 265/218/31 263/154/32
f 260/152/33 263/154/32 261/155/33
f 258/217/34 261/155/33 259/159/34
f 256/196/35 259/159/34 257/117/35
f 254/199/36 257/117/35 255/206/36
f 252/202/37 255/206/36 253/203/37
f 250/201/38 253/203/37 251/200/38
f 248/205/39 251/200/38 249/197/39
f 246/210/40 249/197/39 247/194/40
f 244/212/41 247/194/40 245/193/41
f 242/211/42 245/193/41 243/192/42
f 240/216/43 243/192/42 241/191/43
f 238/231/44 241/191/43 239/189/44
f 236/232/45 239/189/44 237/153/45
f 234/233/46 237/153/45 235/158/46
f 232/234/47 235/158/46 233/162/47
f 230/235/48 233/162/47 231/165/48
f 228/236/49 231/165/48 229/168/49
f 226/237/50 229/168/49 227/171/50
f 224/238/51 227/171/50 225/174/51
f 222/237/52 225/174/51 223/171/52
f 220/236/53 223/171/52 221/168/53
f 218/235/54 221/168/53 219/165/54
f 216/234/55 219/165/54 217/162/55
f 214/233/56 217/162/55 215/158/56
f 212/232/57 215/158/56 213/153/57
f 210/231/58 213/153/57 211/189/58
f 208/216/59 211/189/58 209/191/59
f 206/211/60 209/191/59 207/192/60
f 204/212/61 207/192/60 205/193/61
f 202/210/62 205/193/61 203/194/62
f 200/205/63 203/194/62 201/197/63
f 198/201/64 201/197/63 199/200/64
f 196/202/65 199/200/64 197/203/65
f 194/199/66 197/203/65 195/206/66
f 321/196/4 195/206/66 320/117/4
s 5
f 127/89/1 313/218/1 315/154/1
f 74/132/1 211/189/1 75/134/1
s 4
f 164/150/2 258/217/2 163/239/2
s 5
f 126/91/1 311/219/1 313/218/1
f 74/132/1 207/192/1 209/191/1
s 4
f 162/196/2 258/217/2 256/196/2
s 5
f 125/93/1 309/220/1 311/219/1
f 72/128/1 207/192/1 73/130/1
s 4
f 161/195/2 256/196/2 254/199/2
s 5
f 123/97/1 309/220/1 124/95/1
f 72/128/1 203/194/1 205/193/1
s 4
f 161/195/2 252/202/2 160/198/2
s 5
f 123/97/1 305/222/1 307/221/1
f 71/126/1 201/197/1 203/194/1
s 4
f 160/198/2 250/201/2 159/204/2
s 5
f 122/99/1 303/223/1 305/222/1
f 70/124/1 199/200/1 201/197/1
s 4
f 158/208/2 250/201/2 248/205/2
s 5
f 121/101/1 301/224/1 303/223/1
f 68/120/1 199/200/1 69/122/1
s 4
f 158/208/2 246/210/2 157/207/2
s 5
f 119/105/1 301/224/1 120/103/1
f 67/118/1 197/203/1 68/120/1
s 4
f 156/209/2 246/210/2 244/212/2
s 5
f 118/107/1 299/225/1 119/105/1
f 67/118/1 320/117/1 195/206/1
s 4
f 156/209/2 242/211/2 155/214/2
s 5
f 118/107/1 295/227/1 297/226/1
s 4
f 154/213/2 242/211/2 240/216/2
s 5
f 116/111/1 295/227/1 117/109/1
s 4
f 153/215/2 240/216/2 238/231/2
s 5
f 115/113/1 293/228/1 116/111/1
s 4
f 152/240/2 238/231/2 236/232/2
s 5
f 114/115/1 291/229/1 115/113/1
s 4
f 152/240/2 234/233/2 151/241/2
s 5
f 113/113/1 289/230/1 114/115/1
s 4
f 150/242/2 234/233/2 232/234/2
s 5
f 112/111/1 287/229/1 113/113/1
s 4
f 150/242/2 230/235/2 149/243/2
s 5
f 111/109/1 285/228/1 112/111/1
s 4
f 148/244/2 230/235/2 228/236/2
s 5
f 110/107/1 283/227/1 111/109/1
s 4
f 148/244/2 226/237/2 147/245/2
s 5
f 110/107/1 279/225/1 281/226/1
s 4
f 147/245/2 224/238/2 146/246/2
s 5
f 108/103/1 279/225/1 109/105/1
s 4
f 146/246/2 222/237/2 145/245/2
s 5
f 107/101/1 277/224/1 108/103/1
s 4
f 144/244/2 222/237/2 220/236/2
s 5
f 106/99/1 275/223/1 107/101/1
s 4
f 144/244/2 218/235/2 143/243/2
s 5
f 105/97/1 273/222/1 106/99/1
s 4
f 143/243/2 216/234/2 142/242/2
s 5
f 104/95/1 271/221/1 105/97/1
s 4
f 130/196/2 318/217/2 193/239/2
f 142/242/2 214/233/2 141/241/2
s 5
f 103/93/1 269/220/1 104/95/1
s 4
f 192/150/2 318/217/2 316/152/2
f 141/241/2 212/232/2 140/240/2
s 5
f 102/91/1 267/219/1 103/93/1
s 4
f 192/150/2 314/151/2 191/157/2
f 139/215/2 212/232/2 210/231/2
s 5
f 102/91/1 263/154/1 265/218/1
s 4
f 191/157/2 312/161/2 190/156/2
s 7
f 385/247/3 130/196/4 193/239/3
f 384/248/5 193/239/3 192/150/5
f 383/249/6 192/150/5 191/157/6
f 382/250/7 191/157/6 190/156/7
f 381/251/8 190/156/7 189/163/8
f 380/252/9 189/163/8 188/166/9
f 379/253/10 188/166/9 187/170/10
f 378/254/11 187/170/10 186/169/11
f 377/255/12 186/169/11 185/172/12
f 376/256/13 185/172/12 184/175/13
f 375/257/14 184/175/13 183/177/14
f 374/258/15 183/177/14 182/179/15
f 373/259/16 182/179/15 181/184/16
f 372/260/17 181/184/16 180/183/17
f 371/261/67 180/183/17 179/188/18
f 370/262/19 179/188/18 178/187/19
f 369/261/68 178/187/19 177/188/20
f 368/260/21 177/188/20 176/183/21
f 367/259/22 176/183/21 175/184/22
f 366/258/23 175/184/22 174/179/23
f 365/257/24 174/179/23 173/177/24
f 364/256/25 173/177/24 172/175/25
f 363/255/26 172/175/25 171/172/26
f 362/254/27 171/172/26 170/169/27
f 361/253/28 170/169/27 169/170/28
f 360/252/29 169/170/28 168/166/29
f 359/251/30 168/166/29 167/163/30
f 358/250/31 167/163/30 166/156/31
f 357/249/32 166/156/31 165/157/32
f 356/248/33 165/157/32 164/150/33
f 355/247/34 164/150/33 163/239/34
f 354/263/35 163/239/34 162/196/35
f 353/264/36 162/196/35 161/195/36
f 352/265/37 161/195/36 160/198/37
f 351/266/38 160/198/37 159/204/38
f 350/267/39 159/204/38 158/208/39
f 349/268/40 158/208/39 157/207/40
f 348/269/41 157/207/40 156/209/41
f 347/270/42 156/209/41 155/214/42
f 346/271/43 155/214/42 154/213/43
f 345/272/44 154/213/43 153/215/44
f 344/273/45 153/215/44 152/240/45
f 343/274/46 152/240/45 151/241/46
f 342/275/47 151/241/46 150/242/47
f 341/276/48 150/242/47 149/243/48
f 340/277/49 149/243/48 148/244/49
f 339/278/69 148/244/49 147/245/50
f 338/279/51 147/245/50 146/246/51
f 337/278/70 146/246/51 145/245/52
f 336/277/53 145/245/52 144/244/53
f 335/276/54 144/244/53 143/243/54
f 334/275/55 143/243/54 142/242/55
f 333/274/56 142/242/55 141/241/56
f 332/273/57 141/241/56 140/240/57
f 331/272/58 140/240/57 139/215/58
f 330/271/59 139/215/58 138/213/59
f 329/270/60 138/213/59 137/214/60
f 328/269/61 137/214/60 136/209/61
f 327/268/62 136/209/61 135/207/62
f 326/267/63 135/207/62 134/208/63
f 325/266/64 134/208/63 133/204/64
f 324/265/65 133/204/64 132/198/65
f 323/264/66 132/198/65 131/195/66
f 322/263/4 131/195/66 130/196/4
s 2
f 436/280/2 674/281/2 672/282/2
s 8
f 379/253/1 689/283/1 380/252/1
f 329/270/1 589/284/1 591/285/1
s 2
f 438/286/2 674/281/2 437/287/2
s 8
f 381/251/1 689/283/1 691/288/1
s 2
f 387/289/2 701/58/2 386/58/2
s 8
f 329/270/1 593/290/1 330/271/1
s 9
f 403/66/34 609/291/34 339/278/34
s 2
f 439/292/2 676/293/2 438/286/2
s 8
f 381/251/1 693/294/1 382/250/1
s 2
f 387/289/2 580/295/2 578/296/2
s 8
f 330/271/1 595/297/1 331/272/1
s 2
f 440/298/2 678/299/2 439/292/2
s 8
f 382/250/1 695/300/1 383/249/1
s 2
f 389/11/2 580/295/2 388/301/2
s 7
f 434/302/19 371/261/67 370/262/19
f 433/303/71 370/262/19 369/261/68
s 8
f 331/272/1 597/304/1 332/273/1
s 10
f 337/278/3 606/305/3 401/66/3
s 2
f 441/4/2 680/306/2 440/298/2
s 8
f 383/249/1 697/307/1 384/248/1
s 2
f 390/13/2 582/308/2 389/11/2
s 8
f 332/273/1 599/309/1 333/274/1
s 2
f 442/15/2 682/310/2 441/4/2
s 8
f 385/247/1 697/307/1 699/311/1
s 2
f 391/17/2 584/312/2 390/13/2
s 8
f 333/274/1 601/313/1 334/275/1
s 2
f 443/18/2 684/314/2 442/15/2
s 8
f 385/247/1 700/263/1 322/263/1
s 2
f 392/23/2 586/315/2 391/17/2
s 8
f 334/275/1 603/316/1 335/276/1
s 2
f 443/18/2 688/317/2 686/318/2
f 393/29/2 588/319/2 392/23/2
s 8
f 336/277/1 603/316/1 605/320/1
s 2
f 445/32/2 688/317/2 444/26/2
f 394/34/2 590/321/2 393/29/2
s 8
f 337/278/1 605/320/1 607/291/1
s 2
f 446/35/2 690/322/2 445/32/2
f 395/38/2 592/323/2 394/34/2
f 447/42/2 692/324/2 446/35/2
f 395/38/2 596/325/2 594/326/2
f 448/48/2 694/327/2 447/42/2
f 397/50/2 596/325/2 396/45/2
s 11
f 339/278/1 611/320/1 340/277/1
s 2
f 449/51/2 696/328/2 448/48/2
f 397/50/2 600/329/2 598/330/2
s 11
f 340/277/1 613/316/1 341/276/1
s 7
f 402/70/51 339/278/69 338/279/51
f 401/66/72 338/279/51 337/278/70
s 2
f 449/51/2 701/58/2 698/331/2
f 398/55/2 602/332/2 600/329/2
s 11
f 342/275/1 613/316/1 615/313/1
s 2
f 400/63/2 602/332/2 399/60/2
s 11
f 343/274/1 615/313/1 617/309/1
s 2
f 401/66/2 604/333/2 400/63/2
s 11
f 343/274/1 619/304/1 344/273/1
f 344/273/1 621/297/1 345/272/1
f 345/272/1 623/290/1 346/271/1
s 2
f 403/66/2 610/333/2 608/305/2
s 11
f 346/271/1 625/285/1 347/270/1
s 2
f 404/63/2 612/332/2 610/333/2
s 11
f 347/270/1 627/284/1 348/269/1
s 2
f 406/55/2 612/332/2 405/60/2
s 11
f 348/269/1 629/334/1 349/268/1
s 12
f 451/1/4 515/335/66 452/58/4
f 450/336/66 516/337/65 515/335/66
f 453/338/65 517/339/64 516/337/65
f 454/80/64 518/12/63 517/339/64
f 455/76/63 519/16/62 518/12/63
f 456/72/62 520/22/61 519/16/62
f 457/64/61 521/30/60 520/22/61
f 458/53/60 522/33/59 521/30/60
f 459/37/59 523/39/58 522/33/59
f 460/21/58 524/46/57 523/39/58
f 461/20/57 525/49/56 524/46/57
f 462/340/56 526/54/55 525/49/56
f 463/341/55 527/61/54 526/54/55
f 464/342/54 528/62/53 527/61/54
f 465/343/53 529/65/52 528/62/53
f 466/344/52 530/71/51 529/65/52
f 467/345/51 531/65/50 530/71/51
f 468/344/50 532/62/49 531/65/50
f 469/343/49 533/61/48 532/62/49
f 470/346/48 534/54/47 533/61/48
f 471/81/47 535/49/46 534/54/47
f 472/77/46 536/46/45 535/49/46
f 473/73/45 537/39/44 536/46/45
f 474/67/44 538/33/43 537/39/44
f 475/56/43 539/30/42 538/33/43
f 476/40/42 540/22/41 539/30/42
f 477/24/41 541/16/40 540/22/41
f 478/3/40 542/12/39 541/16/40
f 479/2/39 543/339/38 542/12/39
f 480/347/38 544/337/37 543/339/38
f 481/348/37 545/335/36 544/337/37
f 482/349/36 546/58/35 545/335/36
f 483/350/35 547/52/34 546/58/35
f 484/351/34 548/47/33 547/52/34
f 485/352/33 549/41/32 548/47/33
f 486/353/32 550/36/31 549/41/32
f 487/354/31 551/31/30 550/36/31
f 488/82/30 552/25/29 551/31/30
f 489/78/29 553/19/28 552/25/29
f 490/74/28 554/14/27 553/19/28
f 491/68/27 555/6/26 554/14/27
f 492/57/26 556/5/25 555/6/26
f 493/43/25 557/355/24 556/5/25
f 494/27/24 558/356/23 557/355/24
f 495/8/23 559/357/22 558/356/23
f 496/7/22 560/358/21 559/357/22
f 497/359/21 561/360/20 560/358/21
f 498/361/20 562/362/19 561/360/20
f 499/363/19 563/360/18 562/362/19
f 500/361/18 564/358/17 563/360/18
f 501/359/17 565/357/16 564/358/17
f 502/364/16 566/356/15 565/357/16
f 503/365/15 567/355/14 566/356/15
f 504/366/14 568/5/13 567/355/14
f 505/83/13 569/6/12 568/5/13
f 506/79/12 570/14/11 569/6/12
f 507/75/11 571/19/10 570/14/11
f 508/69/10 572/25/9 571/19/10
f 509/59/9 573/31/8 572/25/9
f 510/44/8 574/36/7 573/31/8
f 511/28/7 575/41/6 574/36/7
f 512/10/6 576/47/5 575/41/6
f 513/9/5 577/52/3 576/47/5
f 514/367/3 452/58/4 577/52/3
s 2
f 389/11/2 516/337/2 517/339/2
s 1
f 2/1/1 462/340/1 461/20/1
s 2
f 439/292/2 568/5/2 440/298/2
f 387/289/2 516/337/2 388/301/2
f 438/286/2 567/355/2 439/292/2
f 387/289/2 452/58/2 515/335/2
s 1
f 2/1/1 514/367/1 513/9/1
s 2
f 437/287/2 566/356/2 438/286/2
s 1
f 2/1/1 497/359/1 496/7/1
f 2/1/1 480/347/1 479/2/1
f 2/1/1 463/341/1 462/340/1
s 2
f 437/287/2 564/358/2 565/357/2
f 435/303/2 564/358/2 436/280/2
s 1
f 2/1/1 451/1/1 514/367/1
s 2
f 435/303/2 562/362/2 563/360/2
s 1
f 2/1/1 498/361/1 497/359/1
f 2/1/1 481/348/1 480/347/1
f 2/1/1 464/342/1 463/341/1
s 2
f 433/303/2 562/362/2 434/302/2
f 433/303/2 560/358/2 561/360/2
f 431/287/2 560/358/2 432/280/2
s 1
f 2/1/1 499/363/1 498/361/1
f 2/1/1 482/349/1 481/348/1
f 2/1/1 465/343/1 464/342/1
s 2
f 431/287/2 558/356/2 559/357/2
f 430/286/2 557/355/2 558/356/2
f 428/298/2 557/355/2 429/292/2
s 1
f 2/1/1 500/361/1 499/363/1
f 2/1/1 483/350/1 482/349/1
f 2/1/1 466/344/1 465/343/1
s 2
f 427/4/2 556/5/2 428/298/2
f 427/4/2 554/14/2 555/6/2
f 425/18/2 554/14/2 426/15/2
s 1
f 2/1/1 501/359/1 500/361/1
f 2/1/1 484/351/1 483/350/1
f 2/1/1 467/345/1 466/344/1
s 2
f 425/18/2 552/25/2 553/19/2
f 424/26/2 551/31/2 552/25/2
s 1
f 2/1/1 502/364/1 501/359/1
s 2
f 422/35/2 551/31/2 423/32/2
s 1
f 2/1/1 485/352/1 484/351/1
f 2/1/1 468/344/1 467/345/1
s 2
f 421/42/2 550/36/2 422/35/2
f 421/42/2 548/47/2 549/41/2
s 1
f 2/1/1 503/365/1 502/364/1
s 2
f 419/51/2 548/47/2 420/48/2
s 1
f 2/1/1 450/336/1 451/1/1
f 2/1/1 486/353/1 485/352/1
f 2/1/1 469/343/1 468/344/1
s 2
f 419/51/2 546/58/2 547/52/2
f 417/289/2 546/58/2 418/58/2
s 1
f 2/1/1 504/366/1 503/365/1
s 2
f 417/289/2 544/337/2 545/335/2
s 1
f 2/1/1 487/354/1 486/353/1
f 2/1/1 470/346/1 469/343/1
s 2
f 415/11/2 544/337/2 416/301/2
s 1
f 2/1/1 453/338/1 450/336/1
s 2
f 415/11/2 542/12/2 543/339/2
f 414/13/2 541/16/2 542/12/2
s 1
f 2/1/1 505/83/1 504/366/1
f 2/1/1 488/82/1 487/354/1
f 2/1/1 471/81/1 470/346/1
s 2
f 413/17/2 540/22/2 541/16/2
s 1
f 2/1/1 454/80/1 453/338/1
s 8
f 327/268/1 589/284/1 328/269/1
f 378/254/1 687/490/1 379/253/1
s 2
f 436/280/2 670/491/2 435/303/2
s 8
f 326/267/1 587/334/1 327/268/1
f 377/255/1 685/492/1 378/254/1
f 325/266/1 585/493/1 326/267/1
f 377/255/1 681/494/1 683/495/1
f 324/265/1 583/496/1 325/266/1
f 376/256/1 679/497/1 681/494/1
s 2
f 433/303/2 666/282/2 432/280/2
s 8
f 323/264/1 581/498/1 324/265/1
f 375/257/1 677/499/1 679/497/1
s 2
f 432/280/2 664/281/2 431/287/2
s 8
f 323/264/1 700/263/1 579/500/1
f 374/258/1 675/501/1 677/499/1
s 2
f 430/286/2 664/281/2 662/293/2
s 8
f 372/260/1 675/501/1 373/259/1
s 2
f 429/292/2 662/293/2 660/299/2
s 8
f 371/261/1 673/502/1 372/260/1
s 2
f 429/292/2 658/306/2 428/298/2
f 428/298/2 656/310/2 427/4/2
f 427/4/2 654/314/2 426/15/2
s 11
f 368/260/1 669/503/1 369/261/1
s 2
f 426/15/2 652/318/2 425/18/2
s 11
f 368/260/1 665/501/1 667/502/1
s 2
f 425/18/2 650/317/2 424/26/2
s 11
f 366/258/1 665/501/1 367/259/1
s 2
f 423/32/2 650/317/2 648/322/2
s 11
f 365/257/1 663/499/1 366/258/1
s 2
f 423/32/2 646/324/2 422/35/2
s 11
f 364/256/1 661/497/1 365/257/1
s 2
f 422/35/2 644/327/2 421/42/2
s 11
f 364/256/1 657/495/1 659/494/1
s 2
f 420/48/2 644/327/2 642/328/2
s 11
f 363/255/1 655/492/1 657/495/1
s 2
f 420/48/2 640/331/2 419/51/2
s 11
f 362/254/1 653/490/1 655/492/1
s 2
f 419/51/2 638/58/2 418/58/2
s 11
f 360/252/1 653/490/1 361/253/1
s 2
f 417/289/2 638/58/2 636/296/2
s 11
f 359/251/1 651/283/1 360/252/1
s 2
f 416/301/2 636/296/2 634/295/2
s 11
f 358/250/1 649/288/1 359/251/1
s 2
f 416/301/2 632/308/2 415/11/2
s 11
f 358/250/1 645/300/1 647/294/1
s 2
f 414/13/2 632/308/2 630/312/2
s 11
f 356/248/1 645/300/1 357/249/1
s 2
f 414/13/2 628/315/2 413/17/2
s 11
f 355/247/1 643/307/1 356/248/1
s 2
f 413/17/2 626/319/2 412/23/2
s 11
f 355/247/1 639/263/1 641/311/1
s 2
f 412/23/2 624/321/2 411/29/2
s 11
f 353/264/1 639/263/1 354/263/1
s 2
f 410/34/2 624/321/2 622/323/2
s 11
f 352/265/1 637/500/1 353/264/1
s 2
f 409/38/2 622/323/2 620/326/2
s 11
f 352/265/1 633/496/1 635/498/1
s 2
f 408/45/2 620/326/2 618/325/2
s 15
f 369/261/36 668/491/36 433/303/36
s 11
f 350/267/1 633/496/1 351/266/1
s 2
f 407/50/2 618/325/2 616/330/2
s 11
f 349/268/1 631/493/1 350/267/1
s 2
f 407/50/2 614/329/2 406/55/2
s 16
f 435/303/66 671/503/66 371/261/66
s 17
f 1/85/2 3/119/2 702/85/2
f 3/119/2 4/121/2 702/85/2
f 4/121/2 5/123/2 702/85/2
f 5/123/2 6/125/2 702/85/2
f 6/125/2 7/127/2 702/85/2
f 7/127/2 8/129/2 702/85/2
f 8/129/2 9/131/2 702/85/2
f 9/131/2 10/133/2 702/85/2
f 10/133/2 11/135/2 702/85/2
f 11/135/2 12/137/2 702/85/2
f 12/137/2 13/139/2 702/85/2
f 13/139/2 14/141/2 702/85/2
f 14/141/2 15/143/2 702/85/2
f 15/143/2 16/145/2 702/85/2
f 16/145/2 17/147/2 702/85/2
f 17/147/2 18/149/2 702/85/2
f 18/149/2 19/147/2 702/85/2
f 19/147/2 20/145/2 702/85/2
f 20/145/2 21/143/2 702/85/2
f 21/143/2 22/141/2 702/85/2
f 22/141/2 23/139/2 702/85/2
f 23/139/2 24/137/2 702/85/2
f 24/137/2 25/135/2 702/85/2
f 25/135/2 26/133/2 702/85/2
f 26/133/2 27/131/2 702/85/2
f 27/131/2 28/129/2 702/85/2
f 28/129/2 29/127/2 702/85/2
f 29/127/2 30/125/2 702/85/2
f 30/125/2 31/123/2 702/85/2
f 31/123/2 32/121/2 702/85/2
f 32/121/2 33/119/2 702/85/2
f 33/119/2 34/85/2 702/85/2
f 34/85/2 35/86/2 702/85/2
f 35/86/2 36/88/2 702/85/2
f 36/88/2 37/90/2 702/85/2
f 37/90/2 38/92/2 702/85/2
f 38/92/2 39/94/2 702/85/2
f 39/94/2 40/96/2 702/85/2
f 40/96/2 41/98/2 702/85/2
f 41/98/2 42/100/2 702/85/2
f 42/100/2 43/102/2 702/85/2
f 43/102/2 44/104/2 702/85/2
f 44/104/2 45/106/2 702/85/2
f 45/106/2 46/108/2 702/85/2
f 46/108/2 47/110/2 702/85/2
f 47/110/2 48/112/2 702/85/2
f 48/112/2 49/114/2 702/85/2
f 49/114/2 50/116/2 702/85/2
f 50/116/2 51/114/2 702/85/2
f 51/114/2 52/112/2 702/85/2
f 52/112/2 53/110/2 702/85/2
f 53/110/2 54/108/2 702/85/2
f 54/108/2 55/106/2 702/85/2
f 55/106/2 56/104/2 702/85/2
f 56/104/2 57/102/2 702/85/2
f 57/102/2 58/100/2 702/85/2
f 58/100/2 59/98/2 702/85/2
f 59/98/2 60/96/2 702/85/2
f 60/96/2 61/94/2 702/85/2
f 61/94/2 62/92/2 702/85/2
f 62/92/2 63/90/2 702/85/2
f 63/90/2 64/88/2 702/85/2
f 64/88/2 65/86/2 702/85/2
f 65/86/2 1/85/2 702/85/2
s 2
f 441/4/2 440/298/2 568/5/2
f 389/11/2 517/339/2 518/12/2
f 441/4/2 569/6/2 570/14/2
f 390/13/2 518/12/2 519/16/2
f 443/18/2 442/15/2 570/14/2
f 391/17/2 519/16/2 520/22/2
f 443/18/2 571/19/2 572/25/2
f 393/29/2 392/23/2 520/22/2
f 444/26/2 572/25/2 573/31/2
f 393/29/2 521/30/2 522/33/2
f 446/35/2 445/32/2 573/31/2
f 395/38/2 394/34/2 522/33/2
f 446/35/2 574/36/2 575/41/2
f 396/45/2 395/38/2 523/39/2
f 447/42/2 575/41/2 576/47/2
f 396/45/2 524/46/2 525/49/2
f 449/51/2 448/48/2 576/47/2
f 397/50/2 525/49/2 526/54/2
f 449/51/2 577/52/2 452/58/2
f 399/60/2 398/55/2 526/54/2
f 399/60/2 527/61/2 528/62/2
f 400/63/2 528/62/2 529/65/2
f 402/70/2 401/66/2 529/65/2
f 402/70/2 530/71/2 531/65/2
f 403/66/2 531/65/2 532/62/2
f 405/60/2 404/63/2 532/62/2
f 405/60/2 533/61/2 534/54/2
f 407/50/2 406/55/2 534/54/2
f 408/45/2 407/50/2 535/49/2
f 408/45/2 536/46/2 537/39/2
f 409/38/2 537/39/2 538/33/2
f 411/29/2 410/34/2 538/33/2
f 411/29/2 539/30/2 540/22/2
s 3
f 129/84/3 66/117/4 1/85/4
f 128/87/5 129/84/3 65/86/3
f 127/89/6 128/87/5 64/88/5
f 126/91/7 127/89/6 63/90/6
f 125/93/8 126/91/7 62/92/7
f 124/95/9 125/93/8 61/94/8
f 123/97/10 124/95/9 60/96/9
f 122/99/11 123/97/10 59/98/10
f 121/101/12 122/99/11 58/100/11
f 120/103/13 121/101/12 57/102/12
f 119/105/14 120/103/13 56/104/13
f 118/107/15 119/105/14 55/106/14
f 117/109/16 118/107/15 54/108/15
f 116/111/17 117/109/16 53/110/16
f 115/113/18 116/111/17 52/112/17
f 114/115/19 115/113/18 51/114/18
f 113/113/20 114/115/19 50/116/19
f 112/111/21 113/113/20 49/114/20
f 111/109/22 112/111/21 48/112/21
f 110/107/23 111/109/22 47/110/22
f 109/105/24 110/107/23 46/108/23
f 108/103/25 109/105/24 45/106/24
f 107/101/26 108/103/25 44/104/25
f 106/99/27 107/101/26 43/102/26
f 105/97/28 106/99/27 42/100/27
f 104/95/29 105/97/28 41/98/28
f 103/93/30 104/95/29 40/96/29
f 102/91/31 103/93/30 39/94/30
f 101/89/32 102/91/31 38/92/31
f 100/87/33 101/89/32 37/90/32
f 99/84/34 100/87/33 36/88/33
f 98/117/35 99/84/34 35/86/34
f 97/118/36 98/117/35 34/85/35
f 96/120/37 97/118/36 33/119/36
f 95/122/38 96/120/37 32/121/37
f 94/124/39 95/122/38 31/123/38
f 93/126/40 94/124/39 30/125/39
f 92/128/41 93/126/40 29/127/40
f 91/130/42 92/128/41 28/129/41
f 90/132/43 91/130/42 27/131/42
f 89/134/44 90/132/43 26/133/43
f 88/136/45 89/134/44 25/135/44
f 87/138/46 88/136/45 24/137/45
f 86/140/47 87/138/46 23/139/46
f 85/142/48 86/140/47 22/141/47
f 84/144/49 85/142/48 21/143/48
f 83/146/50 84/144/49 20/145/49
f 82/148/51 83/146/50 19/147/50
f 81/146/52 82/148/51 18/149/51
f 80/144/53 81/146/52 17/147/52
f 79/142/54 80/144/53 16/145/53
f 78/140/55 79/142/54 15/143/54
f 77/138/56 78/140/55 14/141/55
f 76/136/57 77/138/56 13/139/56
f 75/134/58 76/136/57 12/137/57
f 74/132/59 75/134/58 11/135/58
f 73/130/60 74/132/59 10/133/59
f 72/128/61 73/130/60 9/131/60
f 71/126/62 72/128/61 8/129/61
f 70/124/63 71/126/62 7/127/62
f 69/122/64 70/124/63 6/125/63
f 68/120/65 69/122/64 5/123/64
f 67/118/66 68/120/65 4/121/65
f 66/117/4 67/118/66 3/119/66
s 4
f 164/150/2 165/157/2 262/151/2
s 5
f 75/134/1 211/189/1 213/153/1
f 128/87/1 127/89/1 315/154/1
s 4
f 166/156/2 264/161/2 262/151/2
s 5
f 77/138/1 76/136/1 213/153/1
f 128/87/1 317/155/1 319/159/1
s 4
f 166/156/2 167/163/2 266/160/2
s 5
f 77/138/1 215/158/1 217/162/1
f 66/117/1 129/84/1 319/159/1
s 4
f 167/163/2 168/166/2 268/164/2
s 5
f 78/140/1 217/162/1 219/165/1
s 4
f 168/166/2 169/170/2 270/167/2
s 5
f 80/144/1 79/142/1 219/165/1
s 4
f 170/169/2 272/173/2 270/167/2
s 5
f 80/144/1 221/168/1 223/171/1
s 4
f 171/172/2 274/176/2 272/173/2
s 5
f 81/146/1 223/171/1 225/174/1
s 4
f 172/175/2 276/178/2 274/176/2
s 5
f 82/148/1 225/174/1 227/171/1
s 4
f 173/177/2 278/180/2 276/178/2
s 5
f 84/144/1 83/146/1 227/171/1
s 4
f 174/179/2 280/182/2 278/180/2
s 5
f 84/144/1 229/168/1 231/165/1
s 4
f 174/179/2 175/184/2 282/181/2
s 5
f 85/142/1 231/165/1 233/162/1
s 4
f 176/183/2 284/186/2 282/181/2
s 5
f 86/140/1 233/162/1 235/158/1
s 4
f 176/183/2 177/188/2 286/185/2
s 5
f 87/138/1 235/158/1 237/153/1
s 4
f 178/187/2 288/190/2 286/185/2
s 5
f 88/136/1 237/153/1 239/189/1
s 4
f 179/188/2 290/185/2 288/190/2
s 5
f 89/134/1 239/189/1 241/191/1
s 4
f 180/183/2 292/186/2 290/185/2
s 5
f 90/132/1 241/191/1 243/192/1
s 4
f 181/184/2 294/181/2 292/186/2
s 5
f 92/128/1 91/130/1 243/192/1
s 4
f 182/179/2 296/182/2 294/181/2
s 5
f 92/128/1 245/193/1 247/194/1
s 4
f 131/195/2 194/199/2 321/196/2
f 182/179/2 183/177/2 298/180/2
s 5
f 94/124/1 93/126/1 247/194/1
s 4
f 132/198/2 196/202/2 194/199/2
f 184/175/2 300/178/2 298/180/2
s 5
f 94/124/1 249/197/1 251/200/1
s 4
f 132/198/2 133/204/2 198/201/2
f 185/172/2 302/176/2 300/178/2
s 5
f 96/120/1 95/122/1 251/200/1
s 4
f 133/204/2 134/208/2 200/205/2
f 186/169/2 304/173/2 302/176/2
s 5
f 96/120/1 253/203/1 255/206/1
s 4
f 135/207/2 202/210/2 200/205/2
f 187/170/2 306/167/2 304/173/2
s 5
f 97/118/1 255/206/1 257/117/1
s 4
f 136/209/2 204/212/2 202/210/2
f 188/166/2 308/164/2 306/167/2
s 5
f 98/117/1 257/117/1 259/159/1
s 4
f 136/209/2 137/214/2 206/211/2
f 189/163/2 310/160/2 308/164/2
s 5
f 100/87/1 99/84/1 259/159/1
s 4
f 138/213/2 208/216/2 206/211/2
f 190/156/2 312/161/2 310/160/2
s 5
f 100/87/1 261/155/1 263/154/1
s 4
f 139/215/2 210/231/2 208/216/2
s 6
f 318/217/3 321/196/4 320/117/4
f 316/152/5 318/217/3 319/159/3
f 314/151/6 316/152/5 317/155/5
f 312/161/7 314/151/6 315/154/6
f 310/160/8 312/161/7 313/218/7
f 308/164/9 310/160/8 311/219/8
f 306/167/10 308/164/9 309/220/9
f 304/173/11 306/167/10 307/221/10
f 302/176/12 304/173/11 305/222/11
f 300/178/13 302/176/12 303/223/12
f 298/180/14 300/178/13 301/224/13
f 296/182/15 298/180/14 299/225/14
f 294/181/16 296/182/15 297/226/15
f 292/186/17 294/181/16 295/227/16
f 290/185/18 292/186/17 293/228/17
f 288/190/19 290/185/18 291/229/18
f 286/185/20 288/190/19 289/230/19
f 284/186/21 286/185/20 287/229/20
f 282/181/22 284/186/21 285/228/21
f 280/182/23 282/181/22 283/227/22
f 278/180/24 280/182/23 281/226/23
f 276/178/25 278/180/24 279/225/24
f 274/176/26 276/178/25 277/224/25
f 272/173/27 274/176/26 275/223/26
f 270/167/28 272/173/27 273/222/27
f 268/164/29 270/167/28 271/221/28
f 266/160/30 268/164/29 269/220/29
f 264/161/31 266/160/30 267/219/30
f 262/151/32 264/161/31 265/218/31
f 260/152/33 262/151/32 263/154/32
f 258/217/34 260/152/33 261/155/33
f 256/196/35 258/217/34 259/159/34
f 254/199/36 256/196/35 257/117/35
f 252/202/37 254/199/36 255/206/36
f 250/201/38 252/202/37 253/203/37
f 248/205/39 250/201/38 251/200/38
f 246/210/40 248/205/39 249/197/39
f 244/212/41 246/210/40 247/194/40
f 242/211/42 244/212/41 245/193/41
f 240/216/43 242/211/42 243/192/42
f 238/231/44 240/216/43 241/191/43
f 236/232/45 238/231/44 239/189/44
f 234/233/46 236/232/45 237/153/45
f 232/234/47 234/233/46 235/158/46
f 230/235/48 232/234/47 233/162/47
f 228/236/49 230/235/48 231/165/48
f 226/237/50 228/236/49 229/168/49
f 224/238/51 226/237/50 227/171/50
f 222/237/52 224/238/51 225/174/51
f 220/236/53 222/237/52 223/171/52
f 218/235/54 220/236/53 221/168/53
f 216/234/55 218/235/54 219/165/54
f 214/233/56 216/234/55 217/162/55
f 212/232/57 214/233/56 215/158/56
f 210/231/58 212/232/57 213/153/57
f 208/216/59 210/231/58 211/189/58
f 206/211/60 208/216/59 209/191/59
f 204/212/61 206/211/60 207/192/60
f 202/210/62 204/212/61 205/193/61
f 200/205/63 202/210/62 203/194/62
f 198/201/64 200/205/63 201/197/63
f 196/202/65 198/201/64 199/200/64
f 194/199/66 196/202/65 197/203/65
f 321/196/4 194/199/66 195/206/66
s 5
f 127/89/1 126/91/1 313/218/1
f 74/132/1 209/191/1 211/189/1
s 4
f 164/150/2 260/152/2 258/217/2
s 5
f 126/91/1 125/93/1 311/219/1
f 74/132/1 73/130/1 207/192/1
s 4
f 162/196/2 163/239/2 258/217/2
s 5
f 125/93/1 124/95/1 309/220/1
f 72/128/1 205/193/1 207/192/1
s 4
f 161/195/2 162/196/2 256/196/2
s 5
f 123/97/1 307/221/1 309/220/1
f 72/128/1 71/126/1 203/194/1
s 4
f 161/195/2 254/199/2 252/202/2
s 5
f 123/97/1 122/99/1 305/222/1
f 71/126/1 70/124/1 201/197/1
s 4
f 160/198/2 252/202/2 250/201/2
s 5
f 122/99/1 121/101/1 303/223/1
f 70/124/1 69/122/1 199/200/1
s 4
f 158/208/2 159/204/2 250/201/2
s 5
f 121/101/1 120/103/1 301/224/1
f 68/120/1 197/203/1 199/200/1
s 4
f 158/208/2 248/205/2 246/210/2
s 5
f 119/105/1 299/225/1 301/224/1
f 67/118/1 195/206/1 197/203/1
s 4
f 156/209/2 157/207/2 246/210/2
s 5
f 118/107/1 297/226/1 299/225/1
f 67/118/1 66/117/1 320/117/1
s 4
f 156/209/2 244/212/2 242/211/2
s 5
f 118/107/1 117/109/1 295/227/1
s 4
f 154/213/2 155/214/2 242/211/2
s 5
f 116/111/1 293/228/1 295/227/1
s 4
f 153/215/2 154/213/2 240/216/2
s 5
f 115/113/1 291/229/1 293/228/1
s 4
f 152/240/2 153/215/2 238/231/2
s 5
f 114/115/1 289/230/1 291/229/1
s 4
f 152/240/2 236/232/2 234/233/2
s 5
f 113/113/1 287/229/1 289/230/1
s 4
f 150/242/2 151/241/2 234/233/2
s 5
f 112/111/1 285/228/1 287/229/1
s 4
f 150/242/2 232/234/2 230/235/2
s 5
f 111/109/1 283/227/1 285/228/1
s 4
f 148/244/2 149/243/2 230/235/2
s 5
f 110/107/1 281/226/1 283/227/1
s 4
f 148/244/2 228/236/2 226/237/2
s 5
f 110/107/1 109/105/1 279/225/1
s 4
f 147/245/2 226/237/2 224/238/2
s 5
f 108/103/1 277/224/1 279/225/1
s 4
f 146/246/2 224/238/2 222/237/2
s 5
f 107/101/1 275/223/1 277/224/1
s 4
f 144/244/2 145/245/2 222/237/2
s 5
f 106/99/1 273/222/1 275/223/1
s 4
f 144/244/2 220/236/2 218/235/2
s 5
f 105/97/1 271/221/1 273/222/1
s 4
f 143/243/2 218/235/2 216/234/2
s 5
f 104/95/1 269/220/1 271/221/1
s 4
f 130/196/2 321/196/2 318/217/2
f 142/242/2 216/234/2 214/233/2
s 5
f 103/93/1 267/219/1 269/220/1
s 4
f 192/150/2 193/239/2 318/217/2
f 141/241/2 214/233/2 212/232/2
s 5
f 102/91/1 265/218/1 267/219/1
s 4
f 192/150/2 316/152/2 314/151/2
f 139/215/2 140/240/2 212/232/2
s 5
f 102/91/1 101/89/1 263/154/1
s 4
f 191/157/2 314/151/2 312/161/2
s 7
f 385/247/3 322/263/4 130/196/4
f 384/248/5 385/247/3 193/239/3
f 383/249/6 384/248/5 192/150/5
f 382/250/7 383/249/6 191/157/6
f 381/251/8 382/250/7 190/156/7
f 380/252/9 381/251/8 189/163/8
f 379/253/10 380/252/9 188/166/9
f 378/254/11 379/253/10 187/170/10
f 377/255/12 378/254/11 186/169/11
f 376/256/13 377/255/12 185/172/12
f 375/257/14 376/256/13 184/175/13
f 374/258/15 375/257/14 183/177/14
f 373/259/16 374/258/15 182/179/15
f 372/260/17 373/259/16 181/184/16
f 371/261/67 372/260/17 180/183/17
f 370/262/19 371/261/67 179/188/18
f 369/261/68 370/262/19 178/187/19
f 368/260/21 369/261/68 177/188/20
f 367/259/22 368/260/21 176/183/21
f 366/258/23 367/259/22 175/184/22
f 365/257/24 366/258/23 174/179/23
f 364/256/25 365/257/24 173/177/24
f 363/255/26 364/256/25 172/175/25
f 362/254/27 363/255/26 171/172/26
f 361/253/28 362/254/27 170/169/27
f 360/252/29 361/253/28 169/170/28
f 359/251/30 360/252/29 168/166/29
f 358/250/31 359/251/30 167/163/30
f 357/249/32 358/250/31 166/156/31
f 356/248/33 357/249/32 165/157/32
f 355/247/34 356/248/33 164/150/33
f 354/263/35 355/247/34 163/239/34
f 353/264/36 354/263/35 162/196/35
f 352/265/37 353/264/36 161/195/36
f 351/266/38 352/265/37 160/198/37
f 350/267/39 351/266/38 159/204/38
f 349/268/40 350/267/39 158/208/39
f 348/269/41 349/268/40 157/207/40
f 347/270/42 348/269/41 156/209/41
f 346/271/43 347/270/42 155/214/42
f 345/272/44 346/271/43 154/213/43
f 344/273/45 345/272/44 153/215/44
f 343/274/46 344/273/45 152/240/45
f 342/275/47 343/274/46 151/241/46
f 341/276/48 342/275/47 150/242/47
f 340/277/49 341/276/48 149/243/48
f 339/278/69 340/277/49 148/244/49
f 338/279/51 339/278/69 147/245/50
f 337/278/70 338/279/51 146/246/51
f 336/277/53 337/278/70 145/245/52
f 335/276/54 336/277/53 144/244/53
f 334/275/55 335/276/54 143/243/54
f 333/274/56 334/275/55 142/242/55
f 332/273/57 333/274/56 141/241/56
f 331/272/58 332/273/57 140/240/57
f 330/271/59 331/272/58 139/215/58
f 329/270/60 330/271/59 138/213/59
f 328/269/61 329/270/60 137/214/60
f 327/268/62 328/269/61 136/209/61
f 326/267/63 327/268/62 135/207/62
f 325/266/64 326/267/63 134/208/63
f 324/265/65 325/266/64 133/204/64
f 323/264/66 324/265/65 132/198/65
f 322/263/4 323/264/66 131/195/66
s 2
f 436/280/2 437/287/2 674/281/2
s 8
f 379/253/1 687/490/1 689/283/1
f 329/270/1 328/269/1 589/284/1
s 2
f 438/286/2 676/293/2 674/281/2
s 8
f 381/251/1 380/252/1 689/283/1
s 2
f 387/289/2 578/296/2 701/58/2
s 8
f 329/270/1 591/285/1 593/290/1
s 9
f 403/66/34 608/305/34 609/291/34
s 2
f 439/292/2 678/299/2 676/293/2
s 8
f 381/251/1 691/288/1 693/294/1
s 2
f 387/289/2 388/301/2 580/295/2
s 8
f 330/271/1 593/290/1 595/297/1
s 2
f 440/298/2 680/306/2 678/299/2
s 8
f 382/250/1 693/294/1 695/300/1
s 2
f 389/11/2 582/308/2 580/295/2
s 7
f 434/302/19 435/303/77 371/261/67
f 433/303/71 434/302/19 370/262/19
s 8
f 331/272/1 595/297/1 597/304/1
s 10
f 337/278/3 607/291/3 606/305/3
s 2
f 441/4/2 682/310/2 680/306/2
s 8
f 383/249/1 695/300/1 697/307/1
s 2
f 390/13/2 584/312/2 582/308/2
s 8
f 332/273/1 597/304/1 599/309/1
s 2
f 442/15/2 684/314/2 682/310/2
s 8
f 385/247/1 384/248/1 697/307/1
s 2
f 391/17/2 586/315/2 584/312/2
s 8
f 333/274/1 599/309/1 601/313/1
s 2
f 443/18/2 686/318/2 684/314/2
s 8
f 385/247/1 699/311/1 700/263/1
s 2
f 392/23/2 588/319/2 586/315/2
s 8
f 334/275/1 601/313/1 603/316/1
s 2
f 443/18/2 444/26/2 688/317/2
f 393/29/2 590/321/2 588/319/2
s 8
f 336/277/1 335/276/1 603/316/1
s 2
f 445/32/2 690/322/2 688/317/2
f 394/34/2 592/323/2 590/321/2
s 8
f 337/278/1 336/277/1 605/320/1
s 2
f 446/35/2 692/324/2 690/322/2
f 395/38/2 594/326/2 592/323/2
f 447/42/2 694/327/2 692/324/2
f 395/38/2 396/45/2 596/325/2
f 448/48/2 696/328/2 694/327/2
f 397/50/2 598/330/2 596/325/2
s 11
f 339/278/1 609/291/1 611/320/1
s 2
f 449/51/2 698/331/2 696/328/2
f 397/50/2 398/55/2 600/329/2
s 11
f 340/277/1 611/320/1 613/316/1
s 7
f 402/70/51 403/66/78 339/278/69
f 401/66/72 402/70/51 338/279/51
s 2
f 449/51/2 386/58/2 701/58/2
f 398/55/2 399/60/2 602/332/2
s 11
f 342/275/1 341/276/1 613/316/1
s 2
f 400/63/2 604/333/2 602/332/2
s 11
f 343/274/1 342/275/1 615/313/1
s 2
f 401/66/2 606/305/2 604/333/2
s 11
f 343/274/1 617/309/1 619/304/1
f 344/273/1 619/304/1 621/297/1
f 345/272/1 621/297/1 623/290/1
s 2
f 403/66/2 404/63/2 610/333/2
s 11
f 346/271/1 623/290/1 625/285/1
s 2
f 404/63/2 405/60/2 612/332/2
s 11
f 347/270/1 625/285/1 627/284/1
s 2
f 406/55/2 614/329/2 612/332/2
s 11
f 348/269/1 627/284/1 629/334/1
s 12
f 451/1/4 450/336/66 515/335/66
f 450/336/66 453/338/65 516/337/65
f 453/338/65 454/80/64 517/339/64
f 454/80/64 455/76/63 518/12/63
f 455/76/63 456/72/62 519/16/62
f 456/72/62 457/64/61 520/22/61
f 457/64/61 458/53/60 521/30/60
f 458/53/60 459/37/59 522/33/59
f 459/37/59 460/21/58 523/39/58
f 460/21/58 461/20/57 524/46/57
f 461/20/57 462/340/56 525/49/56
f 462/340/56 463/341/55 526/54/55
f 463/341/55 464/342/54 527/61/54
f 464/342/54 465/343/53 528/62/53
f 465/343/53 466/344/52 529/65/52
f 466/344/52 467/345/51 530/71/51
f 467/345/51 468/344/50 531/65/50
f 468/344/50 469/343/49 532/62/49
f 469/343/49 470/346/48 533/61/48
f 470/346/48 471/81/47 534/54/47
f 471/81/47 472/77/46 535/49/46
f 472/77/46 473/73/45 536/46/45
f 473/73/45 474/67/44 537/39/44
f 474/67/44 475/56/43 538/33/43
f 475/56/43 476/40/42 539/30/42
f 476/40/42 477/24/41 540/22/41
f 477/24/41 478/3/40 541/16/40
f 478/3/40 479/2/39 542/12/39
f 479/2/39 480/347/38 543/339/38
f 480/347/38 481/348/37 544/337/37
f 481/348/37 482/349/36 545/335/36
f 482/349/36 483/350/35 546/58/35
f 483/350/35 484/351/34 547/52/34
f 484/351/34 485/352/33 548/47/33
f 485/352/33 486/353/32 549/41/32
f 486/353/32 487/354/31 550/36/31
f 487/354/31 488/82/30 551/31/30
f 488/82/30 489/78/29 552/25/29
f 489/78/29 490/74/28 553/19/28
f 490/74/28 491/68/27 554/14/27
f 491/68/27 492/57/26 555/6/26
f 492/57/26 493/43/25 556/5/25
f 493/43/25 494/27/24 557/355/24
f 494/27/24 495/8/23 558/356/23
f 495/8/23 496/7/22 559/357/22
f 496/7/22 497/359/21 560/358/21
f 497/359/21 498/361/20 561/360/20
f 498/361/20 499/363/19 562/362/19
f 499/363/19 500/361/18 563/360/18
f 500/361/18 501/359/17 564/358/17
f 501/359/17 502/364/16 565/357/16
f 502/364/16 503/365/15 566/356/15
f 503/365/15 504/366/14 567/355/14
f 504/366/14 505/83/13 568/5/13
f 505/83/13 506/79/12 569/6/12
f 506/79/12 507/75/11 570/14/11
f 507/75/11 508/69/10 571/19/10
f 508/69/10 509/59/9 572/25/9
f 509/59/9 510/44/8 573/31/8
f 510/44/8 511/28/7 574/36/7
f 511/28/7 512/10/6 575/41/6
f 512/10/6 513/9/5 576/47/5
f 513/9/5 514/367/3 577/52/3
f 514/367/3 451/1/4 452/58/4
s 2
f 389/11/2 388/301/2 516/337/2
f 439/292/2 567/355/2 568/5/2
f 387/289/2 515/335/2 516/337/2
f 438/286/2 566/356/2 567/355/2
f 387/289/2 386/58/2 452/58/2
f 437/287/2 565/357/2 566/356/2
f 437/287/2 436/280/2 564/358/2
f 435/303/2 563/360/2 564/358/2
f 435/303/2 434/302/2 562/362/2
f 433/303/2 561/360/2 562/362/2
f 433/303/2 432/280/2 560/358/2
f 431/287/2 559/357/2 560/358/2
f 431/287/2 430/286/2 558/356/2
f 430/286/2 429/292/2 557/355/2
f 428/298/2 556/5/2 557/355/2
f 427/4/2 555/6/2 556/5/2
f 427/4/2 426/15/2 554/14/2
f 425/18/2 553/19/2 554/14/2
f 425/18/2 424/26/2 552/25/2
f 424/26/2 423/32/2 551/31/2
f 422/35/2 550/36/2 551/31/2
f 421/42/2 549/41/2 550/36/2
f 421/42/2 420/48/2 548/47/2
f 419/51/2 547/52/2 548/47/2
f 419/51/2 418/58/2 546/58/2
f 417/289/2 545/335/2 546/58/2
f 417/289/2 416/301/2 544/337/2
f 415/11/2 543/339/2 544/337/2
f 415/11/2 414/13/2 542/12/2
f 414/13/2 413/17/2 541/16/2
f 413/17/2 412/23/2 540/22/2
s 8
f 327/268/1 587/334/1 589/284/1
f 378/254/1 685/492/1 687/490/1
s 2
f 436/280/2 672/282/2 670/491/2
s 8
f 326/267/1 585/493/1 587/334/1
f 377/255/1 683/495/1 685/492/1
f 325/266/1 583/496/1 585/493/1
f 377/255/1 376/256/1 681/494/1
f 324/265/1 581/498/1 583/496/1
f 376/256/1 375/257/1 679/497/1
s 2
f 433/303/2 668/491/2 666/282/2
s 8
f 323/264/1 579/500/1 581/498/1
f 375/257/1 374/258/1 677/499/1
s 2
f 432/280/2 666/282/2 664/281/2
s 8
f 323/264/1 322/263/1 700/263/1
f 374/258/1 373/259/1 675/501/1
s 2
f 430/286/2 431/287/2 664/281/2
s 8
f 372/260/1 673/502/1 675/501/1
s 2
f 429/292/2 430/286/2 662/293/2
s 8
f 371/261/1 671/503/1 673/502/1
s 2
f 429/292/2 660/299/2 658/306/2
f 428/298/2 658/306/2 656/310/2
f 427/4/2 656/310/2 654/314/2
s 11
f 368/260/1 667/502/1 669/503/1
s 2
f 426/15/2 654/314/2 652/318/2
s 11
f 368/260/1 367/259/1 665/501/1
s 2
f 425/18/2 652/318/2 650/317/2
s 11
f 366/258/1 663/499/1 665/501/1
s 2
f 423/32/2 424/26/2 650/317/2
s 11
f 365/257/1 661/497/1 663/499/1
s 2
f 423/32/2 648/322/2 646/324/2
s 11
f 364/256/1 659/494/1 661/497/1
s 2
f 422/35/2 646/324/2 644/327/2
s 11
f 364/256/1 363/255/1 657/495/1
s 2
f 420/48/2 421/42/2 644/327/2
s 11
f 363/255/1 362/254/1 655/492/1
s 2
f 420/48/2 642/328/2 640/331/2
s 11
f 362/254/1 361/253/1 653/490/1
s 2
f 419/51/2 640/331/2 638/58/2
s 11
f 360/252/1 651/283/1 653/490/1
s 2
f 417/289/2 418/58/2 638/58/2
s 11
f 359/251/1 649/288/1 651/283/1
s 2
f 416/301/2 417/289/2 636/296/2
s 11
f 358/250/1 647/294/1 649/288/1
s 2
f 416/301/2 634/295/2 632/308/2
s 11
f 358/250/1 357/249/1 645/300/1
s 2
f 414/13/2 415/11/2 632/308/2
s 11
f 356/248/1 643/307/1 645/300/1
s 2
f 414/13/2 630/312/2 628/315/2
s 11
f 355/247/1 641/311/1 643/307/1
s 2
f 413/17/2 628/315/2 626/319/2
s 11
f 355/247/1 354/263/1 639/263/1
s 2
f 412/23/2 626/319/2 624/321/2
s 11
f 353/264/1 637/500/1 639/263/1
s 2
f 410/34/2 411/29/2 624/321/2
s 11
f 352/265/1 635/498/1 637/500/1
s 2
f 409/38/2 410/34/2 622/323/2
s 11
f 352/265/1 351/266/1 633/496/1
s 2
f 408/45/2 409/38/2 620/326/2
s 15
f 369/261/36 669/503/36 668/491/36
s 11
f 350/267/1 631/493/1 633/496/1
s 2
f 407/50/2 408/45/2 618/325/2
s 11
f 349/268/1 629/334/1 631/493/1
s 2
f 407/50/2 616/330/2 614/329/2
s 16
f 435/303/66 670/491/66 671/503/66
s 13
g advertising_column_01_big_advertising_panels
usemtl advertising_panels
f 698/368/3 700/369/4 699/370/3
f 696/371/5 699/370/3 697/372/5
f 694/373/6 697/372/5 695/374/6
f 692/375/7 695/374/6 693/376/7
f 690/377/8 693/376/7 691/378/8
f 688/379/9 691/378/8 689/380/9
f 686/381/10 689/380/9 687/382/10
f 684/383/11 687/382/10 685/384/11
f 682/385/12 685/384/11 683/386/12
f 680/387/13 683/386/12 681/388/13
f 678/389/14 681/388/13 679/390/14
f 676/391/15 679/390/14 677/392/15
f 674/393/16 677/392/15 675/394/16
f 672/395/17 675/394/16 673/396/17
f 670/397/73 673/396/17 671/398/73
s 14
f 666/399/21 669/400/74 667/401/21
f 664/402/22 667/401/21 665/403/22
f 662/404/23 665/403/22 663/405/23
f 660/406/24 663/405/23 661/407/24
f 658/408/25 661/407/24 659/409/25
f 656/410/26 659/409/25 657/411/26
f 654/412/27 657/411/26 655/413/27
f 652/414/28 655/413/27 653/415/28
f 650/416/29 653/415/28 651/417/29
f 648/418/30 651/417/29 649/419/30
f 646/420/31 649/419/30 647/421/31
f 644/422/32 647/421/31 645/423/32
f 642/424/33 645/423/32 643/425/33
f 640/426/34 643/425/33 641/427/34
f 638/428/35 641/427/34 639/429/35
f 636/430/36 639/429/35 637/431/36
f 634/432/37 637/431/36 635/433/37
f 632/434/38 635/433/37 633/435/38
f 630/436/39 633/435/38 631/437/39
f 628/438/40 631/437/39 629/439/40
f 626/440/41 629/439/40 627/441/41
f 624/442/42 627/441/41 625/443/42
f 622/444/43 625/443/42 623/445/43
f 620/446/44 623/445/43 621/447/44
f 618/448/45 621/447/44 619/449/45
f 616/450/46 619/449/45 617/451/46
f 614/452/47 617/451/46 615/453/47
f 612/454/48 615/453/47 613/455/48
f 610/456/49 613/455/48 611/457/49
f 608/458/75 611/457/49 609/459/75
s 13
f 604/460/53 607/461/76 605/462/53
f 602/463/54 605/462/53 603/464/54
f 600/465/55 603/464/54 601/466/55
f 598/467/56 601/466/55 599/468/56
f 596/469/57 599/468/56 597/470/57
f 594/471/58 597/470/57 595/472/58
f 592/473/59 595/472/58 593/474/59
f 590/475/60 593/474/59 591/476/60
f 588/477/61 591/476/60 589/478/61
f 586/479/62 589/478/61 587/480/62
f 584/481/63 587/480/62 585/482/63
f 582/483/64 585/482/63 583/484/64
f 580/485/65 583/484/64 581/486/65
f 578/487/66 581/486/65 579/488/66
f 701/489/4 579/488/66 700/369/4
f 698/368/3 701/489/4 700/369/4
f 696/371/5 698/368/3 699/370/3
f 694/373/6 696/371/5 697/372/5
f 692/375/7 694/373/6 695/374/6
f 690/377/8 692/375/7 693/376/7
f 688/379/9 690/377/8 691/378/8
f 686/381/10 688/379/9 689/380/9
f 684/383/11 686/381/10 687/382/10
f 682/385/12 684/383/11 685/384/11
f 680/387/13 682/385/12 683/386/12
f 678/389/14 680/387/13 681/388/13
f 676/391/15 678/389/14 679/390/14
f 674/393/16 676/391/15 677/392/15
f 672/395/17 674/393/16 675/394/16
f 670/397/73 672/395/17 673/396/17
s 14
f 666/399/21 668/504/74 669/400/74
f 664/402/22 666/399/21 667/401/21
f 662/404/23 664/402/22 665/403/22
f 660/406/24 662/404/23 663/405/23
f 658/408/25 660/406/24 661/407/24
f 656/410/26 658/408/25 659/409/25
f 654/412/27 656/410/26 657/411/26
f 652/414/28 654/412/27 655/413/27
f 650/416/29 652/414/28 653/415/28
f 648/418/30 650/416/29 651/417/29
f 646/420/31 648/418/30 649/419/30
f 644/422/32 646/420/31 647/421/31
f 642/424/33 644/422/32 645/423/32
f 640/426/34 642/424/33 643/425/33
f 638/428/35 640/426/34 641/427/34
f 636/430/36 638/428/35 639/429/35
f 634/432/37 636/430/36 637/431/36
f 632/434/38 634/432/37 635/433/37
f 630/436/39 632/434/38 633/435/38
f 628/438/40 630/436/39 631/437/39
f 626/440/41 628/438/40 629/439/40
f 624/442/42 626/440/41 627/441/41
f 622/444/43 624/442/42 625/443/42
f 620/446/44 622/444/43 623/445/43
f 618/448/45 620/446/44 621/447/44
f 616/450/46 618/448/45 619/449/45
f 614/452/47 616/450/46 617/451/46
f 612/454/48 614/452/47 615/453/47
f 610/456/49 612/454/48 613/455/48
f 608/458/75 610/456/49 611/457/49
s 13
f 604/460/53 606/505/76 607/461/76
f 602/463/54 604/460/53 605/462/53
f 600/465/55 602/463/54 603/464/54
f 598/467/56 600/465/55 601/466/55
f 596/469/57 598/467/56 599/468/56
f 594/471/58 596/469/57 597/470/57
f 592/473/59 594/471/58 595/472/58
f 590/475/60 592/473/59 593/474/59
f 588/477/61 590/475/60 591/476/60
f 586/479/62 588/477/61 589/478/61
f 584/481/63 586/479/62 587/480/62
f 582/483/64 584/481/63 585/482/63
f 580/485/65 582/483/64 583/484/64
f 578/487/66 580/485/65 581/486/65
f 701/489/4 578/487/66 579/488/66
