# Blender 4.5.2 LTS
# www.blender.org
mtllib pallet_medium_01.mtl
g pallet_medium_01_Mesh
v -0.501500 0.132000 -0.600000
v -0.501500 0.112000 -0.600000
v -0.501500 0.132000 0.600000
v -0.501500 0.112000 0.600000
v -0.401500 0.132000 -0.600000
v -0.401500 0.112000 -0.600000
v -0.401500 0.132000 0.600000
v -0.401500 0.112000 0.600000
v -0.351000 0.132000 -0.600000
v -0.351000 0.112000 -0.600000
v -0.351000 0.132000 0.600000
v -0.351000 0.112000 0.600000
v -0.251000 0.132000 -0.600000
v -0.251000 0.112000 -0.600000
v -0.251000 0.132000 0.600000
v -0.251000 0.112000 0.600000
v -0.200500 0.132000 -0.600000
v -0.200500 0.112000 -0.600000
v -0.200500 0.132000 0.600000
v -0.200500 0.112000 0.600000
v -0.100500 0.132000 -0.600000
v -0.100500 0.112000 -0.600000
v -0.100500 0.132000 0.600000
v -0.100500 0.112000 0.600000
v -0.050000 0.132000 -0.600000
v -0.050000 0.112000 -0.600000
v -0.050000 0.132000 0.600000
v -0.050000 0.112000 0.600000
v 0.050000 0.132000 -0.600000
v 0.050000 0.112000 -0.600000
v 0.050000 0.132000 0.600000
v 0.050000 0.112000 0.600000
v 0.100500 0.132000 -0.600000
v 0.100500 0.112000 -0.600000
v 0.100500 0.132000 0.600000
v 0.100500 0.112000 0.600000
v 0.200500 0.132000 -0.600000
v 0.200500 0.112000 -0.600000
v 0.200500 0.132000 0.600000
v 0.200500 0.112000 0.600000
v 0.251000 0.132000 -0.600000
v 0.251000 0.112000 -0.600000
v 0.251000 0.132000 0.600000
v 0.251000 0.112000 0.600000
v 0.351000 0.132000 -0.600000
v 0.351000 0.112000 -0.600000
v 0.351000 0.132000 0.600000
v 0.351000 0.112000 0.600000
v 0.401500 0.132000 -0.600000
v 0.401500 0.112000 -0.600000
v 0.401500 0.132000 0.600000
v 0.401500 0.112000 0.600000
v 0.501500 0.132000 -0.600000
v 0.501500 0.112000 -0.600000
v 0.501500 0.132000 0.600000
v 0.501500 0.112000 0.600000
v -0.501500 0.020000 -0.600000
v -0.501500 0.000000 -0.600000
v -0.501500 0.020000 0.600000
v -0.501500 0.000000 0.600000
v -0.401500 0.020000 -0.600000
v -0.401500 0.000000 -0.600000
v -0.401500 0.020000 0.600000
v -0.401500 0.000000 0.600000
v -0.050000 0.020000 -0.600000
v -0.050000 0.000000 -0.600000
v -0.050000 0.020000 0.600000
v -0.050000 0.000000 0.600000
v 0.050000 0.020000 -0.600000
v 0.050000 0.000000 -0.600000
v 0.050000 0.020000 0.600000
v 0.050000 0.000000 0.600000
v 0.401500 0.020000 -0.600000
v 0.401500 0.000000 -0.600000
v 0.401500 0.020000 0.600000
v 0.401500 0.000000 0.600000
v 0.501500 0.020000 -0.600000
v 0.501500 0.000000 -0.600000
v 0.501500 0.020000 0.600000
v 0.501500 0.000000 0.600000
v 0.501500 0.112000 -0.600000
v 0.501500 0.092000 -0.600000
v -0.501500 0.112000 -0.600000
v -0.501500 0.092000 -0.600000
v 0.501500 0.112000 -0.500000
v 0.501500 0.092000 -0.500000
v -0.501500 0.112000 -0.500000
v -0.501500 0.092000 -0.500000
v 0.050000 0.092000 -0.600000
v 0.050000 0.020000 -0.600000
v -0.050000 0.092000 -0.600000
v -0.050000 0.020000 -0.600000
v 0.050000 0.092000 -0.500000
v 0.050000 0.020000 -0.500000
v -0.050000 0.092000 -0.500000
v -0.050000 0.020000 -0.500000
v 0.501500 0.112000 -0.050000
v 0.501500 0.092000 -0.050000
v -0.501500 0.112000 -0.050000
v -0.501500 0.092000 -0.050000
v 0.501500 0.112000 0.050000
v 0.501500 0.092000 0.050000
v -0.501500 0.112000 0.050000
v -0.501500 0.092000 0.050000
v 0.501500 0.112000 0.500000
v 0.501500 0.092000 0.500000
v -0.501500 0.112000 0.500000
v -0.501500 0.092000 0.500000
v 0.501500 0.112000 0.600000
v 0.501500 0.092000 0.600000
v -0.501500 0.112000 0.600000
v -0.501500 0.092000 0.600000
v -0.401500 0.092000 -0.600000
v -0.401500 0.020000 -0.600000
v -0.501500 0.092000 -0.600000
v -0.501500 0.020000 -0.600000
v -0.401500 0.092000 -0.500000
v -0.401500 0.020000 -0.500000
v -0.501500 0.092000 -0.500000
v -0.501500 0.020000 -0.500000
v 0.501500 0.092000 -0.600000
v 0.501500 0.020000 -0.600000
v 0.401500 0.092000 -0.600000
v 0.401500 0.020000 -0.600000
v 0.501500 0.092000 -0.500000
v 0.501500 0.020000 -0.500000
v 0.401500 0.092000 -0.500000
v 0.401500 0.020000 -0.500000
v 0.501500 0.092000 -0.050000
v 0.501500 0.020000 -0.050000
v 0.401500 0.092000 -0.050000
v 0.401500 0.020000 -0.050000
v 0.501500 0.092000 0.050000
v 0.501500 0.020000 0.050000
v 0.401500 0.092000 0.050000
v 0.401500 0.020000 0.050000
v 0.501500 0.092000 0.500000
v 0.501500 0.020000 0.500000
v 0.401500 0.092000 0.500000
v 0.401500 0.020000 0.500000
v 0.501500 0.092000 0.600000
v 0.501500 0.020000 0.600000
v 0.401500 0.092000 0.600000
v 0.401500 0.020000 0.600000
v 0.050000 0.092000 0.500000
v 0.050000 0.020000 0.500000
v -0.050000 0.092000 0.500000
v -0.050000 0.020000 0.500000
v 0.050000 0.092000 0.600000
v 0.050000 0.020000 0.600000
v -0.050000 0.092000 0.600000
v -0.050000 0.020000 0.600000
v -0.401500 0.092000 0.500000
v -0.401500 0.020000 0.500000
v -0.501500 0.092000 0.500000
v -0.501500 0.020000 0.500000
v -0.401500 0.092000 0.600000
v -0.401500 0.020000 0.600000
v -0.501500 0.092000 0.600000
v -0.501500 0.020000 0.600000
v -0.401500 0.092000 -0.050000
v -0.401500 0.020000 -0.050000
v -0.501500 0.092000 -0.050000
v -0.501500 0.020000 -0.050000
v -0.401500 0.092000 0.050000
v -0.401500 0.020000 0.050000
v -0.501500 0.092000 0.050000
v -0.501500 0.020000 0.050000
v 0.050000 0.092000 -0.050000
v 0.050000 0.020000 -0.050000
v -0.050000 0.092000 -0.050000
v -0.050000 0.020000 -0.050000
v 0.050000 0.092000 0.050000
v 0.050000 0.020000 0.050000
v -0.050000 0.092000 0.050000
v -0.050000 0.020000 0.050000
v -0.457145 0.132745 -0.003585
v 0.000000 0.132745 0.000000
v 0.000000 0.130642 -0.003000
v 0.000000 0.132745 -0.003000
v 0.001763 0.130642 -0.002427
v 0.001763 0.132745 -0.002427
v 0.002853 0.130642 -0.000927
v 0.002853 0.132745 -0.000927
v 0.002853 0.130642 0.000927
v 0.002853 0.132745 0.000927
v 0.001763 0.130642 0.002427
v 0.001763 0.132745 0.002427
v 0.000000 0.130642 0.003000
v 0.000000 0.132745 0.003000
v -0.001763 0.130642 0.002427
v -0.001763 0.132745 0.002427
v -0.002853 0.130642 0.000927
v -0.002853 0.132745 0.000927
v -0.002853 0.130642 -0.000927
v -0.002853 0.132745 -0.000927
v -0.001763 0.130642 -0.002427
v -0.001763 0.132745 -0.002427
v -0.457145 0.130642 -0.006585
v -0.457145 0.132745 -0.006585
v -0.455382 0.130642 -0.006013
v -0.455382 0.132745 -0.006013
v -0.454292 0.130642 -0.004513
v -0.454292 0.132745 -0.004513
v -0.454292 0.130642 -0.002658
v -0.454292 0.132745 -0.002658
v -0.455382 0.130642 -0.001158
v -0.455382 0.132745 -0.001158
v -0.457145 0.130642 -0.000585
v -0.457145 0.132745 -0.000585
v -0.458909 0.130642 -0.001158
v -0.458909 0.132745 -0.001158
v -0.459999 0.130642 -0.002658
v -0.459999 0.132745 -0.002658
v -0.459999 0.130642 -0.004513
v -0.459999 0.132745 -0.004513
v -0.458909 0.130642 -0.006013
v -0.458909 0.132745 -0.006013
v 0.453560 0.132745 -0.006275
v 0.453560 0.130642 -0.009275
v 0.453560 0.132745 -0.009275
v 0.455323 0.130642 -0.008702
v 0.455323 0.132745 -0.008702
v 0.456413 0.130642 -0.007202
v 0.456413 0.132745 -0.007202
v 0.456413 0.130642 -0.005347
v 0.456413 0.132745 -0.005347
v 0.455323 0.130642 -0.003847
v 0.455323 0.132745 -0.003847
v 0.453560 0.130642 -0.003275
v 0.453560 0.132745 -0.003275
v 0.451797 0.130642 -0.003847
v 0.451797 0.132745 -0.003847
v 0.450707 0.130642 -0.005347
v 0.450707 0.132745 -0.005347
v 0.450707 0.130642 -0.007202
v 0.450707 0.132745 -0.007202
v 0.451797 0.130642 -0.008702
v 0.451797 0.132745 -0.008702
v 0.447285 0.132745 0.565606
v 0.447285 0.130642 0.562606
v 0.447285 0.132745 0.562606
v 0.449049 0.130642 0.563178
v 0.449049 0.132745 0.563178
v 0.450139 0.130642 0.564678
v 0.450139 0.132745 0.564678
v 0.450139 0.130642 0.566533
v 0.450139 0.132745 0.566533
v 0.449049 0.130642 0.568033
v 0.449049 0.132745 0.568033
v 0.447285 0.130642 0.568605
v 0.447285 0.132745 0.568605
v 0.445522 0.130642 0.568033
v 0.445522 0.132745 0.568033
v 0.444432 0.130642 0.566533
v 0.444432 0.132745 0.566533
v 0.444432 0.130642 0.564678
v 0.444432 0.132745 0.564678
v 0.445522 0.130642 0.563178
v 0.445522 0.132745 0.563178
v 0.465213 0.132745 0.544989
v 0.465213 0.130642 0.541989
v 0.465213 0.132745 0.541989
v 0.466976 0.130642 0.542562
v 0.466976 0.132745 0.542562
v 0.468066 0.130642 0.544062
v 0.468066 0.132745 0.544062
v 0.468066 0.130642 0.545916
v 0.468066 0.132745 0.545916
v 0.466976 0.130642 0.547416
v 0.466976 0.132745 0.547416
v 0.465213 0.130642 0.547989
v 0.465213 0.132745 0.547989
v 0.463449 0.130642 0.547416
v 0.463449 0.132745 0.547416
v 0.462360 0.130642 0.545916
v 0.462360 0.132745 0.545916
v 0.462360 0.130642 0.544062
v 0.462360 0.132745 0.544062
v 0.463449 0.130642 0.542562
v 0.463449 0.132745 0.542562
v 0.299385 0.132745 0.555746
v 0.299385 0.130642 0.552746
v 0.299385 0.132745 0.552746
v 0.301149 0.130642 0.553318
v 0.301149 0.132745 0.553318
v 0.302239 0.130642 0.554818
v 0.302239 0.132745 0.554818
v 0.302239 0.130642 0.556673
v 0.302239 0.132745 0.556673
v 0.301149 0.130642 0.558173
v 0.301149 0.132745 0.558173
v 0.299385 0.130642 0.558746
v 0.299385 0.132745 0.558746
v 0.297622 0.130642 0.558173
v 0.297622 0.132745 0.558173
v 0.296532 0.130642 0.556673
v 0.296532 0.132745 0.556673
v 0.296532 0.130642 0.554818
v 0.296532 0.132745 0.554818
v 0.297622 0.130642 0.553318
v 0.297622 0.132745 0.553318
v 0.151485 0.132745 0.540507
v 0.151485 0.130642 0.537507
v 0.151485 0.132745 0.537507
v 0.153249 0.130642 0.538080
v 0.153249 0.132745 0.538080
v 0.154339 0.130642 0.539580
v 0.154339 0.132745 0.539580
v 0.154339 0.130642 0.541434
v 0.154339 0.132745 0.541434
v 0.153249 0.130642 0.542934
v 0.153249 0.132745 0.542934
v 0.151485 0.130642 0.543507
v 0.151485 0.132745 0.543507
v 0.149722 0.130642 0.542934
v 0.149722 0.132745 0.542934
v 0.148632 0.130642 0.541434
v 0.148632 0.132745 0.541434
v 0.148632 0.130642 0.539580
v 0.148632 0.132745 0.539580
v 0.149722 0.130642 0.538080
v 0.149722 0.132745 0.538080
v -0.017031 0.132745 0.539611
v -0.017031 0.130642 0.536611
v -0.017031 0.132745 0.536611
v -0.015268 0.130642 0.537184
v -0.015268 0.132745 0.537184
v -0.014178 0.130642 0.538684
v -0.014178 0.132745 0.538684
v -0.014178 0.130642 0.540538
v -0.014178 0.132745 0.540538
v -0.015268 0.130642 0.542038
v -0.015268 0.132745 0.542038
v -0.017031 0.130642 0.542611
v -0.017031 0.132745 0.542611
v -0.018794 0.130642 0.542038
v -0.018794 0.132745 0.542038
v -0.019884 0.130642 0.540538
v -0.019884 0.132745 0.540538
v -0.019884 0.130642 0.538684
v -0.019884 0.132745 0.538684
v -0.018794 0.130642 0.537184
v -0.018794 0.132745 0.537184
v -0.164931 0.132745 0.551264
v -0.164931 0.130642 0.548264
v -0.164931 0.132745 0.548264
v -0.163168 0.130642 0.548837
v -0.163168 0.132745 0.548837
v -0.162078 0.130642 0.550337
v -0.162078 0.132745 0.550337
v -0.162078 0.130642 0.552191
v -0.162078 0.132745 0.552191
v -0.163168 0.130642 0.553691
v -0.163168 0.132745 0.553691
v -0.164931 0.130642 0.554264
v -0.164931 0.132745 0.554264
v -0.166694 0.130642 0.553691
v -0.166694 0.132745 0.553691
v -0.167784 0.130642 0.552191
v -0.167784 0.132745 0.552191
v -0.167784 0.130642 0.550337
v -0.167784 0.132745 0.550337
v -0.166694 0.130642 0.548837
v -0.166694 0.132745 0.548837
v -0.302971 0.132745 0.536026
v -0.302971 0.130642 0.533026
v -0.302971 0.132745 0.533026
v -0.301208 0.130642 0.533598
v -0.301208 0.132745 0.533598
v -0.300118 0.130642 0.535098
v -0.300118 0.132745 0.535098
v -0.300118 0.130642 0.536953
v -0.300118 0.132745 0.536953
v -0.301208 0.130642 0.538453
v -0.301208 0.132745 0.538453
v -0.302971 0.130642 0.539025
v -0.302971 0.132745 0.539025
v -0.304734 0.130642 0.538453
v -0.304734 0.132745 0.538453
v -0.305824 0.130642 0.536953
v -0.305824 0.132745 0.536953
v -0.305824 0.130642 0.535098
v -0.305824 0.132745 0.535098
v -0.304734 0.130642 0.533598
v -0.304734 0.132745 0.533598
v -0.433840 0.132745 0.554849
v -0.433840 0.130642 0.551849
v -0.433840 0.132745 0.551849
v -0.432077 0.130642 0.552422
v -0.432077 0.132745 0.552422
v -0.430987 0.130642 0.553922
v -0.430987 0.132745 0.553922
v -0.430987 0.130642 0.555776
v -0.430987 0.132745 0.555776
v -0.432077 0.130642 0.557276
v -0.432077 0.132745 0.557276
v -0.433840 0.130642 0.557849
v -0.433840 0.132745 0.557849
v -0.435603 0.130642 0.557276
v -0.435603 0.132745 0.557276
v -0.436693 0.130642 0.555776
v -0.436693 0.132745 0.555776
v -0.436693 0.130642 0.553922
v -0.436693 0.132745 0.553922
v -0.435603 0.130642 0.552422
v -0.435603 0.132745 0.552422
v -0.464316 0.132745 0.545886
v -0.464316 0.130642 0.542885
v -0.464316 0.132745 0.542885
v -0.462553 0.130642 0.543458
v -0.462553 0.132745 0.543458
v -0.461463 0.130642 0.544958
v -0.461463 0.132745 0.544958
v -0.461463 0.130642 0.546813
v -0.461463 0.132745 0.546813
v -0.462553 0.130642 0.548313
v -0.462553 0.132745 0.548313
v -0.464316 0.130642 0.548885
v -0.464316 0.132745 0.548885
v -0.466080 0.130642 0.548313
v -0.466080 0.132745 0.548313
v -0.467170 0.130642 0.546813
v -0.467170 0.132745 0.546813
v -0.467170 0.130642 0.544958
v -0.467170 0.132745 0.544958
v -0.466080 0.130642 0.543458
v -0.466080 0.132745 0.543458
v -0.435545 0.132745 -0.547427
v -0.435545 0.130642 -0.550427
v -0.435545 0.132745 -0.550427
v -0.433782 0.130642 -0.549854
v -0.433782 0.132745 -0.549854
v -0.432692 0.130642 -0.548354
v -0.432692 0.132745 -0.548354
v -0.432692 0.130642 -0.546500
v -0.432692 0.132745 -0.546500
v -0.433782 0.130642 -0.545000
v -0.433782 0.132745 -0.545000
v -0.435545 0.130642 -0.544427
v -0.435545 0.132745 -0.544427
v -0.437308 0.130642 -0.545000
v -0.437308 0.132745 -0.545000
v -0.438398 0.130642 -0.546500
v -0.438398 0.132745 -0.546500
v -0.438398 0.130642 -0.548354
v -0.438398 0.132745 -0.548354
v -0.437308 0.130642 -0.549854
v -0.437308 0.132745 -0.549854
v -0.452624 0.132745 -0.557095
v -0.452624 0.130642 -0.560095
v -0.452624 0.132745 -0.560095
v -0.450861 0.130642 -0.559522
v -0.450861 0.132745 -0.559522
v -0.449771 0.130642 -0.558022
v -0.449771 0.132745 -0.558022
v -0.449771 0.130642 -0.556168
v -0.449771 0.132745 -0.556168
v -0.450861 0.130642 -0.554668
v -0.450861 0.132745 -0.554668
v -0.452624 0.130642 -0.554095
v -0.452624 0.132745 -0.554095
v -0.454387 0.130642 -0.554668
v -0.454387 0.132745 -0.554668
v -0.455477 0.130642 -0.556168
v -0.455477 0.132745 -0.556168
v -0.455477 0.130642 -0.558022
v -0.455477 0.132745 -0.558022
v -0.454387 0.130642 -0.559522
v -0.454387 0.132745 -0.559522
v -0.303423 0.132745 -0.548716
v -0.303423 0.130642 -0.551716
v -0.303423 0.132745 -0.551716
v -0.301660 0.130642 -0.551143
v -0.301660 0.132745 -0.551143
v -0.300570 0.130642 -0.549643
v -0.300570 0.132745 -0.549643
v -0.300570 0.130642 -0.547789
v -0.300570 0.132745 -0.547789
v -0.301660 0.130642 -0.546289
v -0.301660 0.132745 -0.546289
v -0.303423 0.130642 -0.545716
v -0.303423 0.132745 -0.545716
v -0.305187 0.130642 -0.546289
v -0.305187 0.132745 -0.546289
v -0.306277 0.130642 -0.547789
v -0.306277 0.132745 -0.547789
v -0.306277 0.130642 -0.549643
v -0.306277 0.132745 -0.549643
v -0.305187 0.130642 -0.551143
v -0.305187 0.132745 -0.551143
v -0.145522 0.132745 -0.539049
v -0.145522 0.130642 -0.542049
v -0.145522 0.132745 -0.542049
v -0.143759 0.130642 -0.541476
v -0.143759 0.132745 -0.541476
v -0.142669 0.130642 -0.539976
v -0.142669 0.132745 -0.539976
v -0.142669 0.130642 -0.538122
v -0.142669 0.132745 -0.538122
v -0.143759 0.130642 -0.536622
v -0.143759 0.132745 -0.536622
v -0.145522 0.130642 -0.536049
v -0.145522 0.132745 -0.536049
v -0.147285 0.130642 -0.536622
v -0.147285 0.132745 -0.536622
v -0.148375 0.130642 -0.538122
v -0.148375 0.132745 -0.538122
v -0.148375 0.130642 -0.539976
v -0.148375 0.132745 -0.539976
v -0.147285 0.130642 -0.541476
v -0.147285 0.132745 -0.541476
v -0.000188 0.132745 -0.555484
v -0.000188 0.130642 -0.558484
v -0.000188 0.132745 -0.558484
v 0.001575 0.130642 -0.557911
v 0.001575 0.132745 -0.557911
v 0.002665 0.130642 -0.556411
v 0.002665 0.132745 -0.556411
v 0.002665 0.130642 -0.554556
v 0.002665 0.132745 -0.554556
v 0.001575 0.130642 -0.553056
v 0.001575 0.132745 -0.553056
v -0.000188 0.130642 -0.552484
v -0.000188 0.132745 -0.552484
v -0.001952 0.130642 -0.553056
v -0.001952 0.132745 -0.553056
v -0.003042 0.130642 -0.554556
v -0.003042 0.132745 -0.554556
v -0.003042 0.130642 -0.556411
v -0.003042 0.132745 -0.556411
v -0.001952 0.130642 -0.557911
v -0.001952 0.132745 -0.557911
v 0.147723 0.132745 -0.557417
v 0.147723 0.130642 -0.560417
v 0.147723 0.132745 -0.560417
v 0.149487 0.130642 -0.559844
v 0.149487 0.132745 -0.559844
v 0.150576 0.130642 -0.558344
v 0.150576 0.132745 -0.558344
v 0.150576 0.130642 -0.556490
v 0.150576 0.132745 -0.556490
v 0.149487 0.130642 -0.554990
v 0.149487 0.132745 -0.554990
v 0.147723 0.130642 -0.554417
v 0.147723 0.132745 -0.554417
v 0.145960 0.130642 -0.554990
v 0.145960 0.132745 -0.554990
v 0.144870 0.130642 -0.556490
v 0.144870 0.132745 -0.556490
v 0.144870 0.130642 -0.558344
v 0.144870 0.132745 -0.558344
v 0.145960 0.130642 -0.559844
v 0.145960 0.132745 -0.559844
v 0.299824 0.132745 -0.539371
v 0.299824 0.130642 -0.542371
v 0.299824 0.132745 -0.542371
v 0.301588 0.130642 -0.541798
v 0.301588 0.132745 -0.541798
v 0.302677 0.130642 -0.540298
v 0.302677 0.132745 -0.540298
v 0.302677 0.130642 -0.538444
v 0.302677 0.132745 -0.538444
v 0.301588 0.130642 -0.536944
v 0.301588 0.132745 -0.536944
v 0.299824 0.130642 -0.536371
v 0.299824 0.132745 -0.536371
v 0.298061 0.130642 -0.536944
v 0.298061 0.132745 -0.536944
v 0.296971 0.130642 -0.538444
v 0.296971 0.132745 -0.538444
v 0.296971 0.130642 -0.540298
v 0.296971 0.132745 -0.540298
v 0.298061 0.130642 -0.541798
v 0.298061 0.132745 -0.541798
v 0.445802 0.132745 -0.534860
v 0.445802 0.130642 -0.537860
v 0.445802 0.132745 -0.537860
v 0.447566 0.130642 -0.537287
v 0.447566 0.132745 -0.537287
v 0.448656 0.130642 -0.535787
v 0.448656 0.132745 -0.535787
v 0.448656 0.130642 -0.533933
v 0.448656 0.132745 -0.533933
v 0.447566 0.130642 -0.532433
v 0.447566 0.132745 -0.532433
v 0.445802 0.130642 -0.531860
v 0.445802 0.132745 -0.531860
v 0.444039 0.130642 -0.532433
v 0.444039 0.132745 -0.532433
v 0.442949 0.130642 -0.533933
v 0.442949 0.132745 -0.533933
v 0.442949 0.130642 -0.535787
v 0.442949 0.132745 -0.535787
v 0.444039 0.130642 -0.537287
v 0.444039 0.132745 -0.537287
v 0.451925 0.132745 -0.550972
v 0.451925 0.130642 -0.553972
v 0.451925 0.132745 -0.553972
v 0.453688 0.130642 -0.553399
v 0.453688 0.132745 -0.553399
v 0.454778 0.130642 -0.551899
v 0.454778 0.132745 -0.551899
v 0.454778 0.130642 -0.550045
v 0.454778 0.132745 -0.550045
v 0.453688 0.130642 -0.548545
v 0.453688 0.132745 -0.548545
v 0.451925 0.130642 -0.547972
v 0.451925 0.132745 -0.547972
v 0.450162 0.130642 -0.548545
v 0.450162 0.132745 -0.548545
v 0.449072 0.130642 -0.550045
v 0.449072 0.132745 -0.550045
v 0.449072 0.130642 -0.551899
v 0.449072 0.132745 -0.551899
v 0.450162 0.130642 -0.553399
v 0.450162 0.132745 -0.553399
v 0.451925 -0.001059 -0.556209
v 0.451925 0.001044 -0.553209
v 0.451925 -0.001059 -0.553209
v 0.453688 0.001044 -0.553782
v 0.453688 -0.001059 -0.553782
v 0.454778 0.001044 -0.555282
v 0.454778 -0.001059 -0.555282
v 0.454778 0.001044 -0.557136
v 0.454778 -0.001059 -0.557136
v 0.453688 0.001044 -0.558636
v 0.453688 -0.001059 -0.558636
v 0.451925 0.001044 -0.559209
v 0.451925 -0.001059 -0.559209
v 0.450162 0.001044 -0.558636
v 0.450162 -0.001059 -0.558636
v 0.449072 0.001044 -0.557136
v 0.449072 -0.001059 -0.557136
v 0.449072 0.001044 -0.555282
v 0.449072 -0.001059 -0.555282
v 0.450162 0.001044 -0.553782
v 0.450162 -0.001059 -0.553782
v 0.462470 -0.001059 -0.000508
v 0.462470 0.001044 0.002492
v 0.462470 -0.001059 0.002492
v 0.464233 0.001044 0.001919
v 0.464233 -0.001059 0.001919
v 0.465323 0.001044 0.000419
v 0.465323 -0.001059 0.000419
v 0.465323 0.001044 -0.001436
v 0.465323 -0.001059 -0.001436
v 0.464233 0.001044 -0.002936
v 0.464233 -0.001059 -0.002936
v 0.462470 0.001044 -0.003508
v 0.462470 -0.001059 -0.003508
v 0.460706 0.001044 -0.002936
v 0.460706 -0.001059 -0.002936
v 0.459616 0.001044 -0.001436
v 0.459616 -0.001059 -0.001436
v 0.459616 0.001044 0.000419
v 0.459616 -0.001059 0.000419
v 0.460706 0.001044 0.001919
v 0.460706 -0.001059 0.001919
v 0.455088 -0.001059 0.559410
v 0.455088 0.001044 0.562410
v 0.455088 -0.001059 0.562410
v 0.456852 0.001044 0.561837
v 0.456852 -0.001059 0.561837
v 0.457942 0.001044 0.560337
v 0.457942 -0.001059 0.560337
v 0.457942 0.001044 0.558483
v 0.457942 -0.001059 0.558483
v 0.456852 0.001044 0.556983
v 0.456852 -0.001059 0.556983
v 0.455088 0.001044 0.556410
v 0.455088 -0.001059 0.556410
v 0.453325 0.001044 0.556983
v 0.453325 -0.001059 0.556983
v 0.452235 0.001044 0.558483
v 0.452235 -0.001059 0.558483
v 0.452235 0.001044 0.560337
v 0.452235 -0.001059 0.560337
v 0.453325 0.001044 0.561837
v 0.453325 -0.001059 0.561837
v 0.006943 -0.001059 0.548865
v 0.006943 0.001044 0.551865
v 0.006943 -0.001059 0.551865
v 0.008706 0.001044 0.551292
v 0.008706 -0.001059 0.551292
v 0.009796 0.001044 0.549792
v 0.009796 -0.001059 0.549792
v 0.009796 0.001044 0.547938
v 0.009796 -0.001059 0.547938
v 0.008706 0.001044 0.546438
v 0.008706 -0.001059 0.546438
v 0.006943 0.001044 0.545865
v 0.006943 -0.001059 0.545865
v 0.005180 0.001044 0.546438
v 0.005180 -0.001059 0.546438
v 0.004090 0.001044 0.547938
v 0.004090 -0.001059 0.547938
v 0.004090 0.001044 0.549792
v 0.004090 -0.001059 0.549792
v 0.005180 0.001044 0.551292
v 0.005180 -0.001059 0.551292
v 0.012892 -0.001059 0.008732
v 0.012892 0.001044 0.011732
v 0.012892 -0.001059 0.011732
v 0.014655 0.001044 0.011160
v 0.014655 -0.001059 0.011160
v 0.015745 0.001044 0.009660
v 0.015745 -0.001059 0.009660
v 0.015745 0.001044 0.007805
v 0.015745 -0.001059 0.007805
v 0.014655 0.001044 0.006305
v 0.014655 -0.001059 0.006305
v 0.012892 0.001044 0.005732
v 0.012892 -0.001059 0.005732
v 0.011128 0.001044 0.006305
v 0.011128 -0.001059 0.006305
v 0.010038 0.001044 0.007805
v 0.010038 -0.001059 0.007805
v 0.010038 0.001044 0.009660
v 0.010038 -0.001059 0.009660
v 0.011128 0.001044 0.011160
v 0.011128 -0.001059 0.011160
v -0.006144 -0.001059 -0.552815
v -0.006144 0.001044 -0.549815
v -0.006144 -0.001059 -0.549815
v -0.004381 0.001044 -0.550388
v -0.004381 -0.001059 -0.550388
v -0.003291 0.001044 -0.551888
v -0.003291 -0.001059 -0.551888
v -0.003291 0.001044 -0.553742
v -0.003291 -0.001059 -0.553742
v -0.004381 0.001044 -0.555242
v -0.004381 -0.001059 -0.555242
v -0.006144 0.001044 -0.555815
v -0.006144 -0.001059 -0.555815
v -0.007907 0.001044 -0.555242
v -0.007907 -0.001059 -0.555242
v -0.008997 0.001044 -0.553742
v -0.008997 -0.001059 -0.553742
v -0.008997 0.001044 -0.551888
v -0.008997 -0.001059 -0.551888
v -0.007907 0.001044 -0.550388
v -0.007907 -0.001059 -0.550388
v -0.445150 -0.001059 -0.549246
v -0.445150 0.001044 -0.546246
v -0.445150 -0.001059 -0.546246
v -0.443387 0.001044 -0.546819
v -0.443387 -0.001059 -0.546819
v -0.442297 0.001044 -0.548319
v -0.442297 -0.001059 -0.548319
v -0.442297 0.001044 -0.550173
v -0.442297 -0.001059 -0.550173
v -0.443387 0.001044 -0.551673
v -0.443387 -0.001059 -0.551673
v -0.445150 0.001044 -0.552246
v -0.445150 -0.001059 -0.552246
v -0.446914 0.001044 -0.551673
v -0.446914 -0.001059 -0.551673
v -0.448004 0.001044 -0.550173
v -0.448004 -0.001059 -0.550173
v -0.448004 0.001044 -0.548319
v -0.448004 -0.001059 -0.548319
v -0.446914 0.001044 -0.546819
v -0.446914 -0.001059 -0.546819
v -0.458237 -0.001059 -0.000785
v -0.458237 0.001044 0.002215
v -0.458237 -0.001059 0.002215
v -0.456474 0.001044 0.001642
v -0.456474 -0.001059 0.001642
v -0.455384 0.001044 0.000142
v -0.455384 -0.001059 0.000142
v -0.455384 0.001044 -0.001712
v -0.455384 -0.001059 -0.001712
v -0.456474 0.001044 -0.003212
v -0.456474 -0.001059 -0.003212
v -0.458237 0.001044 -0.003785
v -0.458237 -0.001059 -0.003785
v -0.460001 0.001044 -0.003212
v -0.460001 -0.001059 -0.003212
v -0.461091 0.001044 -0.001712
v -0.461091 -0.001059 -0.001712
v -0.461091 0.001044 0.000142
v -0.461091 -0.001059 0.000142
v -0.460001 0.001044 0.001642
v -0.460001 -0.001059 0.001642
v -0.441581 -0.001059 0.550055
v -0.441581 0.001044 0.553055
v -0.441581 -0.001059 0.553055
v -0.439818 0.001044 0.552482
v -0.439818 -0.001059 0.552482
v -0.438728 0.001044 0.550982
v -0.438728 -0.001059 0.550982
v -0.438728 0.001044 0.549128
v -0.438728 -0.001059 0.549128
v -0.439818 0.001044 0.547628
v -0.439818 -0.001059 0.547628
v -0.441581 0.001044 0.547055
v -0.441581 -0.001059 0.547055
v -0.443345 0.001044 0.547628
v -0.443345 -0.001059 0.547628
v -0.444435 0.001044 0.549128
v -0.444435 -0.001059 0.549128
v -0.444435 0.001044 0.550982
v -0.444435 -0.001059 0.550982
v -0.443345 0.001044 0.552482
v -0.443345 -0.001059 0.552482
v 0.304052 0.132745 0.004019
v 0.304052 0.130642 0.001019
v 0.304052 0.132745 0.001019
v 0.305815 0.130642 0.001592
v 0.305815 0.132745 0.001592
v 0.306905 0.130642 0.003092
v 0.306905 0.132745 0.003092
v 0.306905 0.130642 0.004947
v 0.306905 0.132745 0.004947
v 0.305815 0.130642 0.006447
v 0.305815 0.132745 0.006447
v 0.304052 0.130642 0.007019
v 0.304052 0.132745 0.007019
v 0.302288 0.130642 0.006447
v 0.302288 0.132745 0.006447
v 0.301198 0.130642 0.004947
v 0.301198 0.132745 0.004947
v 0.301198 0.130642 0.003092
v 0.301198 0.132745 0.003092
v 0.302288 0.130642 0.001592
v 0.302288 0.132745 0.001592
v 0.149641 0.132745 -0.011176
v 0.149641 0.130642 -0.014176
v 0.149641 0.132745 -0.014176
v 0.151404 0.130642 -0.013604
v 0.151404 0.132745 -0.013604
v 0.152494 0.130642 -0.012104
v 0.152494 0.132745 -0.012104
v 0.152494 0.130642 -0.010249
v 0.152494 0.132745 -0.010249
v 0.151404 0.130642 -0.008749
v 0.151404 0.132745 -0.008749
v 0.149641 0.130642 -0.008176
v 0.149641 0.132745 -0.008176
v 0.147878 0.130642 -0.008749
v 0.147878 0.132745 -0.008749
v 0.146788 0.130642 -0.010249
v 0.146788 0.132745 -0.010249
v 0.146788 0.130642 -0.012104
v 0.146788 0.132745 -0.012104
v 0.147878 0.130642 -0.013604
v 0.147878 0.132745 -0.013604
v -0.145454 0.132745 -0.002843
v -0.145454 0.130642 -0.005843
v -0.145454 0.132745 -0.005843
v -0.143691 0.130642 -0.005270
v -0.143691 0.132745 -0.005270
v -0.142601 0.130642 -0.003770
v -0.142601 0.132745 -0.003770
v -0.142601 0.130642 -0.001916
v -0.142601 0.132745 -0.001916
v -0.143691 0.130642 -0.000416
v -0.143691 0.132745 -0.000416
v -0.145454 0.130642 0.000157
v -0.145454 0.132745 0.000157
v -0.147218 0.130642 -0.000416
v -0.147218 0.132745 -0.000416
v -0.148307 0.130642 -0.001916
v -0.148307 0.132745 -0.001916
v -0.148307 0.130642 -0.003770
v -0.148307 0.132745 -0.003770
v -0.147218 0.130642 -0.005270
v -0.147218 0.132745 -0.005270
v -0.295453 0.132745 -0.007745
v -0.295453 0.130642 -0.010745
v -0.295453 0.132745 -0.010745
v -0.293690 0.130642 -0.010172
v -0.293690 0.132745 -0.010172
v -0.292600 0.130642 -0.008672
v -0.292600 0.132745 -0.008672
v -0.292600 0.130642 -0.006818
v -0.292600 0.132745 -0.006818
v -0.293690 0.130642 -0.005318
v -0.293690 0.132745 -0.005318
v -0.295453 0.130642 -0.004745
v -0.295453 0.132745 -0.004745
v -0.297216 0.130642 -0.005318
v -0.297216 0.132745 -0.005318
v -0.298306 0.130642 -0.006818
v -0.298306 0.132745 -0.006818
v -0.298306 0.130642 -0.008672
v -0.298306 0.132745 -0.008672
v -0.297216 0.130642 -0.010172
v -0.297216 0.132745 -0.010172
vn -1.0000 -0.0000 -0.0000
vn -0.0000 -0.0000 1.0000
vn 1.0000 -0.0000 -0.0000
vn -0.0000 -0.0000 -1.0000
vn -0.0000 1.0000 -0.0000
vn -0.0000 -1.0000 -0.0000
vn 0.5878 -0.0000 0.8090
vn 0.5878 -0.0000 -0.8090
vn 0.9511 -0.0000 -0.3090
vn 0.9511 -0.0000 0.3090
vn -0.5878 -0.0000 0.8090
vn -0.9511 -0.0000 0.3090
vn -0.9511 -0.0000 -0.3090
vn -0.5878 -0.0000 -0.8090
vt 0.157756 0.863369
vt 0.163122 0.871100
vt 0.157756 0.871100
vt 0.163122 0.863369
vt 0.157756 0.820075
vt 0.163122 0.827806
vt 0.157756 0.827806
vt 0.163122 0.820075
vt 0.157756 0.855638
vt 0.158203 0.863369
vt 0.158203 0.855638
vt 0.158203 0.827806
vt 0.160215 0.855638
vt 0.160215 0.863369
vt 0.160662 0.863369
vt 0.160662 0.855638
vt 0.162675 0.855638
vt 0.162675 0.863369
vt 0.163122 0.855638
vt 0.160215 0.827806
vt 0.160662 0.827806
vt 0.162675 0.827806
vt 0.162675 0.855638
vt 0.162675 0.827806
vt 0.219258 0.097786
vt 0.219259 0.097728
vt 0.219258 0.097728
vt 0.219260 0.097786
vt 0.219256 0.097786
vt 0.219255 0.097786
vt 0.219256 0.097728
vt 0.219255 0.097728
vt 0.219254 0.097786
vt 0.219259 0.097786
vt 0.219258 0.097786
vt 0.219258 0.097728
vt 0.219256 0.097786
vt 0.219256 0.097728
vt 0.219261 0.097786
vt 0.219261 0.097728
vt 0.219263 0.097786
vt 0.219263 0.097728
vt 0.219253 0.097786
vt 0.219253 0.097728
vt 0.219264 0.097786
vt 0.219264 0.097728
vt 0.219251 0.097786
vt 0.219251 0.097728
vt 0.219250 0.097786
vt 0.219250 0.097728
vt 0.219254 0.097786
vt 0.219255 0.097728
vt 0.219254 0.097728
vt 0.219251 0.097786
vt 0.219255 0.097786
vt 0.219252 0.097786
vt 0.219252 0.097728
vt 0.219249 0.097786
vt 0.219249 0.097728
vt 0.219247 0.097786
vt 0.219247 0.097728
vt 0.219246 0.097786
vt 0.219246 0.097728
vt 0.220074 0.097786
vt 0.220075 0.097728
vt 0.220074 0.097728
vt 0.220071 0.097786
vt 0.220075 0.097786
vt 0.220072 0.097786
vt 0.220072 0.097728
vt 0.220070 0.097786
vt 0.220070 0.097728
vt 0.220067 0.097786
vt 0.220067 0.097728
vt 0.220067 0.097786
vt 0.220067 0.097728
vt 0.220045 0.097786
vt 0.220046 0.097728
vt 0.220045 0.097728
vt 0.220041 0.097786
vt 0.220046 0.097786
vt 0.220043 0.097786
vt 0.220043 0.097728
vt 0.220040 0.097786
vt 0.220040 0.097728
vt 0.220038 0.097786
vt 0.220038 0.097728
vt 0.220037 0.097786
vt 0.220037 0.097728
vt 0.220060 0.097786
vt 0.220061 0.097728
vt 0.220060 0.097728
vt 0.220057 0.097786
vt 0.220061 0.097786
vt 0.220058 0.097786
vt 0.220058 0.097728
vt 0.220055 0.097786
vt 0.220055 0.097728
vt 0.220053 0.097786
vt 0.220053 0.097728
vt 0.220053 0.097786
vt 0.220053 0.097728
vt 0.220038 0.097786
vt 0.220039 0.097728
vt 0.220038 0.097728
vt 0.220035 0.097786
vt 0.220039 0.097786
vt 0.220036 0.097786
vt 0.220036 0.097728
vt 0.220034 0.097786
vt 0.220034 0.097728
vt 0.220031 0.097786
vt 0.220031 0.097728
vt 0.220031 0.097786
vt 0.220031 0.097728
vt 0.220037 0.097786
vt 0.220038 0.097728
vt 0.220037 0.097728
vt 0.220034 0.097786
vt 0.220038 0.097786
vt 0.220035 0.097786
vt 0.220035 0.097728
vt 0.220032 0.097786
vt 0.220032 0.097728
vt 0.220030 0.097786
vt 0.220030 0.097728
vt 0.220029 0.097786
vt 0.220029 0.097728
vt 0.220054 0.097786
vt 0.220055 0.097728
vt 0.220054 0.097728
vt 0.220050 0.097786
vt 0.220055 0.097786
vt 0.220052 0.097786
vt 0.220052 0.097728
vt 0.220049 0.097786
vt 0.220049 0.097728
vt 0.220047 0.097786
vt 0.220047 0.097728
vt 0.220046 0.097786
vt 0.220046 0.097728
vt 0.220032 0.097786
vt 0.220033 0.097728
vt 0.220032 0.097728
vt 0.220029 0.097786
vt 0.220033 0.097786
vt 0.220030 0.097786
vt 0.220030 0.097728
vt 0.220027 0.097786
vt 0.220027 0.097728
vt 0.220025 0.097786
vt 0.220025 0.097728
vt 0.220024 0.097786
vt 0.220024 0.097728
vt 0.220059 0.097786
vt 0.220060 0.097728
vt 0.220059 0.097728
vt 0.220056 0.097786
vt 0.220060 0.097786
vt 0.220057 0.097786
vt 0.220057 0.097728
vt 0.220054 0.097786
vt 0.220054 0.097728
vt 0.220052 0.097786
vt 0.220052 0.097728
vt 0.220051 0.097786
vt 0.220051 0.097728
vt 0.220046 0.097786
vt 0.220047 0.097728
vt 0.220046 0.097728
vt 0.220043 0.097786
vt 0.220047 0.097786
vt 0.220044 0.097786
vt 0.220044 0.097728
vt 0.220041 0.097786
vt 0.220041 0.097728
vt 0.220039 0.097786
vt 0.220039 0.097728
vt 0.220038 0.097786
vt 0.220038 0.097728
vt 0.218478 0.097786
vt 0.218479 0.097728
vt 0.218478 0.097728
vt 0.218474 0.097786
vt 0.218479 0.097786
vt 0.218476 0.097786
vt 0.218476 0.097728
vt 0.218473 0.097786
vt 0.218473 0.097728
vt 0.218471 0.097786
vt 0.218471 0.097728
vt 0.218470 0.097786
vt 0.218470 0.097728
vt 0.218464 0.097786
vt 0.218465 0.097728
vt 0.218464 0.097728
vt 0.218461 0.097786
vt 0.218465 0.097786
vt 0.218462 0.097786
vt 0.218462 0.097728
vt 0.218459 0.097786
vt 0.218459 0.097728
vt 0.218457 0.097786
vt 0.218457 0.097728
vt 0.218456 0.097786
vt 0.218456 0.097728
vt 0.218476 0.097786
vt 0.218477 0.097728
vt 0.218476 0.097728
vt 0.218473 0.097786
vt 0.218477 0.097786
vt 0.218474 0.097786
vt 0.218474 0.097728
vt 0.218471 0.097786
vt 0.218471 0.097728
vt 0.218469 0.097786
vt 0.218469 0.097728
vt 0.218468 0.097786
vt 0.218468 0.097728
vt 0.218490 0.097786
vt 0.218491 0.097728
vt 0.218490 0.097728
vt 0.218486 0.097786
vt 0.218491 0.097786
vt 0.218488 0.097786
vt 0.218488 0.097728
vt 0.218485 0.097786
vt 0.218485 0.097728
vt 0.218483 0.097786
vt 0.218483 0.097728
vt 0.218482 0.097786
vt 0.218482 0.097728
vt 0.218466 0.097786
vt 0.218467 0.097728
vt 0.218466 0.097728
vt 0.218463 0.097786
vt 0.218467 0.097786
vt 0.218464 0.097786
vt 0.218464 0.097728
vt 0.218462 0.097786
vt 0.218462 0.097728
vt 0.218459 0.097786
vt 0.218459 0.097728
vt 0.218459 0.097786
vt 0.218459 0.097728
vt 0.218464 0.097786
vt 0.218464 0.097728
vt 0.218464 0.097728
vt 0.218460 0.097786
vt 0.218464 0.097786
vt 0.218461 0.097786
vt 0.218461 0.097728
vt 0.218459 0.097786
vt 0.218459 0.097728
vt 0.218457 0.097786
vt 0.218457 0.097728
vt 0.218456 0.097786
vt 0.218456 0.097728
vt 0.218489 0.097786
vt 0.218490 0.097728
vt 0.218489 0.097728
vt 0.218486 0.097786
vt 0.218490 0.097786
vt 0.218487 0.097786
vt 0.218487 0.097728
vt 0.218485 0.097786
vt 0.218485 0.097728
vt 0.218482 0.097786
vt 0.218482 0.097728
vt 0.218482 0.097786
vt 0.218482 0.097728
vt 0.218496 0.097786
vt 0.218497 0.097728
vt 0.218496 0.097728
vt 0.218492 0.097786
vt 0.218497 0.097786
vt 0.218494 0.097786
vt 0.218494 0.097728
vt 0.218491 0.097786
vt 0.218491 0.097728
vt 0.218489 0.097786
vt 0.218489 0.097728
vt 0.218488 0.097786
vt 0.218488 0.097728
vt 0.218473 0.097786
vt 0.218474 0.097728
vt 0.218473 0.097728
vt 0.218469 0.097786
vt 0.218474 0.097786
vt 0.218471 0.097786
vt 0.218471 0.097728
vt 0.218468 0.097786
vt 0.218468 0.097728
vt 0.218466 0.097786
vt 0.218466 0.097728
vt 0.218465 0.097786
vt 0.218465 0.097728
vt 0.218458 0.094090
vt 0.218457 0.094148
vt 0.218458 0.094148
vt 0.218462 0.094090
vt 0.218457 0.094090
vt 0.218460 0.094090
vt 0.218460 0.094148
vt 0.218463 0.094090
vt 0.218463 0.094148
vt 0.218465 0.094090
vt 0.218465 0.094148
vt 0.218466 0.094090
vt 0.218466 0.094148
vt 0.219255 0.094090
vt 0.219255 0.094148
vt 0.219255 0.094148
vt 0.219259 0.094090
vt 0.219255 0.094090
vt 0.219258 0.094090
vt 0.219258 0.094148
vt 0.219260 0.094090
vt 0.219260 0.094148
vt 0.219262 0.094090
vt 0.219262 0.094148
vt 0.219263 0.094090
vt 0.219263 0.094148
vt 0.220059 0.094090
vt 0.220058 0.094148
vt 0.220059 0.094148
vt 0.220062 0.094090
vt 0.220058 0.094090
vt 0.220061 0.094090
vt 0.220061 0.094148
vt 0.220063 0.094090
vt 0.220063 0.094148
vt 0.220066 0.094090
vt 0.220066 0.094148
vt 0.220066 0.094090
vt 0.220066 0.094148
vt 0.220043 0.094090
vt 0.220043 0.094148
vt 0.220043 0.094148
vt 0.220047 0.094090
vt 0.220043 0.094090
vt 0.220046 0.094090
vt 0.220046 0.094148
vt 0.220048 0.094090
vt 0.220048 0.094148
vt 0.220050 0.094090
vt 0.220050 0.094148
vt 0.220051 0.094090
vt 0.220051 0.094148
vt 0.219269 0.094090
vt 0.219268 0.094148
vt 0.219269 0.094148
vt 0.219272 0.094090
vt 0.219268 0.094090
vt 0.219271 0.094090
vt 0.219271 0.094148
vt 0.219274 0.094090
vt 0.219274 0.094148
vt 0.219276 0.094090
vt 0.219276 0.094148
vt 0.219276 0.094090
vt 0.219276 0.094148
vt 0.218463 0.094090
vt 0.218462 0.094148
vt 0.218463 0.094148
vt 0.218467 0.094090
vt 0.218462 0.094090
vt 0.218465 0.094090
vt 0.218465 0.094148
vt 0.218468 0.094090
vt 0.218468 0.094148
vt 0.218470 0.094090
vt 0.218470 0.094148
vt 0.218471 0.094090
vt 0.218471 0.094148
vt 0.218468 0.094090
vt 0.218468 0.094148
vt 0.218468 0.094148
vt 0.218472 0.094090
vt 0.218468 0.094090
vt 0.218470 0.094090
vt 0.218470 0.094148
vt 0.218473 0.094090
vt 0.218473 0.094148
vt 0.218475 0.094090
vt 0.218475 0.094148
vt 0.218476 0.094090
vt 0.218476 0.094148
vt 0.219255 0.094090
vt 0.219254 0.094148
vt 0.219255 0.094148
vt 0.219259 0.094090
vt 0.219254 0.094090
vt 0.219257 0.094090
vt 0.219257 0.094148
vt 0.219260 0.094090
vt 0.219260 0.094148
vt 0.219262 0.094090
vt 0.219262 0.094148
vt 0.219263 0.094090
vt 0.219263 0.094148
vt 0.220045 0.094090
vt 0.220044 0.094148
vt 0.220045 0.094148
vt 0.220049 0.094090
vt 0.220044 0.094090
vt 0.220047 0.094090
vt 0.220047 0.094148
vt 0.220050 0.094090
vt 0.220050 0.094148
vt 0.220052 0.094090
vt 0.220052 0.094148
vt 0.220053 0.094090
vt 0.220053 0.094148
vt 0.219269 0.097786
vt 0.219270 0.097728
vt 0.219269 0.097728
vt 0.219265 0.097786
vt 0.219270 0.097786
vt 0.219267 0.097786
vt 0.219267 0.097728
vt 0.219264 0.097786
vt 0.219264 0.097728
vt 0.219262 0.097786
vt 0.219262 0.097728
vt 0.219261 0.097786
vt 0.219261 0.097728
vt 0.219247 0.097786
vt 0.219248 0.097728
vt 0.219247 0.097728
vt 0.219244 0.097786
vt 0.219248 0.097786
vt 0.219245 0.097786
vt 0.219245 0.097728
vt 0.219242 0.097786
vt 0.219242 0.097728
vt 0.219240 0.097786
vt 0.219240 0.097728
vt 0.219239 0.097786
vt 0.219239 0.097728
vt 0.219259 0.097786
vt 0.219260 0.097728
vt 0.219259 0.097728
vt 0.219256 0.097786
vt 0.219260 0.097786
vt 0.219257 0.097786
vt 0.219257 0.097728
vt 0.219254 0.097786
vt 0.219254 0.097728
vt 0.219252 0.097786
vt 0.219252 0.097728
vt 0.219251 0.097786
vt 0.219251 0.097728
vt 0.219252 0.097786
vt 0.219253 0.097728
vt 0.219252 0.097728
vt 0.219249 0.097786
vt 0.219253 0.097786
vt 0.219250 0.097786
vt 0.219250 0.097728
vt 0.219247 0.097786
vt 0.219247 0.097728
vt 0.219245 0.097786
vt 0.219245 0.097728
vt 0.219244 0.097786
vt 0.219244 0.097728
s 1
g pallet_medium_01_regular_material
usemtl regular_material
f 2/1/1 3/2/1 1/3/1
s 2
f 4/4/2 7/2/2 3/2/2
s 3
f 8/4/3 5/3/3 7/2/3
s 4
f 6/1/4 1/3/4 5/3/4
s 5
f 7/2/5 1/3/5 3/2/5
s 6
f 4/4/6 6/1/6 8/4/6
s 7
f 10/1/1 11/2/1 9/3/1
s 8
f 12/4/2 15/2/2 11/2/2
s 9
f 16/4/3 13/3/3 15/2/3
s 10
f 14/1/4 9/3/4 13/3/4
s 11
f 15/2/5 9/3/5 11/2/5
s 12
f 12/4/6 14/1/6 16/4/6
s 13
f 18/1/1 19/2/1 17/3/1
s 14
f 20/4/2 23/2/2 19/2/2
s 15
f 24/4/3 21/3/3 23/2/3
s 16
f 22/1/4 17/3/4 21/3/4
s 17
f 23/2/5 17/3/5 19/2/5
s 18
f 20/4/6 22/1/6 24/4/6
s 19
f 26/1/1 27/2/1 25/3/1
s 20
f 28/4/2 31/2/2 27/2/2
s 21
f 32/4/3 29/3/3 31/2/3
s 22
f 30/1/4 25/3/4 29/3/4
s 23
f 31/2/5 25/3/5 27/2/5
s 24
f 28/4/6 30/1/6 32/4/6
s 25
f 34/1/1 35/2/1 33/3/1
s 26
f 36/4/2 39/2/2 35/2/2
s 27
f 40/4/3 37/3/3 39/2/3
s 28
f 38/1/4 33/3/4 37/3/4
s 29
f 39/2/5 33/3/5 35/2/5
s 30
f 36/4/6 38/1/6 40/4/6
s 31
f 42/1/1 43/2/1 41/3/1
s 32
f 44/4/2 47/2/2 43/2/2
s 33
f 48/4/3 45/3/3 47/2/3
s 34
f 46/1/4 41/3/4 45/3/4
s 35
f 47/2/5 41/3/5 43/2/5
s 36
f 44/4/6 46/1/6 48/4/6
s 37
f 50/1/1 51/2/1 49/3/1
s 38
f 52/4/2 55/2/2 51/2/2
s 39
f 56/4/3 53/3/3 55/2/3
s 40
f 54/1/4 49/3/4 53/3/4
s 41
f 55/2/5 49/3/5 51/2/5
s 42
f 52/4/6 54/1/6 56/4/6
s 43
f 58/5/1 59/6/1 57/7/1
s 44
f 60/8/2 63/6/2 59/6/2
s 45
f 64/8/3 61/7/3 63/6/3
s 46
f 62/5/4 57/7/4 61/7/4
s 47
f 63/6/5 57/7/5 59/6/5
s 48
f 60/8/6 62/5/6 64/8/6
s 49
f 66/5/1 67/6/1 65/7/1
s 50
f 68/8/2 71/6/2 67/6/2
s 51
f 72/8/3 69/7/3 71/6/3
s 52
f 70/5/4 65/7/4 69/7/4
s 53
f 71/6/5 65/7/5 67/6/5
s 54
f 68/8/6 70/5/6 72/8/6
s 55
f 74/5/1 75/6/1 73/7/1
s 56
f 76/8/2 79/6/2 75/6/2
s 57
f 80/8/3 77/7/3 79/6/3
s 58
f 78/5/4 73/7/4 77/7/4
s 59
f 79/6/5 73/7/5 75/6/5
s 60
f 76/8/6 78/5/6 80/8/6
s 61
f 82/9/4 83/1/4 81/1/4
s 62
f 84/9/1 87/10/1 83/1/1
s 63
f 88/11/2 85/10/2 87/10/2
s 64
f 86/11/3 81/1/3 85/10/3
s 65
f 87/10/5 81/1/5 83/1/5
s 66
f 84/9/6 86/11/6 88/11/6
s 67
f 90/7/4 91/9/4 89/9/4
s 68
f 91/9/1 96/12/1 95/11/1
s 69
f 96/12/2 93/11/2 95/11/2
s 70
f 94/12/3 89/9/3 93/11/3
s 71
f 95/11/5 89/9/5 91/9/5
s 72
f 92/7/6 94/12/6 96/12/6
s 73
f 98/13/4 99/14/4 97/14/4
s 74
f 100/13/1 103/15/1 99/14/1
s 75
f 104/16/2 101/15/2 103/15/2
s 76
f 101/15/3 98/13/3 97/14/3
s 77
f 103/15/5 97/14/5 99/14/5
s 78
f 104/16/6 98/13/6 102/16/6
s 79
f 106/17/4 107/18/4 105/18/4
s 80
f 108/17/1 111/4/1 107/18/1
s 81
f 112/19/2 109/4/2 111/4/2
s 82
f 110/19/3 105/18/3 109/4/3
s 83
f 111/4/5 105/18/5 107/18/5
s 84
f 108/17/6 110/19/6 112/19/6
s 85
f 114/7/4 115/9/4 113/9/4
s 86
f 115/9/1 120/12/1 119/11/1
s 87
f 120/12/2 117/11/2 119/11/2
s 88
f 118/12/3 113/9/3 117/11/3
s 89
f 119/11/5 113/9/5 115/9/5
s 90
f 116/7/6 118/12/6 120/12/6
s 91
f 122/7/4 123/9/4 121/9/4
s 92
f 123/9/1 128/12/1 127/11/1
s 93
f 128/12/2 125/11/2 127/11/2
s 94
f 126/12/3 121/9/3 125/11/3
s 95
f 127/11/5 121/9/5 123/9/5
s 96
f 124/7/6 126/12/6 128/12/6
s 97
f 130/20/4 131/13/4 129/13/4
s 98
f 131/13/1 136/21/1 135/16/1
s 99
f 136/21/2 133/16/2 135/16/2
s 100
f 134/21/3 129/13/3 133/16/3
s 101
f 135/16/5 129/13/5 131/13/5
s 102
f 136/21/6 130/20/6 134/21/6
s 103
f 138/22/4 139/17/4 137/17/4
s 104
f 139/17/1 144/6/1 143/19/1
s 105
f 144/6/2 141/19/2 143/19/2
s 106
f 142/6/3 137/17/3 141/19/3
s 107
f 143/19/5 137/17/5 139/17/5
s 108
f 140/22/6 142/6/6 144/6/6
s 109
f 146/22/4 147/23/4 145/23/4
s 110
f 147/23/1 152/6/1 151/19/1
s 111
f 152/6/2 149/19/2 151/19/2
s 112
f 150/6/3 145/23/3 149/19/3
s 113
f 151/19/5 145/23/5 147/23/5
s 114
f 148/22/6 150/6/6 152/6/6
s 115
f 154/24/4 155/23/4 153/23/4
s 116
f 155/23/1 160/6/1 159/19/1
s 117
f 160/6/2 157/19/2 159/19/2
s 118
f 158/6/3 153/23/3 157/19/3
s 119
f 159/19/5 153/23/5 155/23/5
s 120
f 156/24/6 158/6/6 160/6/6
s 121
f 162/20/4 163/13/4 161/13/4
s 122
f 163/13/1 168/21/1 167/16/1
s 123
f 168/21/2 165/16/2 167/16/2
s 124
f 166/21/3 161/13/3 165/16/3
s 125
f 167/16/5 161/13/5 163/13/5
s 126
f 168/21/6 162/20/6 166/21/6
s 127
f 170/20/4 171/13/4 169/13/4
s 128
f 171/13/1 176/21/1 175/16/1
s 129
f 176/21/2 173/16/2 175/16/2
s 130
f 174/21/3 169/13/3 173/16/3
s 131
f 175/16/5 169/13/5 171/13/5
s 132
f 176/21/6 170/20/6 174/21/6
s 133
f 208/25/7 209/26/2 207/27/7
s 134
f 178/28/5 182/29/5 180/30/5
s 135
f 180/30/4 181/31/8 179/32/4
s 136
f 177/33/5 210/34/5 208/25/5
s 134
f 178/28/5 184/35/5 182/29/5
s 135
f 182/29/8 183/36/9 181/31/8
s 133
f 206/37/10 207/27/7 205/38/10
s 134
f 178/28/5 186/39/5 184/35/5
s 135
f 184/35/9 185/40/10 183/36/9
s 136
f 177/33/5 208/25/5 206/37/5
s 134
f 178/28/5 188/41/5 186/39/5
s 135
f 186/39/10 187/42/7 185/40/10
s 133
f 204/43/9 205/38/10 203/44/9
s 134
f 178/28/5 190/45/5 188/41/5
s 135
f 188/41/7 189/46/2 187/42/7
s 136
f 177/33/5 206/37/5 204/43/5
s 134
f 178/28/5 192/41/5 190/45/5
s 135
f 190/45/2 191/42/11 189/46/2
s 133
f 202/47/8 203/44/9 201/48/8
s 134
f 178/28/5 194/39/5 192/41/5
s 135
f 192/41/11 193/40/12 191/42/11
s 136
f 177/33/5 204/43/5 202/47/5
s 134
f 178/28/5 196/35/5 194/39/5
s 135
f 194/39/12 195/36/13 193/40/12
s 133
f 200/49/4 201/48/8 199/50/4
s 134
f 178/28/5 198/29/5 196/35/5
s 135
f 196/35/13 197/31/14 195/36/13
s 136
f 177/33/5 202/47/5 200/49/5
s 134
f 178/28/5 180/30/5 198/29/5
s 135
f 198/29/14 179/32/4 197/31/14
s 136
f 177/33/5 212/25/5 210/34/5
s 133
f 210/34/2 211/27/11 209/26/2
s 136
f 177/33/5 214/37/5 212/25/5
s 133
f 212/25/11 213/38/12 211/27/11
s 136
f 177/33/5 216/43/5 214/37/5
s 133
f 214/37/12 215/44/13 213/38/12
s 136
f 177/33/5 218/47/5 216/43/5
s 133
f 216/43/13 217/48/14 215/44/13
s 136
f 177/33/5 200/49/5 218/47/5
s 133
f 218/47/14 199/50/4 217/48/14
s 137
f 229/51/7 230/52/2 228/53/7
s 138
f 219/54/5 231/55/5 229/51/5
s 137
f 227/56/10 228/53/7 226/57/10
s 138
f 219/54/5 229/51/5 227/56/5
s 137
f 225/58/9 226/57/10 224/59/9
s 138
f 219/54/5 227/56/5 225/58/5
s 137
f 223/60/8 224/59/9 222/61/8
s 138
f 219/54/5 225/58/5 223/60/5
s 137
f 221/62/4 222/61/8 220/63/4
s 138
f 219/54/5 223/60/5 221/62/5
f 219/54/5 233/51/5 231/55/5
s 137
f 231/55/2 232/53/11 230/52/2
s 138
f 219/54/5 235/56/5 233/51/5
s 137
f 233/51/11 234/57/12 232/53/11
s 138
f 219/54/5 237/58/5 235/56/5
s 137
f 235/56/12 236/59/13 234/57/12
s 138
f 219/54/5 239/60/5 237/58/5
s 137
f 237/58/13 238/61/14 236/59/13
s 138
f 219/54/5 221/62/5 239/60/5
s 137
f 239/60/14 220/63/4 238/61/14
s 139
f 250/64/7 251/65/2 249/66/7
s 140
f 240/67/5 252/68/5 250/64/5
s 139
f 248/69/10 249/66/7 247/70/10
s 140
f 240/67/5 250/64/5 248/69/5
s 139
f 246/71/9 247/70/10 245/72/9
s 140
f 240/67/5 248/69/5 246/71/5
s 139
f 244/73/8 245/72/9 243/74/8
s 140
f 240/67/5 246/71/5 244/73/5
s 139
f 242/75/4 243/74/8 241/76/4
s 140
f 240/67/5 244/73/5 242/75/5
f 240/67/5 254/64/5 252/68/5
s 139
f 252/68/2 253/66/11 251/65/2
s 140
f 240/67/5 256/69/5 254/64/5
s 139
f 254/64/11 255/70/12 253/66/11
s 140
f 240/67/5 258/71/5 256/69/5
s 139
f 256/69/12 257/72/13 255/70/12
s 140
f 240/67/5 260/73/5 258/71/5
s 139
f 258/71/13 259/74/14 257/72/13
s 140
f 240/67/5 242/75/5 260/73/5
s 139
f 260/73/14 241/76/4 259/74/14
s 141
f 271/77/7 272/78/2 270/79/7
s 142
f 261/80/5 273/81/5 271/77/5
s 141
f 269/82/10 270/79/7 268/83/10
s 142
f 261/80/5 271/77/5 269/82/5
s 141
f 267/84/9 268/83/10 266/85/9
s 142
f 261/80/5 269/82/5 267/84/5
s 141
f 265/86/8 266/85/9 264/87/8
s 142
f 261/80/5 267/84/5 265/86/5
s 141
f 263/88/4 264/87/8 262/89/4
s 142
f 261/80/5 265/86/5 263/88/5
f 261/80/5 275/77/5 273/81/5
s 141
f 273/81/2 274/79/11 272/78/2
s 142
f 261/80/5 277/82/5 275/77/5
s 141
f 275/77/11 276/83/12 274/79/11
s 142
f 261/80/5 279/84/5 277/82/5
s 141
f 277/82/12 278/85/13 276/83/12
s 142
f 261/80/5 281/86/5 279/84/5
s 141
f 279/84/13 280/87/14 278/85/13
s 142
f 261/80/5 263/88/5 281/86/5
s 141
f 281/86/14 262/89/4 280/87/14
s 143
f 292/90/7 293/91/2 291/92/7
s 144
f 282/93/5 294/94/5 292/90/5
s 143
f 290/95/10 291/92/7 289/96/10
s 144
f 282/93/5 292/90/5 290/95/5
s 143
f 288/97/9 289/96/10 287/98/9
s 144
f 282/93/5 290/95/5 288/97/5
s 143
f 286/99/8 287/98/9 285/100/8
s 144
f 282/93/5 288/97/5 286/99/5
s 143
f 284/101/4 285/100/8 283/102/4
s 144
f 282/93/5 286/99/5 284/101/5
f 282/93/5 296/90/5 294/94/5
s 143
f 294/94/2 295/92/11 293/91/2
s 144
f 282/93/5 298/95/5 296/90/5
s 143
f 296/90/11 297/96/12 295/92/11
s 144
f 282/93/5 300/97/5 298/95/5
s 143
f 298/95/12 299/98/13 297/96/12
s 144
f 282/93/5 302/99/5 300/97/5
s 143
f 300/97/13 301/100/14 299/98/13
s 144
f 282/93/5 284/101/5 302/99/5
s 143
f 302/99/14 283/102/4 301/100/14
s 145
f 313/103/7 314/104/2 312/105/7
s 146
f 303/106/5 315/107/5 313/103/5
s 145
f 311/108/10 312/105/7 310/109/10
s 146
f 303/106/5 313/103/5 311/108/5
s 145
f 309/110/9 310/109/10 308/111/9
s 146
f 303/106/5 311/108/5 309/110/5
s 145
f 307/112/8 308/111/9 306/113/8
s 146
f 303/106/5 309/110/5 307/112/5
s 145
f 305/114/4 306/113/8 304/115/4
s 146
f 303/106/5 307/112/5 305/114/5
f 303/106/5 317/103/5 315/107/5
s 145
f 315/107/2 316/105/11 314/104/2
s 146
f 303/106/5 319/108/5 317/103/5
s 145
f 317/103/11 318/109/12 316/105/11
s 146
f 303/106/5 321/110/5 319/108/5
s 145
f 319/108/12 320/111/13 318/109/12
s 146
f 303/106/5 323/112/5 321/110/5
s 145
f 321/110/13 322/113/14 320/111/13
s 146
f 303/106/5 305/114/5 323/112/5
s 145
f 323/112/14 304/115/4 322/113/14
s 147
f 334/116/7 335/117/2 333/118/7
s 148
f 324/119/5 336/120/5 334/116/5
s 147
f 332/121/10 333/118/7 331/122/10
s 148
f 324/119/5 334/116/5 332/121/5
s 147
f 330/123/9 331/122/10 329/124/9
s 148
f 324/119/5 332/121/5 330/123/5
s 147
f 328/125/8 329/124/9 327/126/8
s 148
f 324/119/5 330/123/5 328/125/5
s 147
f 326/127/4 327/126/8 325/128/4
s 148
f 324/119/5 328/125/5 326/127/5
f 324/119/5 338/116/5 336/120/5
s 147
f 336/120/2 337/118/11 335/117/2
s 148
f 324/119/5 340/121/5 338/116/5
s 147
f 338/116/11 339/122/12 337/118/11
s 148
f 324/119/5 342/123/5 340/121/5
s 147
f 340/121/12 341/124/13 339/122/12
s 148
f 324/119/5 344/125/5 342/123/5
s 147
f 342/123/13 343/126/14 341/124/13
s 148
f 324/119/5 326/127/5 344/125/5
s 147
f 344/125/14 325/128/4 343/126/14
s 149
f 355/129/7 356/130/2 354/131/7
s 150
f 345/132/5 357/133/5 355/129/5
s 149
f 353/134/10 354/131/7 352/135/10
s 150
f 345/132/5 355/129/5 353/134/5
s 149
f 351/136/9 352/135/10 350/137/9
s 150
f 345/132/5 353/134/5 351/136/5
s 149
f 349/138/8 350/137/9 348/139/8
s 150
f 345/132/5 351/136/5 349/138/5
s 149
f 347/140/4 348/139/8 346/141/4
s 150
f 345/132/5 349/138/5 347/140/5
f 345/132/5 359/129/5 357/133/5
s 149
f 357/133/2 358/131/11 356/130/2
s 150
f 345/132/5 361/134/5 359/129/5
s 149
f 359/129/11 360/135/12 358/131/11
s 150
f 345/132/5 363/136/5 361/134/5
s 149
f 361/134/12 362/137/13 360/135/12
s 150
f 345/132/5 365/138/5 363/136/5
s 149
f 363/136/13 364/139/14 362/137/13
s 150
f 345/132/5 347/140/5 365/138/5
s 149
f 365/138/14 346/141/4 364/139/14
s 151
f 376/142/7 377/143/2 375/144/7
s 152
f 366/145/5 378/146/5 376/142/5
s 151
f 374/147/10 375/144/7 373/148/10
s 152
f 366/145/5 376/142/5 374/147/5
s 151
f 372/149/9 373/148/10 371/150/9
s 152
f 366/145/5 374/147/5 372/149/5
s 151
f 370/151/8 371/150/9 369/152/8
s 152
f 366/145/5 372/149/5 370/151/5
s 151
f 368/153/4 369/152/8 367/154/4
s 152
f 366/145/5 370/151/5 368/153/5
f 366/145/5 380/142/5 378/146/5
s 151
f 378/146/2 379/144/11 377/143/2
s 152
f 366/145/5 382/147/5 380/142/5
s 151
f 380/142/11 381/148/12 379/144/11
s 152
f 366/145/5 384/149/5 382/147/5
s 151
f 382/147/12 383/150/13 381/148/12
s 152
f 366/145/5 386/151/5 384/149/5
s 151
f 384/149/13 385/152/14 383/150/13
s 152
f 366/145/5 368/153/5 386/151/5
s 151
f 386/151/14 367/154/4 385/152/14
s 153
f 397/155/7 398/156/2 396/157/7
s 154
f 387/158/5 399/159/5 397/155/5
s 153
f 395/160/10 396/157/7 394/161/10
s 154
f 387/158/5 397/155/5 395/160/5
s 153
f 393/162/9 394/161/10 392/163/9
s 154
f 387/158/5 395/160/5 393/162/5
s 153
f 391/164/8 392/163/9 390/165/8
s 154
f 387/158/5 393/162/5 391/164/5
s 153
f 389/166/4 390/165/8 388/167/4
s 154
f 387/158/5 391/164/5 389/166/5
f 387/158/5 401/155/5 399/159/5
s 153
f 399/159/2 400/157/11 398/156/2
s 154
f 387/158/5 403/160/5 401/155/5
s 153
f 401/155/11 402/161/12 400/157/11
s 154
f 387/158/5 405/162/5 403/160/5
s 153
f 403/160/12 404/163/13 402/161/12
s 154
f 387/158/5 407/164/5 405/162/5
s 153
f 405/162/13 406/165/14 404/163/13
s 154
f 387/158/5 389/166/5 407/164/5
s 153
f 407/164/14 388/167/4 406/165/14
s 155
f 418/168/7 419/169/2 417/170/7
s 156
f 408/171/5 420/172/5 418/168/5
s 155
f 416/173/10 417/170/7 415/174/10
s 156
f 408/171/5 418/168/5 416/173/5
s 155
f 414/175/9 415/174/10 413/176/9
s 156
f 408/171/5 416/173/5 414/175/5
s 155
f 412/177/8 413/176/9 411/178/8
s 156
f 408/171/5 414/175/5 412/177/5
s 155
f 410/179/4 411/178/8 409/180/4
s 156
f 408/171/5 412/177/5 410/179/5
f 408/171/5 422/168/5 420/172/5
s 155
f 420/172/2 421/170/11 419/169/2
s 156
f 408/171/5 424/173/5 422/168/5
s 155
f 422/168/11 423/174/12 421/170/11
s 156
f 408/171/5 426/175/5 424/173/5
s 155
f 424/173/12 425/176/13 423/174/12
s 156
f 408/171/5 428/177/5 426/175/5
s 155
f 426/175/13 427/178/14 425/176/13
s 156
f 408/171/5 410/179/5 428/177/5
s 155
f 428/177/14 409/180/4 427/178/14
s 157
f 439/181/7 440/182/2 438/183/7
s 158
f 429/184/5 441/185/5 439/181/5
s 157
f 437/186/10 438/183/7 436/187/10
s 158
f 429/184/5 439/181/5 437/186/5
s 157
f 435/188/9 436/187/10 434/189/9
s 158
f 429/184/5 437/186/5 435/188/5
s 157
f 433/190/8 434/189/9 432/191/8
s 158
f 429/184/5 435/188/5 433/190/5
s 157
f 431/192/4 432/191/8 430/193/4
s 158
f 429/184/5 433/190/5 431/192/5
f 429/184/5 443/181/5 441/185/5
s 157
f 441/185/2 442/183/11 440/182/2
s 158
f 429/184/5 445/186/5 443/181/5
s 157
f 443/181/11 444/187/12 442/183/11
s 158
f 429/184/5 447/188/5 445/186/5
s 157
f 445/186/12 446/189/13 444/187/12
s 158
f 429/184/5 449/190/5 447/188/5
s 157
f 447/188/13 448/191/14 446/189/13
s 158
f 429/184/5 431/192/5 449/190/5
s 157
f 449/190/14 430/193/4 448/191/14
s 159
f 460/194/7 461/195/2 459/196/7
s 160
f 450/197/5 462/198/5 460/194/5
s 159
f 458/199/10 459/196/7 457/200/10
s 160
f 450/197/5 460/194/5 458/199/5
s 159
f 456/201/9 457/200/10 455/202/9
s 160
f 450/197/5 458/199/5 456/201/5
s 159
f 454/203/8 455/202/9 453/204/8
s 160
f 450/197/5 456/201/5 454/203/5
s 159
f 452/205/4 453/204/8 451/206/4
s 160
f 450/197/5 454/203/5 452/205/5
f 450/197/5 464/194/5 462/198/5
s 159
f 462/198/2 463/196/11 461/195/2
s 160
f 450/197/5 466/199/5 464/194/5
s 159
f 464/194/11 465/200/12 463/196/11
s 160
f 450/197/5 468/201/5 466/199/5
s 159
f 466/199/12 467/202/13 465/200/12
s 160
f 450/197/5 470/203/5 468/201/5
s 159
f 468/201/13 469/204/14 467/202/13
s 160
f 450/197/5 452/205/5 470/203/5
s 159
f 470/203/14 451/206/4 469/204/14
s 161
f 481/207/7 482/208/2 480/209/7
s 162
f 471/210/5 483/211/5 481/207/5
s 161
f 479/212/10 480/209/7 478/213/10
s 162
f 471/210/5 481/207/5 479/212/5
s 161
f 477/214/9 478/213/10 476/215/9
s 162
f 471/210/5 479/212/5 477/214/5
s 161
f 475/216/8 476/215/9 474/217/8
s 162
f 471/210/5 477/214/5 475/216/5
s 161
f 473/218/4 474/217/8 472/219/4
s 162
f 471/210/5 475/216/5 473/218/5
f 471/210/5 485/207/5 483/211/5
s 161
f 483/211/2 484/209/11 482/208/2
s 162
f 471/210/5 487/212/5 485/207/5
s 161
f 485/207/11 486/213/12 484/209/11
s 162
f 471/210/5 489/214/5 487/212/5
s 161
f 487/212/12 488/215/13 486/213/12
s 162
f 471/210/5 491/216/5 489/214/5
s 161
f 489/214/13 490/217/14 488/215/13
s 162
f 471/210/5 473/218/5 491/216/5
s 161
f 491/216/14 472/219/4 490/217/14
s 163
f 502/220/7 503/221/2 501/222/7
s 164
f 492/223/5 504/224/5 502/220/5
s 163
f 500/225/10 501/222/7 499/226/10
s 164
f 492/223/5 502/220/5 500/225/5
s 163
f 498/227/9 499/226/10 497/228/9
s 164
f 492/223/5 500/225/5 498/227/5
s 163
f 496/229/8 497/228/9 495/230/8
s 164
f 492/223/5 498/227/5 496/229/5
s 163
f 494/231/4 495/230/8 493/232/4
s 164
f 492/223/5 496/229/5 494/231/5
f 492/223/5 506/220/5 504/224/5
s 163
f 504/224/2 505/222/11 503/221/2
s 164
f 492/223/5 508/225/5 506/220/5
s 163
f 506/220/11 507/226/12 505/222/11
s 164
f 492/223/5 510/227/5 508/225/5
s 163
f 508/225/12 509/228/13 507/226/12
s 164
f 492/223/5 512/229/5 510/227/5
s 163
f 510/227/13 511/230/14 509/228/13
s 164
f 492/223/5 494/231/5 512/229/5
s 163
f 512/229/14 493/232/4 511/230/14
s 165
f 523/233/7 524/234/2 522/235/7
s 166
f 513/236/5 525/237/5 523/233/5
s 165
f 521/238/10 522/235/7 520/239/10
s 166
f 513/236/5 523/233/5 521/238/5
s 165
f 519/240/9 520/239/10 518/241/9
s 166
f 513/236/5 521/238/5 519/240/5
s 165
f 517/242/8 518/241/9 516/243/8
s 166
f 513/236/5 519/240/5 517/242/5
s 165
f 515/244/4 516/243/8 514/245/4
s 166
f 513/236/5 517/242/5 515/244/5
f 513/236/5 527/233/5 525/237/5
s 165
f 525/237/2 526/235/11 524/234/2
s 166
f 513/236/5 529/238/5 527/233/5
s 165
f 527/233/11 528/239/12 526/235/11
s 166
f 513/236/5 531/240/5 529/238/5
s 165
f 529/238/12 530/241/13 528/239/12
s 166
f 513/236/5 533/242/5 531/240/5
s 165
f 531/240/13 532/243/14 530/241/13
s 166
f 513/236/5 515/244/5 533/242/5
s 165
f 533/242/14 514/245/4 532/243/14
s 167
f 544/246/7 545/247/2 543/248/7
s 168
f 534/249/5 546/250/5 544/246/5
s 167
f 542/251/10 543/248/7 541/252/10
s 168
f 534/249/5 544/246/5 542/251/5
s 167
f 540/253/9 541/252/10 539/254/9
s 168
f 534/249/5 542/251/5 540/253/5
s 167
f 538/255/8 539/254/9 537/256/8
s 168
f 534/249/5 540/253/5 538/255/5
s 167
f 536/257/4 537/256/8 535/258/4
s 168
f 534/249/5 538/255/5 536/257/5
f 534/249/5 548/246/5 546/250/5
s 167
f 546/250/2 547/248/11 545/247/2
s 168
f 534/249/5 550/251/5 548/246/5
s 167
f 548/246/11 549/252/12 547/248/11
s 168
f 534/249/5 552/253/5 550/251/5
s 167
f 550/251/12 551/254/13 549/252/12
s 168
f 534/249/5 554/255/5 552/253/5
s 167
f 552/253/13 553/256/14 551/254/13
s 168
f 534/249/5 536/257/5 554/255/5
s 167
f 554/255/14 535/258/4 553/256/14
s 169
f 565/259/7 566/260/2 564/261/7
s 170
f 555/262/5 567/263/5 565/259/5
s 169
f 563/264/10 564/261/7 562/265/10
s 170
f 555/262/5 565/259/5 563/264/5
s 169
f 561/266/9 562/265/10 560/267/9
s 170
f 555/262/5 563/264/5 561/266/5
s 169
f 559/268/8 560/267/9 558/269/8
s 170
f 555/262/5 561/266/5 559/268/5
s 169
f 557/270/4 558/269/8 556/271/4
s 170
f 555/262/5 559/268/5 557/270/5
f 555/262/5 569/259/5 567/263/5
s 169
f 567/263/2 568/261/11 566/260/2
s 170
f 555/262/5 571/264/5 569/259/5
s 169
f 569/259/11 570/265/12 568/261/11
s 170
f 555/262/5 573/266/5 571/264/5
s 169
f 571/264/12 572/267/13 570/265/12
s 170
f 555/262/5 575/268/5 573/266/5
s 169
f 573/266/13 574/269/14 572/267/13
s 170
f 555/262/5 557/270/5 575/268/5
s 169
f 575/268/14 556/271/4 574/269/14
s 171
f 586/272/7 587/273/2 585/274/7
s 172
f 576/275/5 588/276/5 586/272/5
s 171
f 584/277/10 585/274/7 583/278/10
s 172
f 576/275/5 586/272/5 584/277/5
s 171
f 582/279/9 583/278/10 581/280/9
s 172
f 576/275/5 584/277/5 582/279/5
s 171
f 580/281/8 581/280/9 579/282/8
s 172
f 576/275/5 582/279/5 580/281/5
s 171
f 578/283/4 579/282/8 577/284/4
s 172
f 576/275/5 580/281/5 578/283/5
f 576/275/5 590/272/5 588/276/5
s 171
f 588/276/2 589/274/11 587/273/2
s 172
f 576/275/5 592/277/5 590/272/5
s 171
f 590/272/11 591/278/12 589/274/11
s 172
f 576/275/5 594/279/5 592/277/5
s 171
f 592/277/12 593/280/13 591/278/12
s 172
f 576/275/5 596/281/5 594/279/5
s 171
f 594/279/13 595/282/14 593/280/13
s 172
f 576/275/5 578/283/5 596/281/5
s 171
f 596/281/14 577/284/4 595/282/14
s 173
f 607/285/7 608/286/2 606/287/7
s 174
f 597/288/5 609/289/5 607/285/5
s 173
f 605/290/10 606/287/7 604/291/10
s 174
f 597/288/5 607/285/5 605/290/5
s 173
f 603/292/9 604/291/10 602/293/9
s 174
f 597/288/5 605/290/5 603/292/5
s 173
f 601/294/8 602/293/9 600/295/8
s 174
f 597/288/5 603/292/5 601/294/5
s 173
f 599/296/4 600/295/8 598/297/4
s 174
f 597/288/5 601/294/5 599/296/5
f 597/288/5 611/285/5 609/289/5
s 173
f 609/289/2 610/287/11 608/286/2
s 174
f 597/288/5 613/290/5 611/285/5
s 173
f 611/285/11 612/291/12 610/287/11
s 174
f 597/288/5 615/292/5 613/290/5
s 173
f 613/290/12 614/293/13 612/291/12
s 174
f 597/288/5 617/294/5 615/292/5
s 173
f 615/292/13 616/295/14 614/293/13
s 174
f 597/288/5 599/296/5 617/294/5
s 173
f 617/294/14 598/297/4 616/295/14
s 175
f 628/298/8 629/299/4 627/300/8
s 176
f 618/301/6 630/302/6 628/298/6
s 175
f 626/303/9 627/300/8 625/304/9
s 176
f 618/301/6 628/298/6 626/303/6
s 175
f 624/305/10 625/304/9 623/306/10
s 176
f 618/301/6 626/303/6 624/305/6
s 175
f 622/307/7 623/306/10 621/308/7
s 176
f 618/301/6 624/305/6 622/307/6
s 175
f 620/309/2 621/308/7 619/310/2
s 176
f 618/301/6 622/307/6 620/309/6
f 618/301/6 632/298/6 630/302/6
s 175
f 630/302/4 631/300/14 629/299/4
s 176
f 618/301/6 634/303/6 632/298/6
s 175
f 632/298/14 633/304/13 631/300/14
s 176
f 618/301/6 636/305/6 634/303/6
s 175
f 634/303/13 635/306/12 633/304/13
s 176
f 618/301/6 638/307/6 636/305/6
s 175
f 636/305/12 637/308/11 635/306/12
s 176
f 618/301/6 620/309/6 638/307/6
s 175
f 638/307/11 619/310/2 637/308/11
s 177
f 649/311/8 650/312/4 648/313/8
s 178
f 639/314/6 651/315/6 649/311/6
s 177
f 647/316/9 648/313/8 646/317/9
s 178
f 639/314/6 649/311/6 647/316/6
s 177
f 645/318/10 646/317/9 644/319/10
s 178
f 639/314/6 647/316/6 645/318/6
s 177
f 643/320/7 644/319/10 642/321/7
s 178
f 639/314/6 645/318/6 643/320/6
s 177
f 641/322/2 642/321/7 640/323/2
s 178
f 639/314/6 643/320/6 641/322/6
f 639/314/6 653/311/6 651/315/6
s 177
f 651/315/4 652/313/14 650/312/4
s 178
f 639/314/6 655/316/6 653/311/6
s 177
f 653/311/14 654/317/13 652/313/14
s 178
f 639/314/6 657/318/6 655/316/6
s 177
f 655/316/13 656/319/12 654/317/13
s 178
f 639/314/6 659/320/6 657/318/6
s 177
f 657/318/12 658/321/11 656/319/12
s 178
f 639/314/6 641/322/6 659/320/6
s 177
f 659/320/11 640/323/2 658/321/11
s 179
f 670/324/8 671/325/4 669/326/8
s 180
f 660/327/6 672/328/6 670/324/6
s 179
f 668/329/9 669/326/8 667/330/9
s 180
f 660/327/6 670/324/6 668/329/6
s 179
f 666/331/10 667/330/9 665/332/10
s 180
f 660/327/6 668/329/6 666/331/6
s 179
f 664/333/7 665/332/10 663/334/7
s 180
f 660/327/6 666/331/6 664/333/6
s 179
f 662/335/2 663/334/7 661/336/2
s 180
f 660/327/6 664/333/6 662/335/6
f 660/327/6 674/324/6 672/328/6
s 179
f 672/328/4 673/326/14 671/325/4
s 180
f 660/327/6 676/329/6 674/324/6
s 179
f 674/324/14 675/330/13 673/326/14
s 180
f 660/327/6 678/331/6 676/329/6
s 179
f 676/329/13 677/332/12 675/330/13
s 180
f 660/327/6 680/333/6 678/331/6
s 179
f 678/331/12 679/334/11 677/332/12
s 180
f 660/327/6 662/335/6 680/333/6
s 179
f 680/333/11 661/336/2 679/334/11
s 181
f 691/337/8 692/338/4 690/339/8
s 182
f 681/340/6 693/341/6 691/337/6
s 181
f 689/342/9 690/339/8 688/343/9
s 182
f 681/340/6 691/337/6 689/342/6
s 181
f 687/344/10 688/343/9 686/345/10
s 182
f 681/340/6 689/342/6 687/344/6
s 181
f 685/346/7 686/345/10 684/347/7
s 182
f 681/340/6 687/344/6 685/346/6
s 181
f 683/348/2 684/347/7 682/349/2
s 182
f 681/340/6 685/346/6 683/348/6
f 681/340/6 695/337/6 693/341/6
s 181
f 693/341/4 694/339/14 692/338/4
s 182
f 681/340/6 697/342/6 695/337/6
s 181
f 695/337/14 696/343/13 694/339/14
s 182
f 681/340/6 699/344/6 697/342/6
s 181
f 697/342/13 698/345/12 696/343/13
s 182
f 681/340/6 701/346/6 699/344/6
s 181
f 699/344/12 700/347/11 698/345/12
s 182
f 681/340/6 683/348/6 701/346/6
s 181
f 701/346/11 682/349/2 700/347/11
s 183
f 712/350/8 713/351/4 711/352/8
s 184
f 702/353/6 714/354/6 712/350/6
s 183
f 710/355/9 711/352/8 709/356/9
s 184
f 702/353/6 712/350/6 710/355/6
s 183
f 708/357/10 709/356/9 707/358/10
s 184
f 702/353/6 710/355/6 708/357/6
s 183
f 706/359/7 707/358/10 705/360/7
s 184
f 702/353/6 708/357/6 706/359/6
s 183
f 704/361/2 705/360/7 703/362/2
s 184
f 702/353/6 706/359/6 704/361/6
f 702/353/6 716/350/6 714/354/6
s 183
f 714/354/4 715/352/14 713/351/4
s 184
f 702/353/6 718/355/6 716/350/6
s 183
f 716/350/14 717/356/13 715/352/14
s 184
f 702/353/6 720/357/6 718/355/6
s 183
f 718/355/13 719/358/12 717/356/13
s 184
f 702/353/6 722/359/6 720/357/6
s 183
f 720/357/12 721/360/11 719/358/12
s 184
f 702/353/6 704/361/6 722/359/6
s 183
f 722/359/11 703/362/2 721/360/11
s 185
f 733/363/8 734/364/4 732/365/8
s 186
f 723/366/6 735/367/6 733/363/6
s 185
f 731/368/9 732/365/8 730/369/9
s 186
f 723/366/6 733/363/6 731/368/6
s 185
f 729/370/10 730/369/9 728/371/10
s 186
f 723/366/6 731/368/6 729/370/6
s 185
f 727/372/7 728/371/10 726/373/7
s 186
f 723/366/6 729/370/6 727/372/6
s 185
f 725/374/2 726/373/7 724/375/2
s 186
f 723/366/6 727/372/6 725/374/6
f 723/366/6 737/363/6 735/367/6
s 185
f 735/367/4 736/365/14 734/364/4
s 186
f 723/366/6 739/368/6 737/363/6
s 185
f 737/363/14 738/369/13 736/365/14
s 186
f 723/366/6 741/370/6 739/368/6
s 185
f 739/368/13 740/371/12 738/369/13
s 186
f 723/366/6 743/372/6 741/370/6
s 185
f 741/370/12 742/373/11 740/371/12
s 186
f 723/366/6 725/374/6 743/372/6
s 185
f 743/372/11 724/375/2 742/373/11
s 187
f 754/376/8 755/377/4 753/378/8
s 188
f 744/379/6 756/380/6 754/376/6
s 187
f 752/381/9 753/378/8 751/382/9
s 188
f 744/379/6 754/376/6 752/381/6
s 187
f 750/383/10 751/382/9 749/384/10
s 188
f 744/379/6 752/381/6 750/383/6
s 187
f 748/385/7 749/384/10 747/386/7
s 188
f 744/379/6 750/383/6 748/385/6
s 187
f 746/387/2 747/386/7 745/388/2
s 188
f 744/379/6 748/385/6 746/387/6
f 744/379/6 758/376/6 756/380/6
s 187
f 756/380/4 757/378/14 755/377/4
s 188
f 744/379/6 760/381/6 758/376/6
s 187
f 758/376/14 759/382/13 757/378/14
s 188
f 744/379/6 762/383/6 760/381/6
s 187
f 760/381/13 761/384/12 759/382/13
s 188
f 744/379/6 764/385/6 762/383/6
s 187
f 762/383/12 763/386/11 761/384/12
s 188
f 744/379/6 746/387/6 764/385/6
s 187
f 764/385/11 745/388/2 763/386/11
s 189
f 775/389/8 776/390/4 774/391/8
s 190
f 765/392/6 777/393/6 775/389/6
s 189
f 773/394/9 774/391/8 772/395/9
s 190
f 765/392/6 775/389/6 773/394/6
s 189
f 771/396/10 772/395/9 770/397/10
s 190
f 765/392/6 773/394/6 771/396/6
s 189
f 769/398/7 770/397/10 768/399/7
s 190
f 765/392/6 771/396/6 769/398/6
s 189
f 767/400/2 768/399/7 766/401/2
s 190
f 765/392/6 769/398/6 767/400/6
f 765/392/6 779/389/6 777/393/6
s 189
f 777/393/4 778/391/14 776/390/4
s 190
f 765/392/6 781/394/6 779/389/6
s 189
f 779/389/14 780/395/13 778/391/14
s 190
f 765/392/6 783/396/6 781/394/6
s 189
f 781/394/13 782/397/12 780/395/13
s 190
f 765/392/6 785/398/6 783/396/6
s 189
f 783/396/12 784/399/11 782/397/12
s 190
f 765/392/6 767/400/6 785/398/6
s 189
f 785/398/11 766/401/2 784/399/11
s 191
f 796/402/8 797/403/4 795/404/8
s 192
f 786/405/6 798/406/6 796/402/6
s 191
f 794/407/9 795/404/8 793/408/9
s 192
f 786/405/6 796/402/6 794/407/6
s 191
f 792/409/10 793/408/9 791/410/10
s 192
f 786/405/6 794/407/6 792/409/6
s 191
f 790/411/7 791/410/10 789/412/7
s 192
f 786/405/6 792/409/6 790/411/6
s 191
f 788/413/2 789/412/7 787/414/2
s 192
f 786/405/6 790/411/6 788/413/6
f 786/405/6 800/402/6 798/406/6
s 191
f 798/406/4 799/404/14 797/403/4
s 192
f 786/405/6 802/407/6 800/402/6
s 191
f 800/402/14 801/408/13 799/404/14
s 192
f 786/405/6 804/409/6 802/407/6
s 191
f 802/407/13 803/410/12 801/408/13
s 192
f 786/405/6 806/411/6 804/409/6
s 191
f 804/409/12 805/412/11 803/410/12
s 192
f 786/405/6 788/413/6 806/411/6
s 191
f 806/411/11 787/414/2 805/412/11
s 193
f 817/415/7 818/416/2 816/417/7
s 194
f 807/418/5 819/419/5 817/415/5
s 193
f 815/420/10 816/417/7 814/421/10
s 194
f 807/418/5 817/415/5 815/420/5
s 193
f 813/422/9 814/421/10 812/423/9
s 194
f 807/418/5 815/420/5 813/422/5
s 193
f 811/424/8 812/423/9 810/425/8
s 194
f 807/418/5 813/422/5 811/424/5
s 193
f 809/426/4 810/425/8 808/427/4
s 194
f 807/418/5 811/424/5 809/426/5
f 807/418/5 821/415/5 819/419/5
s 193
f 819/419/2 820/417/11 818/416/2
s 194
f 807/418/5 823/420/5 821/415/5
s 193
f 821/415/11 822/421/12 820/417/11
s 194
f 807/418/5 825/422/5 823/420/5
s 193
f 823/420/12 824/423/13 822/421/12
s 194
f 807/418/5 827/424/5 825/422/5
s 193
f 825/422/13 826/425/14 824/423/13
s 194
f 807/418/5 809/426/5 827/424/5
s 193
f 827/424/14 808/427/4 826/425/14
s 195
f 838/428/7 839/429/2 837/430/7
s 196
f 828/431/5 840/432/5 838/428/5
s 195
f 836/433/10 837/430/7 835/434/10
s 196
f 828/431/5 838/428/5 836/433/5
s 195
f 834/435/9 835/434/10 833/436/9
s 196
f 828/431/5 836/433/5 834/435/5
s 195
f 832/437/8 833/436/9 831/438/8
s 196
f 828/431/5 834/435/5 832/437/5
s 195
f 830/439/4 831/438/8 829/440/4
s 196
f 828/431/5 832/437/5 830/439/5
f 828/431/5 842/428/5 840/432/5
s 195
f 840/432/2 841/430/11 839/429/2
s 196
f 828/431/5 844/433/5 842/428/5
s 195
f 842/428/11 843/434/12 841/430/11
s 196
f 828/431/5 846/435/5 844/433/5
s 195
f 844/433/12 845/436/13 843/434/12
s 196
f 828/431/5 848/437/5 846/435/5
s 195
f 846/435/13 847/438/14 845/436/13
s 196
f 828/431/5 830/439/5 848/437/5
s 195
f 848/437/14 829/440/4 847/438/14
s 197
f 859/441/7 860/442/2 858/443/7
s 198
f 849/444/5 861/445/5 859/441/5
s 197
f 857/446/10 858/443/7 856/447/10
s 198
f 849/444/5 859/441/5 857/446/5
s 197
f 855/448/9 856/447/10 854/449/9
s 198
f 849/444/5 857/446/5 855/448/5
s 197
f 853/450/8 854/449/9 852/451/8
s 198
f 849/444/5 855/448/5 853/450/5
s 197
f 851/452/4 852/451/8 850/453/4
s 198
f 849/444/5 853/450/5 851/452/5
f 849/444/5 863/441/5 861/445/5
s 197
f 861/445/2 862/443/11 860/442/2
s 198
f 849/444/5 865/446/5 863/441/5
s 197
f 863/441/11 864/447/12 862/443/11
s 198
f 849/444/5 867/448/5 865/446/5
s 197
f 865/446/12 866/449/13 864/447/12
s 198
f 849/444/5 869/450/5 867/448/5
s 197
f 867/448/13 868/451/14 866/449/13
s 198
f 849/444/5 851/452/5 869/450/5
s 197
f 869/450/14 850/453/4 868/451/14
s 199
f 880/454/7 881/455/2 879/456/7
s 200
f 870/457/5 882/458/5 880/454/5
s 199
f 878/459/10 879/456/7 877/460/10
s 200
f 870/457/5 880/454/5 878/459/5
s 199
f 876/461/9 877/460/10 875/462/9
s 200
f 870/457/5 878/459/5 876/461/5
s 199
f 874/463/8 875/462/9 873/464/8
s 200
f 870/457/5 876/461/5 874/463/5
s 199
f 872/465/4 873/464/8 871/466/4
s 200
f 870/457/5 874/463/5 872/465/5
f 870/457/5 884/454/5 882/458/5
s 199
f 882/458/2 883/456/11 881/455/2
s 200
f 870/457/5 886/459/5 884/454/5
s 199
f 884/454/11 885/460/12 883/456/11
s 200
f 870/457/5 888/461/5 886/459/5
s 199
f 886/459/12 887/462/13 885/460/12
s 200
f 870/457/5 890/463/5 888/461/5
s 199
f 888/461/13 889/464/14 887/462/13
s 200
f 870/457/5 872/465/5 890/463/5
s 199
f 890/463/14 871/466/4 889/464/14
s 1
f 2/1/1 4/4/1 3/2/1
s 2
f 4/4/2 8/4/2 7/2/2
s 3
f 8/4/3 6/1/3 5/3/3
s 4
f 6/1/4 2/1/4 1/3/4
s 5
f 7/2/5 5/3/5 1/3/5
s 6
f 4/4/6 2/1/6 6/1/6
s 7
f 10/1/1 12/4/1 11/2/1
s 8
f 12/4/2 16/4/2 15/2/2
s 9
f 16/4/3 14/1/3 13/3/3
s 10
f 14/1/4 10/1/4 9/3/4
s 11
f 15/2/5 13/3/5 9/3/5
s 12
f 12/4/6 10/1/6 14/1/6
s 13
f 18/1/1 20/4/1 19/2/1
s 14
f 20/4/2 24/4/2 23/2/2
s 15
f 24/4/3 22/1/3 21/3/3
s 16
f 22/1/4 18/1/4 17/3/4
s 17
f 23/2/5 21/3/5 17/3/5
s 18
f 20/4/6 18/1/6 22/1/6
s 19
f 26/1/1 28/4/1 27/2/1
s 20
f 28/4/2 32/4/2 31/2/2
s 21
f 32/4/3 30/1/3 29/3/3
s 22
f 30/1/4 26/1/4 25/3/4
s 23
f 31/2/5 29/3/5 25/3/5
s 24
f 28/4/6 26/1/6 30/1/6
s 25
f 34/1/1 36/4/1 35/2/1
s 26
f 36/4/2 40/4/2 39/2/2
s 27
f 40/4/3 38/1/3 37/3/3
s 28
f 38/1/4 34/1/4 33/3/4
s 29
f 39/2/5 37/3/5 33/3/5
s 30
f 36/4/6 34/1/6 38/1/6
s 31
f 42/1/1 44/4/1 43/2/1
s 32
f 44/4/2 48/4/2 47/2/2
s 33
f 48/4/3 46/1/3 45/3/3
s 34
f 46/1/4 42/1/4 41/3/4
s 35
f 47/2/5 45/3/5 41/3/5
s 36
f 44/4/6 42/1/6 46/1/6
s 37
f 50/1/1 52/4/1 51/2/1
s 38
f 52/4/2 56/4/2 55/2/2
s 39
f 56/4/3 54/1/3 53/3/3
s 40
f 54/1/4 50/1/4 49/3/4
s 41
f 55/2/5 53/3/5 49/3/5
s 42
f 52/4/6 50/1/6 54/1/6
s 43
f 58/5/1 60/8/1 59/6/1
s 44
f 60/8/2 64/8/2 63/6/2
s 45
f 64/8/3 62/5/3 61/7/3
s 46
f 62/5/4 58/5/4 57/7/4
s 47
f 63/6/5 61/7/5 57/7/5
s 48
f 60/8/6 58/5/6 62/5/6
s 49
f 66/5/1 68/8/1 67/6/1
s 50
f 68/8/2 72/8/2 71/6/2
s 51
f 72/8/3 70/5/3 69/7/3
s 52
f 70/5/4 66/5/4 65/7/4
s 53
f 71/6/5 69/7/5 65/7/5
s 54
f 68/8/6 66/5/6 70/5/6
s 55
f 74/5/1 76/8/1 75/6/1
s 56
f 76/8/2 80/8/2 79/6/2
s 57
f 80/8/3 78/5/3 77/7/3
s 58
f 78/5/4 74/5/4 73/7/4
s 59
f 79/6/5 77/7/5 73/7/5
s 60
f 76/8/6 74/5/6 78/5/6
s 61
f 82/9/4 84/9/4 83/1/4
s 62
f 84/9/1 88/11/1 87/10/1
s 63
f 88/11/2 86/11/2 85/10/2
s 64
f 86/11/3 82/9/3 81/1/3
s 65
f 87/10/5 85/10/5 81/1/5
s 66
f 84/9/6 82/9/6 86/11/6
s 67
f 90/7/4 92/7/4 91/9/4
s 68
f 91/9/1 92/7/1 96/12/1
s 69
f 96/12/2 94/12/2 93/11/2
s 70
f 94/12/3 90/7/3 89/9/3
s 71
f 95/11/5 93/11/5 89/9/5
s 72
f 92/7/6 90/7/6 94/12/6
s 73
f 98/13/4 100/13/4 99/14/4
s 74
f 100/13/1 104/16/1 103/15/1
s 75
f 104/16/2 102/16/2 101/15/2
s 76
f 101/15/3 102/16/3 98/13/3
s 77
f 103/15/5 101/15/5 97/14/5
s 78
f 104/16/6 100/13/6 98/13/6
s 79
f 106/17/4 108/17/4 107/18/4
s 80
f 108/17/1 112/19/1 111/4/1
s 81
f 112/19/2 110/19/2 109/4/2
s 82
f 110/19/3 106/17/3 105/18/3
s 83
f 111/4/5 109/4/5 105/18/5
s 84
f 108/17/6 106/17/6 110/19/6
s 85
f 114/7/4 116/7/4 115/9/4
s 86
f 115/9/1 116/7/1 120/12/1
s 87
f 120/12/2 118/12/2 117/11/2
s 88
f 118/12/3 114/7/3 113/9/3
s 89
f 119/11/5 117/11/5 113/9/5
s 90
f 116/7/6 114/7/6 118/12/6
s 91
f 122/7/4 124/7/4 123/9/4
s 92
f 123/9/1 124/7/1 128/12/1
s 93
f 128/12/2 126/12/2 125/11/2
s 94
f 126/12/3 122/7/3 121/9/3
s 95
f 127/11/5 125/11/5 121/9/5
s 96
f 124/7/6 122/7/6 126/12/6
s 97
f 130/20/4 132/20/4 131/13/4
s 98
f 131/13/1 132/20/1 136/21/1
s 99
f 136/21/2 134/21/2 133/16/2
s 100
f 134/21/3 130/20/3 129/13/3
s 101
f 135/16/5 133/16/5 129/13/5
s 102
f 136/21/6 132/20/6 130/20/6
s 103
f 138/22/4 140/22/4 139/17/4
s 104
f 139/17/1 140/22/1 144/6/1
s 105
f 144/6/2 142/6/2 141/19/2
s 106
f 142/6/3 138/22/3 137/17/3
s 107
f 143/19/5 141/19/5 137/17/5
s 108
f 140/22/6 138/22/6 142/6/6
s 109
f 146/22/4 148/22/4 147/23/4
s 110
f 147/23/1 148/22/1 152/6/1
s 111
f 152/6/2 150/6/2 149/19/2
s 112
f 150/6/3 146/22/3 145/23/3
s 113
f 151/19/5 149/19/5 145/23/5
s 114
f 148/22/6 146/22/6 150/6/6
s 115
f 154/24/4 156/24/4 155/23/4
s 116
f 155/23/1 156/24/1 160/6/1
s 117
f 160/6/2 158/6/2 157/19/2
s 118
f 158/6/3 154/24/3 153/23/3
s 119
f 159/19/5 157/19/5 153/23/5
s 120
f 156/24/6 154/24/6 158/6/6
s 121
f 162/20/4 164/20/4 163/13/4
s 122
f 163/13/1 164/20/1 168/21/1
s 123
f 168/21/2 166/21/2 165/16/2
s 124
f 166/21/3 162/20/3 161/13/3
s 125
f 167/16/5 165/16/5 161/13/5
s 126
f 168/21/6 164/20/6 162/20/6
s 127
f 170/20/4 172/20/4 171/13/4
s 128
f 171/13/1 172/20/1 176/21/1
s 129
f 176/21/2 174/21/2 173/16/2
s 130
f 174/21/3 170/20/3 169/13/3
s 131
f 175/16/5 173/16/5 169/13/5
s 132
f 176/21/6 172/20/6 170/20/6
s 133
f 208/25/7 210/34/2 209/26/2
s 135
f 180/30/4 182/29/8 181/31/8
f 182/29/8 184/35/9 183/36/9
s 133
f 206/37/10 208/25/7 207/27/7
s 135
f 184/35/9 186/39/10 185/40/10
f 186/39/10 188/41/7 187/42/7
s 133
f 204/43/9 206/37/10 205/38/10
s 135
f 188/41/7 190/45/2 189/46/2
f 190/45/2 192/41/11 191/42/11
s 133
f 202/47/8 204/43/9 203/44/9
s 135
f 192/41/11 194/39/12 193/40/12
f 194/39/12 196/35/13 195/36/13
s 133
f 200/49/4 202/47/8 201/48/8
s 135
f 196/35/13 198/29/14 197/31/14
f 198/29/14 180/30/4 179/32/4
s 133
f 210/34/2 212/25/11 211/27/11
f 212/25/11 214/37/12 213/38/12
f 214/37/12 216/43/13 215/44/13
f 216/43/13 218/47/14 217/48/14
f 218/47/14 200/49/4 199/50/4
s 137
f 229/51/7 231/55/2 230/52/2
f 227/56/10 229/51/7 228/53/7
f 225/58/9 227/56/10 226/57/10
f 223/60/8 225/58/9 224/59/9
f 221/62/4 223/60/8 222/61/8
f 231/55/2 233/51/11 232/53/11
f 233/51/11 235/56/12 234/57/12
f 235/56/12 237/58/13 236/59/13
f 237/58/13 239/60/14 238/61/14
f 239/60/14 221/62/4 220/63/4
s 139
f 250/64/7 252/68/2 251/65/2
f 248/69/10 250/64/7 249/66/7
f 246/71/9 248/69/10 247/70/10
f 244/73/8 246/71/9 245/72/9
f 242/75/4 244/73/8 243/74/8
f 252/68/2 254/64/11 253/66/11
f 254/64/11 256/69/12 255/70/12
f 256/69/12 258/71/13 257/72/13
f 258/71/13 260/73/14 259/74/14
f 260/73/14 242/75/4 241/76/4
s 141
f 271/77/7 273/81/2 272/78/2
f 269/82/10 271/77/7 270/79/7
f 267/84/9 269/82/10 268/83/10
f 265/86/8 267/84/9 266/85/9
f 263/88/4 265/86/8 264/87/8
f 273/81/2 275/77/11 274/79/11
f 275/77/11 277/82/12 276/83/12
f 277/82/12 279/84/13 278/85/13
f 279/84/13 281/86/14 280/87/14
f 281/86/14 263/88/4 262/89/4
s 143
f 292/90/7 294/94/2 293/91/2
f 290/95/10 292/90/7 291/92/7
f 288/97/9 290/95/10 289/96/10
f 286/99/8 288/97/9 287/98/9
f 284/101/4 286/99/8 285/100/8
f 294/94/2 296/90/11 295/92/11
f 296/90/11 298/95/12 297/96/12
f 298/95/12 300/97/13 299/98/13
f 300/97/13 302/99/14 301/100/14
f 302/99/14 284/101/4 283/102/4
s 145
f 313/103/7 315/107/2 314/104/2
f 311/108/10 313/103/7 312/105/7
f 309/110/9 311/108/10 310/109/10
f 307/112/8 309/110/9 308/111/9
f 305/114/4 307/112/8 306/113/8
f 315/107/2 317/103/11 316/105/11
f 317/103/11 319/108/12 318/109/12
f 319/108/12 321/110/13 320/111/13
f 321/110/13 323/112/14 322/113/14
f 323/112/14 305/114/4 304/115/4
s 147
f 334/116/7 336/120/2 335/117/2
f 332/121/10 334/116/7 333/118/7
f 330/123/9 332/121/10 331/122/10
f 328/125/8 330/123/9 329/124/9
f 326/127/4 328/125/8 327/126/8
f 336/120/2 338/116/11 337/118/11
f 338/116/11 340/121/12 339/122/12
f 340/121/12 342/123/13 341/124/13
f 342/123/13 344/125/14 343/126/14
f 344/125/14 326/127/4 325/128/4
s 149
f 355/129/7 357/133/2 356/130/2
f 353/134/10 355/129/7 354/131/7
f 351/136/9 353/134/10 352/135/10
f 349/138/8 351/136/9 350/137/9
f 347/140/4 349/138/8 348/139/8
f 357/133/2 359/129/11 358/131/11
f 359/129/11 361/134/12 360/135/12
f 361/134/12 363/136/13 362/137/13
f 363/136/13 365/138/14 364/139/14
f 365/138/14 347/140/4 346/141/4
s 151
f 376/142/7 378/146/2 377/143/2
f 374/147/10 376/142/7 375/144/7
f 372/149/9 374/147/10 373/148/10
f 370/151/8 372/149/9 371/150/9
f 368/153/4 370/151/8 369/152/8
f 378/146/2 380/142/11 379/144/11
f 380/142/11 382/147/12 381/148/12
f 382/147/12 384/149/13 383/150/13
f 384/149/13 386/151/14 385/152/14
f 386/151/14 368/153/4 367/154/4
s 153
f 397/155/7 399/159/2 398/156/2
f 395/160/10 397/155/7 396/157/7
f 393/162/9 395/160/10 394/161/10
f 391/164/8 393/162/9 392/163/9
f 389/166/4 391/164/8 390/165/8
f 399/159/2 401/155/11 400/157/11
f 401/155/11 403/160/12 402/161/12
f 403/160/12 405/162/13 404/163/13
f 405/162/13 407/164/14 406/165/14
f 407/164/14 389/166/4 388/167/4
s 155
f 418/168/7 420/172/2 419/169/2
f 416/173/10 418/168/7 417/170/7
f 414/175/9 416/173/10 415/174/10
f 412/177/8 414/175/9 413/176/9
f 410/179/4 412/177/8 411/178/8
f 420/172/2 422/168/11 421/170/11
f 422/168/11 424/173/12 423/174/12
f 424/173/12 426/175/13 425/176/13
f 426/175/13 428/177/14 427/178/14
f 428/177/14 410/179/4 409/180/4
s 157
f 439/181/7 441/185/2 440/182/2
f 437/186/10 439/181/7 438/183/7
f 435/188/9 437/186/10 436/187/10
f 433/190/8 435/188/9 434/189/9
f 431/192/4 433/190/8 432/191/8
f 441/185/2 443/181/11 442/183/11
f 443/181/11 445/186/12 444/187/12
f 445/186/12 447/188/13 446/189/13
f 447/188/13 449/190/14 448/191/14
f 449/190/14 431/192/4 430/193/4
s 159
f 460/194/7 462/198/2 461/195/2
f 458/199/10 460/194/7 459/196/7
f 456/201/9 458/199/10 457/200/10
f 454/203/8 456/201/9 455/202/9
f 452/205/4 454/203/8 453/204/8
f 462/198/2 464/194/11 463/196/11
f 464/194/11 466/199/12 465/200/12
f 466/199/12 468/201/13 467/202/13
f 468/201/13 470/203/14 469/204/14
f 470/203/14 452/205/4 451/206/4
s 161
f 481/207/7 483/211/2 482/208/2
f 479/212/10 481/207/7 480/209/7
f 477/214/9 479/212/10 478/213/10
f 475/216/8 477/214/9 476/215/9
f 473/218/4 475/216/8 474/217/8
f 483/211/2 485/207/11 484/209/11
f 485/207/11 487/212/12 486/213/12
f 487/212/12 489/214/13 488/215/13
f 489/214/13 491/216/14 490/217/14
f 491/216/14 473/218/4 472/219/4
s 163
f 502/220/7 504/224/2 503/221/2
f 500/225/10 502/220/7 501/222/7
f 498/227/9 500/225/10 499/226/10
f 496/229/8 498/227/9 497/228/9
f 494/231/4 496/229/8 495/230/8
f 504/224/2 506/220/11 505/222/11
f 506/220/11 508/225/12 507/226/12
f 508/225/12 510/227/13 509/228/13
f 510/227/13 512/229/14 511/230/14
f 512/229/14 494/231/4 493/232/4
s 165
f 523/233/7 525/237/2 524/234/2
f 521/238/10 523/233/7 522/235/7
f 519/240/9 521/238/10 520/239/10
f 517/242/8 519/240/9 518/241/9
f 515/244/4 517/242/8 516/243/8
f 525/237/2 527/233/11 526/235/11
f 527/233/11 529/238/12 528/239/12
f 529/238/12 531/240/13 530/241/13
f 531/240/13 533/242/14 532/243/14
f 533/242/14 515/244/4 514/245/4
s 167
f 544/246/7 546/250/2 545/247/2
f 542/251/10 544/246/7 543/248/7
f 540/253/9 542/251/10 541/252/10
f 538/255/8 540/253/9 539/254/9
f 536/257/4 538/255/8 537/256/8
f 546/250/2 548/246/11 547/248/11
f 548/246/11 550/251/12 549/252/12
f 550/251/12 552/253/13 551/254/13
f 552/253/13 554/255/14 553/256/14
f 554/255/14 536/257/4 535/258/4
s 169
f 565/259/7 567/263/2 566/260/2
f 563/264/10 565/259/7 564/261/7
f 561/266/9 563/264/10 562/265/10
f 559/268/8 561/266/9 560/267/9
f 557/270/4 559/268/8 558/269/8
f 567/263/2 569/259/11 568/261/11
f 569/259/11 571/264/12 570/265/12
f 571/264/12 573/266/13 572/267/13
f 573/266/13 575/268/14 574/269/14
f 575/268/14 557/270/4 556/271/4
s 171
f 586/272/7 588/276/2 587/273/2
f 584/277/10 586/272/7 585/274/7
f 582/279/9 584/277/10 583/278/10
f 580/281/8 582/279/9 581/280/9
f 578/283/4 580/281/8 579/282/8
f 588/276/2 590/272/11 589/274/11
f 590/272/11 592/277/12 591/278/12
f 592/277/12 594/279/13 593/280/13
f 594/279/13 596/281/14 595/282/14
f 596/281/14 578/283/4 577/284/4
s 173
f 607/285/7 609/289/2 608/286/2
f 605/290/10 607/285/7 606/287/7
f 603/292/9 605/290/10 604/291/10
f 601/294/8 603/292/9 602/293/9
f 599/296/4 601/294/8 600/295/8
f 609/289/2 611/285/11 610/287/11
f 611/285/11 613/290/12 612/291/12
f 613/290/12 615/292/13 614/293/13
f 615/292/13 617/294/14 616/295/14
f 617/294/14 599/296/4 598/297/4
s 175
f 628/298/8 630/302/4 629/299/4
f 626/303/9 628/298/8 627/300/8
f 624/305/10 626/303/9 625/304/9
f 622/307/7 624/305/10 623/306/10
f 620/309/2 622/307/7 621/308/7
f 630/302/4 632/298/14 631/300/14
f 632/298/14 634/303/13 633/304/13
f 634/303/13 636/305/12 635/306/12
f 636/305/12 638/307/11 637/308/11
f 638/307/11 620/309/2 619/310/2
s 177
f 649/311/8 651/315/4 650/312/4
f 647/316/9 649/311/8 648/313/8
f 645/318/10 647/316/9 646/317/9
f 643/320/7 645/318/10 644/319/10
f 641/322/2 643/320/7 642/321/7
f 651/315/4 653/311/14 652/313/14
f 653/311/14 655/316/13 654/317/13
f 655/316/13 657/318/12 656/319/12
f 657/318/12 659/320/11 658/321/11
f 659/320/11 641/322/2 640/323/2
s 179
f 670/324/8 672/328/4 671/325/4
f 668/329/9 670/324/8 669/326/8
f 666/331/10 668/329/9 667/330/9
f 664/333/7 666/331/10 665/332/10
f 662/335/2 664/333/7 663/334/7
f 672/328/4 674/324/14 673/326/14
f 674/324/14 676/329/13 675/330/13
f 676/329/13 678/331/12 677/332/12
f 678/331/12 680/333/11 679/334/11
f 680/333/11 662/335/2 661/336/2
s 181
f 691/337/8 693/341/4 692/338/4
f 689/342/9 691/337/8 690/339/8
f 687/344/10 689/342/9 688/343/9
f 685/346/7 687/344/10 686/345/10
f 683/348/2 685/346/7 684/347/7
f 693/341/4 695/337/14 694/339/14
f 695/337/14 697/342/13 696/343/13
f 697/342/13 699/344/12 698/345/12
f 699/344/12 701/346/11 700/347/11
f 701/346/11 683/348/2 682/349/2
s 183
f 712/350/8 714/354/4 713/351/4
f 710/355/9 712/350/8 711/352/8
f 708/357/10 710/355/9 709/356/9
f 706/359/7 708/357/10 707/358/10
f 704/361/2 706/359/7 705/360/7
f 714/354/4 716/350/14 715/352/14
f 716/350/14 718/355/13 717/356/13
f 718/355/13 720/357/12 719/358/12
f 720/357/12 722/359/11 721/360/11
f 722/359/11 704/361/2 703/362/2
s 185
f 733/363/8 735/367/4 734/364/4
f 731/368/9 733/363/8 732/365/8
f 729/370/10 731/368/9 730/369/9
f 727/372/7 729/370/10 728/371/10
f 725/374/2 727/372/7 726/373/7
f 735/367/4 737/363/14 736/365/14
f 737/363/14 739/368/13 738/369/13
f 739/368/13 741/370/12 740/371/12
f 741/370/12 743/372/11 742/373/11
f 743/372/11 725/374/2 724/375/2
s 187
f 754/376/8 756/380/4 755/377/4
f 752/381/9 754/376/8 753/378/8
f 750/383/10 752/381/9 751/382/9
f 748/385/7 750/383/10 749/384/10
f 746/387/2 748/385/7 747/386/7
f 756/380/4 758/376/14 757/378/14
f 758/376/14 760/381/13 759/382/13
f 760/381/13 762/383/12 761/384/12
f 762/383/12 764/385/11 763/386/11
f 764/385/11 746/387/2 745/388/2
s 189
f 775/389/8 777/393/4 776/390/4
f 773/394/9 775/389/8 774/391/8
f 771/396/10 773/394/9 772/395/9
f 769/398/7 771/396/10 770/397/10
f 767/400/2 769/398/7 768/399/7
f 777/393/4 779/389/14 778/391/14
f 779/389/14 781/394/13 780/395/13
f 781/394/13 783/396/12 782/397/12
f 783/396/12 785/398/11 784/399/11
f 785/398/11 767/400/2 766/401/2
s 191
f 796/402/8 798/406/4 797/403/4
f 794/407/9 796/402/8 795/404/8
f 792/409/10 794/407/9 793/408/9
f 790/411/7 792/409/10 791/410/10
f 788/413/2 790/411/7 789/412/7
f 798/406/4 800/402/14 799/404/14
f 800/402/14 802/407/13 801/408/13
f 802/407/13 804/409/12 803/410/12
f 804/409/12 806/411/11 805/412/11
f 806/411/11 788/413/2 787/414/2
s 193
f 817/415/7 819/419/2 818/416/2
f 815/420/10 817/415/7 816/417/7
f 813/422/9 815/420/10 814/421/10
f 811/424/8 813/422/9 812/423/9
f 809/426/4 811/424/8 810/425/8
f 819/419/2 821/415/11 820/417/11
f 821/415/11 823/420/12 822/421/12
f 823/420/12 825/422/13 824/423/13
f 825/422/13 827/424/14 826/425/14
f 827/424/14 809/426/4 808/427/4
s 195
f 838/428/7 840/432/2 839/429/2
f 836/433/10 838/428/7 837/430/7
f 834/435/9 836/433/10 835/434/10
f 832/437/8 834/435/9 833/436/9
f 830/439/4 832/437/8 831/438/8
f 840/432/2 842/428/11 841/430/11
f 842/428/11 844/433/12 843/434/12
f 844/433/12 846/435/13 845/436/13
f 846/435/13 848/437/14 847/438/14
f 848/437/14 830/439/4 829/440/4
s 197
f 859/441/7 861/445/2 860/442/2
f 857/446/10 859/441/7 858/443/7
f 855/448/9 857/446/10 856/447/10
f 853/450/8 855/448/9 854/449/9
f 851/452/4 853/450/8 852/451/8
f 861/445/2 863/441/11 862/443/11
f 863/441/11 865/446/12 864/447/12
f 865/446/12 867/448/13 866/449/13
f 867/448/13 869/450/14 868/451/14
f 869/450/14 851/452/4 850/453/4
s 199
f 880/454/7 882/458/2 881/455/2
f 878/459/10 880/454/7 879/456/7
f 876/461/9 878/459/10 877/460/10
f 874/463/8 876/461/9 875/462/9
f 872/465/4 874/463/8 873/464/8
f 882/458/2 884/454/11 883/456/11
f 884/454/11 886/459/12 885/460/12
f 886/459/12 888/461/13 887/462/13
f 888/461/13 890/463/14 889/464/14
f 890/463/14 872/465/4 871/466/4
