# Blender 4.5.2 LTS
# www.blender.org
mtllib pallet_medium_large_01.mtl
g pallet_medium_large_01_Mesh
v 0.050000 0.092000 -0.050000
v 0.050000 0.020000 -0.050000
v -0.050000 0.092000 -0.050000
v -0.050000 0.020000 -0.050000
v 0.050000 0.092000 0.050000
v 0.050000 0.020000 0.050000
v -0.050000 0.092000 0.050000
v -0.050000 0.020000 0.050000
v 0.050000 0.092000 0.700000
v 0.050000 0.020000 0.700000
v -0.050000 0.092000 0.700000
v -0.050000 0.020000 0.700000
v 0.050000 0.092000 0.800000
v 0.050000 0.020000 0.800000
v -0.050000 0.092000 0.800000
v -0.050000 0.020000 0.800000
v 0.582000 0.132000 -0.800000
v 0.582000 0.112000 -0.800000
v 0.582000 0.132000 0.800000
v 0.582000 0.112000 0.800000
v 0.682000 0.132000 -0.800000
v 0.682000 0.112000 -0.800000
v 0.682000 0.132000 0.800000
v 0.682000 0.112000 0.800000
v 0.424000 0.132000 -0.800000
v 0.424000 0.112000 -0.800000
v 0.424000 0.132000 0.800000
v 0.424000 0.112000 0.800000
v 0.524000 0.132000 -0.800000
v 0.524000 0.112000 -0.800000
v 0.524000 0.132000 0.800000
v 0.524000 0.112000 0.800000
v 0.266000 0.132000 -0.800000
v 0.266000 0.112000 -0.800000
v 0.266000 0.132000 0.800000
v 0.266000 0.112000 0.800000
v 0.366000 0.132000 -0.800000
v 0.366000 0.112000 -0.800000
v 0.366000 0.132000 0.800000
v 0.366000 0.112000 0.800000
v 0.108000 0.132000 -0.800000
v 0.108000 0.112000 -0.800000
v 0.108000 0.132000 0.800000
v 0.108000 0.112000 0.800000
v 0.208000 0.132000 -0.800000
v 0.208000 0.112000 -0.800000
v 0.208000 0.132000 0.800000
v 0.208000 0.112000 0.800000
v -0.050000 0.132000 -0.800000
v -0.050000 0.112000 -0.800000
v -0.050000 0.132000 0.800000
v -0.050000 0.112000 0.800000
v 0.050000 0.132000 -0.800000
v 0.050000 0.112000 -0.800000
v 0.050000 0.132000 0.800000
v 0.050000 0.112000 0.800000
v -0.208000 0.132000 -0.800000
v -0.208000 0.112000 -0.800000
v -0.208000 0.132000 0.800000
v -0.208000 0.112000 0.800000
v -0.108000 0.132000 -0.800000
v -0.108000 0.112000 -0.800000
v -0.108000 0.132000 0.800000
v -0.108000 0.112000 0.800000
v -0.366000 0.132000 -0.800000
v -0.366000 0.112000 -0.800000
v -0.366000 0.132000 0.800000
v -0.366000 0.112000 0.800000
v -0.266000 0.132000 -0.800000
v -0.266000 0.112000 -0.800000
v -0.266000 0.132000 0.800000
v -0.266000 0.112000 0.800000
v -0.524000 0.132000 -0.800000
v -0.524000 0.112000 -0.800000
v -0.524000 0.132000 0.800000
v -0.524000 0.112000 0.800000
v -0.424000 0.132000 -0.800000
v -0.424000 0.112000 -0.800000
v -0.424000 0.132000 0.800000
v -0.424000 0.112000 0.800000
v -0.682000 0.132000 -0.800000
v -0.682000 0.112000 -0.800000
v -0.682000 0.132000 0.800000
v -0.682000 0.112000 0.800000
v -0.582000 0.132000 -0.800000
v -0.582000 0.112000 -0.800000
v -0.582000 0.132000 0.800000
v -0.582000 0.112000 0.800000
v 0.682000 0.092000 -0.800000
v 0.682000 0.020000 -0.800000
v 0.582000 0.092000 -0.800000
v 0.582000 0.020000 -0.800000
v 0.682000 0.092000 -0.700000
v 0.682000 0.020000 -0.700000
v 0.582000 0.092000 -0.700000
v 0.582000 0.020000 -0.700000
v 0.634060 0.132745 -0.006274
v 0.634060 0.130642 -0.009274
v 0.634060 0.132745 -0.009274
v 0.635824 0.130642 -0.008702
v 0.635824 0.132745 -0.008702
v 0.636914 0.130642 -0.007202
v 0.636914 0.132745 -0.007202
v 0.636914 0.130642 -0.005347
v 0.636914 0.132745 -0.005347
v 0.635824 0.130642 -0.003847
v 0.635824 0.132745 -0.003847
v 0.634060 0.130642 -0.003275
v 0.634060 0.132745 -0.003275
v 0.632297 0.130642 -0.003847
v 0.632297 0.132745 -0.003847
v 0.631207 0.130642 -0.005347
v 0.631207 0.132745 -0.005347
v 0.631207 0.130642 -0.007202
v 0.631207 0.132745 -0.007202
v 0.632297 0.130642 -0.008702
v 0.632297 0.132745 -0.008702
v 0.582000 0.020000 -0.800000
v 0.582000 0.000000 -0.800000
v 0.582000 0.020000 0.800000
v 0.582000 0.000000 0.800000
v 0.682000 0.020000 -0.800000
v 0.682000 0.000000 -0.800000
v 0.682000 0.020000 0.800000
v 0.682000 0.000000 0.800000
v -0.050000 0.020000 -0.800000
v -0.050000 0.000000 -0.800000
v -0.050000 0.020000 0.800000
v -0.050000 0.000000 0.800000
v 0.050000 0.020000 -0.800000
v 0.050000 0.000000 -0.800000
v 0.050000 0.020000 0.800000
v 0.050000 0.000000 0.800000
v -0.682000 0.020000 -0.800000
v -0.682000 0.000000 -0.800000
v -0.682000 0.020000 0.800000
v -0.682000 0.000000 0.800000
v -0.582000 0.020000 -0.800000
v -0.582000 0.000000 -0.800000
v -0.582000 0.020000 0.800000
v -0.582000 0.000000 0.800000
v -0.682000 0.112000 -0.700000
v -0.682000 0.092000 -0.700000
v 0.682000 0.112000 -0.700000
v 0.682000 0.092000 -0.700000
v -0.682000 0.112000 -0.800000
v -0.682000 0.092000 -0.800000
v 0.682000 0.112000 -0.800000
v 0.682000 0.092000 -0.800000
v 0.050000 0.092000 -0.800000
v 0.050000 0.020000 -0.800000
v -0.050000 0.092000 -0.800000
v -0.050000 0.020000 -0.800000
v 0.050000 0.092000 -0.700000
v 0.050000 0.020000 -0.700000
v -0.050000 0.092000 -0.700000
v -0.050000 0.020000 -0.700000
v -0.582000 0.092000 -0.800000
v -0.582000 0.020000 -0.800000
v -0.682000 0.092000 -0.800000
v -0.682000 0.020000 -0.800000
v -0.582000 0.092000 -0.700000
v -0.582000 0.020000 -0.700000
v -0.682000 0.092000 -0.700000
v -0.682000 0.020000 -0.700000
v -0.582000 0.092000 0.700000
v -0.582000 0.020000 0.700000
v -0.682000 0.092000 0.700000
v -0.682000 0.020000 0.700000
v -0.582000 0.092000 0.800000
v -0.582000 0.020000 0.800000
v -0.682000 0.092000 0.800000
v -0.682000 0.020000 0.800000
v -0.682000 0.112000 0.800000
v -0.682000 0.092000 0.800000
v 0.682000 0.112000 0.800000
v 0.682000 0.092000 0.800000
v -0.682000 0.112000 0.700000
v -0.682000 0.092000 0.700000
v 0.682000 0.112000 0.700000
v 0.682000 0.092000 0.700000
v 0.682000 0.092000 0.700000
v 0.682000 0.020000 0.700000
v 0.582000 0.092000 0.700000
v 0.582000 0.020000 0.700000
v 0.682000 0.092000 0.800000
v 0.682000 0.020000 0.800000
v 0.582000 0.092000 0.800000
v 0.582000 0.020000 0.800000
v -0.682000 0.112000 0.050000
v -0.682000 0.092000 0.050000
v 0.682000 0.112000 0.050000
v 0.682000 0.092000 0.050000
v -0.682000 0.112000 -0.050000
v -0.682000 0.092000 -0.050000
v 0.682000 0.112000 -0.050000
v 0.682000 0.092000 -0.050000
v 0.682000 0.092000 0.700000
v 0.682000 0.020000 0.700000
v 0.582000 0.092000 0.700000
v 0.582000 0.020000 0.700000
v 0.682000 0.092000 0.800000
v 0.682000 0.020000 0.800000
v 0.582000 0.092000 0.800000
v 0.582000 0.020000 0.800000
v 0.682000 0.092000 -0.050000
v 0.682000 0.020000 -0.050000
v 0.582000 0.092000 -0.050000
v 0.582000 0.020000 -0.050000
v 0.682000 0.092000 0.050000
v 0.682000 0.020000 0.050000
v 0.582000 0.092000 0.050000
v 0.582000 0.020000 0.050000
v -0.582000 0.092000 -0.050000
v -0.582000 0.020000 -0.050000
v -0.682000 0.092000 -0.050000
v -0.682000 0.020000 -0.050000
v -0.582000 0.092000 0.050000
v -0.582000 0.020000 0.050000
v -0.682000 0.092000 0.050000
v -0.682000 0.020000 0.050000
v 0.473661 0.132745 0.002637
v 0.473661 0.130642 -0.000363
v 0.473661 0.132745 -0.000363
v 0.475424 0.130642 0.000210
v 0.475424 0.132745 0.000210
v 0.476514 0.130642 0.001710
v 0.476514 0.132745 0.001710
v 0.476514 0.130642 0.003564
v 0.476514 0.132745 0.003564
v 0.475424 0.130642 0.005064
v 0.475424 0.132745 0.005064
v 0.473661 0.130642 0.005637
v 0.473661 0.132745 0.005637
v 0.471898 0.130642 0.005064
v 0.471898 0.132745 0.005064
v 0.470808 0.130642 0.003564
v 0.470808 0.132745 0.003564
v 0.470808 0.130642 0.001710
v 0.470808 0.132745 0.001710
v 0.471898 0.130642 0.000210
v 0.471898 0.132745 0.000210
v 0.318608 0.132745 0.012439
v 0.318608 0.130642 0.009439
v 0.318608 0.132745 0.009439
v 0.320372 0.130642 0.010012
v 0.320372 0.132745 0.010012
v 0.321461 0.130642 0.011512
v 0.321461 0.132745 0.011512
v 0.321461 0.130642 0.013366
v 0.321461 0.132745 0.013366
v 0.320372 0.130642 0.014866
v 0.320372 0.132745 0.014866
v 0.318608 0.130642 0.015439
v 0.318608 0.132745 0.015439
v 0.316845 0.130642 0.014866
v 0.316845 0.132745 0.014866
v 0.315755 0.130642 0.013366
v 0.315755 0.132745 0.013366
v 0.315755 0.130642 0.011512
v 0.315755 0.132745 0.011512
v 0.316845 0.130642 0.010012
v 0.316845 0.132745 0.010012
v 0.160882 0.132745 -0.003601
v 0.160882 0.130642 -0.006601
v 0.160882 0.132745 -0.006601
v 0.162645 0.130642 -0.006028
v 0.162645 0.132745 -0.006028
v 0.163735 0.130642 -0.004528
v 0.163735 0.132745 -0.004528
v 0.163735 0.130642 -0.002674
v 0.163735 0.132745 -0.002674
v 0.162645 0.130642 -0.001174
v 0.162645 0.132745 -0.001174
v 0.160882 0.130642 -0.000601
v 0.160882 0.132745 -0.000601
v 0.159119 0.130642 -0.001174
v 0.159119 0.132745 -0.001174
v 0.158029 0.130642 -0.002674
v 0.158029 0.132745 -0.002674
v 0.158029 0.130642 -0.004528
v 0.158029 0.132745 -0.004528
v 0.159119 0.130642 -0.006028
v 0.159119 0.132745 -0.006028
v 0.005829 0.132745 0.008874
v 0.005829 0.130642 0.005874
v 0.005829 0.132745 0.005874
v 0.007593 0.130642 0.006447
v 0.007593 0.132745 0.006447
v 0.008682 0.130642 0.007947
v 0.008682 0.132745 0.007947
v 0.008682 0.130642 0.009801
v 0.008682 0.132745 0.009801
v 0.007593 0.130642 0.011301
v 0.007593 0.132745 0.011301
v 0.005829 0.130642 0.011874
v 0.005829 0.132745 0.011874
v 0.004066 0.130642 0.011301
v 0.004066 0.132745 0.011301
v 0.002976 0.130642 0.009801
v 0.002976 0.132745 0.009801
v 0.002976 0.130642 0.007947
v 0.002976 0.132745 0.007947
v 0.004066 0.130642 0.006447
v 0.004066 0.132745 0.006447
v -0.156352 0.132745 -0.004492
v -0.156352 0.130642 -0.007492
v -0.156352 0.132745 -0.007492
v -0.154589 0.130642 -0.006919
v -0.154589 0.132745 -0.006919
v -0.153499 0.130642 -0.005419
v -0.153499 0.132745 -0.005419
v -0.153499 0.130642 -0.003565
v -0.153499 0.132745 -0.003565
v -0.154589 0.130642 -0.002065
v -0.154589 0.132745 -0.002065
v -0.156352 0.130642 -0.001492
v -0.156352 0.132745 -0.001492
v -0.158116 0.130642 -0.002065
v -0.158116 0.132745 -0.002065
v -0.159206 0.130642 -0.003565
v -0.159206 0.132745 -0.003565
v -0.159206 0.130642 -0.005419
v -0.159206 0.132745 -0.005419
v -0.158116 0.130642 -0.006919
v -0.158116 0.132745 -0.006919
v -0.317643 0.132745 0.004419
v -0.317643 0.130642 0.001419
v -0.317643 0.132745 0.001419
v -0.315880 0.130642 0.001992
v -0.315880 0.132745 0.001992
v -0.314790 0.130642 0.003492
v -0.314790 0.132745 0.003492
v -0.314790 0.130642 0.005346
v -0.314790 0.132745 0.005346
v -0.315880 0.130642 0.006846
v -0.315880 0.132745 0.006846
v -0.317643 0.130642 0.007419
v -0.317643 0.132745 0.007419
v -0.319406 0.130642 0.006846
v -0.319406 0.132745 0.006846
v -0.320496 0.130642 0.005346
v -0.320496 0.132745 0.005346
v -0.320496 0.130642 0.003492
v -0.320496 0.132745 0.003492
v -0.319406 0.130642 0.001992
v -0.319406 0.132745 0.001992
v -0.479825 0.132745 -0.005383
v -0.479825 0.130642 -0.008383
v -0.479825 0.132745 -0.008383
v -0.478061 0.130642 -0.007811
v -0.478061 0.132745 -0.007811
v -0.476971 0.130642 -0.006311
v -0.476971 0.132745 -0.006311
v -0.476971 0.130642 -0.004456
v -0.476971 0.132745 -0.004456
v -0.478061 0.130642 -0.002956
v -0.478061 0.132745 -0.002956
v -0.479825 0.130642 -0.002383
v -0.479825 0.132745 -0.002383
v -0.481588 0.130642 -0.002956
v -0.481588 0.132745 -0.002956
v -0.482678 0.130642 -0.004456
v -0.482678 0.132745 -0.004456
v -0.482678 0.130642 -0.006311
v -0.482678 0.132745 -0.006311
v -0.481588 0.130642 -0.007811
v -0.481588 0.132745 -0.007811
v -0.635769 0.132745 -0.000037
v -0.635769 0.130642 -0.003037
v -0.635769 0.132745 -0.003037
v -0.634005 0.130642 -0.002464
v -0.634005 0.132745 -0.002464
v -0.632915 0.130642 -0.000964
v -0.632915 0.132745 -0.000964
v -0.632915 0.130642 0.000890
v -0.632915 0.132745 0.000890
v -0.634005 0.130642 0.002390
v -0.634005 0.132745 0.002390
v -0.635769 0.130642 0.002963
v -0.635769 0.132745 0.002963
v -0.637532 0.130642 0.002390
v -0.637532 0.132745 0.002390
v -0.638622 0.130642 0.000890
v -0.638622 0.132745 0.000890
v -0.638622 0.130642 -0.000964
v -0.638622 0.132745 -0.000964
v -0.637532 0.130642 -0.002464
v -0.637532 0.132745 -0.002464
v 0.616146 0.132745 0.757807
v 0.616146 0.130642 0.754807
v 0.616146 0.132745 0.754807
v 0.617910 0.130642 0.755380
v 0.617910 0.132745 0.755380
v 0.618999 0.130642 0.756880
v 0.618999 0.132745 0.756880
v 0.618999 0.130642 0.758734
v 0.618999 0.132745 0.758734
v 0.617910 0.130642 0.760234
v 0.617910 0.132745 0.760234
v 0.616146 0.130642 0.760807
v 0.616146 0.132745 0.760807
v 0.614383 0.130642 0.760234
v 0.614383 0.132745 0.760234
v 0.613293 0.130642 0.758734
v 0.613293 0.132745 0.758734
v 0.613293 0.130642 0.756880
v 0.613293 0.132745 0.756880
v 0.614383 0.130642 0.755380
v 0.614383 0.132745 0.755380
v 0.629387 0.132745 0.744566
v 0.629387 0.130642 0.741566
v 0.629387 0.132745 0.741566
v 0.631150 0.130642 0.742139
v 0.631150 0.132745 0.742139
v 0.632240 0.130642 0.743639
v 0.632240 0.132745 0.743639
v 0.632240 0.130642 0.745493
v 0.632240 0.132745 0.745493
v 0.631150 0.130642 0.746993
v 0.631150 0.132745 0.746993
v 0.629387 0.130642 0.747566
v 0.629387 0.132745 0.747566
v 0.627624 0.130642 0.746993
v 0.627624 0.132745 0.746993
v 0.626534 0.130642 0.745493
v 0.626534 0.132745 0.745493
v 0.626534 0.130642 0.743639
v 0.626534 0.132745 0.743639
v 0.627624 0.130642 0.742139
v 0.627624 0.132745 0.742139
v 0.468159 0.132745 0.750797
v 0.468159 0.130642 0.747797
v 0.468159 0.132745 0.747797
v 0.469922 0.130642 0.748370
v 0.469922 0.132745 0.748370
v 0.471012 0.130642 0.749870
v 0.471012 0.132745 0.749870
v 0.471012 0.130642 0.751724
v 0.471012 0.132745 0.751724
v 0.469922 0.130642 0.753224
v 0.469922 0.132745 0.753224
v 0.468159 0.130642 0.753797
v 0.468159 0.132745 0.753797
v 0.466396 0.130642 0.753224
v 0.466396 0.132745 0.753224
v 0.465306 0.130642 0.751724
v 0.465306 0.132745 0.751724
v 0.465306 0.130642 0.749870
v 0.465306 0.132745 0.749870
v 0.466396 0.130642 0.748370
v 0.466396 0.132745 0.748370
v 0.306152 0.132745 0.752355
v 0.306152 0.130642 0.749355
v 0.306152 0.132745 0.749355
v 0.307915 0.130642 0.749928
v 0.307915 0.132745 0.749928
v 0.309005 0.130642 0.751428
v 0.309005 0.132745 0.751428
v 0.309005 0.130642 0.753282
v 0.309005 0.132745 0.753282
v 0.307915 0.130642 0.754782
v 0.307915 0.132745 0.754782
v 0.306152 0.130642 0.755355
v 0.306152 0.132745 0.755355
v 0.304389 0.130642 0.754782
v 0.304389 0.132745 0.754782
v 0.303299 0.130642 0.753282
v 0.303299 0.132745 0.753282
v 0.303299 0.130642 0.751428
v 0.303299 0.132745 0.751428
v 0.304389 0.130642 0.749928
v 0.304389 0.132745 0.749928
v 0.158944 0.132745 0.742230
v 0.158944 0.130642 0.739230
v 0.158944 0.132745 0.739230
v 0.160707 0.130642 0.739803
v 0.160707 0.132745 0.739803
v 0.161797 0.130642 0.741302
v 0.161797 0.132745 0.741302
v 0.161797 0.130642 0.743157
v 0.161797 0.132745 0.743157
v 0.160707 0.130642 0.744657
v 0.160707 0.132745 0.744657
v 0.158944 0.130642 0.745230
v 0.158944 0.132745 0.745230
v 0.157180 0.130642 0.744657
v 0.157180 0.132745 0.744657
v 0.156090 0.130642 0.743157
v 0.156090 0.132745 0.743157
v 0.156090 0.130642 0.741302
v 0.156090 0.132745 0.741302
v 0.157180 0.130642 0.739803
v 0.157180 0.132745 0.739803
v -0.004621 0.132745 0.748461
v -0.004621 0.130642 0.745461
v -0.004621 0.132745 0.745461
v -0.002858 0.130642 0.746034
v -0.002858 0.132745 0.746034
v -0.001768 0.130642 0.747534
v -0.001768 0.132745 0.747534
v -0.001768 0.130642 0.749388
v -0.001768 0.132745 0.749388
v -0.002858 0.130642 0.750888
v -0.002858 0.132745 0.750888
v -0.004621 0.130642 0.751461
v -0.004621 0.132745 0.751461
v -0.006385 0.130642 0.750888
v -0.006385 0.132745 0.750888
v -0.007474 0.130642 0.749388
v -0.007474 0.132745 0.749388
v -0.007474 0.130642 0.747534
v -0.007474 0.132745 0.747534
v -0.006385 0.130642 0.746034
v -0.006385 0.132745 0.746034
v -0.165850 0.132745 0.749240
v -0.165850 0.130642 0.746240
v -0.165850 0.132745 0.746240
v -0.164086 0.130642 0.746813
v -0.164086 0.132745 0.746813
v -0.162996 0.130642 0.748312
v -0.162996 0.132745 0.748312
v -0.162996 0.130642 0.750167
v -0.162996 0.132745 0.750167
v -0.164086 0.130642 0.751667
v -0.164086 0.132745 0.751667
v -0.165850 0.130642 0.752240
v -0.165850 0.132745 0.752240
v -0.167613 0.130642 0.751667
v -0.167613 0.132745 0.751667
v -0.168703 0.130642 0.750167
v -0.168703 0.132745 0.750167
v -0.168703 0.130642 0.748312
v -0.168703 0.132745 0.748312
v -0.167613 0.130642 0.746813
v -0.167613 0.132745 0.746813
v -0.311500 0.132745 0.743788
v -0.311500 0.130642 0.740788
v -0.311500 0.132745 0.740788
v -0.309737 0.130642 0.741360
v -0.309737 0.132745 0.741360
v -0.308647 0.130642 0.742860
v -0.308647 0.132745 0.742860
v -0.308647 0.130642 0.744714
v -0.308647 0.132745 0.744714
v -0.309737 0.130642 0.746215
v -0.309737 0.132745 0.746215
v -0.311500 0.130642 0.746787
v -0.311500 0.132745 0.746787
v -0.313263 0.130642 0.746215
v -0.313263 0.132745 0.746215
v -0.314353 0.130642 0.744714
v -0.314353 0.132745 0.744714
v -0.314353 0.130642 0.742860
v -0.314353 0.132745 0.742860
v -0.313263 0.130642 0.741360
v -0.313263 0.132745 0.741360
v -0.473507 0.132745 0.750019
v -0.473507 0.130642 0.747019
v -0.473507 0.132745 0.747019
v -0.471744 0.130642 0.747591
v -0.471744 0.132745 0.747591
v -0.470654 0.130642 0.749091
v -0.470654 0.132745 0.749091
v -0.470654 0.130642 0.750946
v -0.470654 0.132745 0.750946
v -0.471744 0.130642 0.752446
v -0.471744 0.132745 0.752446
v -0.473507 0.130642 0.753018
v -0.473507 0.132745 0.753018
v -0.475271 0.130642 0.752446
v -0.475271 0.132745 0.752446
v -0.476360 0.130642 0.750946
v -0.476360 0.132745 0.750946
v -0.476360 0.130642 0.749091
v -0.476360 0.132745 0.749091
v -0.475271 0.130642 0.747591
v -0.475271 0.132745 0.747591
v -0.644861 0.132745 0.760144
v -0.644861 0.130642 0.757144
v -0.644861 0.132745 0.757144
v -0.643098 0.130642 0.757717
v -0.643098 0.132745 0.757717
v -0.642008 0.130642 0.759217
v -0.642008 0.132745 0.759217
v -0.642008 0.130642 0.761071
v -0.642008 0.132745 0.761071
v -0.643098 0.130642 0.762571
v -0.643098 0.132745 0.762571
v -0.644861 0.130642 0.763144
v -0.644861 0.132745 0.763144
v -0.646624 0.130642 0.762571
v -0.646624 0.132745 0.762571
v -0.647714 0.130642 0.761071
v -0.647714 0.132745 0.761071
v -0.647714 0.130642 0.759217
v -0.647714 0.132745 0.759217
v -0.646624 0.130642 0.757717
v -0.646624 0.132745 0.757717
v -0.633178 0.132745 0.747682
v -0.633178 0.130642 0.744682
v -0.633178 0.132745 0.744682
v -0.631414 0.130642 0.745255
v -0.631414 0.132745 0.745255
v -0.630324 0.130642 0.746755
v -0.630324 0.132745 0.746755
v -0.630324 0.130642 0.748609
v -0.630324 0.132745 0.748609
v -0.631414 0.130642 0.750109
v -0.631414 0.132745 0.750109
v -0.633178 0.130642 0.750682
v -0.633178 0.132745 0.750682
v -0.634941 0.130642 0.750109
v -0.634941 0.132745 0.750109
v -0.636031 0.130642 0.748609
v -0.636031 0.132745 0.748609
v -0.636031 0.130642 0.746755
v -0.636031 0.132745 0.746755
v -0.634941 0.130642 0.745255
v -0.634941 0.132745 0.745255
v -0.647717 0.132745 -0.755297
v -0.647717 0.130642 -0.758297
v -0.647717 0.132745 -0.758297
v -0.645954 0.130642 -0.757724
v -0.645954 0.132745 -0.757724
v -0.644864 0.130642 -0.756225
v -0.644864 0.132745 -0.756225
v -0.644864 0.130642 -0.754370
v -0.644864 0.132745 -0.754370
v -0.645954 0.130642 -0.752870
v -0.645954 0.132745 -0.752870
v -0.647717 0.130642 -0.752297
v -0.647717 0.132745 -0.752297
v -0.649480 0.130642 -0.752870
v -0.649480 0.132745 -0.752870
v -0.650570 0.130642 -0.754370
v -0.650570 0.132745 -0.754370
v -0.650570 0.130642 -0.756225
v -0.650570 0.132745 -0.756225
v -0.649480 0.130642 -0.757724
v -0.649480 0.132745 -0.757724
v -0.623360 0.132745 -0.761745
v -0.623360 0.130642 -0.764745
v -0.623360 0.132745 -0.764745
v -0.621597 0.130642 -0.764172
v -0.621597 0.132745 -0.764172
v -0.620507 0.130642 -0.762672
v -0.620507 0.132745 -0.762672
v -0.620507 0.130642 -0.760818
v -0.620507 0.132745 -0.760818
v -0.621597 0.130642 -0.759318
v -0.621597 0.132745 -0.759318
v -0.623360 0.130642 -0.758745
v -0.623360 0.132745 -0.758745
v -0.625124 0.130642 -0.759318
v -0.625124 0.132745 -0.759318
v -0.626213 0.130642 -0.760818
v -0.626213 0.132745 -0.760818
v -0.626213 0.130642 -0.762672
v -0.626213 0.132745 -0.762672
v -0.625124 0.130642 -0.764172
v -0.625124 0.132745 -0.764172
v -0.475070 0.132745 -0.744552
v -0.475070 0.130642 -0.747552
v -0.475070 0.132745 -0.747552
v -0.473307 0.130642 -0.746979
v -0.473307 0.132745 -0.746979
v -0.472217 0.130642 -0.745479
v -0.472217 0.132745 -0.745479
v -0.472217 0.130642 -0.743625
v -0.472217 0.132745 -0.743625
v -0.473307 0.130642 -0.742125
v -0.473307 0.132745 -0.742125
v -0.475070 0.130642 -0.741552
v -0.475070 0.132745 -0.741552
v -0.476834 0.130642 -0.742125
v -0.476834 0.132745 -0.742125
v -0.477924 0.130642 -0.743625
v -0.477924 0.132745 -0.743625
v -0.477924 0.130642 -0.745479
v -0.477924 0.132745 -0.745479
v -0.476834 0.130642 -0.746979
v -0.476834 0.132745 -0.746979
v -0.312453 0.132745 -0.752432
v -0.312453 0.130642 -0.755432
v -0.312453 0.132745 -0.755432
v -0.310690 0.130642 -0.754859
v -0.310690 0.132745 -0.754859
v -0.309600 0.130642 -0.753359
v -0.309600 0.132745 -0.753359
v -0.309600 0.130642 -0.751505
v -0.309600 0.132745 -0.751505
v -0.310690 0.130642 -0.750005
v -0.310690 0.132745 -0.750005
v -0.312453 0.130642 -0.749432
v -0.312453 0.132745 -0.749432
v -0.314216 0.130642 -0.750005
v -0.314216 0.132745 -0.750005
v -0.315306 0.130642 -0.751505
v -0.315306 0.132745 -0.751505
v -0.315306 0.130642 -0.753359
v -0.315306 0.132745 -0.753359
v -0.314216 0.130642 -0.754859
v -0.314216 0.132745 -0.754859
v -0.162014 0.132745 -0.736672
v -0.162014 0.130642 -0.739672
v -0.162014 0.132745 -0.739672
v -0.160251 0.130642 -0.739099
v -0.160251 0.132745 -0.739099
v -0.159161 0.130642 -0.737599
v -0.159161 0.132745 -0.737599
v -0.159161 0.130642 -0.735745
v -0.159161 0.132745 -0.735745
v -0.160251 0.130642 -0.734245
v -0.160251 0.132745 -0.734245
v -0.162014 0.130642 -0.733672
v -0.162014 0.132745 -0.733672
v -0.163778 0.130642 -0.734245
v -0.163778 0.132745 -0.734245
v -0.164867 0.130642 -0.735745
v -0.164867 0.132745 -0.735745
v -0.164867 0.130642 -0.737599
v -0.164867 0.132745 -0.737599
v -0.163778 0.130642 -0.739099
v -0.163778 0.132745 -0.739099
v -0.001546 0.132745 -0.764610
v -0.001546 0.130642 -0.767610
v -0.001546 0.132745 -0.767610
v 0.000217 0.130642 -0.767037
v 0.000217 0.132745 -0.767037
v 0.001307 0.130642 -0.765538
v 0.001307 0.132745 -0.765538
v 0.001307 0.130642 -0.763683
v 0.001307 0.132745 -0.763683
v 0.000217 0.130642 -0.762183
v 0.000217 0.132745 -0.762183
v -0.001546 0.130642 -0.761610
v -0.001546 0.132745 -0.761610
v -0.003309 0.130642 -0.762183
v -0.003309 0.132745 -0.762183
v -0.004399 0.130642 -0.763683
v -0.004399 0.132745 -0.763683
v -0.004399 0.130642 -0.765538
v -0.004399 0.132745 -0.765538
v -0.003309 0.130642 -0.767037
v -0.003309 0.132745 -0.767037
v 0.156057 0.132745 -0.747417
v 0.156057 0.130642 -0.750417
v 0.156057 0.132745 -0.750417
v 0.157820 0.130642 -0.749844
v 0.157820 0.132745 -0.749844
v 0.158910 0.130642 -0.748344
v 0.158910 0.132745 -0.748344
v 0.158910 0.130642 -0.746490
v 0.158910 0.132745 -0.746490
v 0.157820 0.130642 -0.744990
v 0.157820 0.132745 -0.744990
v 0.156057 0.130642 -0.744417
v 0.156057 0.132745 -0.744417
v 0.154293 0.130642 -0.744990
v 0.154293 0.132745 -0.744990
v 0.153203 0.130642 -0.746490
v 0.153203 0.132745 -0.746490
v 0.153203 0.130642 -0.748344
v 0.153203 0.132745 -0.748344
v 0.154293 0.130642 -0.749844
v 0.154293 0.132745 -0.749844
v 0.312227 0.132745 -0.748850
v 0.312227 0.130642 -0.751850
v 0.312227 0.132745 -0.751850
v 0.313990 0.130642 -0.751277
v 0.313990 0.132745 -0.751277
v 0.315080 0.130642 -0.749777
v 0.315080 0.132745 -0.749777
v 0.315080 0.130642 -0.747923
v 0.315080 0.132745 -0.747923
v 0.313990 0.130642 -0.746423
v 0.313990 0.132745 -0.746423
v 0.312227 0.130642 -0.745850
v 0.312227 0.132745 -0.745850
v 0.310463 0.130642 -0.746423
v 0.310463 0.132745 -0.746423
v 0.309373 0.130642 -0.747923
v 0.309373 0.132745 -0.747923
v 0.309373 0.130642 -0.749777
v 0.309373 0.132745 -0.749777
v 0.310463 0.130642 -0.751277
v 0.310463 0.132745 -0.751277
v 0.472695 0.132745 -0.738104
v 0.472695 0.130642 -0.741104
v 0.472695 0.132745 -0.741104
v 0.474458 0.130642 -0.740532
v 0.474458 0.132745 -0.740532
v 0.475548 0.130642 -0.739032
v 0.475548 0.132745 -0.739032
v 0.475548 0.130642 -0.737177
v 0.475548 0.132745 -0.737177
v 0.474458 0.130642 -0.735677
v 0.474458 0.132745 -0.735677
v 0.472695 0.130642 -0.735105
v 0.472695 0.132745 -0.735105
v 0.470931 0.130642 -0.735677
v 0.470931 0.132745 -0.735677
v 0.469841 0.130642 -0.737177
v 0.469841 0.132745 -0.737177
v 0.469841 0.130642 -0.739032
v 0.469841 0.132745 -0.739032
v 0.470931 0.130642 -0.740532
v 0.470931 0.132745 -0.740532
v 0.628865 0.132745 -0.730224
v 0.628865 0.130642 -0.733224
v 0.628865 0.132745 -0.733224
v 0.630628 0.130642 -0.732651
v 0.630628 0.132745 -0.732651
v 0.631718 0.130642 -0.731152
v 0.631718 0.132745 -0.731152
v 0.631718 0.130642 -0.729297
v 0.631718 0.132745 -0.729297
v 0.630628 0.130642 -0.727797
v 0.630628 0.132745 -0.727797
v 0.628865 0.130642 -0.727224
v 0.628865 0.132745 -0.727224
v 0.627101 0.130642 -0.727797
v 0.627101 0.132745 -0.727797
v 0.626011 0.130642 -0.729297
v 0.626011 0.132745 -0.729297
v 0.626011 0.130642 -0.731152
v 0.626011 0.132745 -0.731152
v 0.627101 0.130642 -0.732651
v 0.627101 0.132745 -0.732651
v 0.639610 0.132745 -0.748850
v 0.639610 0.130642 -0.751850
v 0.639610 0.132745 -0.751850
v 0.641374 0.130642 -0.751277
v 0.641374 0.132745 -0.751277
v 0.642463 0.130642 -0.749777
v 0.642463 0.132745 -0.749777
v 0.642463 0.130642 -0.747923
v 0.642463 0.132745 -0.747923
v 0.641374 0.130642 -0.746423
v 0.641374 0.132745 -0.746423
v 0.639610 0.130642 -0.745850
v 0.639610 0.132745 -0.745850
v 0.637847 0.130642 -0.746423
v 0.637847 0.132745 -0.746423
v 0.636757 0.130642 -0.747923
v 0.636757 0.132745 -0.747923
v 0.636757 0.130642 -0.749777
v 0.636757 0.132745 -0.749777
v 0.637847 0.130642 -0.751277
v 0.637847 0.132745 -0.751277
v 0.630240 -0.001059 0.750179
v 0.630240 0.001044 0.753179
v 0.630240 -0.001059 0.753179
v 0.632003 0.001044 0.752606
v 0.632003 -0.001059 0.752606
v 0.633093 0.001044 0.751107
v 0.633093 -0.001059 0.751107
v 0.633093 0.001044 0.749252
v 0.633093 -0.001059 0.749252
v 0.632003 0.001044 0.747752
v 0.632003 -0.001059 0.747752
v 0.630240 0.001044 0.747179
v 0.630240 -0.001059 0.747179
v 0.628477 0.001044 0.747752
v 0.628477 -0.001059 0.747752
v 0.627387 0.001044 0.749252
v 0.627387 -0.001059 0.749252
v 0.627387 0.001044 0.751107
v 0.627387 -0.001059 0.751107
v 0.628477 0.001044 0.752606
v 0.628477 -0.001059 0.752606
v 0.627421 -0.001059 -0.002542
v 0.627421 0.001044 0.000458
v 0.627421 -0.001059 0.000458
v 0.629184 0.001044 -0.000115
v 0.629184 -0.001059 -0.000115
v 0.630274 0.001044 -0.001615
v 0.630274 -0.001059 -0.001615
v 0.630274 0.001044 -0.003469
v 0.630274 -0.001059 -0.003469
v 0.629184 0.001044 -0.004969
v 0.629184 -0.001059 -0.004969
v 0.627421 0.001044 -0.005542
v 0.627421 -0.001059 -0.005542
v 0.625658 0.001044 -0.004969
v 0.625658 -0.001059 -0.004969
v 0.624568 0.001044 -0.003469
v 0.624568 -0.001059 -0.003469
v 0.624568 0.001044 -0.001615
v 0.624568 -0.001059 -0.001615
v 0.625658 0.001044 -0.000115
v 0.625658 -0.001059 -0.000115
v 0.629808 -0.001059 -0.741254
v 0.629808 0.001044 -0.738254
v 0.629808 -0.001059 -0.738254
v 0.631571 0.001044 -0.738827
v 0.631571 -0.001059 -0.738827
v 0.632661 0.001044 -0.740327
v 0.632661 -0.001059 -0.740327
v 0.632661 0.001044 -0.742181
v 0.632661 -0.001059 -0.742181
v 0.631571 0.001044 -0.743681
v 0.631571 -0.001059 -0.743681
v 0.629808 0.001044 -0.744254
v 0.629808 -0.001059 -0.744254
v 0.628044 0.001044 -0.743681
v 0.628044 -0.001059 -0.743681
v 0.626955 0.001044 -0.742181
v 0.626955 -0.001059 -0.742181
v 0.626955 0.001044 -0.740327
v 0.626955 -0.001059 -0.740327
v 0.628044 0.001044 -0.738827
v 0.628044 -0.001059 -0.738827
v 0.015209 -0.001059 -0.753188
v 0.015209 0.001044 -0.750188
v 0.015209 -0.001059 -0.750188
v 0.016972 0.001044 -0.750761
v 0.016972 -0.001059 -0.750761
v 0.018062 0.001044 -0.752261
v 0.018062 -0.001059 -0.752261
v 0.018062 0.001044 -0.754115
v 0.018062 -0.001059 -0.754115
v 0.016972 0.001044 -0.755615
v 0.016972 -0.001059 -0.755615
v 0.015209 0.001044 -0.756188
v 0.015209 -0.001059 -0.756188
v 0.013446 0.001044 -0.755615
v 0.013446 -0.001059 -0.755615
v 0.012356 0.001044 -0.754115
v 0.012356 -0.001059 -0.754115
v 0.012356 0.001044 -0.752261
v 0.012356 -0.001059 -0.752261
v 0.013446 0.001044 -0.750761
v 0.013446 -0.001059 -0.750761
v -0.000305 -0.001059 -0.004929
v -0.000305 0.001044 -0.001929
v -0.000305 -0.001059 -0.001929
v 0.001458 0.001044 -0.002502
v 0.001458 -0.001059 -0.002502
v 0.002548 0.001044 -0.004002
v 0.002548 -0.001059 -0.004002
v 0.002548 0.001044 -0.005856
v 0.002548 -0.001059 -0.005856
v 0.001458 0.001044 -0.007356
v 0.001458 -0.001059 -0.007356
v -0.000305 0.001044 -0.007929
v -0.000305 -0.001059 -0.007929
v -0.002069 0.001044 -0.007356
v -0.002069 -0.001059 -0.007356
v -0.003158 0.001044 -0.005856
v -0.003158 -0.001059 -0.005856
v -0.003158 0.001044 -0.004002
v -0.003158 -0.001059 -0.004002
v -0.002069 0.001044 -0.002502
v -0.002069 -0.001059 -0.002502
v -0.002692 -0.001059 0.756458
v -0.002692 0.001044 0.759458
v -0.002692 -0.001059 0.759458
v -0.000929 0.001044 0.758885
v -0.000929 -0.001059 0.758885
v 0.000161 0.001044 0.757385
v 0.000161 -0.001059 0.757385
v 0.000161 0.001044 0.755531
v 0.000161 -0.001059 0.755531
v -0.000929 0.001044 0.754030
v -0.000929 -0.001059 0.754030
v -0.002692 0.001044 0.753458
v -0.002692 -0.001059 0.753458
v -0.004455 0.001044 0.754030
v -0.004455 -0.001059 0.754030
v -0.005545 0.001044 0.755531
v -0.005545 -0.001059 0.755531
v -0.005545 0.001044 0.757385
v -0.005545 -0.001059 0.757385
v -0.004455 0.001044 0.758885
v -0.004455 -0.001059 0.758885
v -0.620664 -0.001059 0.746950
v -0.620664 0.001044 0.749950
v -0.620664 -0.001059 0.749950
v -0.618900 0.001044 0.749377
v -0.618900 -0.001059 0.749377
v -0.617810 0.001044 0.747878
v -0.617810 -0.001059 0.747878
v -0.617810 0.001044 0.746023
v -0.617810 -0.001059 0.746023
v -0.618900 0.001044 0.744523
v -0.618900 -0.001059 0.744523
v -0.620664 0.001044 0.743950
v -0.620664 -0.001059 0.743950
v -0.622427 0.001044 0.744523
v -0.622427 -0.001059 0.744523
v -0.623517 0.001044 0.746023
v -0.623517 -0.001059 0.746023
v -0.623517 0.001044 0.747878
v -0.623517 -0.001059 0.747878
v -0.622427 0.001044 0.749377
v -0.622427 -0.001059 0.749377
v -0.633340 -0.001059 -0.002538
v -0.633340 0.001044 0.000462
v -0.633340 -0.001059 0.000462
v -0.631577 0.001044 -0.000111
v -0.631577 -0.001059 -0.000111
v -0.630487 0.001044 -0.001611
v -0.630487 -0.001059 -0.001611
v -0.630487 0.001044 -0.003465
v -0.630487 -0.001059 -0.003465
v -0.631577 0.001044 -0.004965
v -0.631577 -0.001059 -0.004965
v -0.633340 0.001044 -0.005538
v -0.633340 -0.001059 -0.005538
v -0.635103 0.001044 -0.004965
v -0.635103 -0.001059 -0.004965
v -0.636193 0.001044 -0.003465
v -0.636193 -0.001059 -0.003465
v -0.636193 0.001044 -0.001611
v -0.636193 -0.001059 -0.001611
v -0.635103 0.001044 -0.000111
v -0.635103 -0.001059 -0.000111
v -0.637520 -0.001059 -0.754006
v -0.637520 0.001044 -0.751006
v -0.637520 -0.001059 -0.751006
v -0.635757 0.001044 -0.751579
v -0.635757 -0.001059 -0.751579
v -0.634667 0.001044 -0.753079
v -0.634667 -0.001059 -0.753079
v -0.634667 0.001044 -0.754933
v -0.634667 -0.001059 -0.754933
v -0.635757 0.001044 -0.756433
v -0.635757 -0.001059 -0.756433
v -0.637520 0.001044 -0.757006
v -0.637520 -0.001059 -0.757006
v -0.639284 0.001044 -0.756433
v -0.639284 -0.001059 -0.756433
v -0.640374 0.001044 -0.754933
v -0.640374 -0.001059 -0.754933
v -0.640374 0.001044 -0.753079
v -0.640374 -0.001059 -0.753079
v -0.639284 0.001044 -0.751579
v -0.639284 -0.001059 -0.751579
vn -0.0000 -0.0000 -1.0000
vn -1.0000 -0.0000 -0.0000
vn -0.0000 -0.0000 1.0000
vn 1.0000 -0.0000 -0.0000
vn -0.0000 1.0000 -0.0000
vn -0.0000 -1.0000 -0.0000
vn 0.5878 -0.0000 0.8090
vn 0.9511 -0.0000 0.3090
vn 0.9511 -0.0000 -0.3090
vn 0.5878 -0.0000 -0.8090
vn -0.5878 -0.0000 0.8090
vn -0.9511 -0.0000 0.3090
vn -0.9511 -0.0000 -0.3090
vn -0.5878 -0.0000 -0.8090
vn 0.9510 -0.0000 -0.3090
vn -0.9510 -0.0000 -0.3090
vn 0.9510 -0.0000 -0.3091
vn 0.5877 -0.0000 -0.8090
vn -0.9510 -0.0000 -0.3091
vn -0.5877 -0.0000 -0.8090
vn 0.9510 -0.0000 0.3090
vn -0.9510 -0.0000 0.3090
vn 0.9510 -0.0000 0.3091
vn 0.5877 -0.0000 0.8090
vn -0.9510 -0.0000 0.3091
vn -0.5877 -0.0000 0.8090
vt 0.152321 0.827806
vt 0.152321 0.855638
vt 0.152768 0.827806
vt 0.152768 0.855638
vt 0.155674 0.827806
vt 0.155674 0.855638
vt 0.156121 0.827806
vt 0.156121 0.855638
vt 0.148967 0.863369
vt 0.156121 0.871100
vt 0.148967 0.871100
vt 0.156121 0.863369
vt 0.148967 0.827806
vt 0.148967 0.855638
vt 0.149414 0.855638
vt 0.149414 0.827806
vt 0.216722 0.097786
vt 0.216722 0.097728
vt 0.216722 0.097728
vt 0.216718 0.097786
vt 0.216722 0.097786
vt 0.216720 0.097786
vt 0.216720 0.097728
vt 0.216717 0.097786
vt 0.216717 0.097728
vt 0.216715 0.097786
vt 0.216715 0.097728
vt 0.216714 0.097786
vt 0.216714 0.097728
vt 0.148967 0.820075
vt 0.156121 0.820075
vt 0.149414 0.863369
vt 0.149414 0.863369
vt 0.149414 0.855638
vt 0.148967 0.863369
vt 0.148967 0.855638
vt 0.149414 0.855638
vt 0.149414 0.827806
vt 0.156121 0.855638
vt 0.156121 0.863369
vt 0.155674 0.863369
vt 0.155674 0.855638
vt 0.155674 0.863369
vt 0.155674 0.855638
vt 0.152768 0.863369
vt 0.152768 0.863369
vt 0.152768 0.855638
vt 0.152321 0.863369
vt 0.152321 0.855638
vt 0.152321 0.863369
vt 0.152321 0.827806
vt 0.152768 0.827806
vt 0.216734 0.097786
vt 0.216735 0.097728
vt 0.216734 0.097728
vt 0.216731 0.097786
vt 0.216735 0.097786
vt 0.216732 0.097786
vt 0.216732 0.097728
vt 0.216730 0.097786
vt 0.216730 0.097728
vt 0.216727 0.097786
vt 0.216727 0.097728
vt 0.216727 0.097786
vt 0.216727 0.097728
vt 0.216749 0.097786
vt 0.216749 0.097728
vt 0.216749 0.097728
vt 0.216745 0.097786
vt 0.216749 0.097786
vt 0.216746 0.097786
vt 0.216746 0.097728
vt 0.216744 0.097786
vt 0.216744 0.097728
vt 0.216742 0.097786
vt 0.216742 0.097728
vt 0.216741 0.097786
vt 0.216741 0.097728
vt 0.216725 0.097786
vt 0.216726 0.097728
vt 0.216725 0.097728
vt 0.216722 0.097786
vt 0.216726 0.097786
vt 0.216723 0.097786
vt 0.216723 0.097728
vt 0.216721 0.097786
vt 0.216721 0.097728
vt 0.216719 0.097786
vt 0.216719 0.097728
vt 0.216718 0.097786
vt 0.216718 0.097728
vt 0.216743 0.097786
vt 0.216744 0.097728
vt 0.216743 0.097728
vt 0.216740 0.097786
vt 0.216744 0.097786
vt 0.216741 0.097786
vt 0.216741 0.097728
vt 0.216739 0.097786
vt 0.216739 0.097728
vt 0.216736 0.097786
vt 0.216736 0.097728
vt 0.216736 0.097786
vt 0.216736 0.097728
vt 0.216724 0.097786
vt 0.216725 0.097728
vt 0.216724 0.097728
vt 0.216721 0.097786
vt 0.216725 0.097786
vt 0.216722 0.097786
vt 0.216722 0.097728
vt 0.216719 0.097786
vt 0.216719 0.097728
vt 0.216717 0.097786
vt 0.216717 0.097728
vt 0.216716 0.097786
vt 0.216716 0.097728
vt 0.216737 0.097786
vt 0.216738 0.097728
vt 0.216737 0.097728
vt 0.216734 0.097786
vt 0.216738 0.097786
vt 0.216735 0.097786
vt 0.216735 0.097728
vt 0.216732 0.097786
vt 0.216732 0.097728
vt 0.216730 0.097786
vt 0.216730 0.097728
vt 0.216729 0.097786
vt 0.216729 0.097728
vt 0.216723 0.097786
vt 0.216724 0.097728
vt 0.216723 0.097728
vt 0.216719 0.097786
vt 0.216724 0.097786
vt 0.216721 0.097786
vt 0.216721 0.097728
vt 0.216718 0.097786
vt 0.216718 0.097728
vt 0.216716 0.097786
vt 0.216716 0.097728
vt 0.216715 0.097786
vt 0.216715 0.097728
vt 0.216731 0.097786
vt 0.216731 0.097728
vt 0.216731 0.097728
vt 0.216727 0.097786
vt 0.216731 0.097786
vt 0.216728 0.097786
vt 0.216728 0.097728
vt 0.216726 0.097786
vt 0.216726 0.097728
vt 0.216724 0.097786
vt 0.216724 0.097728
vt 0.216723 0.097786
vt 0.216723 0.097728
vt 0.217818 0.097786
vt 0.217818 0.097728
vt 0.217818 0.097728
vt 0.217814 0.097786
vt 0.217818 0.097786
vt 0.217816 0.097786
vt 0.217816 0.097728
vt 0.217813 0.097786
vt 0.217813 0.097728
vt 0.217811 0.097786
vt 0.217811 0.097728
vt 0.217810 0.097786
vt 0.217810 0.097728
vt 0.217799 0.097786
vt 0.217800 0.097728
vt 0.217799 0.097728
vt 0.217795 0.097786
vt 0.217800 0.097786
vt 0.217797 0.097786
vt 0.217797 0.097728
vt 0.217794 0.097786
vt 0.217794 0.097728
vt 0.217792 0.097786
vt 0.217792 0.097728
vt 0.217791 0.097786
vt 0.217791 0.097728
vt 0.217808 0.097786
vt 0.217808 0.097728
vt 0.217808 0.097728
vt 0.217804 0.097786
vt 0.217808 0.097786
vt 0.217805 0.097786
vt 0.217805 0.097728
vt 0.217803 0.097786
vt 0.217803 0.097728
vt 0.217801 0.097786
vt 0.217801 0.097728
vt 0.217800 0.097786
vt 0.217800 0.097728
vt 0.217810 0.097786
vt 0.217811 0.097728
vt 0.217810 0.097728
vt 0.217806 0.097786
vt 0.217811 0.097786
vt 0.217808 0.097786
vt 0.217808 0.097728
vt 0.217805 0.097786
vt 0.217805 0.097728
vt 0.217803 0.097786
vt 0.217803 0.097728
vt 0.217802 0.097786
vt 0.217802 0.097728
vt 0.217795 0.097786
vt 0.217796 0.097728
vt 0.217795 0.097728
vt 0.217792 0.097786
vt 0.217796 0.097786
vt 0.217793 0.097786
vt 0.217793 0.097728
vt 0.217791 0.097786
vt 0.217791 0.097728
vt 0.217788 0.097786
vt 0.217788 0.097728
vt 0.217788 0.097786
vt 0.217788 0.097728
vt 0.217804 0.097786
vt 0.217805 0.097728
vt 0.217804 0.097728
vt 0.217801 0.097786
vt 0.217805 0.097786
vt 0.217802 0.097786
vt 0.217802 0.097728
vt 0.217799 0.097786
vt 0.217799 0.097728
vt 0.217797 0.097786
vt 0.217797 0.097728
vt 0.217797 0.097786
vt 0.217797 0.097728
vt 0.217805 0.097786
vt 0.217806 0.097728
vt 0.217805 0.097728
vt 0.217802 0.097786
vt 0.217806 0.097786
vt 0.217803 0.097786
vt 0.217803 0.097728
vt 0.217801 0.097786
vt 0.217801 0.097728
vt 0.217798 0.097786
vt 0.217798 0.097728
vt 0.217798 0.097786
vt 0.217798 0.097728
vt 0.217798 0.097786
vt 0.217798 0.097728
vt 0.217798 0.097728
vt 0.217794 0.097786
vt 0.217798 0.097786
vt 0.217795 0.097786
vt 0.217795 0.097728
vt 0.217793 0.097786
vt 0.217793 0.097728
vt 0.217791 0.097786
vt 0.217791 0.097728
vt 0.217790 0.097786
vt 0.217790 0.097728
vt 0.217807 0.097786
vt 0.217807 0.097728
vt 0.217807 0.097728
vt 0.217803 0.097786
vt 0.217807 0.097786
vt 0.217804 0.097786
vt 0.217804 0.097728
vt 0.217802 0.097786
vt 0.217802 0.097728
vt 0.217800 0.097786
vt 0.217800 0.097728
vt 0.217799 0.097786
vt 0.217799 0.097728
vt 0.217821 0.097786
vt 0.217822 0.097728
vt 0.217821 0.097728
vt 0.217818 0.097786
vt 0.217822 0.097786
vt 0.217819 0.097786
vt 0.217819 0.097728
vt 0.217816 0.097786
vt 0.217816 0.097728
vt 0.217814 0.097786
vt 0.217814 0.097728
vt 0.217813 0.097786
vt 0.217813 0.097728
vt 0.217803 0.097786
vt 0.217804 0.097728
vt 0.217803 0.097728
vt 0.217800 0.097786
vt 0.217804 0.097786
vt 0.217801 0.097786
vt 0.217801 0.097728
vt 0.217798 0.097786
vt 0.217798 0.097728
vt 0.217796 0.097786
vt 0.217796 0.097728
vt 0.217795 0.097786
vt 0.217795 0.097728
vt 0.215647 0.097786
vt 0.215648 0.097728
vt 0.215647 0.097728
vt 0.215644 0.097786
vt 0.215648 0.097786
vt 0.215645 0.097786
vt 0.215645 0.097728
vt 0.215642 0.097786
vt 0.215642 0.097728
vt 0.215640 0.097786
vt 0.215640 0.097728
vt 0.215639 0.097786
vt 0.215639 0.097728
vt 0.215638 0.097786
vt 0.215639 0.097728
vt 0.215638 0.097728
vt 0.215635 0.097786
vt 0.215639 0.097786
vt 0.215636 0.097786
vt 0.215636 0.097728
vt 0.215633 0.097786
vt 0.215633 0.097728
vt 0.215631 0.097786
vt 0.215631 0.097728
vt 0.215630 0.097786
vt 0.215630 0.097728
vt 0.215663 0.097786
vt 0.215663 0.097728
vt 0.215663 0.097728
vt 0.215659 0.097786
vt 0.215663 0.097786
vt 0.215661 0.097786
vt 0.215661 0.097728
vt 0.215658 0.097786
vt 0.215658 0.097728
vt 0.215656 0.097786
vt 0.215656 0.097728
vt 0.215655 0.097786
vt 0.215655 0.097728
vt 0.215651 0.097786
vt 0.215652 0.097728
vt 0.215651 0.097728
vt 0.215648 0.097786
vt 0.215652 0.097786
vt 0.215649 0.097786
vt 0.215649 0.097728
vt 0.215647 0.097786
vt 0.215647 0.097728
vt 0.215644 0.097786
vt 0.215644 0.097728
vt 0.215644 0.097786
vt 0.215644 0.097728
vt 0.215674 0.097786
vt 0.215675 0.097728
vt 0.215674 0.097728
vt 0.215670 0.097786
vt 0.215675 0.097786
vt 0.215672 0.097786
vt 0.215672 0.097728
vt 0.215669 0.097786
vt 0.215669 0.097728
vt 0.215667 0.097786
vt 0.215667 0.097728
vt 0.215666 0.097786
vt 0.215666 0.097728
vt 0.215634 0.097786
vt 0.215635 0.097728
vt 0.215634 0.097728
vt 0.215630 0.097786
vt 0.215635 0.097786
vt 0.215632 0.097786
vt 0.215632 0.097728
vt 0.215629 0.097786
vt 0.215629 0.097728
vt 0.215627 0.097786
vt 0.215627 0.097728
vt 0.215626 0.097786
vt 0.215626 0.097728
vt 0.215659 0.097786
vt 0.215659 0.097728
vt 0.215659 0.097728
vt 0.215655 0.097786
vt 0.215659 0.097786
vt 0.215656 0.097786
vt 0.215656 0.097728
vt 0.215654 0.097786
vt 0.215654 0.097728
vt 0.215652 0.097786
vt 0.215652 0.097728
vt 0.215651 0.097786
vt 0.215651 0.097728
vt 0.215656 0.097786
vt 0.215657 0.097728
vt 0.215656 0.097728
vt 0.215653 0.097786
vt 0.215657 0.097786
vt 0.215654 0.097786
vt 0.215654 0.097728
vt 0.215652 0.097786
vt 0.215652 0.097728
vt 0.215650 0.097786
vt 0.215650 0.097728
vt 0.215649 0.097786
vt 0.215649 0.097728
vt 0.215672 0.097786
vt 0.215673 0.097728
vt 0.215672 0.097728
vt 0.215668 0.097786
vt 0.215673 0.097786
vt 0.215670 0.097786
vt 0.215670 0.097728
vt 0.215667 0.097786
vt 0.215667 0.097728
vt 0.215665 0.097786
vt 0.215665 0.097728
vt 0.215664 0.097786
vt 0.215664 0.097728
vt 0.215683 0.097786
vt 0.215684 0.097728
vt 0.215683 0.097728
vt 0.215680 0.097786
vt 0.215684 0.097786
vt 0.215681 0.097786
vt 0.215681 0.097728
vt 0.215678 0.097786
vt 0.215678 0.097728
vt 0.215676 0.097786
vt 0.215676 0.097728
vt 0.215675 0.097786
vt 0.215675 0.097728
vt 0.217800 0.094090
vt 0.217799 0.094148
vt 0.217800 0.094148
vt 0.217803 0.094090
vt 0.217799 0.094090
vt 0.217802 0.094090
vt 0.217802 0.094148
vt 0.217805 0.094090
vt 0.217805 0.094148
vt 0.217807 0.094090
vt 0.217807 0.094148
vt 0.217808 0.094090
vt 0.217808 0.094148
vt 0.216720 0.094090
vt 0.216719 0.094148
vt 0.216720 0.094148
vt 0.216724 0.094090
vt 0.216719 0.094090
vt 0.216722 0.094090
vt 0.216722 0.094148
vt 0.216725 0.094090
vt 0.216725 0.094148
vt 0.216727 0.094090
vt 0.216727 0.094148
vt 0.216728 0.094090
vt 0.216728 0.094148
vt 0.215660 0.094090
vt 0.215660 0.094148
vt 0.215660 0.094148
vt 0.215664 0.094090
vt 0.215660 0.094090
vt 0.215663 0.094090
vt 0.215663 0.094148
vt 0.215665 0.094090
vt 0.215665 0.094148
vt 0.215667 0.094090
vt 0.215667 0.094148
vt 0.215668 0.094090
vt 0.215668 0.094148
vt 0.215643 0.094090
vt 0.215642 0.094148
vt 0.215643 0.094148
vt 0.215647 0.094090
vt 0.215642 0.094090
vt 0.215645 0.094090
vt 0.215645 0.094148
vt 0.215648 0.094090
vt 0.215648 0.094148
vt 0.215650 0.094090
vt 0.215650 0.094148
vt 0.215651 0.094090
vt 0.215651 0.094148
vt 0.216717 0.094090
vt 0.216716 0.094148
vt 0.216717 0.094148
vt 0.216720 0.094090
vt 0.216716 0.094090
vt 0.216719 0.094090
vt 0.216719 0.094148
vt 0.216721 0.094090
vt 0.216721 0.094148
vt 0.216724 0.094090
vt 0.216724 0.094148
vt 0.216724 0.094090
vt 0.216724 0.094148
vt 0.217809 0.094090
vt 0.217808 0.094148
vt 0.217809 0.094148
vt 0.217812 0.094090
vt 0.217808 0.094090
vt 0.217811 0.094090
vt 0.217811 0.094148
vt 0.217814 0.094090
vt 0.217814 0.094148
vt 0.217816 0.094090
vt 0.217816 0.094148
vt 0.217817 0.094090
vt 0.217817 0.094148
vt 0.217795 0.094090
vt 0.217794 0.094148
vt 0.217795 0.094148
vt 0.217799 0.094090
vt 0.217794 0.094090
vt 0.217797 0.094090
vt 0.217797 0.094148
vt 0.217800 0.094090
vt 0.217800 0.094148
vt 0.217802 0.094090
vt 0.217802 0.094148
vt 0.217803 0.094090
vt 0.217803 0.094148
vt 0.216722 0.094090
vt 0.216722 0.094148
vt 0.216728 0.094090
vt 0.216728 0.094148
vt 0.215642 0.094090
vt 0.215641 0.094148
vt 0.215642 0.094148
vt 0.215646 0.094090
vt 0.215641 0.094090
vt 0.215644 0.094090
vt 0.215644 0.094148
vt 0.215647 0.094090
vt 0.215647 0.094148
vt 0.215649 0.094090
vt 0.215649 0.094148
vt 0.215650 0.094090
vt 0.215650 0.094148
s 1
g pallet_medium_large_01_regular_material
usemtl regular_material
f 2/1/1 3/2/1 1/2/1
s 2
f 3/2/2 8/3/2 7/4/2
s 3
f 8/3/3 5/4/3 7/4/3
s 4
f 6/3/4 1/2/4 5/4/4
s 5
f 7/4/5 1/2/5 3/2/5
s 6
f 8/3/6 2/1/6 6/3/6
s 7
f 10/5/1 11/6/1 9/6/1
s 8
f 11/6/2 16/7/2 15/8/2
s 9
f 16/7/3 13/8/3 15/8/3
s 10
f 13/8/4 10/5/4 9/6/4
s 11
f 15/8/5 9/6/5 11/6/5
s 12
f 16/7/6 10/5/6 14/7/6
s 13
f 18/9/2 19/10/2 17/11/2
s 14
f 20/12/3 23/10/3 19/10/3
s 15
f 24/12/4 21/11/4 23/10/4
s 16
f 22/9/1 17/11/1 21/11/1
s 17
f 23/10/5 17/11/5 19/10/5
s 18
f 20/12/6 22/9/6 24/12/6
s 19
f 26/9/2 27/10/2 25/11/2
s 20
f 28/12/3 31/10/3 27/10/3
s 21
f 32/12/4 29/11/4 31/10/4
s 22
f 30/9/1 25/11/1 29/11/1
s 23
f 31/10/5 25/11/5 27/10/5
s 24
f 28/12/6 30/9/6 32/12/6
s 25
f 34/9/2 35/10/2 33/11/2
s 26
f 36/12/3 39/10/3 35/10/3
s 27
f 40/12/4 37/11/4 39/10/4
s 28
f 38/9/1 33/11/1 37/11/1
s 29
f 39/10/5 33/11/5 35/10/5
s 30
f 36/12/6 38/9/6 40/12/6
s 31
f 42/9/2 43/10/2 41/11/2
s 32
f 44/12/3 47/10/3 43/10/3
s 33
f 48/12/4 45/11/4 47/10/4
s 34
f 46/9/1 41/11/1 45/11/1
s 35
f 47/10/5 41/11/5 43/10/5
s 36
f 44/12/6 46/9/6 48/12/6
s 37
f 50/9/2 51/10/2 49/11/2
s 38
f 52/12/3 55/10/3 51/10/3
s 39
f 56/12/4 53/11/4 55/10/4
s 40
f 54/9/1 49/11/1 53/11/1
s 41
f 55/10/5 49/11/5 51/10/5
s 42
f 52/12/6 54/9/6 56/12/6
s 43
f 58/9/2 59/10/2 57/11/2
s 44
f 60/12/3 63/10/3 59/10/3
s 45
f 64/12/4 61/11/4 63/10/4
s 46
f 62/9/1 57/11/1 61/11/1
s 47
f 63/10/5 57/11/5 59/10/5
s 48
f 60/12/6 62/9/6 64/12/6
s 49
f 66/9/2 67/10/2 65/11/2
s 50
f 68/12/3 71/10/3 67/10/3
s 51
f 72/12/4 69/11/4 71/10/4
s 52
f 70/9/1 65/11/1 69/11/1
s 53
f 71/10/5 65/11/5 67/10/5
s 54
f 68/12/6 70/9/6 72/12/6
s 55
f 74/9/2 75/10/2 73/11/2
s 56
f 76/12/3 79/10/3 75/10/3
s 57
f 80/12/4 77/11/4 79/10/4
s 58
f 78/9/1 73/11/1 77/11/1
s 59
f 79/10/5 73/11/5 75/10/5
s 60
f 76/12/6 78/9/6 80/12/6
s 61
f 82/9/2 83/10/2 81/11/2
s 62
f 84/12/3 87/10/3 83/10/3
s 63
f 88/12/4 85/11/4 87/10/4
s 64
f 86/9/1 81/11/1 85/11/1
s 65
f 87/10/5 81/11/5 83/10/5
s 66
f 84/12/6 86/9/6 88/12/6
s 67
f 90/13/1 91/14/1 89/14/1
s 68
f 92/13/2 95/15/2 91/14/2
s 69
f 96/16/3 93/15/3 95/15/3
s 70
f 93/15/4 90/13/4 89/14/4
s 71
f 95/15/5 89/14/5 91/14/5
s 72
f 92/13/6 94/16/6 96/16/6
s 73
f 107/17/7 108/18/3 106/19/7
s 74
f 97/20/5 109/21/5 107/17/5
s 73
f 105/22/8 106/19/7 104/23/8
s 74
f 97/20/5 107/17/5 105/22/5
s 73
f 103/24/9 104/23/8 102/25/9
s 74
f 97/20/5 105/22/5 103/24/5
s 73
f 101/26/10 102/25/9 100/27/10
s 74
f 97/20/5 103/24/5 101/26/5
s 73
f 99/28/1 100/27/10 98/29/1
s 74
f 97/20/5 101/26/5 99/28/5
f 97/20/5 111/17/5 109/21/5
s 73
f 109/21/3 110/19/11 108/18/3
s 74
f 97/20/5 113/22/5 111/17/5
s 73
f 111/17/11 112/23/12 110/19/11
s 74
f 97/20/5 115/24/5 113/22/5
s 73
f 113/22/12 114/25/13 112/23/12
s 74
f 97/20/5 117/26/5 115/24/5
s 73
f 115/24/13 116/27/14 114/25/13
s 74
f 97/20/5 99/28/5 117/26/5
s 73
f 117/26/14 98/29/1 116/27/14
s 75
f 119/30/2 120/7/2 118/13/2
s 76
f 121/31/3 124/7/3 120/7/3
s 77
f 125/31/4 122/13/4 124/7/4
s 78
f 123/30/1 118/13/1 122/13/1
s 79
f 124/7/5 118/13/5 120/7/5
s 80
f 121/31/6 123/30/6 125/31/6
s 81
f 127/30/2 128/7/2 126/13/2
s 82
f 129/31/3 132/7/3 128/7/3
s 83
f 133/31/4 130/13/4 132/7/4
s 84
f 131/30/1 126/13/1 130/13/1
s 85
f 132/7/5 126/13/5 128/7/5
s 86
f 129/31/6 131/30/6 133/31/6
s 87
f 135/30/2 136/7/2 134/13/2
s 88
f 137/31/3 140/7/3 136/7/3
s 89
f 141/31/4 138/13/4 140/7/4
s 90
f 139/30/1 134/13/1 138/13/1
s 91
f 140/7/5 134/13/5 136/7/5
s 92
f 137/31/6 139/30/6 141/31/6
s 93
f 143/15/3 144/32/3 142/33/3
s 94
f 145/34/4 148/35/4 144/32/4
s 95
f 149/36/1 146/9/1 148/35/1
s 96
f 147/14/2 142/33/2 146/9/2
s 97
f 148/35/5 142/33/5 144/32/5
s 98
f 145/34/6 147/14/6 149/36/6
s 99
f 151/13/1 152/14/1 150/14/1
s 100
f 153/13/2 156/37/2 152/14/2
s 101
f 157/38/3 154/37/3 156/37/3
s 102
f 154/37/4 151/13/4 150/14/4
s 103
f 156/37/5 150/14/5 152/14/5
s 104
f 153/13/6 155/38/6 157/38/6
s 105
f 159/13/1 160/14/1 158/14/1
s 106
f 161/13/2 164/37/2 160/14/2
s 107
f 165/38/3 162/37/3 164/37/3
s 108
f 162/37/4 159/13/4 158/14/4
s 109
f 164/37/5 158/14/5 160/14/5
s 110
f 161/13/6 163/38/6 165/38/6
s 111
f 167/5/1 168/6/1 166/6/1
s 112
f 168/6/2 173/7/2 172/8/2
s 113
f 173/7/3 170/8/3 172/8/3
s 114
f 171/7/4 166/6/4 170/8/4
s 115
f 172/8/5 166/6/5 168/6/5
s 116
f 169/5/6 171/7/6 173/7/6
s 117
f 175/39/3 176/12/3 174/40/3
s 118
f 177/8/4 180/41/4 176/12/4
s 119
f 181/42/1 178/43/1 180/41/1
s 120
f 179/44/2 174/40/2 178/43/2
s 121
f 180/41/5 174/40/5 176/12/5
s 122
f 177/8/6 179/44/6 181/42/6
s 123
f 183/5/1 184/6/1 182/6/1
s 124
f 184/6/2 189/7/2 188/8/2
s 125
f 189/7/3 186/8/3 188/8/3
s 126
f 187/7/4 182/6/4 186/8/4
s 127
f 188/8/5 182/6/5 184/6/5
s 128
f 185/5/6 187/7/6 189/7/6
s 129
f 191/4/3 192/45/3 190/46/3
s 130
f 193/47/4 196/48/4 192/45/4
s 131
f 197/49/1 194/50/1 196/48/1
s 132
f 195/2/2 190/46/2 194/50/2
s 133
f 196/48/5 190/46/5 192/45/5
s 134
f 197/49/6 191/4/6 195/2/6
s 135
f 199/5/1 200/6/1 198/6/1
s 136
f 200/6/2 205/7/2 204/8/2
s 137
f 205/7/3 202/8/3 204/8/3
s 138
f 203/7/4 198/6/4 202/8/4
s 139
f 204/8/5 198/6/5 200/6/5
s 140
f 201/5/6 203/7/6 205/7/6
s 141
f 207/51/1 208/49/1 206/49/1
s 142
f 208/49/2 213/52/2 212/47/2
s 143
f 213/52/3 210/47/3 212/47/3
s 144
f 211/52/4 206/49/4 210/47/4
s 145
f 212/47/5 206/49/5 208/49/5
s 146
f 213/52/6 207/51/6 211/52/6
s 147
f 215/1/1 216/2/1 214/2/1
s 148
f 216/2/2 221/3/2 220/4/2
s 149
f 221/3/3 218/4/3 220/4/3
s 150
f 219/3/4 214/2/4 218/4/4
s 151
f 220/4/5 214/2/5 216/2/5
s 152
f 221/3/6 215/1/6 219/3/6
s 153
f 232/53/7 233/54/3 231/55/7
s 154
f 222/56/5 234/57/5 232/53/5
s 153
f 230/58/8 231/55/7 229/59/8
s 154
f 222/56/5 232/53/5 230/58/5
s 153
f 228/60/9 229/59/8 227/61/9
s 154
f 222/56/5 230/58/5 228/60/5
s 153
f 226/62/10 227/61/9 225/63/10
s 154
f 222/56/5 228/60/5 226/62/5
s 153
f 224/64/1 225/63/10 223/65/1
s 154
f 222/56/5 226/62/5 224/64/5
f 222/56/5 236/53/5 234/57/5
s 153
f 234/57/3 235/55/11 233/54/3
s 154
f 222/56/5 238/58/5 236/53/5
s 153
f 236/53/11 237/59/12 235/55/11
s 154
f 222/56/5 240/60/5 238/58/5
s 153
f 238/58/12 239/61/13 237/59/12
s 154
f 222/56/5 242/62/5 240/60/5
s 153
f 240/60/13 241/63/14 239/61/13
s 154
f 222/56/5 224/64/5 242/62/5
s 153
f 242/62/14 223/65/1 241/63/14
s 155
f 253/66/7 254/67/3 252/68/7
s 156
f 243/69/5 255/70/5 253/66/5
s 155
f 251/71/8 252/68/7 250/72/8
s 156
f 243/69/5 253/66/5 251/71/5
s 155
f 249/73/9 250/72/8 248/74/9
s 156
f 243/69/5 251/71/5 249/73/5
s 155
f 247/75/10 248/74/9 246/76/10
s 156
f 243/69/5 249/73/5 247/75/5
s 155
f 245/77/1 246/76/10 244/78/1
s 156
f 243/69/5 247/75/5 245/77/5
f 243/69/5 257/66/5 255/70/5
s 155
f 255/70/3 256/68/11 254/67/3
s 156
f 243/69/5 259/71/5 257/66/5
s 155
f 257/66/11 258/72/12 256/68/11
s 156
f 243/69/5 261/73/5 259/71/5
s 155
f 259/71/12 260/74/13 258/72/12
s 156
f 243/69/5 263/75/5 261/73/5
s 155
f 261/73/13 262/76/14 260/74/13
s 156
f 243/69/5 245/77/5 263/75/5
s 155
f 263/75/14 244/78/1 262/76/14
s 157
f 274/79/7 275/80/3 273/81/7
s 158
f 264/82/5 276/83/5 274/79/5
s 157
f 272/84/8 273/81/7 271/85/8
s 158
f 264/82/5 274/79/5 272/84/5
s 157
f 270/86/9 271/85/8 269/87/9
s 158
f 264/82/5 272/84/5 270/86/5
s 157
f 268/88/10 269/87/9 267/89/10
s 158
f 264/82/5 270/86/5 268/88/5
s 157
f 266/90/1 267/89/10 265/91/1
s 158
f 264/82/5 268/88/5 266/90/5
f 264/82/5 278/79/5 276/83/5
s 157
f 276/83/3 277/81/11 275/80/3
s 158
f 264/82/5 280/84/5 278/79/5
s 157
f 278/79/11 279/85/12 277/81/11
s 158
f 264/82/5 282/86/5 280/84/5
s 157
f 280/84/12 281/87/13 279/85/12
s 158
f 264/82/5 284/88/5 282/86/5
s 157
f 282/86/13 283/89/14 281/87/13
s 158
f 264/82/5 266/90/5 284/88/5
s 157
f 284/88/14 265/91/1 283/89/14
s 159
f 295/92/7 296/93/3 294/94/7
s 160
f 285/95/5 297/96/5 295/92/5
s 159
f 293/97/8 294/94/7 292/98/8
s 160
f 285/95/5 295/92/5 293/97/5
s 159
f 291/99/9 292/98/8 290/100/9
s 160
f 285/95/5 293/97/5 291/99/5
s 159
f 289/101/10 290/100/9 288/102/10
s 160
f 285/95/5 291/99/5 289/101/5
s 159
f 287/103/1 288/102/10 286/104/1
s 160
f 285/95/5 289/101/5 287/103/5
f 285/95/5 299/92/5 297/96/5
s 159
f 297/96/3 298/94/11 296/93/3
s 160
f 285/95/5 301/97/5 299/92/5
s 159
f 299/92/11 300/98/12 298/94/11
s 160
f 285/95/5 303/99/5 301/97/5
s 159
f 301/97/12 302/100/13 300/98/12
s 160
f 285/95/5 305/101/5 303/99/5
s 159
f 303/99/13 304/102/14 302/100/13
s 160
f 285/95/5 287/103/5 305/101/5
s 159
f 305/101/14 286/104/1 304/102/14
s 161
f 316/105/7 317/106/3 315/107/7
s 162
f 306/108/5 318/109/5 316/105/5
s 161
f 314/110/8 315/107/7 313/111/8
s 162
f 306/108/5 316/105/5 314/110/5
s 161
f 312/112/9 313/111/8 311/113/9
s 162
f 306/108/5 314/110/5 312/112/5
s 161
f 310/114/10 311/113/9 309/115/10
s 162
f 306/108/5 312/112/5 310/114/5
s 161
f 308/116/1 309/115/10 307/117/1
s 162
f 306/108/5 310/114/5 308/116/5
f 306/108/5 320/105/5 318/109/5
s 161
f 318/109/3 319/107/11 317/106/3
s 162
f 306/108/5 322/110/5 320/105/5
s 161
f 320/105/11 321/111/12 319/107/11
s 162
f 306/108/5 324/112/5 322/110/5
s 161
f 322/110/12 323/113/13 321/111/12
s 162
f 306/108/5 326/114/5 324/112/5
s 161
f 324/112/13 325/115/14 323/113/13
s 162
f 306/108/5 308/116/5 326/114/5
s 161
f 326/114/14 307/117/1 325/115/14
s 163
f 337/118/7 338/119/3 336/120/7
s 164
f 327/121/5 339/122/5 337/118/5
s 163
f 335/123/8 336/120/7 334/124/8
s 164
f 327/121/5 337/118/5 335/123/5
s 163
f 333/125/9 334/124/8 332/126/9
s 164
f 327/121/5 335/123/5 333/125/5
s 163
f 331/127/10 332/126/9 330/128/10
s 164
f 327/121/5 333/125/5 331/127/5
s 163
f 329/129/1 330/128/10 328/130/1
s 164
f 327/121/5 331/127/5 329/129/5
f 327/121/5 341/118/5 339/122/5
s 163
f 339/122/3 340/120/11 338/119/3
s 164
f 327/121/5 343/123/5 341/118/5
s 163
f 341/118/11 342/124/12 340/120/11
s 164
f 327/121/5 345/125/5 343/123/5
s 163
f 343/123/12 344/126/13 342/124/12
s 164
f 327/121/5 347/127/5 345/125/5
s 163
f 345/125/13 346/128/14 344/126/13
s 164
f 327/121/5 329/129/5 347/127/5
s 163
f 347/127/14 328/130/1 346/128/14
s 165
f 358/131/7 359/132/3 357/133/7
s 166
f 348/134/5 360/135/5 358/131/5
s 165
f 356/136/8 357/133/7 355/137/8
s 166
f 348/134/5 358/131/5 356/136/5
s 165
f 354/138/9 355/137/8 353/139/9
s 166
f 348/134/5 356/136/5 354/138/5
s 165
f 352/140/10 353/139/9 351/141/10
s 166
f 348/134/5 354/138/5 352/140/5
s 165
f 350/142/1 351/141/10 349/143/1
s 166
f 348/134/5 352/140/5 350/142/5
f 348/134/5 362/131/5 360/135/5
s 165
f 360/135/3 361/133/11 359/132/3
s 166
f 348/134/5 364/136/5 362/131/5
s 165
f 362/131/11 363/137/12 361/133/11
s 166
f 348/134/5 366/138/5 364/136/5
s 165
f 364/136/12 365/139/13 363/137/12
s 166
f 348/134/5 368/140/5 366/138/5
s 165
f 366/138/13 367/141/14 365/139/13
s 166
f 348/134/5 350/142/5 368/140/5
s 165
f 368/140/14 349/143/1 367/141/14
s 167
f 379/144/7 380/145/3 378/146/7
s 168
f 369/147/5 381/148/5 379/144/5
s 167
f 377/149/8 378/146/7 376/150/8
s 168
f 369/147/5 379/144/5 377/149/5
s 167
f 375/151/9 376/150/8 374/152/9
s 168
f 369/147/5 377/149/5 375/151/5
s 167
f 373/153/10 374/152/9 372/154/10
s 168
f 369/147/5 375/151/5 373/153/5
s 167
f 371/155/1 372/154/10 370/156/1
s 168
f 369/147/5 373/153/5 371/155/5
f 369/147/5 383/144/5 381/148/5
s 167
f 381/148/3 382/146/11 380/145/3
s 168
f 369/147/5 385/149/5 383/144/5
s 167
f 383/144/11 384/150/12 382/146/11
s 168
f 369/147/5 387/151/5 385/149/5
s 167
f 385/149/12 386/152/13 384/150/12
s 168
f 369/147/5 389/153/5 387/151/5
s 167
f 387/151/13 388/154/14 386/152/13
s 168
f 369/147/5 371/155/5 389/153/5
s 167
f 389/153/14 370/156/1 388/154/14
s 169
f 400/157/7 401/158/3 399/159/7
s 170
f 390/160/5 402/161/5 400/157/5
s 169
f 398/162/8 399/159/7 397/163/8
s 170
f 390/160/5 400/157/5 398/162/5
s 169
f 396/164/9 397/163/8 395/165/15
s 170
f 390/160/5 398/162/5 396/164/5
s 169
f 394/166/10 395/165/15 393/167/10
s 170
f 390/160/5 396/164/5 394/166/5
s 169
f 392/168/1 393/167/10 391/169/1
s 170
f 390/160/5 394/166/5 392/168/5
f 390/160/5 404/157/5 402/161/5
s 169
f 402/161/3 403/159/11 401/158/3
s 170
f 390/160/5 406/162/5 404/157/5
s 169
f 404/157/11 405/163/12 403/159/11
s 170
f 390/160/5 408/164/5 406/162/5
s 169
f 406/162/12 407/165/13 405/163/12
s 170
f 390/160/5 410/166/5 408/164/5
s 169
f 408/164/16 409/167/14 407/165/13
s 170
f 390/160/5 392/168/5 410/166/5
s 169
f 410/166/14 391/169/1 409/167/14
s 171
f 421/170/7 422/171/3 420/172/7
s 172
f 411/173/5 423/174/5 421/170/5
s 171
f 419/175/8 420/172/7 418/176/8
s 172
f 411/173/5 421/170/5 419/175/5
s 171
f 417/177/9 418/176/8 416/178/15
s 172
f 411/173/5 419/175/5 417/177/5
s 171
f 415/179/10 416/178/15 414/180/10
s 172
f 411/173/5 417/177/5 415/179/5
s 171
f 413/181/1 414/180/10 412/182/1
s 172
f 411/173/5 415/179/5 413/181/5
f 411/173/5 425/170/5 423/174/5
s 171
f 423/174/3 424/172/11 422/171/3
s 172
f 411/173/5 427/175/5 425/170/5
s 171
f 425/170/11 426/176/12 424/172/11
s 172
f 411/173/5 429/177/5 427/175/5
s 171
f 427/175/12 428/178/16 426/176/12
s 172
f 411/173/5 431/179/5 429/177/5
s 171
f 429/177/16 430/180/14 428/178/16
s 172
f 411/173/5 413/181/5 431/179/5
s 171
f 431/179/14 412/182/1 430/180/14
s 173
f 442/183/7 443/184/3 441/185/7
s 174
f 432/186/5 444/187/5 442/183/5
s 173
f 440/188/8 441/185/7 439/189/8
s 174
f 432/186/5 442/183/5 440/188/5
s 173
f 438/190/9 439/189/8 437/191/17
s 174
f 432/186/5 440/188/5 438/190/5
s 173
f 436/192/10 437/191/17 435/193/18
s 174
f 432/186/5 438/190/5 436/192/5
s 173
f 434/194/1 435/193/18 433/195/1
s 174
f 432/186/5 436/192/5 434/194/5
f 432/186/5 446/183/5 444/187/5
s 173
f 444/187/3 445/185/11 443/184/3
s 174
f 432/186/5 448/188/5 446/183/5
s 173
f 446/183/11 447/189/12 445/185/11
s 174
f 432/186/5 450/190/5 448/188/5
s 173
f 448/188/12 449/191/13 447/189/12
s 174
f 432/186/5 452/192/5 450/190/5
s 173
f 450/190/16 451/193/14 449/191/13
s 174
f 432/186/5 434/194/5 452/192/5
s 173
f 452/192/14 433/195/1 451/193/14
s 175
f 463/196/7 464/197/3 462/198/7
s 176
f 453/199/5 465/200/5 463/196/5
s 175
f 461/201/8 462/198/7 460/202/8
s 176
f 453/199/5 463/196/5 461/201/5
s 175
f 459/203/9 460/202/8 458/204/15
s 176
f 453/199/5 461/201/5 459/203/5
s 175
f 457/205/10 458/204/15 456/206/10
s 176
f 453/199/5 459/203/5 457/205/5
s 175
f 455/207/1 456/206/10 454/208/1
s 176
f 453/199/5 457/205/5 455/207/5
f 453/199/5 467/196/5 465/200/5
s 175
f 465/200/3 466/198/11 464/197/3
s 176
f 453/199/5 469/201/5 467/196/5
s 175
f 467/196/11 468/202/12 466/198/11
s 176
f 453/199/5 471/203/5 469/201/5
s 175
f 469/201/12 470/204/13 468/202/12
s 176
f 453/199/5 473/205/5 471/203/5
s 175
f 471/203/16 472/206/14 470/204/13
s 176
f 453/199/5 455/207/5 473/205/5
s 175
f 473/205/14 454/208/1 472/206/14
s 177
f 484/209/7 485/210/3 483/211/7
s 178
f 474/212/5 486/213/5 484/209/5
s 177
f 482/214/8 483/211/7 481/215/8
s 178
f 474/212/5 484/209/5 482/214/5
s 177
f 480/216/9 481/215/8 479/217/15
s 178
f 474/212/5 482/214/5 480/216/5
s 177
f 478/218/10 479/217/15 477/219/10
s 178
f 474/212/5 480/216/5 478/218/5
s 177
f 476/220/1 477/219/10 475/221/1
s 178
f 474/212/5 478/218/5 476/220/5
f 474/212/5 488/209/5 486/213/5
s 177
f 486/213/3 487/211/11 485/210/3
s 178
f 474/212/5 490/214/5 488/209/5
s 177
f 488/209/11 489/215/12 487/211/11
s 178
f 474/212/5 492/216/5 490/214/5
s 177
f 490/214/12 491/217/13 489/215/12
s 178
f 474/212/5 494/218/5 492/216/5
s 177
f 492/216/16 493/219/14 491/217/13
s 178
f 474/212/5 476/220/5 494/218/5
s 177
f 494/218/14 475/221/1 493/219/14
s 179
f 505/222/7 506/223/3 504/224/7
s 180
f 495/225/5 507/226/5 505/222/5
s 179
f 503/227/8 504/224/7 502/228/8
s 180
f 495/225/5 505/222/5 503/227/5
s 179
f 501/229/9 502/228/8 500/230/15
s 180
f 495/225/5 503/227/5 501/229/5
s 179
f 499/231/10 500/230/15 498/232/10
s 180
f 495/225/5 501/229/5 499/231/5
s 179
f 497/233/1 498/232/10 496/234/1
s 180
f 495/225/5 499/231/5 497/233/5
f 495/225/5 509/222/5 507/226/5
s 179
f 507/226/3 508/224/11 506/223/3
s 180
f 495/225/5 511/227/5 509/222/5
s 179
f 509/222/11 510/228/12 508/224/11
s 180
f 495/225/5 513/229/5 511/227/5
s 179
f 511/227/12 512/230/13 510/228/12
s 180
f 495/225/5 515/231/5 513/229/5
s 179
f 513/229/16 514/232/14 512/230/13
s 180
f 495/225/5 497/233/5 515/231/5
s 179
f 515/231/14 496/234/1 514/232/14
s 181
f 526/235/7 527/236/3 525/237/7
s 182
f 516/238/5 528/239/5 526/235/5
s 181
f 524/240/8 525/237/7 523/241/8
s 182
f 516/238/5 526/235/5 524/240/5
s 181
f 522/242/9 523/241/8 521/243/15
s 182
f 516/238/5 524/240/5 522/242/5
s 181
f 520/244/10 521/243/15 519/245/10
s 182
f 516/238/5 522/242/5 520/244/5
s 181
f 518/246/1 519/245/10 517/247/1
s 182
f 516/238/5 520/244/5 518/246/5
f 516/238/5 530/235/5 528/239/5
s 181
f 528/239/3 529/237/11 527/236/3
s 182
f 516/238/5 532/240/5 530/235/5
s 181
f 530/235/11 531/241/12 529/237/11
s 182
f 516/238/5 534/242/5 532/240/5
s 181
f 532/240/12 533/243/13 531/241/12
s 182
f 516/238/5 536/244/5 534/242/5
s 181
f 534/242/16 535/245/14 533/243/13
s 182
f 516/238/5 518/246/5 536/244/5
s 181
f 536/244/14 517/247/1 535/245/14
s 183
f 547/248/7 548/249/3 546/250/7
s 184
f 537/251/5 549/252/5 547/248/5
s 183
f 545/253/8 546/250/7 544/254/8
s 184
f 537/251/5 547/248/5 545/253/5
s 183
f 543/255/9 544/254/8 542/256/15
s 184
f 537/251/5 545/253/5 543/255/5
s 183
f 541/257/10 542/256/15 540/258/10
s 184
f 537/251/5 543/255/5 541/257/5
s 183
f 539/259/1 540/258/10 538/260/1
s 184
f 537/251/5 541/257/5 539/259/5
f 537/251/5 551/248/5 549/252/5
s 183
f 549/252/3 550/250/11 548/249/3
s 184
f 537/251/5 553/253/5 551/248/5
s 183
f 551/248/11 552/254/12 550/250/11
s 184
f 537/251/5 555/255/5 553/253/5
s 183
f 553/253/12 554/256/13 552/254/12
s 184
f 537/251/5 557/257/5 555/255/5
s 183
f 555/255/16 556/258/14 554/256/13
s 184
f 537/251/5 539/259/5 557/257/5
s 183
f 557/257/14 538/260/1 556/258/14
s 185
f 568/261/7 569/262/3 567/263/7
s 186
f 558/264/5 570/265/5 568/261/5
s 185
f 566/266/8 567/263/7 565/267/8
s 186
f 558/264/5 568/261/5 566/266/5
s 185
f 564/268/9 565/267/8 563/269/15
s 186
f 558/264/5 566/266/5 564/268/5
s 185
f 562/270/10 563/269/15 561/271/10
s 186
f 558/264/5 564/268/5 562/270/5
s 185
f 560/272/1 561/271/10 559/273/1
s 186
f 558/264/5 562/270/5 560/272/5
f 558/264/5 572/261/5 570/265/5
s 185
f 570/265/3 571/263/11 569/262/3
s 186
f 558/264/5 574/266/5 572/261/5
s 185
f 572/261/11 573/267/12 571/263/11
s 186
f 558/264/5 576/268/5 574/266/5
s 185
f 574/266/12 575/269/16 573/267/12
s 186
f 558/264/5 578/270/5 576/268/5
s 185
f 576/268/16 577/271/14 575/269/16
s 186
f 558/264/5 560/272/5 578/270/5
s 185
f 578/270/14 559/273/1 577/271/14
s 187
f 589/274/7 590/275/3 588/276/7
s 188
f 579/277/5 591/278/5 589/274/5
s 187
f 587/279/8 588/276/7 586/280/8
s 188
f 579/277/5 589/274/5 587/279/5
s 187
f 585/281/9 586/280/8 584/282/15
s 188
f 579/277/5 587/279/5 585/281/5
s 187
f 583/283/10 584/282/15 582/284/10
s 188
f 579/277/5 585/281/5 583/283/5
s 187
f 581/285/1 582/284/10 580/286/1
s 188
f 579/277/5 583/283/5 581/285/5
f 579/277/5 593/274/5 591/278/5
s 187
f 591/278/3 592/276/11 590/275/3
s 188
f 579/277/5 595/279/5 593/274/5
s 187
f 593/274/11 594/280/12 592/276/11
s 188
f 579/277/5 597/281/5 595/279/5
s 187
f 595/279/12 596/282/13 594/280/12
s 188
f 579/277/5 599/283/5 597/281/5
s 187
f 597/281/16 598/284/14 596/282/13
s 188
f 579/277/5 581/285/5 599/283/5
s 187
f 599/283/14 580/286/1 598/284/14
s 189
f 610/287/7 611/288/3 609/289/7
s 190
f 600/290/5 612/291/5 610/287/5
s 189
f 608/292/8 609/289/7 607/293/8
s 190
f 600/290/5 610/287/5 608/292/5
s 189
f 606/294/9 607/293/8 605/295/15
s 190
f 600/290/5 608/292/5 606/294/5
s 189
f 604/296/10 605/295/15 603/297/10
s 190
f 600/290/5 606/294/5 604/296/5
s 189
f 602/298/1 603/297/10 601/299/1
s 190
f 600/290/5 604/296/5 602/298/5
f 600/290/5 614/287/5 612/291/5
s 189
f 612/291/3 613/289/11 611/288/3
s 190
f 600/290/5 616/292/5 614/287/5
s 189
f 614/287/11 615/293/12 613/289/11
s 190
f 600/290/5 618/294/5 616/292/5
s 189
f 616/292/12 617/295/13 615/293/12
s 190
f 600/290/5 620/296/5 618/294/5
s 189
f 618/294/19 619/297/14 617/295/13
s 190
f 600/290/5 602/298/5 620/296/5
s 189
f 620/296/20 601/299/1 619/297/14
s 191
f 631/300/7 632/301/3 630/302/7
s 192
f 621/303/5 633/304/5 631/300/5
s 191
f 629/305/8 630/302/7 628/306/8
s 192
f 621/303/5 631/300/5 629/305/5
s 191
f 627/307/15 628/306/8 626/308/15
s 192
f 621/303/5 629/305/5 627/307/5
s 191
f 625/309/10 626/308/15 624/310/10
s 192
f 621/303/5 627/307/5 625/309/5
s 191
f 623/311/1 624/310/10 622/312/1
s 192
f 621/303/5 625/309/5 623/311/5
f 621/303/5 635/300/5 633/304/5
s 191
f 633/304/3 634/302/11 632/301/3
s 192
f 621/303/5 637/305/5 635/300/5
s 191
f 635/300/11 636/306/12 634/302/11
s 192
f 621/303/5 639/307/5 637/305/5
s 191
f 637/305/12 638/308/13 636/306/12
s 192
f 621/303/5 641/309/5 639/307/5
s 191
f 639/307/16 640/310/14 638/308/13
s 192
f 621/303/5 623/311/5 641/309/5
s 191
f 641/309/14 622/312/1 640/310/14
s 193
f 652/313/7 653/314/3 651/315/7
s 194
f 642/316/5 654/317/5 652/313/5
s 193
f 650/318/8 651/315/7 649/319/8
s 194
f 642/316/5 652/313/5 650/318/5
s 193
f 648/320/9 649/319/8 647/321/15
s 194
f 642/316/5 650/318/5 648/320/5
s 193
f 646/322/10 647/321/15 645/323/10
s 194
f 642/316/5 648/320/5 646/322/5
s 193
f 644/324/1 645/323/10 643/325/1
s 194
f 642/316/5 646/322/5 644/324/5
f 642/316/5 656/313/5 654/317/5
s 193
f 654/317/3 655/315/11 653/314/3
s 194
f 642/316/5 658/318/5 656/313/5
s 193
f 656/313/11 657/319/12 655/315/11
s 194
f 642/316/5 660/320/5 658/318/5
s 193
f 658/318/12 659/321/13 657/319/12
s 194
f 642/316/5 662/322/5 660/320/5
s 193
f 660/320/16 661/323/14 659/321/13
s 194
f 642/316/5 644/324/5 662/322/5
s 193
f 662/322/14 643/325/1 661/323/14
s 195
f 673/326/7 674/327/3 672/328/7
s 196
f 663/329/5 675/330/5 673/326/5
s 195
f 671/331/8 672/328/7 670/332/8
s 196
f 663/329/5 673/326/5 671/331/5
s 195
f 669/333/9 670/332/8 668/334/17
s 196
f 663/329/5 671/331/5 669/333/5
s 195
f 667/335/10 668/334/17 666/336/18
s 196
f 663/329/5 669/333/5 667/335/5
s 195
f 665/337/1 666/336/18 664/338/1
s 196
f 663/329/5 667/335/5 665/337/5
f 663/329/5 677/326/5 675/330/5
s 195
f 675/330/3 676/328/11 674/327/3
s 196
f 663/329/5 679/331/5 677/326/5
s 195
f 677/326/11 678/332/12 676/328/11
s 196
f 663/329/5 681/333/5 679/331/5
s 195
f 679/331/12 680/334/13 678/332/12
s 196
f 663/329/5 683/335/5 681/333/5
s 195
f 681/333/16 682/336/14 680/334/13
s 196
f 663/329/5 665/337/5 683/335/5
s 195
f 683/335/14 664/338/1 682/336/14
s 197
f 694/339/7 695/340/3 693/341/7
s 198
f 684/342/5 696/343/5 694/339/5
s 197
f 692/344/8 693/341/7 691/345/8
s 198
f 684/342/5 694/339/5 692/344/5
s 197
f 690/346/9 691/345/8 689/347/15
s 198
f 684/342/5 692/344/5 690/346/5
s 197
f 688/348/10 689/347/15 687/349/10
s 198
f 684/342/5 690/346/5 688/348/5
s 197
f 686/350/1 687/349/10 685/351/1
s 198
f 684/342/5 688/348/5 686/350/5
f 684/342/5 698/339/5 696/343/5
s 197
f 696/343/3 697/341/11 695/340/3
s 198
f 684/342/5 700/344/5 698/339/5
s 197
f 698/339/11 699/345/12 697/341/11
s 198
f 684/342/5 702/346/5 700/344/5
s 197
f 700/344/12 701/347/13 699/345/12
s 198
f 684/342/5 704/348/5 702/346/5
s 197
f 702/346/16 703/349/14 701/347/13
s 198
f 684/342/5 686/350/5 704/348/5
s 197
f 704/348/14 685/351/1 703/349/14
s 199
f 715/352/7 716/353/3 714/354/7
s 200
f 705/355/5 717/356/5 715/352/5
s 199
f 713/357/8 714/354/7 712/358/8
s 200
f 705/355/5 715/352/5 713/357/5
s 199
f 711/359/9 712/358/8 710/360/15
s 200
f 705/355/5 713/357/5 711/359/5
s 199
f 709/361/10 710/360/15 708/362/10
s 200
f 705/355/5 711/359/5 709/361/5
s 199
f 707/363/1 708/362/10 706/364/1
s 200
f 705/355/5 709/361/5 707/363/5
f 705/355/5 719/352/5 717/356/5
s 199
f 717/356/3 718/354/11 716/353/3
s 200
f 705/355/5 721/357/5 719/352/5
s 199
f 719/352/11 720/358/12 718/354/11
s 200
f 705/355/5 723/359/5 721/357/5
s 199
f 721/357/12 722/360/13 720/358/12
s 200
f 705/355/5 725/361/5 723/359/5
s 199
f 723/359/16 724/362/14 722/360/13
s 200
f 705/355/5 707/363/5 725/361/5
s 199
f 725/361/14 706/364/1 724/362/14
s 201
f 736/365/7 737/366/3 735/367/7
s 202
f 726/368/5 738/369/5 736/365/5
s 201
f 734/370/8 735/367/7 733/371/8
s 202
f 726/368/5 736/365/5 734/370/5
s 201
f 732/372/9 733/371/8 731/373/15
s 202
f 726/368/5 734/370/5 732/372/5
s 201
f 730/374/10 731/373/15 729/375/10
s 202
f 726/368/5 732/372/5 730/374/5
s 201
f 728/376/1 729/375/10 727/377/1
s 202
f 726/368/5 730/374/5 728/376/5
f 726/368/5 740/365/5 738/369/5
s 201
f 738/369/3 739/367/11 737/366/3
s 202
f 726/368/5 742/370/5 740/365/5
s 201
f 740/365/11 741/371/12 739/367/11
s 202
f 726/368/5 744/372/5 742/370/5
s 201
f 742/370/12 743/373/13 741/371/12
s 202
f 726/368/5 746/374/5 744/372/5
s 201
f 744/372/16 745/375/14 743/373/13
s 202
f 726/368/5 728/376/5 746/374/5
s 201
f 746/374/14 727/377/1 745/375/14
s 203
f 757/378/7 758/379/3 756/380/7
s 204
f 747/381/5 759/382/5 757/378/5
s 203
f 755/383/8 756/380/7 754/384/8
s 204
f 747/381/5 757/378/5 755/383/5
s 203
f 753/385/9 754/384/8 752/386/15
s 204
f 747/381/5 755/383/5 753/385/5
s 203
f 751/387/10 752/386/15 750/388/10
s 204
f 747/381/5 753/385/5 751/387/5
s 203
f 749/389/1 750/388/10 748/390/1
s 204
f 747/381/5 751/387/5 749/389/5
f 747/381/5 761/378/5 759/382/5
s 203
f 759/382/3 760/380/11 758/379/3
s 204
f 747/381/5 763/383/5 761/378/5
s 203
f 761/378/11 762/384/12 760/380/11
s 204
f 747/381/5 765/385/5 763/383/5
s 203
f 763/383/12 764/386/13 762/384/12
s 204
f 747/381/5 767/387/5 765/385/5
s 203
f 765/385/16 766/388/14 764/386/13
s 204
f 747/381/5 749/389/5 767/387/5
s 203
f 767/387/14 748/390/1 766/388/14
s 205
f 778/391/7 779/392/3 777/393/7
s 206
f 768/394/5 780/395/5 778/391/5
s 205
f 776/396/8 777/393/7 775/397/8
s 206
f 768/394/5 778/391/5 776/396/5
s 205
f 774/398/9 775/397/8 773/399/15
s 206
f 768/394/5 776/396/5 774/398/5
s 205
f 772/400/10 773/399/15 771/401/10
s 206
f 768/394/5 774/398/5 772/400/5
s 205
f 770/402/1 771/401/10 769/403/1
s 206
f 768/394/5 772/400/5 770/402/5
f 768/394/5 782/391/5 780/395/5
s 205
f 780/395/3 781/393/11 779/392/3
s 206
f 768/394/5 784/396/5 782/391/5
s 205
f 782/391/11 783/397/12 781/393/11
s 206
f 768/394/5 786/398/5 784/396/5
s 205
f 784/396/12 785/399/13 783/397/12
s 206
f 768/394/5 788/400/5 786/398/5
s 205
f 786/398/16 787/401/14 785/399/13
s 206
f 768/394/5 770/402/5 788/400/5
s 205
f 788/400/14 769/403/1 787/401/14
s 207
f 799/404/7 800/405/3 798/406/7
s 208
f 789/407/5 801/408/5 799/404/5
s 207
f 797/409/8 798/406/7 796/410/8
s 208
f 789/407/5 799/404/5 797/409/5
s 207
f 795/411/9 796/410/8 794/412/17
s 208
f 789/407/5 797/409/5 795/411/5
s 207
f 793/413/10 794/412/17 792/414/18
s 208
f 789/407/5 795/411/5 793/413/5
s 207
f 791/415/1 792/414/18 790/416/1
s 208
f 789/407/5 793/413/5 791/415/5
f 789/407/5 803/404/5 801/408/5
s 207
f 801/408/3 802/406/11 800/405/3
s 208
f 789/407/5 805/409/5 803/404/5
s 207
f 803/404/11 804/410/12 802/406/11
s 208
f 789/407/5 807/411/5 805/409/5
s 207
f 805/409/12 806/412/13 804/410/12
s 208
f 789/407/5 809/413/5 807/411/5
s 207
f 807/411/16 808/414/14 806/412/13
s 208
f 789/407/5 791/415/5 809/413/5
s 207
f 809/413/14 790/416/1 808/414/14
s 209
f 820/417/7 821/418/3 819/419/7
s 210
f 810/420/5 822/421/5 820/417/5
s 209
f 818/422/8 819/419/7 817/423/8
s 210
f 810/420/5 820/417/5 818/422/5
s 209
f 816/424/9 817/423/8 815/425/15
s 210
f 810/420/5 818/422/5 816/424/5
s 209
f 814/426/10 815/425/15 813/427/10
s 210
f 810/420/5 816/424/5 814/426/5
s 209
f 812/428/1 813/427/10 811/429/1
s 210
f 810/420/5 814/426/5 812/428/5
f 810/420/5 824/417/5 822/421/5
s 209
f 822/421/3 823/419/11 821/418/3
s 210
f 810/420/5 826/422/5 824/417/5
s 209
f 824/417/11 825/423/12 823/419/11
s 210
f 810/420/5 828/424/5 826/422/5
s 209
f 826/422/12 827/425/13 825/423/12
s 210
f 810/420/5 830/426/5 828/424/5
s 209
f 828/424/16 829/427/14 827/425/13
s 210
f 810/420/5 812/428/5 830/426/5
s 209
f 830/426/14 811/429/1 829/427/14
s 211
f 841/391/7 842/392/3 840/393/7
s 212
f 831/394/5 843/395/5 841/391/5
s 211
f 839/396/8 840/393/7 838/397/8
s 212
f 831/394/5 841/391/5 839/396/5
s 211
f 837/398/9 838/397/8 836/399/17
s 212
f 831/394/5 839/396/5 837/398/5
s 211
f 835/400/10 836/399/17 834/401/18
s 212
f 831/394/5 837/398/5 835/400/5
s 211
f 833/402/1 834/401/18 832/403/1
s 212
f 831/394/5 835/400/5 833/402/5
f 831/394/5 845/391/5 843/395/5
s 211
f 843/395/3 844/393/11 842/392/3
s 212
f 831/394/5 847/396/5 845/391/5
s 211
f 845/391/11 846/397/12 844/393/11
s 212
f 831/394/5 849/398/5 847/396/5
s 211
f 847/396/12 848/399/13 846/397/12
s 212
f 831/394/5 851/400/5 849/398/5
s 211
f 849/398/16 850/401/14 848/399/13
s 212
f 831/394/5 833/402/5 851/400/5
s 211
f 851/400/14 832/403/1 850/401/14
s 213
f 862/430/10 863/431/1 861/432/10
s 214
f 852/433/6 864/434/6 862/430/6
s 213
f 860/435/9 861/432/10 859/436/9
s 214
f 852/433/6 862/430/6 860/435/6
s 213
f 858/437/21 859/436/9 857/438/21
s 214
f 852/433/6 860/435/6 858/437/6
s 213
f 856/439/7 857/438/21 855/440/7
s 214
f 852/433/6 858/437/6 856/439/6
s 213
f 854/441/3 855/440/7 853/442/3
s 214
f 852/433/6 856/439/6 854/441/6
f 852/433/6 866/430/6 864/434/6
s 213
f 864/434/1 865/432/14 863/431/1
s 214
f 852/433/6 868/435/6 866/430/6
s 213
f 866/430/14 867/436/13 865/432/14
s 214
f 852/433/6 870/437/6 868/435/6
s 213
f 868/435/13 869/438/12 867/436/13
s 214
f 852/433/6 872/439/6 870/437/6
s 213
f 870/437/22 871/440/11 869/438/12
s 214
f 852/433/6 854/441/6 872/439/6
s 213
f 872/439/11 853/442/3 871/440/11
s 215
f 883/443/10 884/444/1 882/445/10
s 216
f 873/446/6 885/447/6 883/443/6
s 215
f 881/448/9 882/445/10 880/449/9
s 216
f 873/446/6 883/443/6 881/448/6
s 215
f 879/450/8 880/449/9 878/451/21
s 216
f 873/446/6 881/448/6 879/450/6
s 215
f 877/452/7 878/451/21 876/453/7
s 216
f 873/446/6 879/450/6 877/452/6
s 215
f 875/454/3 876/453/7 874/455/3
s 216
f 873/446/6 877/452/6 875/454/6
f 873/446/6 887/443/6 885/447/6
s 215
f 885/447/1 886/445/14 884/444/1
s 216
f 873/446/6 889/448/6 887/443/6
s 215
f 887/443/14 888/449/13 886/445/14
s 216
f 873/446/6 891/450/6 889/448/6
s 215
f 889/448/13 890/451/12 888/449/13
s 216
f 873/446/6 893/452/6 891/450/6
s 215
f 891/450/22 892/453/11 890/451/12
s 216
f 873/446/6 875/454/6 893/452/6
s 215
f 893/452/11 874/455/3 892/453/11
s 217
f 904/456/10 905/457/1 903/458/10
s 218
f 894/459/6 906/460/6 904/456/6
s 217
f 902/461/9 903/458/10 901/462/9
s 218
f 894/459/6 904/456/6 902/461/6
s 217
f 900/463/8 901/462/9 899/464/21
s 218
f 894/459/6 902/461/6 900/463/6
s 217
f 898/465/7 899/464/21 897/466/7
s 218
f 894/459/6 900/463/6 898/465/6
s 217
f 896/467/3 897/466/7 895/468/3
s 218
f 894/459/6 898/465/6 896/467/6
f 894/459/6 908/456/6 906/460/6
s 217
f 906/460/1 907/458/14 905/457/1
s 218
f 894/459/6 910/461/6 908/456/6
s 217
f 908/456/14 909/462/13 907/458/14
s 218
f 894/459/6 912/463/6 910/461/6
s 217
f 910/461/13 911/464/22 909/462/13
s 218
f 894/459/6 914/465/6 912/463/6
s 217
f 912/463/22 913/466/11 911/464/22
s 218
f 894/459/6 896/467/6 914/465/6
s 217
f 914/465/11 895/468/3 913/466/11
s 219
f 925/469/10 926/470/1 924/471/10
s 220
f 915/472/6 927/473/6 925/469/6
s 219
f 923/474/9 924/471/10 922/475/9
s 220
f 915/472/6 925/469/6 923/474/6
s 219
f 921/476/8 922/475/9 920/477/21
s 220
f 915/472/6 923/474/6 921/476/6
s 219
f 919/478/7 920/477/21 918/479/7
s 220
f 915/472/6 921/476/6 919/478/6
s 219
f 917/480/3 918/479/7 916/481/3
s 220
f 915/472/6 919/478/6 917/480/6
f 915/472/6 929/469/6 927/473/6
s 219
f 927/473/1 928/471/14 926/470/1
s 220
f 915/472/6 931/474/6 929/469/6
s 219
f 929/469/14 930/475/13 928/471/14
s 220
f 915/472/6 933/476/6 931/474/6
s 219
f 931/474/13 932/477/12 930/475/13
s 220
f 915/472/6 935/478/6 933/476/6
s 219
f 933/476/22 934/479/11 932/477/12
s 220
f 915/472/6 917/480/6 935/478/6
s 219
f 935/478/11 916/481/3 934/479/11
s 221
f 946/482/10 947/483/1 945/484/10
s 222
f 936/485/6 948/486/6 946/482/6
s 221
f 944/487/9 945/484/10 943/488/9
s 222
f 936/485/6 946/482/6 944/487/6
s 221
f 942/489/8 943/488/9 941/490/21
s 222
f 936/485/6 944/487/6 942/489/6
s 221
f 940/491/7 941/490/21 939/492/7
s 222
f 936/485/6 942/489/6 940/491/6
s 221
f 938/493/3 939/492/7 937/494/3
s 222
f 936/485/6 940/491/6 938/493/6
f 936/485/6 950/482/6 948/486/6
s 221
f 948/486/1 949/484/14 947/483/1
s 222
f 936/485/6 952/487/6 950/482/6
s 221
f 950/482/14 951/488/13 949/484/14
s 222
f 936/485/6 954/489/6 952/487/6
s 221
f 952/487/13 953/490/12 951/488/13
s 222
f 936/485/6 956/491/6 954/489/6
s 221
f 954/489/22 955/492/11 953/490/12
s 222
f 936/485/6 938/493/6 956/491/6
s 221
f 956/491/11 937/494/3 955/492/11
s 223
f 967/495/10 968/496/1 966/497/10
s 224
f 957/498/6 969/499/6 967/495/6
s 223
f 965/500/9 966/497/10 964/501/9
s 224
f 957/498/6 967/495/6 965/500/6
s 223
f 963/502/8 964/501/9 962/503/21
s 224
f 957/498/6 965/500/6 963/502/6
s 223
f 961/504/7 962/503/21 960/505/7
s 224
f 957/498/6 963/502/6 961/504/6
s 223
f 959/506/3 960/505/7 958/507/3
s 224
f 957/498/6 961/504/6 959/506/6
f 957/498/6 971/495/6 969/499/6
s 223
f 969/499/1 970/497/14 968/496/1
s 224
f 957/498/6 973/500/6 971/495/6
s 223
f 971/495/14 972/501/13 970/497/14
s 224
f 957/498/6 975/502/6 973/500/6
s 223
f 973/500/13 974/503/12 972/501/13
s 224
f 957/498/6 977/504/6 975/502/6
s 223
f 975/502/22 976/505/11 974/503/12
s 224
f 957/498/6 959/506/6 977/504/6
s 223
f 977/504/11 958/507/3 976/505/11
s 225
f 988/508/10 989/509/1 987/510/10
s 226
f 978/511/6 990/512/6 988/508/6
s 225
f 986/513/9 987/510/10 985/514/9
s 226
f 978/511/6 988/508/6 986/513/6
s 225
f 984/515/8 985/514/9 983/516/21
s 226
f 978/511/6 986/513/6 984/515/6
s 225
f 982/517/7 983/516/21 981/518/7
s 226
f 978/511/6 984/515/6 982/517/6
s 225
f 980/519/3 981/518/7 979/520/3
s 226
f 978/511/6 982/517/6 980/519/6
f 978/511/6 992/508/6 990/512/6
s 225
f 990/512/1 991/510/14 989/509/1
s 226
f 978/511/6 994/513/6 992/508/6
s 225
f 992/508/14 993/514/13 991/510/14
s 226
f 978/511/6 996/515/6 994/513/6
s 225
f 994/513/13 995/516/12 993/514/13
s 226
f 978/511/6 998/517/6 996/515/6
s 225
f 996/515/22 997/518/11 995/516/12
s 226
f 978/511/6 980/519/6 998/517/6
s 225
f 998/517/11 979/520/3 997/518/11
s 227
f 1009/443/10 1010/444/1 1008/445/10
s 228
f 999/446/6 1011/447/6 1009/443/6
s 227
f 1007/521/9 1008/445/10 1006/522/9
s 228
f 999/446/6 1009/443/6 1007/521/6
s 227
f 1005/450/8 1006/522/9 1004/451/23
s 228
f 999/446/6 1007/521/6 1005/450/6
s 227
f 1003/452/7 1004/451/23 1002/453/24
s 228
f 999/446/6 1005/450/6 1003/452/6
s 227
f 1001/523/3 1002/453/24 1000/524/3
s 228
f 999/446/6 1003/452/6 1001/523/6
f 999/446/6 1013/443/6 1011/447/6
s 227
f 1011/447/1 1012/445/14 1010/444/1
s 228
f 999/446/6 1015/521/6 1013/443/6
s 227
f 1013/443/14 1014/522/13 1012/445/14
s 228
f 999/446/6 1017/450/6 1015/521/6
s 227
f 1015/521/13 1016/451/12 1014/522/13
s 228
f 999/446/6 1019/452/6 1017/450/6
s 227
f 1017/450/25 1018/453/11 1016/451/12
s 228
f 999/446/6 1001/523/6 1019/452/6
s 227
f 1019/452/26 1000/524/3 1018/453/11
s 229
f 1030/525/10 1031/526/1 1029/527/10
s 230
f 1020/528/6 1032/529/6 1030/525/6
s 229
f 1028/530/9 1029/527/10 1027/531/9
s 230
f 1020/528/6 1030/525/6 1028/530/6
s 229
f 1026/532/8 1027/531/9 1025/533/21
s 230
f 1020/528/6 1028/530/6 1026/532/6
s 229
f 1024/534/7 1025/533/21 1023/535/7
s 230
f 1020/528/6 1026/532/6 1024/534/6
s 229
f 1022/536/3 1023/535/7 1021/537/3
s 230
f 1020/528/6 1024/534/6 1022/536/6
f 1020/528/6 1034/525/6 1032/529/6
s 229
f 1032/529/1 1033/527/14 1031/526/1
s 230
f 1020/528/6 1036/530/6 1034/525/6
s 229
f 1034/525/14 1035/531/13 1033/527/14
s 230
f 1020/528/6 1038/532/6 1036/530/6
s 229
f 1036/530/13 1037/533/12 1035/531/13
s 230
f 1020/528/6 1040/534/6 1038/532/6
s 229
f 1038/532/22 1039/535/11 1037/533/12
s 230
f 1020/528/6 1022/536/6 1040/534/6
s 229
f 1040/534/11 1021/537/3 1039/535/11
s 1
f 2/1/1 4/1/1 3/2/1
s 2
f 3/2/2 4/1/2 8/3/2
s 3
f 8/3/3 6/3/3 5/4/3
s 4
f 6/3/4 2/1/4 1/2/4
s 5
f 7/4/5 5/4/5 1/2/5
s 6
f 8/3/6 4/1/6 2/1/6
s 7
f 10/5/1 12/5/1 11/6/1
s 8
f 11/6/2 12/5/2 16/7/2
s 9
f 16/7/3 14/7/3 13/8/3
s 10
f 13/8/4 14/7/4 10/5/4
s 11
f 15/8/5 13/8/5 9/6/5
s 12
f 16/7/6 12/5/6 10/5/6
s 13
f 18/9/2 20/12/2 19/10/2
s 14
f 20/12/3 24/12/3 23/10/3
s 15
f 24/12/4 22/9/4 21/11/4
s 16
f 22/9/1 18/9/1 17/11/1
s 17
f 23/10/5 21/11/5 17/11/5
s 18
f 20/12/6 18/9/6 22/9/6
s 19
f 26/9/2 28/12/2 27/10/2
s 20
f 28/12/3 32/12/3 31/10/3
s 21
f 32/12/4 30/9/4 29/11/4
s 22
f 30/9/1 26/9/1 25/11/1
s 23
f 31/10/5 29/11/5 25/11/5
s 24
f 28/12/6 26/9/6 30/9/6
s 25
f 34/9/2 36/12/2 35/10/2
s 26
f 36/12/3 40/12/3 39/10/3
s 27
f 40/12/4 38/9/4 37/11/4
s 28
f 38/9/1 34/9/1 33/11/1
s 29
f 39/10/5 37/11/5 33/11/5
s 30
f 36/12/6 34/9/6 38/9/6
s 31
f 42/9/2 44/12/2 43/10/2
s 32
f 44/12/3 48/12/3 47/10/3
s 33
f 48/12/4 46/9/4 45/11/4
s 34
f 46/9/1 42/9/1 41/11/1
s 35
f 47/10/5 45/11/5 41/11/5
s 36
f 44/12/6 42/9/6 46/9/6
s 37
f 50/9/2 52/12/2 51/10/2
s 38
f 52/12/3 56/12/3 55/10/3
s 39
f 56/12/4 54/9/4 53/11/4
s 40
f 54/9/1 50/9/1 49/11/1
s 41
f 55/10/5 53/11/5 49/11/5
s 42
f 52/12/6 50/9/6 54/9/6
s 43
f 58/9/2 60/12/2 59/10/2
s 44
f 60/12/3 64/12/3 63/10/3
s 45
f 64/12/4 62/9/4 61/11/4
s 46
f 62/9/1 58/9/1 57/11/1
s 47
f 63/10/5 61/11/5 57/11/5
s 48
f 60/12/6 58/9/6 62/9/6
s 49
f 66/9/2 68/12/2 67/10/2
s 50
f 68/12/3 72/12/3 71/10/3
s 51
f 72/12/4 70/9/4 69/11/4
s 52
f 70/9/1 66/9/1 65/11/1
s 53
f 71/10/5 69/11/5 65/11/5
s 54
f 68/12/6 66/9/6 70/9/6
s 55
f 74/9/2 76/12/2 75/10/2
s 56
f 76/12/3 80/12/3 79/10/3
s 57
f 80/12/4 78/9/4 77/11/4
s 58
f 78/9/1 74/9/1 73/11/1
s 59
f 79/10/5 77/11/5 73/11/5
s 60
f 76/12/6 74/9/6 78/9/6
s 61
f 82/9/2 84/12/2 83/10/2
s 62
f 84/12/3 88/12/3 87/10/3
s 63
f 88/12/4 86/9/4 85/11/4
s 64
f 86/9/1 82/9/1 81/11/1
s 65
f 87/10/5 85/11/5 81/11/5
s 66
f 84/12/6 82/9/6 86/9/6
s 67
f 90/13/1 92/13/1 91/14/1
s 68
f 92/13/2 96/16/2 95/15/2
s 69
f 96/16/3 94/16/3 93/15/3
s 70
f 93/15/4 94/16/4 90/13/4
s 71
f 95/15/5 93/15/5 89/14/5
s 72
f 92/13/6 90/13/6 94/16/6
s 73
f 107/17/7 109/21/3 108/18/3
f 105/22/8 107/17/7 106/19/7
f 103/24/9 105/22/8 104/23/8
f 101/26/10 103/24/9 102/25/9
f 99/28/1 101/26/10 100/27/10
f 109/21/3 111/17/11 110/19/11
f 111/17/11 113/22/12 112/23/12
f 113/22/12 115/24/13 114/25/13
f 115/24/13 117/26/14 116/27/14
f 117/26/14 99/28/1 98/29/1
s 75
f 119/30/2 121/31/2 120/7/2
s 76
f 121/31/3 125/31/3 124/7/3
s 77
f 125/31/4 123/30/4 122/13/4
s 78
f 123/30/1 119/30/1 118/13/1
s 79
f 124/7/5 122/13/5 118/13/5
s 80
f 121/31/6 119/30/6 123/30/6
s 81
f 127/30/2 129/31/2 128/7/2
s 82
f 129/31/3 133/31/3 132/7/3
s 83
f 133/31/4 131/30/4 130/13/4
s 84
f 131/30/1 127/30/1 126/13/1
s 85
f 132/7/5 130/13/5 126/13/5
s 86
f 129/31/6 127/30/6 131/30/6
s 87
f 135/30/2 137/31/2 136/7/2
s 88
f 137/31/3 141/31/3 140/7/3
s 89
f 141/31/4 139/30/4 138/13/4
s 90
f 139/30/1 135/30/1 134/13/1
s 91
f 140/7/5 138/13/5 134/13/5
s 92
f 137/31/6 135/30/6 139/30/6
s 93
f 143/15/3 145/34/3 144/32/3
s 94
f 145/34/4 149/36/4 148/35/4
s 95
f 149/36/1 147/14/1 146/9/1
s 96
f 147/14/2 143/15/2 142/33/2
s 97
f 148/35/5 146/9/5 142/33/5
s 98
f 145/34/6 143/15/6 147/14/6
s 99
f 151/13/1 153/13/1 152/14/1
s 100
f 153/13/2 157/38/2 156/37/2
s 101
f 157/38/3 155/38/3 154/37/3
s 102
f 154/37/4 155/38/4 151/13/4
s 103
f 156/37/5 154/37/5 150/14/5
s 104
f 153/13/6 151/13/6 155/38/6
s 105
f 159/13/1 161/13/1 160/14/1
s 106
f 161/13/2 165/38/2 164/37/2
s 107
f 165/38/3 163/38/3 162/37/3
s 108
f 162/37/4 163/38/4 159/13/4
s 109
f 164/37/5 162/37/5 158/14/5
s 110
f 161/13/6 159/13/6 163/38/6
s 111
f 167/5/1 169/5/1 168/6/1
s 112
f 168/6/2 169/5/2 173/7/2
s 113
f 173/7/3 171/7/3 170/8/3
s 114
f 171/7/4 167/5/4 166/6/4
s 115
f 172/8/5 170/8/5 166/6/5
s 116
f 169/5/6 167/5/6 171/7/6
s 117
f 175/39/3 177/8/3 176/12/3
s 118
f 177/8/4 181/42/4 180/41/4
s 119
f 181/42/1 179/44/1 178/43/1
s 120
f 179/44/2 175/39/2 174/40/2
s 121
f 180/41/5 178/43/5 174/40/5
s 122
f 177/8/6 175/39/6 179/44/6
s 123
f 183/5/1 185/5/1 184/6/1
s 124
f 184/6/2 185/5/2 189/7/2
s 125
f 189/7/3 187/7/3 186/8/3
s 126
f 187/7/4 183/5/4 182/6/4
s 127
f 188/8/5 186/8/5 182/6/5
s 128
f 185/5/6 183/5/6 187/7/6
s 129
f 191/4/3 193/47/3 192/45/3
s 130
f 193/47/4 197/49/4 196/48/4
s 131
f 197/49/1 195/2/1 194/50/1
s 132
f 195/2/2 191/4/2 190/46/2
s 133
f 196/48/5 194/50/5 190/46/5
s 134
f 197/49/6 193/47/6 191/4/6
s 135
f 199/5/1 201/5/1 200/6/1
s 136
f 200/6/2 201/5/2 205/7/2
s 137
f 205/7/3 203/7/3 202/8/3
s 138
f 203/7/4 199/5/4 198/6/4
s 139
f 204/8/5 202/8/5 198/6/5
s 140
f 201/5/6 199/5/6 203/7/6
s 141
f 207/51/1 209/51/1 208/49/1
s 142
f 208/49/2 209/51/2 213/52/2
s 143
f 213/52/3 211/52/3 210/47/3
s 144
f 211/52/4 207/51/4 206/49/4
s 145
f 212/47/5 210/47/5 206/49/5
s 146
f 213/52/6 209/51/6 207/51/6
s 147
f 215/1/1 217/1/1 216/2/1
s 148
f 216/2/2 217/1/2 221/3/2
s 149
f 221/3/3 219/3/3 218/4/3
s 150
f 219/3/4 215/1/4 214/2/4
s 151
f 220/4/5 218/4/5 214/2/5
s 152
f 221/3/6 217/1/6 215/1/6
s 153
f 232/53/7 234/57/3 233/54/3
f 230/58/8 232/53/7 231/55/7
f 228/60/9 230/58/8 229/59/8
f 226/62/10 228/60/9 227/61/9
f 224/64/1 226/62/10 225/63/10
f 234/57/3 236/53/11 235/55/11
f 236/53/11 238/58/12 237/59/12
f 238/58/12 240/60/13 239/61/13
f 240/60/13 242/62/14 241/63/14
f 242/62/14 224/64/1 223/65/1
s 155
f 253/66/7 255/70/3 254/67/3
f 251/71/8 253/66/7 252/68/7
f 249/73/9 251/71/8 250/72/8
f 247/75/10 249/73/9 248/74/9
f 245/77/1 247/75/10 246/76/10
f 255/70/3 257/66/11 256/68/11
f 257/66/11 259/71/12 258/72/12
f 259/71/12 261/73/13 260/74/13
f 261/73/13 263/75/14 262/76/14
f 263/75/14 245/77/1 244/78/1
s 157
f 274/79/7 276/83/3 275/80/3
f 272/84/8 274/79/7 273/81/7
f 270/86/9 272/84/8 271/85/8
f 268/88/10 270/86/9 269/87/9
f 266/90/1 268/88/10 267/89/10
f 276/83/3 278/79/11 277/81/11
f 278/79/11 280/84/12 279/85/12
f 280/84/12 282/86/13 281/87/13
f 282/86/13 284/88/14 283/89/14
f 284/88/14 266/90/1 265/91/1
s 159
f 295/92/7 297/96/3 296/93/3
f 293/97/8 295/92/7 294/94/7
f 291/99/9 293/97/8 292/98/8
f 289/101/10 291/99/9 290/100/9
f 287/103/1 289/101/10 288/102/10
f 297/96/3 299/92/11 298/94/11
f 299/92/11 301/97/12 300/98/12
f 301/97/12 303/99/13 302/100/13
f 303/99/13 305/101/14 304/102/14
f 305/101/14 287/103/1 286/104/1
s 161
f 316/105/7 318/109/3 317/106/3
f 314/110/8 316/105/7 315/107/7
f 312/112/9 314/110/8 313/111/8
f 310/114/10 312/112/9 311/113/9
f 308/116/1 310/114/10 309/115/10
f 318/109/3 320/105/11 319/107/11
f 320/105/11 322/110/12 321/111/12
f 322/110/12 324/112/13 323/113/13
f 324/112/13 326/114/14 325/115/14
f 326/114/14 308/116/1 307/117/1
s 163
f 337/118/7 339/122/3 338/119/3
f 335/123/8 337/118/7 336/120/7
f 333/125/9 335/123/8 334/124/8
f 331/127/10 333/125/9 332/126/9
f 329/129/1 331/127/10 330/128/10
f 339/122/3 341/118/11 340/120/11
f 341/118/11 343/123/12 342/124/12
f 343/123/12 345/125/13 344/126/13
f 345/125/13 347/127/14 346/128/14
f 347/127/14 329/129/1 328/130/1
s 165
f 358/131/7 360/135/3 359/132/3
f 356/136/8 358/131/7 357/133/7
f 354/138/9 356/136/8 355/137/8
f 352/140/10 354/138/9 353/139/9
f 350/142/1 352/140/10 351/141/10
f 360/135/3 362/131/11 361/133/11
f 362/131/11 364/136/12 363/137/12
f 364/136/12 366/138/13 365/139/13
f 366/138/13 368/140/14 367/141/14
f 368/140/14 350/142/1 349/143/1
s 167
f 379/144/7 381/148/3 380/145/3
f 377/149/8 379/144/7 378/146/7
f 375/151/9 377/149/8 376/150/8
f 373/153/10 375/151/9 374/152/9
f 371/155/1 373/153/10 372/154/10
f 381/148/3 383/144/11 382/146/11
f 383/144/11 385/149/12 384/150/12
f 385/149/12 387/151/13 386/152/13
f 387/151/13 389/153/14 388/154/14
f 389/153/14 371/155/1 370/156/1
s 169
f 400/157/7 402/161/3 401/158/3
f 398/162/8 400/157/7 399/159/7
f 396/164/9 398/162/8 397/163/8
f 394/166/10 396/164/9 395/165/15
f 392/168/1 394/166/10 393/167/10
f 402/161/3 404/157/11 403/159/11
f 404/157/11 406/162/12 405/163/12
f 406/162/12 408/164/16 407/165/13
f 408/164/16 410/166/14 409/167/14
f 410/166/14 392/168/1 391/169/1
s 171
f 421/170/7 423/174/3 422/171/3
f 419/175/8 421/170/7 420/172/7
f 417/177/9 419/175/8 418/176/8
f 415/179/10 417/177/9 416/178/15
f 413/181/1 415/179/10 414/180/10
f 423/174/3 425/170/11 424/172/11
f 425/170/11 427/175/12 426/176/12
f 427/175/12 429/177/16 428/178/16
f 429/177/16 431/179/14 430/180/14
f 431/179/14 413/181/1 412/182/1
s 173
f 442/183/7 444/187/3 443/184/3
f 440/188/8 442/183/7 441/185/7
f 438/190/9 440/188/8 439/189/8
f 436/192/10 438/190/9 437/191/17
f 434/194/1 436/192/10 435/193/18
f 444/187/3 446/183/11 445/185/11
f 446/183/11 448/188/12 447/189/12
f 448/188/12 450/190/16 449/191/13
f 450/190/16 452/192/14 451/193/14
f 452/192/14 434/194/1 433/195/1
s 175
f 463/196/7 465/200/3 464/197/3
f 461/201/8 463/196/7 462/198/7
f 459/203/9 461/201/8 460/202/8
f 457/205/10 459/203/9 458/204/15
f 455/207/1 457/205/10 456/206/10
f 465/200/3 467/196/11 466/198/11
f 467/196/11 469/201/12 468/202/12
f 469/201/12 471/203/16 470/204/13
f 471/203/16 473/205/14 472/206/14
f 473/205/14 455/207/1 454/208/1
s 177
f 484/209/7 486/213/3 485/210/3
f 482/214/8 484/209/7 483/211/7
f 480/216/9 482/214/8 481/215/8
f 478/218/10 480/216/9 479/217/15
f 476/220/1 478/218/10 477/219/10
f 486/213/3 488/209/11 487/211/11
f 488/209/11 490/214/12 489/215/12
f 490/214/12 492/216/16 491/217/13
f 492/216/16 494/218/14 493/219/14
f 494/218/14 476/220/1 475/221/1
s 179
f 505/222/7 507/226/3 506/223/3
f 503/227/8 505/222/7 504/224/7
f 501/229/9 503/227/8 502/228/8
f 499/231/10 501/229/9 500/230/15
f 497/233/1 499/231/10 498/232/10
f 507/226/3 509/222/11 508/224/11
f 509/222/11 511/227/12 510/228/12
f 511/227/12 513/229/16 512/230/13
f 513/229/16 515/231/14 514/232/14
f 515/231/14 497/233/1 496/234/1
s 181
f 526/235/7 528/239/3 527/236/3
f 524/240/8 526/235/7 525/237/7
f 522/242/9 524/240/8 523/241/8
f 520/244/10 522/242/9 521/243/15
f 518/246/1 520/244/10 519/245/10
f 528/239/3 530/235/11 529/237/11
f 530/235/11 532/240/12 531/241/12
f 532/240/12 534/242/16 533/243/13
f 534/242/16 536/244/14 535/245/14
f 536/244/14 518/246/1 517/247/1
s 183
f 547/248/7 549/252/3 548/249/3
f 545/253/8 547/248/7 546/250/7
f 543/255/9 545/253/8 544/254/8
f 541/257/10 543/255/9 542/256/15
f 539/259/1 541/257/10 540/258/10
f 549/252/3 551/248/11 550/250/11
f 551/248/11 553/253/12 552/254/12
f 553/253/12 555/255/16 554/256/13
f 555/255/16 557/257/14 556/258/14
f 557/257/14 539/259/1 538/260/1
s 185
f 568/261/7 570/265/3 569/262/3
f 566/266/8 568/261/7 567/263/7
f 564/268/9 566/266/8 565/267/8
f 562/270/10 564/268/9 563/269/15
f 560/272/1 562/270/10 561/271/10
f 570/265/3 572/261/11 571/263/11
f 572/261/11 574/266/12 573/267/12
f 574/266/12 576/268/16 575/269/16
f 576/268/16 578/270/14 577/271/14
f 578/270/14 560/272/1 559/273/1
s 187
f 589/274/7 591/278/3 590/275/3
f 587/279/8 589/274/7 588/276/7
f 585/281/9 587/279/8 586/280/8
f 583/283/10 585/281/9 584/282/15
f 581/285/1 583/283/10 582/284/10
f 591/278/3 593/274/11 592/276/11
f 593/274/11 595/279/12 594/280/12
f 595/279/12 597/281/16 596/282/13
f 597/281/16 599/283/14 598/284/14
f 599/283/14 581/285/1 580/286/1
s 189
f 610/287/7 612/291/3 611/288/3
f 608/292/8 610/287/7 609/289/7
f 606/294/9 608/292/8 607/293/8
f 604/296/10 606/294/9 605/295/15
f 602/298/1 604/296/10 603/297/10
f 612/291/3 614/287/11 613/289/11
f 614/287/11 616/292/12 615/293/12
f 616/292/12 618/294/19 617/295/13
f 618/294/19 620/296/20 619/297/14
f 620/296/20 602/298/1 601/299/1
s 191
f 631/300/7 633/304/3 632/301/3
f 629/305/8 631/300/7 630/302/7
f 627/307/15 629/305/8 628/306/8
f 625/309/10 627/307/15 626/308/15
f 623/311/1 625/309/10 624/310/10
f 633/304/3 635/300/11 634/302/11
f 635/300/11 637/305/12 636/306/12
f 637/305/12 639/307/16 638/308/13
f 639/307/16 641/309/14 640/310/14
f 641/309/14 623/311/1 622/312/1
s 193
f 652/313/7 654/317/3 653/314/3
f 650/318/8 652/313/7 651/315/7
f 648/320/9 650/318/8 649/319/8
f 646/322/10 648/320/9 647/321/15
f 644/324/1 646/322/10 645/323/10
f 654/317/3 656/313/11 655/315/11
f 656/313/11 658/318/12 657/319/12
f 658/318/12 660/320/16 659/321/13
f 660/320/16 662/322/14 661/323/14
f 662/322/14 644/324/1 643/325/1
s 195
f 673/326/7 675/330/3 674/327/3
f 671/331/8 673/326/7 672/328/7
f 669/333/9 671/331/8 670/332/8
f 667/335/10 669/333/9 668/334/17
f 665/337/1 667/335/10 666/336/18
f 675/330/3 677/326/11 676/328/11
f 677/326/11 679/331/12 678/332/12
f 679/331/12 681/333/16 680/334/13
f 681/333/16 683/335/14 682/336/14
f 683/335/14 665/337/1 664/338/1
s 197
f 694/339/7 696/343/3 695/340/3
f 692/344/8 694/339/7 693/341/7
f 690/346/9 692/344/8 691/345/8
f 688/348/10 690/346/9 689/347/15
f 686/350/1 688/348/10 687/349/10
f 696/343/3 698/339/11 697/341/11
f 698/339/11 700/344/12 699/345/12
f 700/344/12 702/346/16 701/347/13
f 702/346/16 704/348/14 703/349/14
f 704/348/14 686/350/1 685/351/1
s 199
f 715/352/7 717/356/3 716/353/3
f 713/357/8 715/352/7 714/354/7
f 711/359/9 713/357/8 712/358/8
f 709/361/10 711/359/9 710/360/15
f 707/363/1 709/361/10 708/362/10
f 717/356/3 719/352/11 718/354/11
f 719/352/11 721/357/12 720/358/12
f 721/357/12 723/359/16 722/360/13
f 723/359/16 725/361/14 724/362/14
f 725/361/14 707/363/1 706/364/1
s 201
f 736/365/7 738/369/3 737/366/3
f 734/370/8 736/365/7 735/367/7
f 732/372/9 734/370/8 733/371/8
f 730/374/10 732/372/9 731/373/15
f 728/376/1 730/374/10 729/375/10
f 738/369/3 740/365/11 739/367/11
f 740/365/11 742/370/12 741/371/12
f 742/370/12 744/372/16 743/373/13
f 744/372/16 746/374/14 745/375/14
f 746/374/14 728/376/1 727/377/1
s 203
f 757/378/7 759/382/3 758/379/3
f 755/383/8 757/378/7 756/380/7
f 753/385/9 755/383/8 754/384/8
f 751/387/10 753/385/9 752/386/15
f 749/389/1 751/387/10 750/388/10
f 759/382/3 761/378/11 760/380/11
f 761/378/11 763/383/12 762/384/12
f 763/383/12 765/385/16 764/386/13
f 765/385/16 767/387/14 766/388/14
f 767/387/14 749/389/1 748/390/1
s 205
f 778/391/7 780/395/3 779/392/3
f 776/396/8 778/391/7 777/393/7
f 774/398/9 776/396/8 775/397/8
f 772/400/10 774/398/9 773/399/15
f 770/402/1 772/400/10 771/401/10
f 780/395/3 782/391/11 781/393/11
f 782/391/11 784/396/12 783/397/12
f 784/396/12 786/398/16 785/399/13
f 786/398/16 788/400/14 787/401/14
f 788/400/14 770/402/1 769/403/1
s 207
f 799/404/7 801/408/3 800/405/3
f 797/409/8 799/404/7 798/406/7
f 795/411/9 797/409/8 796/410/8
f 793/413/10 795/411/9 794/412/17
f 791/415/1 793/413/10 792/414/18
f 801/408/3 803/404/11 802/406/11
f 803/404/11 805/409/12 804/410/12
f 805/409/12 807/411/16 806/412/13
f 807/411/16 809/413/14 808/414/14
f 809/413/14 791/415/1 790/416/1
s 209
f 820/417/7 822/421/3 821/418/3
f 818/422/8 820/417/7 819/419/7
f 816/424/9 818/422/8 817/423/8
f 814/426/10 816/424/9 815/425/15
f 812/428/1 814/426/10 813/427/10
f 822/421/3 824/417/11 823/419/11
f 824/417/11 826/422/12 825/423/12
f 826/422/12 828/424/16 827/425/13
f 828/424/16 830/426/14 829/427/14
f 830/426/14 812/428/1 811/429/1
s 211
f 841/391/7 843/395/3 842/392/3
f 839/396/8 841/391/7 840/393/7
f 837/398/9 839/396/8 838/397/8
f 835/400/10 837/398/9 836/399/17
f 833/402/1 835/400/10 834/401/18
f 843/395/3 845/391/11 844/393/11
f 845/391/11 847/396/12 846/397/12
f 847/396/12 849/398/16 848/399/13
f 849/398/16 851/400/14 850/401/14
f 851/400/14 833/402/1 832/403/1
s 213
f 862/430/10 864/434/1 863/431/1
f 860/435/9 862/430/10 861/432/10
f 858/437/21 860/435/9 859/436/9
f 856/439/7 858/437/21 857/438/21
f 854/441/3 856/439/7 855/440/7
f 864/434/1 866/430/14 865/432/14
f 866/430/14 868/435/13 867/436/13
f 868/435/13 870/437/22 869/438/12
f 870/437/22 872/439/11 871/440/11
f 872/439/11 854/441/3 853/442/3
s 215
f 883/443/10 885/447/1 884/444/1
f 881/448/9 883/443/10 882/445/10
f 879/450/8 881/448/9 880/449/9
f 877/452/7 879/450/8 878/451/21
f 875/454/3 877/452/7 876/453/7
f 885/447/1 887/443/14 886/445/14
f 887/443/14 889/448/13 888/449/13
f 889/448/13 891/450/22 890/451/12
f 891/450/22 893/452/11 892/453/11
f 893/452/11 875/454/3 874/455/3
s 217
f 904/456/10 906/460/1 905/457/1
f 902/461/9 904/456/10 903/458/10
f 900/463/8 902/461/9 901/462/9
f 898/465/7 900/463/8 899/464/21
f 896/467/3 898/465/7 897/466/7
f 906/460/1 908/456/14 907/458/14
f 908/456/14 910/461/13 909/462/13
f 910/461/13 912/463/22 911/464/22
f 912/463/22 914/465/11 913/466/11
f 914/465/11 896/467/3 895/468/3
s 219
f 925/469/10 927/473/1 926/470/1
f 923/474/9 925/469/10 924/471/10
f 921/476/8 923/474/9 922/475/9
f 919/478/7 921/476/8 920/477/21
f 917/480/3 919/478/7 918/479/7
f 927/473/1 929/469/14 928/471/14
f 929/469/14 931/474/13 930/475/13
f 931/474/13 933/476/22 932/477/12
f 933/476/22 935/478/11 934/479/11
f 935/478/11 917/480/3 916/481/3
s 221
f 946/482/10 948/486/1 947/483/1
f 944/487/9 946/482/10 945/484/10
f 942/489/8 944/487/9 943/488/9
f 940/491/7 942/489/8 941/490/21
f 938/493/3 940/491/7 939/492/7
f 948/486/1 950/482/14 949/484/14
f 950/482/14 952/487/13 951/488/13
f 952/487/13 954/489/22 953/490/12
f 954/489/22 956/491/11 955/492/11
f 956/491/11 938/493/3 937/494/3
s 223
f 967/495/10 969/499/1 968/496/1
f 965/500/9 967/495/10 966/497/10
f 963/502/8 965/500/9 964/501/9
f 961/504/7 963/502/8 962/503/21
f 959/506/3 961/504/7 960/505/7
f 969/499/1 971/495/14 970/497/14
f 971/495/14 973/500/13 972/501/13
f 973/500/13 975/502/22 974/503/12
f 975/502/22 977/504/11 976/505/11
f 977/504/11 959/506/3 958/507/3
s 225
f 988/508/10 990/512/1 989/509/1
f 986/513/9 988/508/10 987/510/10
f 984/515/8 986/513/9 985/514/9
f 982/517/7 984/515/8 983/516/21
f 980/519/3 982/517/7 981/518/7
f 990/512/1 992/508/14 991/510/14
f 992/508/14 994/513/13 993/514/13
f 994/513/13 996/515/22 995/516/12
f 996/515/22 998/517/11 997/518/11
f 998/517/11 980/519/3 979/520/3
s 227
f 1009/443/10 1011/447/1 1010/444/1
f 1007/521/9 1009/443/10 1008/445/10
f 1005/450/8 1007/521/9 1006/522/9
f 1003/452/7 1005/450/8 1004/451/23
f 1001/523/3 1003/452/7 1002/453/24
f 1011/447/1 1013/443/14 1012/445/14
f 1013/443/14 1015/521/13 1014/522/13
f 1015/521/13 1017/450/25 1016/451/12
f 1017/450/25 1019/452/26 1018/453/11
f 1019/452/26 1001/523/3 1000/524/3
s 229
f 1030/525/10 1032/529/1 1031/526/1
f 1028/530/9 1030/525/10 1029/527/10
f 1026/532/8 1028/530/9 1027/531/9
f 1024/534/7 1026/532/8 1025/533/21
f 1022/536/3 1024/534/7 1023/535/7
f 1032/529/1 1034/525/14 1033/527/14
f 1034/525/14 1036/530/13 1035/531/13
f 1036/530/13 1038/532/22 1037/533/12
f 1038/532/22 1040/534/11 1039/535/11
f 1040/534/11 1022/536/3 1021/537/3
