# Blender 4.5.2 LTS
# www.blender.org
mtllib public_bench_01.mtl
g public_bench_01_Mesh
v -1.000000 0.450000 -0.344177
v -1.000000 0.450000 -0.476075
v -1.000000 0.450000 -0.461360
v -1.000000 0.450000 -0.607973
v -1.000000 0.450000 -0.593258
v -1.000000 0.450000 -0.739871
v -1.000000 0.450000 -0.725156
v -1.000000 0.450000 -0.857054
v 1.000000 0.450000 -0.857054
v 1.000000 0.450000 -0.725156
v 1.000000 0.450000 -0.739871
v 1.000000 0.450000 -0.593258
v 1.000000 0.450000 -0.607973
v 1.000000 0.450000 -0.461360
v 1.000000 0.450000 -0.476075
v 1.000000 0.450000 -0.344177
v -1.000000 0.410000 -0.344177
v -1.000000 0.410000 -0.476075
v -1.000000 0.410000 -0.461360
v -1.000000 0.410000 -0.607973
v -1.000000 0.410000 -0.593258
v -1.000000 0.410000 -0.739871
v -1.000000 0.410000 -0.725156
v -1.000000 0.410000 -0.857054
v 1.000000 0.410000 -0.857054
v 1.000000 0.410000 -0.725156
v 1.000000 0.410000 -0.739870
v 1.000000 0.410000 -0.593258
v 1.000000 0.410000 -0.607973
v 1.000000 0.410000 -0.461360
v 1.000000 0.410000 -0.476075
v 1.000000 0.410000 -0.344177
v -1.000000 0.000000 -0.250615
v -1.000000 0.450000 -0.250615
v -1.000000 0.000000 -0.950615
v -1.000000 0.450000 -0.950615
v 1.000000 0.000000 -0.250615
v 1.000000 0.450000 -0.250615
v 1.000000 0.000000 -0.950615
v 1.000000 0.450000 -0.950615
v -1.000000 0.000000 -0.871768
v -1.000000 -0.000000 -0.329462
v -1.000000 0.450000 -0.329462
v -1.000000 0.450000 -0.871768
v 1.000000 0.000000 -0.329462
v 1.000000 0.000000 -0.871768
v 1.000000 0.450000 -0.871768
v 1.000000 0.450000 -0.329462
v -0.940000 0.060000 -0.250615
v -0.940000 0.390000 -0.250615
v -0.940000 0.060000 -0.950615
v -0.940000 0.390000 -0.950615
v 0.940000 0.060000 -0.250615
v 0.940000 0.390000 -0.250615
v 0.940000 0.060000 -0.950615
v 0.940000 0.390000 -0.950615
v -0.940000 0.060000 -0.871768
v -0.940000 0.060000 -0.329462
v -0.940000 0.390000 -0.329462
v -0.940000 0.390000 -0.871768
v 0.940000 0.060000 -0.329462
v 0.940000 0.060000 -0.871768
v 0.940000 0.390000 -0.871768
v 0.940000 0.390000 -0.329462
v -0.985000 0.350000 -0.329462
v -0.985000 0.350000 -0.871768
v -0.985000 0.410000 -0.329462
v -0.985000 0.410000 -0.871768
v -0.985000 0.000000 -0.329462
v -0.985000 0.000000 -0.871768
v -0.985000 0.060000 -0.329462
v -0.985000 0.060000 -0.871768
v -0.955001 0.350000 -0.329462
v -0.955001 0.350000 -0.871768
v -0.955001 0.410000 -0.329462
v -0.955001 0.410000 -0.871768
v -0.955001 0.000000 -0.329462
v -0.955001 0.000000 -0.871768
v -0.955001 0.060000 -0.329462
v -0.955001 0.060000 -0.871768
v 0.985000 0.350000 -0.329462
v 0.985000 0.350000 -0.871768
v 0.985000 0.410000 -0.329462
v 0.985000 0.410000 -0.871768
v 0.985000 0.000000 -0.329462
v 0.985000 0.000000 -0.871768
v 0.985000 0.060000 -0.329462
v 0.985000 0.060000 -0.871768
v 0.955000 0.350000 -0.329462
v 0.955000 0.350000 -0.871768
v 0.955000 0.410000 -0.329462
v 0.955000 0.410000 -0.871768
v 0.955000 0.000000 -0.329462
v 0.955000 0.000000 -0.871768
v 0.955000 0.060000 -0.329462
v 0.955000 0.060000 -0.871768
v -0.967895 0.452813 -0.404843
v -0.966354 0.451559 -0.406385
v -0.965789 0.449846 -0.406949
v -0.967023 0.452813 -0.402738
v -0.964843 0.451559 -0.402738
v -0.964045 0.449845 -0.402738
v -0.967895 0.452813 -0.400632
v -0.966354 0.451559 -0.399091
v -0.965789 0.449846 -0.398527
v -0.970001 0.452813 -0.399760
v -0.970001 0.451559 -0.397580
v -0.970001 0.449846 -0.396782
v -0.970001 0.453273 -0.402738
v -0.972106 0.452813 -0.400632
v -0.973648 0.451559 -0.399091
v -0.974212 0.449846 -0.398527
v -0.972978 0.452813 -0.402738
v -0.975158 0.451559 -0.402738
v -0.975956 0.449845 -0.402738
v -0.972106 0.452813 -0.404843
v -0.973648 0.451559 -0.406385
v -0.974212 0.449846 -0.406949
v -0.970001 0.452813 -0.405716
v -0.970001 0.451559 -0.407896
v -0.970001 0.449846 -0.408693
v -0.967895 0.452813 -0.536772
v -0.966354 0.451559 -0.538313
v -0.965789 0.449846 -0.538877
v -0.967023 0.452813 -0.534666
v -0.964843 0.451559 -0.534666
v -0.964045 0.449845 -0.534666
v -0.967895 0.452813 -0.532561
v -0.966354 0.451559 -0.531019
v -0.965789 0.449845 -0.530455
v -0.970001 0.452813 -0.531689
v -0.970001 0.451559 -0.529509
v -0.970001 0.449846 -0.528711
v -0.970001 0.453272 -0.534666
v -0.972106 0.452813 -0.532561
v -0.973648 0.451559 -0.531019
v -0.974212 0.449845 -0.530455
v -0.972978 0.452813 -0.534666
v -0.975158 0.451559 -0.534666
v -0.975956 0.449845 -0.534666
v -0.972106 0.452813 -0.536772
v -0.973648 0.451559 -0.538313
v -0.974212 0.449846 -0.538877
v -0.970001 0.452813 -0.537644
v -0.970001 0.451559 -0.539824
v -0.970001 0.449845 -0.540622
v -0.967895 0.452813 -0.668700
v -0.966354 0.451559 -0.670242
v -0.965789 0.449846 -0.670806
v -0.967023 0.452813 -0.666595
v -0.964843 0.451559 -0.666595
v -0.964045 0.449846 -0.666595
v -0.967895 0.452813 -0.664489
v -0.966354 0.451559 -0.662948
v -0.965789 0.449845 -0.662383
v -0.970001 0.452813 -0.663617
v -0.970001 0.451559 -0.661437
v -0.970001 0.449846 -0.660639
v -0.970001 0.453273 -0.666595
v -0.972106 0.452813 -0.664489
v -0.973648 0.451559 -0.662948
v -0.974212 0.449845 -0.662383
v -0.972978 0.452813 -0.666595
v -0.975158 0.451559 -0.666595
v -0.975956 0.449846 -0.666595
v -0.972106 0.452813 -0.668700
v -0.973648 0.451559 -0.670242
v -0.974212 0.449846 -0.670806
v -0.970001 0.452813 -0.669572
v -0.970001 0.451559 -0.671752
v -0.970001 0.449845 -0.672550
v -0.967895 0.452813 -0.800598
v -0.966354 0.451559 -0.802140
v -0.965789 0.449846 -0.802704
v -0.967023 0.452813 -0.798493
v -0.964843 0.451559 -0.798493
v -0.964045 0.449846 -0.798493
v -0.967895 0.452813 -0.796387
v -0.966354 0.451559 -0.794846
v -0.965789 0.449845 -0.794281
v -0.970001 0.452813 -0.795515
v -0.970001 0.451559 -0.793335
v -0.970001 0.449846 -0.792537
v -0.970001 0.453273 -0.798493
v -0.972106 0.452813 -0.796387
v -0.973648 0.451559 -0.794846
v -0.974212 0.449845 -0.794281
v -0.972978 0.452813 -0.798493
v -0.975158 0.451559 -0.798493
v -0.975956 0.449846 -0.798493
v -0.972106 0.452813 -0.800598
v -0.973648 0.451559 -0.802140
v -0.974212 0.449846 -0.802704
v -0.970001 0.452813 -0.801470
v -0.970001 0.451559 -0.803650
v -0.970001 0.449846 -0.804448
v 0.967894 0.452813 -0.404843
v 0.966353 0.451559 -0.406385
v 0.965788 0.449846 -0.406949
v 0.967022 0.452813 -0.402738
v 0.964842 0.451559 -0.402738
v 0.964044 0.449845 -0.402738
v 0.967894 0.452813 -0.400632
v 0.966353 0.451559 -0.399091
v 0.965788 0.449846 -0.398527
v 0.970000 0.452813 -0.399760
v 0.970000 0.451559 -0.397580
v 0.970000 0.449846 -0.396782
v 0.970000 0.453273 -0.402738
v 0.972105 0.452813 -0.400632
v 0.973647 0.451559 -0.399091
v 0.974211 0.449846 -0.398527
v 0.972977 0.452813 -0.402738
v 0.975157 0.451559 -0.402738
v 0.975955 0.449845 -0.402738
v 0.972105 0.452813 -0.404843
v 0.973647 0.451559 -0.406385
v 0.974211 0.449846 -0.406949
v 0.970000 0.452813 -0.405716
v 0.970000 0.451559 -0.407896
v 0.970000 0.449846 -0.408693
v 0.967894 0.452813 -0.536772
v 0.966353 0.451559 -0.538313
v 0.965788 0.449846 -0.538877
v 0.967022 0.452813 -0.534666
v 0.964842 0.451559 -0.534666
v 0.964044 0.449845 -0.534666
v 0.967894 0.452813 -0.532561
v 0.966353 0.451559 -0.531019
v 0.965788 0.449845 -0.530455
v 0.970000 0.452813 -0.531689
v 0.970000 0.451559 -0.529509
v 0.970000 0.449846 -0.528711
v 0.970000 0.453272 -0.534666
v 0.972105 0.452813 -0.532561
v 0.973647 0.451559 -0.531019
v 0.974211 0.449845 -0.530455
v 0.972977 0.452813 -0.534666
v 0.975157 0.451559 -0.534666
v 0.975955 0.449845 -0.534666
v 0.972105 0.452813 -0.536772
v 0.973647 0.451559 -0.538313
v 0.974211 0.449846 -0.538877
v 0.970000 0.452813 -0.537644
v 0.970000 0.451559 -0.539824
v 0.970000 0.449845 -0.540622
v 0.967894 0.452813 -0.668700
v 0.966353 0.451559 -0.670242
v 0.965788 0.449846 -0.670806
v 0.967022 0.452813 -0.666595
v 0.964842 0.451559 -0.666595
v 0.964044 0.449846 -0.666595
v 0.967894 0.452813 -0.664489
v 0.966353 0.451559 -0.662948
v 0.965788 0.449845 -0.662383
v 0.970000 0.452813 -0.663617
v 0.970000 0.451559 -0.661437
v 0.970000 0.449846 -0.660639
v 0.970000 0.453273 -0.666595
v 0.972105 0.452813 -0.664489
v 0.973647 0.451559 -0.662948
v 0.974211 0.449845 -0.662383
v 0.972977 0.452813 -0.666595
v 0.975157 0.451559 -0.666595
v 0.975955 0.449846 -0.666595
v 0.972105 0.452813 -0.668700
v 0.973647 0.451559 -0.670242
v 0.974211 0.449846 -0.670806
v 0.970000 0.452813 -0.669572
v 0.970000 0.451559 -0.671752
v 0.970000 0.449845 -0.672550
v 0.967894 0.452813 -0.800598
v 0.966353 0.451559 -0.802140
v 0.965788 0.449846 -0.802704
v 0.967022 0.452813 -0.798493
v 0.964842 0.451559 -0.798493
v 0.964044 0.449846 -0.798493
v 0.967894 0.452813 -0.796387
v 0.966353 0.451559 -0.794846
v 0.965788 0.449845 -0.794281
v 0.970000 0.452813 -0.795515
v 0.970000 0.451559 -0.793335
v 0.970000 0.449846 -0.792537
v 0.970000 0.453273 -0.798493
v 0.972105 0.452813 -0.796387
v 0.973647 0.451559 -0.794846
v 0.974211 0.449845 -0.794281
v 0.972977 0.452813 -0.798493
v 0.975157 0.451559 -0.798493
v 0.975955 0.449846 -0.798493
v 0.972105 0.452813 -0.800598
v 0.973647 0.451559 -0.802140
v 0.974211 0.449846 -0.802704
v 0.970000 0.452813 -0.801470
v 0.970000 0.451559 -0.803650
v 0.970000 0.449846 -0.804448
vn -0.0000 1.0000 -0.0000
vn -0.0000 -1.0000 -0.0000
vn -1.0000 -0.0000 -0.0000
vn 1.0000 -0.0000 -0.0000
vn -0.0000 -0.0000 -1.0000
vn -0.0000 -0.0000 1.0000
vn -0.0000 0.6410 -0.7675
vn 0.2621 0.9288 -0.2621
vn 0.5427 0.6410 -0.5427
vn -0.0000 0.4221 -0.9065
vn 0.6410 0.4221 -0.6410
vn -0.0000 0.9288 -0.3707
vn 0.7675 0.6410 -0.0000
vn 0.9065 0.4221 -0.0000
vn 0.3706 0.9288 -0.0000
vn 0.5427 0.6410 0.5427
vn 0.6410 0.4221 0.6410
vn 0.2621 0.9288 0.2621
vn -0.0000 0.6410 0.7675
vn -0.0000 0.4221 0.9065
vn -0.0000 0.9288 0.3707
vn -0.6410 0.4221 0.6410
vn -0.2621 0.9288 0.2621
vn -0.5427 0.6410 0.5427
vn -0.3707 0.9288 -0.0000
vn -0.7675 0.6410 -0.0000
vn -0.9065 0.4221 -0.0000
vn -0.5427 0.6410 -0.5427
vn -0.6410 0.4222 -0.6410
vn -0.2621 0.9288 -0.2621
vn 0.3707 0.9288 -0.0000
vn -0.6410 0.4221 -0.6410
vn -0.0000 0.4222 -0.9065
vn 0.6410 0.4222 0.6410
vn -0.6410 0.4222 0.6410
vn -0.9065 0.4222 -0.0000
vn 0.6410 0.4222 -0.6410
vn -0.0000 0.9288 -0.3706
vt 0.102275 0.826296
vt 0.093339 0.826296
vt 0.093339 0.825270
vt 0.102275 0.825270
vt 0.034653 0.098776
vt 0.034548 0.088096
vt 0.034653 0.088096
vt 0.034548 0.098776
vt 0.035483 0.098776
vt 0.035377 0.088096
vt 0.035483 0.088096
vt 0.035377 0.098776
vt 0.034548 0.089520
vt 0.034653 0.097352
vt 0.034653 0.089520
vt 0.034548 0.097352
vt 0.035377 0.089520
vt 0.035483 0.097352
vt 0.035483 0.089520
vt 0.035377 0.097352
vt 0.034653 0.096402
vt 0.035377 0.097826
vt 0.034653 0.097826
vt 0.035377 0.096402
vt 0.098102 0.044548
vt 0.098107 0.044571
vt 0.098104 0.044548
vt 0.098100 0.044517
vt 0.098103 0.044517
vt 0.098105 0.044571
vt 0.098110 0.044579
vt 0.098110 0.044548
vt 0.098110 0.044517
vt 0.098110 0.044571
vt 0.098116 0.044548
vt 0.098117 0.044517
vt 0.098114 0.044571
vt 0.098119 0.044548
vt 0.098120 0.044517
vt 0.098115 0.044571
vt 0.097888 0.044571
vt 0.097887 0.044548
vt 0.097884 0.044548
vt 0.097886 0.044517
vt 0.097883 0.044517
vt 0.097893 0.044579
vt 0.097889 0.044571
vt 0.097893 0.044548
vt 0.097893 0.044517
vt 0.097893 0.044571
vt 0.097899 0.044548
vt 0.097900 0.044517
vt 0.097896 0.044571
vt 0.097902 0.044517
vt 0.097898 0.044571
vt 0.097901 0.044548
vt 0.097667 0.044548
vt 0.097672 0.044571
vt 0.097669 0.044548
vt 0.097665 0.044517
vt 0.097668 0.044517
vt 0.097670 0.044571
vt 0.097675 0.044579
vt 0.097675 0.044517
vt 0.097675 0.044571
vt 0.097675 0.044548
vt 0.097681 0.044548
vt 0.097682 0.044517
vt 0.097679 0.044571
vt 0.097685 0.044517
vt 0.097680 0.044571
vt 0.097684 0.044548
vt 0.097449 0.044548
vt 0.097454 0.044571
vt 0.097452 0.044548
vt 0.097448 0.044517
vt 0.097451 0.044517
vt 0.097453 0.044571
vt 0.097458 0.044579
vt 0.097458 0.044548
vt 0.097458 0.044517
vt 0.097458 0.044571
vt 0.097465 0.044517
vt 0.097461 0.044571
vt 0.097464 0.044548
vt 0.097467 0.044517
vt 0.097463 0.044571
vt 0.097466 0.044548
s 1
g public_bench_01_regular_material
usemtl regular_material
f 5/1/1 15/2/1 12/2/1
s 2
f 8/1/1 11/2/1 9/2/1
s 3
f 3/1/1 16/2/1 14/2/1
s 4
f 7/1/1 13/2/1 10/2/1
s 5
f 31/3/2 21/4/2 28/3/2
s 6
f 27/3/2 24/4/2 25/3/2
s 7
f 32/3/2 19/4/2 30/3/2
s 8
f 29/3/2 23/4/2 26/3/2
s 9
f 2/1/3 21/4/3 18/4/3
s 10
f 3/1/3 17/4/3 1/1/3
s 11
f 16/2/4 30/3/4 14/2/4
s 12
f 15/2/4 28/3/4 12/2/4
s 13
f 9/2/5 24/4/5 8/1/5
s 14
f 10/2/5 23/4/5 7/1/5
s 15
f 6/1/6 27/3/6 11/2/6
s 16
f 12/2/5 21/4/5 5/1/5
s 17
f 4/1/6 29/3/6 13/2/6
s 18
f 14/2/5 19/4/5 3/1/5
s 19
f 2/1/6 31/3/6 15/2/6
s 20
f 1/1/6 32/3/6 16/2/6
s 21
f 4/1/3 23/4/3 20/4/3
s 22
f 13/2/4 26/3/4 10/2/4
s 23
f 8/1/3 22/4/3 6/1/3
s 24
f 11/2/4 25/3/4 9/2/4
s 25
f 44/5/3 35/6/3 41/7/3
s 26
f 36/8/1 47/5/1 40/8/1
s 27
f 34/9/3 42/10/3 33/11/3
s 28
f 39/6/2 41/7/2 35/6/2
s 29
f 45/10/2 33/11/2 42/10/2
s 30
f 43/12/1 38/9/1 48/12/1
s 31
f 40/8/4 46/7/4 39/6/4
s 32
f 38/9/4 45/10/4 48/12/4
s 33
f 51/13/4 60/14/4 57/15/4
s 34
f 63/14/2 52/16/2 56/16/2
s 35
f 58/17/4 50/18/4 49/19/4
s 36
f 57/15/1 55/13/1 51/13/1
s 37
f 49/19/1 61/17/1 58/17/1
s 38
f 54/18/2 59/20/2 64/20/2
s 39
f 62/15/3 56/16/3 55/13/3
s 40
f 61/17/3 54/18/3 64/20/3
s 41
f 47/5/6 62/15/6 46/7/6
s 42
f 33/11/6 50/18/6 34/9/6
s 43
f 43/12/5 58/17/5 42/10/5
s 44
f 36/8/5 51/13/5 35/6/5
f 40/8/5 55/13/5 56/16/5
s 42
f 37/11/6 54/18/6 53/19/6
s 43
f 45/10/5 64/20/5 48/12/5
s 41
f 41/7/6 60/14/6 44/5/6
s 44
f 35/6/5 55/13/5 39/6/5
f 40/8/5 52/16/5 36/8/5
s 42
f 37/11/6 49/19/6 33/11/6
f 34/9/6 54/18/6 38/9/6
s 41
f 44/5/6 63/14/6 47/5/6
s 43
f 48/12/5 59/20/5 43/12/5
s 41
f 46/7/6 57/15/6 41/7/6
s 43
f 42/10/5 61/17/5 45/10/5
s 45
f 66/21/3 67/22/3 68/23/3
s 46
f 70/7/3 71/17/3 72/15/3
s 47
f 75/22/4 74/21/4 76/23/4
s 48
f 80/15/4 77/10/4 78/7/4
s 49
f 68/23/5 74/21/5 66/21/5
s 50
f 66/21/2 73/24/2 65/24/2
s 51
f 65/24/6 75/22/6 67/22/6
s 52
f 67/22/1 76/23/1 68/23/1
s 53
f 72/15/5 78/7/5 70/7/5
s 54
f 70/7/2 77/10/2 69/10/2
s 55
f 69/10/6 79/17/6 71/17/6
s 56
f 71/17/1 80/15/1 72/15/1
s 57
f 83/22/4 82/21/4 84/23/4
s 58
f 88/15/4 85/10/4 86/7/4
s 59
f 90/21/3 91/22/3 92/23/3
s 60
f 94/7/3 95/17/3 96/15/3
s 61
f 90/21/5 84/23/5 82/21/5
s 62
f 89/24/2 82/21/2 81/24/2
s 63
f 91/22/6 81/24/6 83/22/6
s 64
f 92/23/1 83/22/1 84/23/1
s 65
f 94/7/5 88/15/5 86/7/5
s 66
f 93/10/2 86/7/2 85/10/2
s 67
f 95/17/6 85/10/6 87/17/6
s 68
f 96/15/1 87/17/1 88/15/1
s 1
f 5/1/1 2/1/1 15/2/1
s 2
f 8/1/1 6/1/1 11/2/1
s 3
f 3/1/1 1/1/1 16/2/1
s 4
f 7/1/1 4/1/1 13/2/1
s 5
f 31/3/2 18/4/2 21/4/2
s 6
f 27/3/2 22/4/2 24/4/2
s 7
f 32/3/2 17/4/2 19/4/2
s 8
f 29/3/2 20/4/2 23/4/2
s 9
f 2/1/3 5/1/3 21/4/3
s 10
f 3/1/3 19/4/3 17/4/3
s 11
f 16/2/4 32/3/4 30/3/4
s 12
f 15/2/4 31/3/4 28/3/4
s 13
f 9/2/5 25/3/5 24/4/5
s 14
f 10/2/5 26/3/5 23/4/5
s 15
f 6/1/6 22/4/6 27/3/6
s 16
f 12/2/5 28/3/5 21/4/5
s 17
f 4/1/6 20/4/6 29/3/6
s 18
f 14/2/5 30/3/5 19/4/5
s 19
f 2/1/6 18/4/6 31/3/6
s 20
f 1/1/6 17/4/6 32/3/6
s 21
f 4/1/3 7/1/3 23/4/3
s 22
f 13/2/4 29/3/4 26/3/4
s 23
f 8/1/3 24/4/3 22/4/3
s 24
f 11/2/4 27/3/4 25/3/4
s 25
f 44/5/3 36/8/3 35/6/3
s 26
f 36/8/1 44/5/1 47/5/1
s 27
f 34/9/3 43/12/3 42/10/3
s 28
f 39/6/2 46/7/2 41/7/2
s 29
f 45/10/2 37/11/2 33/11/2
s 30
f 43/12/1 34/9/1 38/9/1
s 31
f 40/8/4 47/5/4 46/7/4
s 32
f 38/9/4 37/11/4 45/10/4
s 33
f 51/13/4 52/16/4 60/14/4
s 34
f 63/14/2 60/14/2 52/16/2
s 35
f 58/17/4 59/20/4 50/18/4
s 36
f 57/15/1 62/15/1 55/13/1
s 37
f 49/19/1 53/19/1 61/17/1
s 38
f 54/18/2 50/18/2 59/20/2
s 39
f 62/15/3 63/14/3 56/16/3
s 40
f 61/17/3 53/19/3 54/18/3
s 41
f 47/5/6 63/14/6 62/15/6
s 42
f 33/11/6 49/19/6 50/18/6
s 43
f 43/12/5 59/20/5 58/17/5
s 44
f 36/8/5 52/16/5 51/13/5
f 40/8/5 39/6/5 55/13/5
s 42
f 37/11/6 38/9/6 54/18/6
s 43
f 45/10/5 61/17/5 64/20/5
s 41
f 41/7/6 57/15/6 60/14/6
s 44
f 35/6/5 51/13/5 55/13/5
f 40/8/5 56/16/5 52/16/5
s 42
f 37/11/6 53/19/6 49/19/6
f 34/9/6 50/18/6 54/18/6
s 41
f 44/5/6 60/14/6 63/14/6
s 43
f 48/12/5 64/20/5 59/20/5
s 41
f 46/7/6 62/15/6 57/15/6
s 43
f 42/10/5 58/17/5 61/17/5
s 45
f 66/21/3 65/24/3 67/22/3
s 46
f 70/7/3 69/10/3 71/17/3
s 47
f 75/22/4 73/24/4 74/21/4
s 48
f 80/15/4 79/17/4 77/10/4
s 49
f 68/23/5 76/23/5 74/21/5
s 50
f 66/21/2 74/21/2 73/24/2
s 51
f 65/24/6 73/24/6 75/22/6
s 52
f 67/22/1 75/22/1 76/23/1
s 53
f 72/15/5 80/15/5 78/7/5
s 54
f 70/7/2 78/7/2 77/10/2
s 55
f 69/10/6 77/10/6 79/17/6
s 56
f 71/17/1 79/17/1 80/15/1
s 57
f 83/22/4 81/24/4 82/21/4
s 58
f 88/15/4 87/17/4 85/10/4
s 59
f 90/21/3 89/24/3 91/22/3
s 60
f 94/7/3 93/10/3 95/17/3
s 61
f 90/21/5 92/23/5 84/23/5
s 62
f 89/24/2 90/21/2 82/21/2
s 63
f 91/22/6 89/24/6 81/24/6
s 64
f 92/23/1 91/22/1 83/22/1
s 65
f 94/7/5 96/15/5 88/15/5
s 66
f 93/10/2 94/7/2 86/7/2
s 67
f 95/17/6 93/10/6 85/10/6
s 68
f 96/15/1 95/17/1 87/17/1
s 69
g public_bench_01_metal_rough
usemtl metal_rough
f 120/25/7 97/26/8 98/27/9
f 121/28/10 98/27/9 99/29/11
f 119/30/12 109/31/1 97/26/8
f 99/29/11 101/32/13 102/33/14
f 97/26/8 109/31/1 100/34/15
f 97/26/8 101/32/13 98/27/9
f 102/33/14 104/35/16 105/36/17
f 100/34/15 109/31/1 103/37/18
f 100/34/15 104/35/16 101/32/13
f 105/36/17 107/38/19 108/39/20
f 103/37/18 109/31/1 106/40/21
f 103/37/18 107/38/19 104/35/16
f 107/38/19 112/36/22 108/39/20
f 106/40/21 109/31/1 110/37/23
f 107/38/19 110/37/23 111/35/24
f 110/37/23 109/31/1 113/34/25
f 110/37/23 114/32/26 111/35/24
f 112/36/22 114/32/26 115/33/27
f 113/34/25 117/27/28 114/32/26
f 115/33/27 117/27/28 118/29/29
f 113/34/25 109/31/1 116/26/30
f 117/27/28 119/30/12 120/25/7
f 117/27/28 121/28/10 118/29/29
f 116/26/30 109/31/1 119/30/12
s 70
f 144/41/12 123/42/9 145/43/7
f 145/43/7 124/44/11 146/45/10
f 144/41/12 134/46/1 122/47/8
f 124/44/11 126/48/13 127/49/14
f 122/47/8 134/46/1 125/50/31
f 122/47/8 126/48/13 123/42/9
f 127/49/14 129/51/16 130/52/17
f 125/50/31 134/46/1 128/53/18
f 126/48/13 128/53/18 129/51/16
f 129/51/16 133/54/20 130/52/17
f 128/53/18 134/46/1 131/55/21
f 128/53/18 132/56/19 129/51/16
f 132/56/19 137/52/22 133/54/20
f 131/55/21 134/46/1 135/53/23
f 132/56/19 135/53/23 136/51/24
f 135/53/23 134/46/1 138/50/25
f 136/51/24 138/50/25 139/48/26
f 136/51/24 140/49/27 137/52/22
f 138/50/25 142/42/28 139/48/26
f 139/48/26 143/44/32 140/49/27
f 138/50/25 134/46/1 141/47/30
f 141/47/30 145/43/7 142/42/28
f 142/42/28 146/45/10 143/44/32
f 141/47/30 134/46/1 144/41/12
s 71
f 170/57/7 147/58/8 148/59/9
f 171/60/33 148/59/9 149/61/11
f 169/62/12 159/63/1 147/58/8
f 148/59/9 152/64/14 149/61/11
f 147/58/8 159/63/1 150/65/15
f 147/58/8 151/66/13 148/59/9
f 152/64/14 154/67/16 155/68/34
f 150/65/15 159/63/1 153/69/18
f 150/65/15 154/67/16 151/66/13
f 154/67/16 158/70/20 155/68/34
f 153/69/18 159/63/1 156/71/21
f 153/69/18 157/72/19 154/67/16
f 158/70/20 161/67/24 162/68/35
f 156/71/21 159/63/1 160/69/23
f 156/71/21 161/67/24 157/72/19
f 160/69/23 159/63/1 163/65/25
f 160/69/23 164/66/26 161/67/24
f 161/67/24 165/64/27 162/68/35
f 164/66/26 166/58/30 167/59/28
f 164/66/26 168/61/29 165/64/27
f 163/65/25 159/63/1 166/58/30
f 167/59/28 169/62/12 170/57/7
f 167/59/28 171/60/33 168/61/29
f 166/58/30 159/63/1 169/62/12
s 72
f 195/73/7 172/74/8 173/75/9
f 196/76/10 173/75/9 174/77/11
f 194/78/12 184/79/1 172/74/8
f 174/77/11 176/80/13 177/81/14
f 172/74/8 184/79/1 175/82/31
f 173/75/9 175/82/31 176/80/13
f 176/80/13 180/83/17 177/81/14
f 175/82/31 184/79/1 178/84/18
f 175/82/31 179/85/16 176/80/13
f 179/85/16 183/86/20 180/83/17
f 178/84/18 184/79/1 181/87/21
f 179/85/16 181/87/21 182/88/19
f 183/86/20 186/85/24 187/83/22
f 181/87/21 184/79/1 185/84/23
f 181/87/21 186/85/24 182/88/19
f 185/84/23 184/79/1 188/82/25
f 185/84/23 189/80/26 186/85/24
f 186/85/24 190/81/36 187/83/22
f 189/80/26 191/74/30 192/75/28
f 189/80/26 193/77/32 190/81/36
f 188/82/25 184/79/1 191/74/30
f 191/74/30 195/73/7 192/75/28
f 192/75/28 196/76/10 193/77/32
f 191/74/30 184/79/1 194/78/12
s 73
f 220/25/7 197/26/30 219/30/12
f 221/28/10 198/27/28 220/25/7
f 219/30/12 197/26/30 209/31/1
f 202/33/27 198/27/28 199/29/29
f 197/26/30 200/34/25 209/31/1
f 198/27/28 200/34/25 197/26/30
f 205/36/22 201/32/26 202/33/27
f 200/34/25 203/37/23 209/31/1
f 201/32/26 203/37/23 200/34/25
f 205/36/22 207/38/19 204/35/24
f 203/37/23 206/40/21 209/31/1
f 207/38/19 203/37/23 204/35/24
f 208/39/20 211/35/16 207/38/19
f 206/40/21 210/37/18 209/31/1
f 207/38/19 210/37/18 206/40/21
f 210/37/18 213/34/31 209/31/1
f 214/32/13 210/37/18 211/35/16
f 215/33/14 211/35/16 212/36/34
f 217/27/9 213/34/31 214/32/13
f 215/33/14 217/27/9 214/32/13
f 213/34/31 216/26/8 209/31/1
f 220/25/7 216/26/8 217/27/9
f 221/28/10 217/27/9 218/29/37
f 216/26/8 219/30/12 209/31/1
s 74
f 245/43/7 222/47/30 244/41/12
f 224/44/32 245/43/7 246/45/10
f 244/41/12 222/47/30 234/46/1
f 224/44/32 226/48/26 223/42/28
f 222/47/30 225/50/25 234/46/1
f 226/48/26 222/47/30 223/42/28
f 227/49/27 229/51/24 226/48/26
f 225/50/25 228/53/23 234/46/1
f 229/51/24 225/50/25 226/48/26
f 233/54/20 229/51/24 230/52/22
f 228/53/23 231/55/21 234/46/1
f 232/56/19 228/53/23 229/51/24
f 237/52/17 232/56/19 233/54/20
f 231/55/21 235/53/18 234/46/1
f 236/51/16 231/55/21 232/56/19
f 235/53/18 238/50/31 234/46/1
f 236/51/16 238/50/31 235/53/18
f 237/52/17 239/48/13 236/51/16
f 239/48/13 241/47/8 238/50/31
f 243/44/11 239/48/13 240/49/14
f 238/50/31 241/47/8 234/46/1
f 245/43/7 241/47/8 242/42/9
f 246/45/10 242/42/9 243/44/11
f 241/47/8 244/41/12 234/46/1
s 75
f 248/59/28 269/62/12 270/57/7
f 271/60/33 248/59/28 270/57/7
f 269/62/12 247/58/30 259/63/1
f 252/64/27 248/59/28 249/61/32
f 247/58/30 250/65/25 259/63/1
f 248/59/28 250/65/25 247/58/30
f 252/64/27 254/67/24 251/66/26
f 250/65/25 253/69/23 259/63/1
f 251/66/26 253/69/23 250/65/25
f 258/70/20 254/67/24 255/68/22
f 253/69/23 256/71/21 259/63/1
f 257/72/19 253/69/23 254/67/24
f 262/68/17 257/72/19 258/70/20
f 256/71/21 260/69/18 259/63/1
f 257/72/19 260/69/18 256/71/21
f 260/69/18 263/65/31 259/63/1
f 264/66/13 260/69/18 261/67/16
f 265/64/14 261/67/16 262/68/17
f 267/59/9 263/65/31 264/66/13
f 265/64/14 267/59/9 264/66/13
f 263/65/31 266/58/8 259/63/1
f 267/59/9 269/62/12 266/58/8
f 271/60/33 267/59/9 268/61/11
f 266/58/8 269/62/12 259/63/1
s 76
f 295/73/7 272/74/30 294/78/38
f 296/76/10 273/75/28 295/73/7
f 294/78/38 272/74/30 284/79/1
f 277/81/27 273/75/28 274/77/32
f 272/74/30 275/82/25 284/79/1
f 273/75/28 275/82/25 272/74/30
f 277/81/27 279/85/24 276/80/26
f 275/82/25 278/84/23 284/79/1
f 279/85/24 275/82/25 276/80/26
f 283/86/20 279/85/24 280/83/22
f 278/84/23 281/87/21 284/79/1
f 282/88/19 278/84/23 279/85/24
f 287/83/34 282/88/19 283/86/20
f 281/87/21 285/84/18 284/79/1
f 282/88/19 285/84/18 281/87/21
f 285/84/18 288/82/31 284/79/1
f 286/85/16 288/82/31 285/84/18
f 287/83/34 289/80/13 286/85/16
f 292/75/9 288/82/31 289/80/13
f 293/77/11 289/80/13 290/81/14
f 288/82/31 291/74/8 284/79/1
f 295/73/7 291/74/8 292/75/9
f 296/76/10 292/75/9 293/77/11
f 291/74/8 294/78/38 284/79/1
s 69
f 120/25/7 119/30/12 97/26/8
f 121/28/10 120/25/7 98/27/9
f 99/29/11 98/27/9 101/32/13
f 97/26/8 100/34/15 101/32/13
f 102/33/14 101/32/13 104/35/16
f 100/34/15 103/37/18 104/35/16
f 105/36/17 104/35/16 107/38/19
f 103/37/18 106/40/21 107/38/19
f 107/38/19 111/35/24 112/36/22
f 107/38/19 106/40/21 110/37/23
f 110/37/23 113/34/25 114/32/26
f 112/36/22 111/35/24 114/32/26
f 113/34/25 116/26/30 117/27/28
f 115/33/27 114/32/26 117/27/28
f 117/27/28 116/26/30 119/30/12
f 117/27/28 120/25/7 121/28/10
s 70
f 144/41/12 122/47/8 123/42/9
f 145/43/7 123/42/9 124/44/11
f 124/44/11 123/42/9 126/48/13
f 122/47/8 125/50/31 126/48/13
f 127/49/14 126/48/13 129/51/16
f 126/48/13 125/50/31 128/53/18
f 129/51/16 132/56/19 133/54/20
f 128/53/18 131/55/21 132/56/19
f 132/56/19 136/51/24 137/52/22
f 132/56/19 131/55/21 135/53/23
f 136/51/24 135/53/23 138/50/25
f 136/51/24 139/48/26 140/49/27
f 138/50/25 141/47/30 142/42/28
f 139/48/26 142/42/28 143/44/32
f 141/47/30 144/41/12 145/43/7
f 142/42/28 145/43/7 146/45/10
s 71
f 170/57/7 169/62/12 147/58/8
f 171/60/33 170/57/7 148/59/9
f 148/59/9 151/66/13 152/64/14
f 147/58/8 150/65/15 151/66/13
f 152/64/14 151/66/13 154/67/16
f 150/65/15 153/69/18 154/67/16
f 154/67/16 157/72/19 158/70/20
f 153/69/18 156/71/21 157/72/19
f 158/70/20 157/72/19 161/67/24
f 156/71/21 160/69/23 161/67/24
f 160/69/23 163/65/25 164/66/26
f 161/67/24 164/66/26 165/64/27
f 164/66/26 163/65/25 166/58/30
f 164/66/26 167/59/28 168/61/29
f 167/59/28 166/58/30 169/62/12
f 167/59/28 170/57/7 171/60/33
s 72
f 195/73/7 194/78/12 172/74/8
f 196/76/10 195/73/7 173/75/9
f 174/77/11 173/75/9 176/80/13
f 173/75/9 172/74/8 175/82/31
f 176/80/13 179/85/16 180/83/17
f 175/82/31 178/84/18 179/85/16
f 179/85/16 182/88/19 183/86/20
f 179/85/16 178/84/18 181/87/21
f 183/86/20 182/88/19 186/85/24
f 181/87/21 185/84/23 186/85/24
f 185/84/23 188/82/25 189/80/26
f 186/85/24 189/80/26 190/81/36
f 189/80/26 188/82/25 191/74/30
f 189/80/26 192/75/28 193/77/32
f 191/74/30 194/78/12 195/73/7
f 192/75/28 195/73/7 196/76/10
s 73
f 220/25/7 198/27/28 197/26/30
f 221/28/10 199/29/29 198/27/28
f 202/33/27 201/32/26 198/27/28
f 198/27/28 201/32/26 200/34/25
f 205/36/22 204/35/24 201/32/26
f 201/32/26 204/35/24 203/37/23
f 205/36/22 208/39/20 207/38/19
f 207/38/19 206/40/21 203/37/23
f 208/39/20 212/36/34 211/35/16
f 207/38/19 211/35/16 210/37/18
f 214/32/13 213/34/31 210/37/18
f 215/33/14 214/32/13 211/35/16
f 217/27/9 216/26/8 213/34/31
f 215/33/14 218/29/37 217/27/9
f 220/25/7 219/30/12 216/26/8
f 221/28/10 220/25/7 217/27/9
s 74
f 245/43/7 223/42/28 222/47/30
f 224/44/32 223/42/28 245/43/7
f 224/44/32 227/49/27 226/48/26
f 226/48/26 225/50/25 222/47/30
f 227/49/27 230/52/22 229/51/24
f 229/51/24 228/53/23 225/50/25
f 233/54/20 232/56/19 229/51/24
f 232/56/19 231/55/21 228/53/23
f 237/52/17 236/51/16 232/56/19
f 236/51/16 235/53/18 231/55/21
f 236/51/16 239/48/13 238/50/31
f 237/52/17 240/49/14 239/48/13
f 239/48/13 242/42/9 241/47/8
f 243/44/11 242/42/9 239/48/13
f 245/43/7 244/41/12 241/47/8
f 246/45/10 245/43/7 242/42/9
s 75
f 248/59/28 247/58/30 269/62/12
f 271/60/33 249/61/32 248/59/28
f 252/64/27 251/66/26 248/59/28
f 248/59/28 251/66/26 250/65/25
f 252/64/27 255/68/22 254/67/24
f 251/66/26 254/67/24 253/69/23
f 258/70/20 257/72/19 254/67/24
f 257/72/19 256/71/21 253/69/23
f 262/68/17 261/67/16 257/72/19
f 257/72/19 261/67/16 260/69/18
f 264/66/13 263/65/31 260/69/18
f 265/64/14 264/66/13 261/67/16
f 267/59/9 266/58/8 263/65/31
f 265/64/14 268/61/11 267/59/9
f 267/59/9 270/57/7 269/62/12
f 271/60/33 270/57/7 267/59/9
s 76
f 295/73/7 273/75/28 272/74/30
f 296/76/10 274/77/32 273/75/28
f 277/81/27 276/80/26 273/75/28
f 273/75/28 276/80/26 275/82/25
f 277/81/27 280/83/22 279/85/24
f 279/85/24 278/84/23 275/82/25
f 283/86/20 282/88/19 279/85/24
f 282/88/19 281/87/21 278/84/23
f 287/83/34 286/85/16 282/88/19
f 282/88/19 286/85/16 285/84/18
f 286/85/16 289/80/13 288/82/31
f 287/83/34 290/81/14 289/80/13
f 292/75/9 291/74/8 288/82/31
f 293/77/11 292/75/9 289/80/13
f 295/73/7 294/78/38 291/74/8
f 296/76/10 295/73/7 292/75/9
