# Blender 4.5.2 LTS
# www.blender.org
mtllib street_banner_01_large.mtl
g street_banner_01_large_Mesh
v -0.662973 1.472863 0.000500
v -0.662973 1.472863 -0.000500
v -0.029577 1.541181 0.000000
v -0.029577 1.474130 -0.000000
v -0.662973 0.034792 0.000500
v -0.662973 0.034792 -0.000500
v -0.053373 0.034792 0.000500
v -0.053373 0.034792 -0.000500
v -0.662973 0.005740 0.013858
v -0.053373 0.005740 0.013858
v -0.662973 0.005740 -0.013858
v -0.053373 0.005740 -0.013858
v -0.662973 0.000000 -0.015000
v -0.053373 0.000000 -0.015000
v -0.662973 -0.005740 -0.013858
v -0.053373 -0.005740 -0.013858
v -0.662973 -0.010607 -0.010607
v -0.053373 -0.010607 -0.010607
v -0.662973 -0.013858 -0.005740
v -0.053373 -0.013858 -0.005740
v -0.662973 -0.015000 0.000000
v -0.053373 -0.015000 0.000000
v -0.662973 -0.013858 0.005740
v -0.053373 -0.013858 0.005740
v -0.662973 -0.010607 0.010607
v -0.053373 -0.010607 0.010607
v -0.662973 -0.005740 0.013858
v -0.053373 -0.005740 0.013858
v -0.662973 0.000000 0.015000
v -0.053373 0.000000 0.015000
v -0.662973 0.033484 0.000000
v -0.053373 0.033484 0.000000
v -0.662973 0.005430 0.012900
v -0.053373 0.005430 0.012900
v -0.662973 0.005430 -0.012900
v -0.053373 0.005430 -0.012900
v -0.662973 0.000000 -0.013980
v -0.053373 0.000000 -0.013980
v -0.662973 -0.005350 -0.012916
v -0.053373 -0.005350 -0.012916
v -0.662973 -0.009886 -0.009886
v -0.053373 -0.009886 -0.009886
v -0.662973 -0.012916 -0.005350
v -0.053373 -0.012916 -0.005350
v -0.662973 -0.013980 0.000000
v -0.053373 -0.013980 0.000000
v -0.662973 -0.012916 0.005350
v -0.053373 -0.012916 0.005350
v -0.662973 -0.009886 0.009886
v -0.053373 -0.009886 0.009886
v -0.662973 -0.005350 0.012916
v -0.053373 -0.005350 0.012916
v -0.662973 0.000000 0.013980
v -0.053373 0.000000 0.013980
v -0.048867 0.015319 0.006345
v -0.048867 0.011725 0.011725
v -0.048867 0.006345 0.015319
v -0.048867 -0.000000 0.016581
v -0.048867 -0.006345 0.015319
v -0.048867 -0.011725 0.011725
v -0.048867 -0.015319 0.006345
v -0.048867 -0.016581 -0.000000
v -0.048867 -0.015319 -0.006345
v -0.048867 -0.011725 -0.011725
v -0.048867 -0.006345 -0.015319
v -0.048867 -0.000000 -0.016581
v -0.048867 0.006345 -0.015319
v -0.048867 0.011725 -0.011725
v -0.048867 0.015319 -0.006345
v -0.048867 0.016581 -0.000000
v -0.052130 0.014008 -0.000000
v -0.052130 0.012942 -0.005361
v -0.052130 0.009905 -0.009905
v -0.052130 0.005361 -0.012942
v -0.052130 -0.000000 -0.014008
v -0.052130 -0.005361 -0.012942
v -0.052130 -0.009905 -0.009905
v -0.052130 -0.012942 -0.005361
v -0.052130 -0.014008 -0.000000
v -0.052130 -0.012942 0.005361
v -0.052130 -0.009905 0.009905
v -0.052130 -0.005361 0.012942
v -0.052130 -0.000000 0.014008
v -0.052130 0.005361 0.012942
v -0.052130 0.009905 0.009905
v -0.052130 0.012942 0.005361
v -0.019299 0.015319 -0.006345
v -0.019299 0.016581 -0.000000
v -0.663843 0.014008 0.000000
v -0.019299 0.011725 -0.011725
v -0.019299 0.006345 -0.015319
v -0.019299 -0.000000 -0.016581
v -0.019299 -0.006345 -0.015319
v -0.019299 -0.011725 -0.011725
v -0.019299 -0.015319 -0.006345
v -0.019299 -0.016581 -0.000000
v -0.019299 -0.015319 0.006345
v -0.019299 -0.011725 0.011725
v -0.019299 -0.006345 0.015319
v -0.019299 -0.000000 0.016581
v -0.019299 0.006345 0.015319
v -0.019299 0.011725 0.011725
v -0.019299 0.015319 0.006345
v -0.663843 0.012942 0.005361
v -0.663843 0.009905 0.009905
v -0.663843 0.005361 0.012942
v -0.663843 0.000000 0.014008
v -0.663843 -0.005361 0.012942
v -0.663843 -0.009905 0.009905
v -0.663843 -0.012942 0.005361
v -0.663843 -0.014008 0.000000
v -0.663843 -0.012942 -0.005361
v -0.663843 -0.009905 -0.009905
v -0.663843 -0.005361 -0.012942
v -0.663843 0.000000 -0.014008
v -0.663843 0.005361 -0.012942
v -0.663843 0.009905 -0.009905
v -0.663843 0.012942 -0.005361
v -0.048867 0.017904 -0.000000
v -0.048867 0.016541 -0.006852
v -0.048867 0.006852 -0.016541
v -0.048867 -0.000000 -0.017904
v -0.048867 -0.006852 -0.016541
v -0.048867 -0.012660 -0.012660
v -0.048867 -0.016541 -0.006852
v -0.048867 -0.017904 -0.000000
v -0.048867 -0.016541 0.006852
v -0.048867 -0.012660 0.012660
v -0.048867 -0.006852 0.016541
v -0.048867 -0.000000 0.017904
v -0.048867 0.006852 0.016541
v -0.048867 0.012660 0.012660
v -0.048867 0.016541 0.006852
v -0.048867 0.012660 -0.012660
v -0.052130 0.016541 -0.006852
v -0.052130 0.012660 -0.012660
v -0.052130 0.006852 -0.016541
v -0.052130 -0.000000 -0.017904
v -0.052130 -0.006852 -0.016541
v -0.052130 -0.012660 -0.012660
v -0.052130 -0.016541 -0.006852
v -0.052130 -0.017904 -0.000000
v -0.052130 -0.016541 0.006852
v -0.052130 -0.012660 0.012660
v -0.052130 -0.006852 0.016541
v -0.052130 -0.000000 0.017904
v -0.052130 0.006852 0.016541
v -0.052130 0.012660 0.012660
v -0.052130 0.016541 0.006852
v -0.052130 0.017904 -0.000000
v -0.663843 0.014668 -0.006076
v -0.663843 0.011226 -0.011226
v -0.663843 0.006076 -0.014668
v -0.663843 0.000000 -0.015876
v -0.663843 -0.006076 -0.014668
v -0.663843 -0.011226 -0.011226
v -0.663843 -0.014668 -0.006076
v -0.663843 -0.015876 0.000000
v -0.663843 -0.014668 0.006076
v -0.663843 -0.011226 0.011226
v -0.663843 -0.006076 0.014668
v -0.663843 0.000000 0.015876
v -0.663843 0.006076 0.014668
v -0.663843 0.011226 0.011226
v -0.663843 0.014668 0.006076
v -0.663843 0.015876 0.000000
v -0.698527 0.000000 0.000000
v -0.698527 0.014918 0.000000
v -0.696435 0.015876 0.000000
v -0.697914 0.015596 0.000000
v -0.696435 0.014668 -0.006076
v -0.698527 0.013783 -0.005709
v -0.697914 0.014408 -0.005968
v -0.696435 0.011226 -0.011226
v -0.698527 0.010549 -0.010549
v -0.697914 0.011028 -0.011028
v -0.696435 0.006076 -0.014668
v -0.698527 0.005709 -0.013783
v -0.697914 0.005968 -0.014408
v -0.696435 0.000000 -0.015876
v -0.698527 0.000000 -0.014918
v -0.697914 0.000000 -0.015596
v -0.696435 -0.006076 -0.014668
v -0.698527 -0.005709 -0.013783
v -0.697914 -0.005968 -0.014408
v -0.696435 -0.011226 -0.011226
v -0.698527 -0.010549 -0.010549
v -0.697914 -0.011028 -0.011028
v -0.696435 -0.014668 -0.006076
v -0.698527 -0.013783 -0.005709
v -0.697914 -0.014408 -0.005968
v -0.696435 -0.015876 0.000000
v -0.698527 -0.014918 0.000000
v -0.697914 -0.015596 0.000000
v -0.696435 -0.014668 0.006076
v -0.698527 -0.013783 0.005709
v -0.697914 -0.014408 0.005968
v -0.696435 -0.011226 0.011226
v -0.698527 -0.010549 0.010549
v -0.697914 -0.011028 0.011028
v -0.696435 -0.006076 0.014668
v -0.698527 -0.005709 0.013783
v -0.697914 -0.005968 0.014408
v -0.696435 0.000000 0.015876
v -0.698527 0.000000 0.014918
v -0.697914 0.000000 0.015596
v -0.696435 0.006076 0.014668
v -0.698527 0.005709 0.013783
v -0.697914 0.005968 0.014408
v -0.696435 0.011226 0.011226
v -0.698527 0.010549 0.010549
v -0.697914 0.011028 0.011028
v -0.696435 0.014668 0.006076
v -0.698527 0.013783 0.005709
v -0.697914 0.014408 0.005968
v -0.018856 -0.022331 -0.020517
v -0.070786 -0.000907 0.000907
v -0.018856 -0.020517 -0.022331
v -0.070786 0.000907 -0.000907
v -0.018856 0.020517 0.022331
v -0.018856 0.022331 0.020517
v -0.018856 0.020517 -0.022331
v -0.070786 -0.000907 -0.000907
v -0.018856 0.022331 -0.020517
v -0.070786 0.000907 0.000907
v -0.018856 -0.022331 0.020517
v -0.018856 -0.020517 0.022331
v -0.004194 -0.053493 -0.032742
v -0.004194 0.053493 -0.032742
v -0.011874 -0.053493 0.000000
v -0.011874 0.053493 -0.000000
v 0.003636 0.053493 0.032742
v 0.003636 -0.053493 0.032742
v 0.003636 0.053493 -0.032742
v 0.003636 -0.053493 -0.032742
v -0.004194 -0.053493 0.032742
v -0.004194 0.053493 0.032742
v -0.011868 -0.053493 0.030249
v -0.011868 0.053493 0.030249
v -0.018373 -0.053493 0.023152
v -0.018373 0.053493 0.023152
v -0.022719 -0.053493 0.012530
v -0.022719 0.053493 0.012530
v -0.024245 -0.053493 0.000000
v -0.024245 0.053493 0.000000
v -0.022719 -0.053493 -0.012530
v -0.022719 0.053493 -0.012530
v -0.018373 -0.053493 -0.023152
v -0.018373 0.053493 -0.023152
v -0.011868 -0.053493 -0.030249
v -0.011868 0.053493 -0.030249
v -0.029577 0.033526 -0.007287
v -0.019383 0.033526 -0.007287
v -0.029577 0.027215 -0.003643
v -0.019383 0.027215 -0.003643
v -0.029577 0.027215 0.003643
v -0.019383 0.027215 0.003643
v -0.029577 0.033526 0.007287
v -0.019383 0.033526 0.007287
v -0.029577 0.039836 0.003643
v -0.019383 0.039836 0.003643
v -0.029577 0.039836 -0.003643
v -0.019383 0.039836 -0.003643
v -0.029577 -0.033526 -0.007287
v -0.019383 -0.033526 -0.007287
v -0.029577 -0.027215 -0.003643
v -0.019383 -0.027215 -0.003643
v -0.029577 -0.027215 0.003643
v -0.019383 -0.027215 0.003643
v -0.029577 -0.033526 0.007287
v -0.019383 -0.033526 0.007287
v -0.029577 -0.039836 0.003643
v -0.019383 -0.039836 0.003643
v -0.029577 -0.039836 -0.003643
v -0.019383 -0.039836 -0.003643
v -0.029577 -0.033526 0.000000
v -0.029577 0.033526 0.000000
v -0.053373 1.472863 -0.000500
v -0.053373 1.472863 0.000500
v -0.662973 1.501915 -0.013858
v -0.053373 1.501915 -0.013858
v -0.662973 1.501915 0.013858
v -0.053373 1.501915 0.013858
v -0.662973 1.507655 0.015000
v -0.053373 1.507655 0.015000
v -0.662973 1.513396 0.013858
v -0.053373 1.513396 0.013858
v -0.662973 1.518262 0.010607
v -0.053373 1.518262 0.010607
v -0.662973 1.521513 0.005740
v -0.053373 1.521513 0.005740
v -0.662973 1.522655 -0.000000
v -0.053373 1.522655 -0.000000
v -0.662973 1.521513 -0.005740
v -0.053373 1.521513 -0.005740
v -0.662973 1.518262 -0.010607
v -0.053373 1.518262 -0.010607
v -0.662973 1.513396 -0.013858
v -0.053373 1.513396 -0.013858
v -0.662973 1.507655 -0.015000
v -0.053373 1.507655 -0.015000
v -0.662973 1.474171 -0.000000
v -0.053373 1.474171 -0.000000
v -0.662973 1.502226 -0.012900
v -0.053373 1.502226 -0.012900
v -0.662973 1.502226 0.012900
v -0.053373 1.502226 0.012900
v -0.662973 1.507655 0.013980
v -0.053373 1.507655 0.013980
v -0.662973 1.513005 0.012916
v -0.053373 1.513005 0.012916
v -0.662973 1.517541 0.009886
v -0.053373 1.517541 0.009886
v -0.662973 1.520571 0.005350
v -0.053373 1.520571 0.005350
v -0.662973 1.521636 -0.000000
v -0.053373 1.521636 -0.000000
v -0.662973 1.520571 -0.005350
v -0.053373 1.520571 -0.005350
v -0.662973 1.517541 -0.009886
v -0.053373 1.517541 -0.009886
v -0.662973 1.513005 -0.012916
v -0.053373 1.513005 -0.012916
v -0.662973 1.507655 -0.013980
v -0.053373 1.507655 -0.013980
v -0.048867 1.492336 -0.006345
v -0.048867 1.495931 -0.011725
v -0.048867 1.501310 -0.015319
v -0.048867 1.507655 -0.016581
v -0.048867 1.514001 -0.015319
v -0.048867 1.519380 -0.011725
v -0.048867 1.522974 -0.006345
v -0.048867 1.524236 0.000000
v -0.048867 1.522974 0.006345
v -0.048867 1.519380 0.011725
v -0.048867 1.514001 0.015319
v -0.048867 1.507655 0.016581
v -0.048867 1.501310 0.015319
v -0.048867 1.495931 0.011725
v -0.048867 1.492336 0.006345
v -0.048867 1.491074 0.000000
v -0.052130 1.493647 0.000000
v -0.052130 1.494714 0.005361
v -0.052130 1.497750 0.009905
v -0.052130 1.502295 0.012942
v -0.052130 1.507655 0.014008
v -0.052130 1.513016 0.012942
v -0.052130 1.517560 0.009905
v -0.052130 1.520597 0.005361
v -0.052130 1.521663 0.000000
v -0.052130 1.520597 -0.005361
v -0.052130 1.517560 -0.009905
v -0.052130 1.513016 -0.012942
v -0.052130 1.507655 -0.014008
v -0.052130 1.502295 -0.012942
v -0.052130 1.497750 -0.009905
v -0.052130 1.494714 -0.005361
v -0.019299 1.492336 0.006345
v -0.019299 1.491074 0.000000
v -0.663843 1.493647 -0.000000
v -0.019299 1.495931 0.011725
v -0.019299 1.501310 0.015319
v -0.019299 1.507655 0.016581
v -0.019299 1.514001 0.015319
v -0.019299 1.519380 0.011725
v -0.019299 1.522974 0.006345
v -0.019299 1.524236 0.000000
v -0.019299 1.522974 -0.006345
v -0.019299 1.519380 -0.011725
v -0.019299 1.514001 -0.015319
v -0.019299 1.507655 -0.016581
v -0.019299 1.501310 -0.015319
v -0.019299 1.495931 -0.011725
v -0.019299 1.492336 -0.006345
v -0.663843 1.494714 -0.005361
v -0.663843 1.497750 -0.009905
v -0.663843 1.502295 -0.012942
v -0.663843 1.507655 -0.014008
v -0.663843 1.513016 -0.012942
v -0.663843 1.517560 -0.009905
v -0.663843 1.520597 -0.005361
v -0.663843 1.521663 -0.000000
v -0.663843 1.520597 0.005361
v -0.663843 1.517560 0.009905
v -0.663843 1.513016 0.012942
v -0.663843 1.507655 0.014008
v -0.663843 1.502295 0.012942
v -0.663843 1.497750 0.009905
v -0.663843 1.494714 0.005361
v -0.048867 1.489751 0.000000
v -0.048867 1.491114 0.006852
v -0.048867 1.500804 0.016541
v -0.048867 1.507655 0.017904
v -0.048867 1.514507 0.016541
v -0.048867 1.520315 0.012660
v -0.048867 1.524196 0.006852
v -0.048867 1.525559 0.000000
v -0.048867 1.524196 -0.006852
v -0.048867 1.520315 -0.012660
v -0.048867 1.514507 -0.016541
v -0.048867 1.507655 -0.017904
v -0.048867 1.500804 -0.016541
v -0.048867 1.494995 -0.012660
v -0.048867 1.491114 -0.006852
v -0.048867 1.494995 0.012660
v -0.052130 1.491114 0.006852
v -0.052130 1.494995 0.012660
v -0.052130 1.500804 0.016541
v -0.052130 1.507655 0.017904
v -0.052130 1.514507 0.016541
v -0.052130 1.520315 0.012660
v -0.052130 1.524196 0.006852
v -0.052130 1.525559 0.000000
v -0.052130 1.524196 -0.006852
v -0.052130 1.520315 -0.012660
v -0.052130 1.514507 -0.016541
v -0.052130 1.507655 -0.017904
v -0.052130 1.500804 -0.016541
v -0.052130 1.494995 -0.012660
v -0.052130 1.491114 -0.006852
v -0.052130 1.489751 0.000000
v -0.663843 1.492988 0.006076
v -0.663843 1.496429 0.011226
v -0.663843 1.501580 0.014668
v -0.663843 1.507655 0.015876
v -0.663843 1.513731 0.014668
v -0.663843 1.518881 0.011226
v -0.663843 1.522323 0.006076
v -0.663843 1.523531 -0.000000
v -0.663843 1.522323 -0.006076
v -0.663843 1.518881 -0.011226
v -0.663843 1.513731 -0.014668
v -0.663843 1.507655 -0.015876
v -0.663843 1.501580 -0.014668
v -0.663843 1.496429 -0.011226
v -0.663843 1.492988 -0.006076
v -0.663843 1.491779 -0.000000
v -0.698527 1.507655 -0.000000
v -0.698527 1.492737 -0.000000
v -0.696435 1.491779 -0.000000
v -0.697914 1.492060 -0.000000
v -0.696435 1.492988 0.006076
v -0.698527 1.493873 0.005709
v -0.697914 1.493247 0.005968
v -0.696435 1.496429 0.011226
v -0.698527 1.497107 0.010549
v -0.697914 1.496628 0.011028
v -0.696435 1.501580 0.014668
v -0.698527 1.501946 0.013783
v -0.697914 1.501687 0.014408
v -0.696435 1.507655 0.015876
v -0.698527 1.507655 0.014918
v -0.697914 1.507655 0.015596
v -0.696435 1.513731 0.014668
v -0.698527 1.513364 0.013783
v -0.697914 1.513623 0.014408
v -0.696435 1.518881 0.011226
v -0.698527 1.518204 0.010549
v -0.697914 1.518683 0.011028
v -0.696435 1.522323 0.006076
v -0.698527 1.521438 0.005709
v -0.697914 1.522064 0.005968
v -0.696435 1.523531 -0.000000
v -0.698527 1.522573 -0.000000
v -0.697914 1.523251 -0.000000
v -0.696435 1.522323 -0.006076
v -0.698527 1.521438 -0.005709
v -0.697914 1.522064 -0.005968
v -0.696435 1.518881 -0.011226
v -0.698527 1.518204 -0.010549
v -0.697914 1.518683 -0.011028
v -0.696435 1.513731 -0.014668
v -0.698527 1.513364 -0.013783
v -0.697914 1.513623 -0.014408
v -0.696435 1.507655 -0.015876
v -0.698527 1.507655 -0.014918
v -0.697914 1.507655 -0.015596
v -0.696435 1.501580 -0.014668
v -0.698527 1.501946 -0.013783
v -0.697914 1.501687 -0.014408
v -0.696435 1.496429 -0.011226
v -0.698527 1.497107 -0.010549
v -0.697914 1.496628 -0.011028
v -0.696435 1.492988 -0.006076
v -0.698527 1.493873 -0.005709
v -0.697914 1.493247 -0.005968
v -0.018856 1.529986 0.020517
v -0.070786 1.508562 -0.000907
v -0.018856 1.528172 0.022331
v -0.070786 1.506748 0.000907
v -0.018856 1.487138 -0.022331
v -0.018856 1.485324 -0.020517
v -0.018856 1.487138 0.022331
v -0.070786 1.508562 0.000907
v -0.018856 1.485324 0.020517
v -0.070786 1.506748 -0.000907
v -0.018856 1.529986 -0.020517
v -0.018856 1.528172 -0.022331
v -0.004194 1.561148 0.032742
v -0.004194 1.454162 0.032742
v -0.011874 1.561148 0.000000
v -0.011874 1.454162 -0.000000
v 0.003636 1.454162 -0.032742
v 0.003636 1.561148 -0.032742
v 0.003636 1.454162 0.032742
v 0.003636 1.561148 0.032742
v -0.004194 1.561148 -0.032742
v -0.004194 1.454162 -0.032742
v -0.011868 1.561148 -0.030249
v -0.011868 1.454162 -0.030249
v -0.018373 1.561148 -0.023152
v -0.018373 1.454162 -0.023152
v -0.022719 1.561148 -0.012530
v -0.022719 1.454162 -0.012530
v -0.024245 1.561148 0.000000
v -0.024245 1.454162 -0.000000
v -0.022719 1.561148 0.012530
v -0.022719 1.454162 0.012530
v -0.018373 1.561148 0.023152
v -0.018373 1.454162 0.023152
v -0.011868 1.561148 0.030249
v -0.011868 1.454162 0.030249
v -0.029577 1.474129 0.007287
v -0.019383 1.474129 0.007287
v -0.029577 1.480440 0.003643
v -0.019383 1.480440 0.003643
v -0.029577 1.480440 -0.003643
v -0.019383 1.480440 -0.003643
v -0.029577 1.474129 -0.007287
v -0.019383 1.474129 -0.007287
v -0.029577 1.467819 -0.003643
v -0.019383 1.467819 -0.003643
v -0.029577 1.467819 0.003643
v -0.019383 1.467819 0.003643
v -0.029577 1.541181 0.007287
v -0.019383 1.541181 0.007287
v -0.029577 1.534871 0.003643
v -0.019383 1.534871 0.003643
v -0.029577 1.534871 -0.003643
v -0.019383 1.534871 -0.003643
v -0.029577 1.541181 -0.007287
v -0.019383 1.541181 -0.007287
v -0.029577 1.547491 -0.003643
v -0.019383 1.547491 -0.003643
v -0.029577 1.547491 0.003643
v -0.019383 1.547491 0.003643
vn -1.0000 -0.0000 -0.0000
vn -0.0000 -0.0001 -1.0000
vn -0.0000 0.0001 -1.0000
vn -0.0001 0.0001 -1.0000
vn 1.0000 -0.0000 -0.0000
vn -0.0000 -0.0001 1.0000
vn -0.0000 0.0001 1.0000
vn -0.0000 0.4177 0.9086
vn -0.0000 0.4177 -0.9086
vn -0.0000 -0.0000 -1.0000
vn -0.0000 -0.3827 -0.9239
vn -0.0000 -0.7071 -0.7071
vn -0.0000 -0.9239 -0.3827
vn -0.0000 -1.0000 -0.0000
vn -0.0000 -0.9239 0.3827
vn -0.0000 -0.7071 0.7071
vn -0.0000 -0.3827 0.9239
vn -0.0000 -0.0000 1.0000
vn 0.0001 0.4177 0.9086
vn -0.0000 -0.4177 -0.9086
vn -0.0000 -0.4178 -0.9086
vn -0.0000 -0.4178 0.9086
vn -0.0000 -0.4178 0.9085
vn -0.0000 -0.0014 1.0000
vn -0.0000 0.3827 0.9239
vn -0.0000 0.7071 0.7071
vn -0.0000 0.9239 0.3827
vn -0.0000 1.0000 -0.0000
vn -0.0000 0.9239 -0.3827
vn -0.0000 0.7071 -0.7071
vn -0.0000 0.3827 -0.9239
vn -0.0000 -0.0014 -1.0000
vn 0.0001 -0.4177 -0.9086
vn -1.0000 -0.0000 0.0001
vn -0.0082 0.9238 -0.3827
vn -0.4118 0.9113 -0.0000
vn -0.0082 1.0000 -0.0000
vn -0.4118 0.8419 -0.3487
vn -0.9971 0.0767 -0.0000
vn -0.0082 0.7071 -0.7071
vn -0.4118 0.6444 -0.6444
vn -0.9970 0.0710 -0.0294
vn -0.0082 0.3826 -0.9239
vn -0.9971 0.0294 -0.0709
vn -0.9971 0.0543 -0.0542
vn -0.4118 -0.0000 -0.9113
vn -0.4118 0.3487 -0.8419
vn -0.9971 -0.0000 -0.0767
vn -0.0082 -0.3827 -0.9238
vn -0.0082 -0.0000 -1.0000
vn -0.4118 -0.3487 -0.8419
vn -0.4118 -0.6444 -0.6444
vn -0.9970 -0.0294 -0.0710
vn -0.0082 -0.9239 -0.3827
vn -0.0082 -0.7071 -0.7071
vn -0.9971 -0.0709 -0.0294
vn -0.9970 -0.0543 -0.0543
vn -0.0082 -1.0000 -0.0000
vn -0.4118 -0.8419 -0.3487
vn -0.4119 -0.9112 -0.0000
vn -0.4118 -0.8419 0.3487
vn -0.9970 -0.0710 0.0294
vn -0.9970 -0.0768 -0.0000
vn -0.0082 -0.7071 0.7071
vn -0.0082 -0.9238 0.3827
vn -0.9970 -0.0543 0.0543
vn -0.4119 -0.3487 0.8419
vn -0.4118 -0.6444 0.6444
vn -0.9971 -0.0294 0.0709
vn -0.0082 -0.3827 0.9238
vn -0.4118 -0.0000 0.9113
vn -0.0082 0.3827 0.9238
vn -0.0082 -0.0000 1.0000
vn -0.9971 0.0293 0.0709
vn -0.9970 -0.0000 0.0768
vn -0.4118 0.6444 0.6444
vn -0.4118 0.3487 0.8419
vn -0.0082 0.7071 0.7071
vn -0.4118 0.8419 0.3487
vn -0.9970 0.0709 0.0294
vn -0.9970 0.0543 0.0543
vn -0.0082 0.9239 0.3827
vn -0.5039 -0.6108 -0.6108
vn -0.5039 0.6108 0.6108
vn -0.5039 0.6108 -0.6108
vn -0.5039 -0.6108 0.6108
vn -0.1586 -0.0000 0.9873
vn -0.5602 -0.0000 0.8283
vn -0.1587 -0.0000 0.9873
vn -0.8528 -0.0000 0.5223
vn -0.9693 -0.0000 0.2459
vn -0.9693 -0.0000 -0.2459
vn -0.8528 -0.0000 -0.5223
vn -0.5602 -0.0000 -0.8283
vn -0.1586 -0.0000 -0.9873
vn -0.1587 -0.0000 -0.9873
vn -0.0000 -0.5000 -0.8660
vn -0.0000 -0.5000 0.8660
vn -0.0000 0.5000 0.8660
vn -0.0000 0.5000 -0.8660
vn -0.0001 -0.0001 -1.0000
vn -0.0000 -0.4177 0.9086
vn -0.0000 0.4178 0.9086
vn -0.0000 0.4178 -0.9086
vn -0.0000 0.4178 -0.9085
vn -0.0000 0.0014 -1.0000
vn -0.0000 0.0014 1.0000
vn -0.4119 -0.8419 0.3487
vn -0.4118 -0.9113 -0.0000
vn -0.9970 -0.0768 -0.0001
vn -0.0082 -0.9239 0.3827
vn -0.4118 -0.6443 0.6444
vn -0.9971 -0.0709 0.0293
vn -0.0082 -0.3826 0.9239
vn -0.4118 -0.3487 0.8419
vn -0.4119 -0.0000 0.9112
vn -0.9970 -0.0294 0.0709
vn -0.9971 0.0294 0.0709
vn -0.9971 -0.0000 0.0767
vn -0.9971 0.0542 0.0542
vn -0.0082 0.9238 0.3827
vn -0.4119 0.6443 0.6443
vn -0.4118 0.8419 0.3488
vn -0.4119 0.9112 -0.0000
vn -0.0083 1.0000 -0.0000
vn -0.9970 0.0768 -0.0000
vn -0.9971 0.0709 -0.0293
vn -0.0082 0.3827 -0.9239
vn -0.4119 -0.0000 -0.9112
vn -0.9970 -0.0294 -0.0709
vn -0.0082 -0.9238 -0.3827
vn -0.9971 -0.0708 -0.0294
vn -0.4119 -0.8419 -0.3487
vn -0.5039 0.6108 0.6107
vn -0.5040 0.6108 0.6107
vn -0.5040 -0.6108 -0.6107
vn -0.5039 -0.6108 -0.6107
vn -0.5040 -0.6108 0.6107
vn -0.5039 -0.6108 0.6107
vn -0.5039 0.6108 -0.6107
vt 0.081494 0.068797
vt 0.081494 0.050332
vt 0.438736 0.944894
vt 0.061554 0.055106
vt 0.438736 0.055106
vt 0.101242 0.068797
vt 0.101242 0.050332
vt 0.939155 0.944894
vt 0.561973 0.055106
vt 0.939155 0.055106
vt 0.939155 0.035321
vt 0.438736 0.035321
vt 0.061554 0.035321
vt 0.438736 0.031700
vt 0.061554 0.031699
vt 0.438736 0.028078
vt 0.061554 0.028078
vt 0.438736 0.024457
vt 0.061554 0.024457
vt 0.438736 0.020836
vt 0.061554 0.020836
vt 0.438736 0.017214
vt 0.939155 0.017214
vt 0.561973 0.020836
vt 0.561973 0.017214
vt 0.939155 0.020836
vt 0.561973 0.024457
vt 0.939155 0.024457
vt 0.561973 0.028078
vt 0.939155 0.028078
vt 0.561973 0.031699
vt 0.561973 0.035321
vt 0.101242 0.049678
vt 0.081494 0.050303
vt 0.101242 0.050303
vt 0.081494 0.049678
vt 0.081494 0.049557
vt 0.081494 0.049438
vt 0.101242 0.049557
vt 0.081494 0.049337
vt 0.101242 0.049438
vt 0.081494 0.049270
vt 0.101242 0.049337
vt 0.081494 0.049246
vt 0.101242 0.049270
vt 0.101242 0.049246
vt 0.101242 0.049685
vt 0.081494 0.049685
vt 0.081494 0.049430
vt 0.101242 0.049430
vt 0.081494 0.049321
vt 0.101242 0.049321
vt 0.081494 0.049249
vt 0.101242 0.049249
vt 0.081494 0.049224
vt 0.101242 0.049224
vt 0.101282 0.049337
vt 0.101282 0.049405
vt 0.101282 0.049438
vt 0.081466 0.049438
vt 0.081466 0.049557
vt 0.101388 0.049898
vt 0.101388 0.049956
vt 0.101388 0.049927
vt 0.101282 0.049557
vt 0.101388 0.049296
vt 0.101388 0.049189
vt 0.101388 0.049216
vt 0.101282 0.049710
vt 0.101282 0.049677
vt 0.081466 0.049308
vt 0.081466 0.049422
vt 0.101282 0.049778
vt 0.101388 0.049405
vt 0.101388 0.049276
vt 0.101282 0.049956
vt 0.101282 0.049846
vt 0.101282 0.049869
vt 0.101282 0.049839
vt 0.081466 0.049337
vt 0.081466 0.049231
vt 0.101388 0.049926
vt 0.101282 0.049926
vt 0.101388 0.049699
vt 0.101388 0.049839
vt 0.101388 0.049818
vt 0.081466 0.049869
vt 0.081466 0.049846
vt 0.081466 0.049778
vt 0.081466 0.049677
vt 0.101282 0.049269
vt 0.081466 0.049269
vt 0.101282 0.049246
vt 0.081466 0.049246
vt 0.102345 0.049927
vt 0.102345 0.049898
vt 0.102345 0.049818
vt 0.102345 0.049699
vt 0.101388 0.049557
vt 0.102345 0.049557
vt 0.101388 0.049416
vt 0.102345 0.049416
vt 0.102345 0.049296
vt 0.102345 0.049216
vt 0.101388 0.049188
vt 0.102345 0.049188
vt 0.101388 0.049159
vt 0.101282 0.049189
vt 0.101282 0.049159
vt 0.101282 0.049276
vt 0.081466 0.049204
vt 0.101388 0.049710
vt 0.081466 0.049693
vt 0.081466 0.049807
vt 0.081466 0.049884
vt 0.081466 0.049911
vt 0.080410 0.049884
vt 0.080362 0.049905
vt 0.080410 0.049911
vt 0.080362 0.049878
vt 0.080343 0.049890
vt 0.080410 0.049807
vt 0.080362 0.049803
vt 0.080343 0.049864
vt 0.080410 0.049693
vt 0.080343 0.049685
vt 0.080343 0.049792
vt 0.080362 0.049557
vt 0.080362 0.049690
vt 0.080343 0.049557
vt 0.080410 0.049422
vt 0.080410 0.049557
vt 0.080362 0.049425
vt 0.080362 0.049312
vt 0.080343 0.049430
vt 0.080410 0.049231
vt 0.080410 0.049308
vt 0.080343 0.049251
vt 0.080343 0.049323
vt 0.080410 0.049204
vt 0.080362 0.049237
vt 0.080362 0.049210
vt 0.080343 0.049225
vt 0.102360 0.049060
vt 0.100677 0.049578
vt 0.102360 0.049101
vt 0.102360 0.050055
vt 0.100677 0.049537
vt 0.102360 0.050014
vt 0.102586 0.048367
vt 0.102835 0.048367
vt 0.102586 0.048367
vt 0.102235 0.048367
vt 0.102185 0.048367
vt 0.102375 0.050748
vt 0.102586 0.050748
vt 0.102586 0.050748
vt 0.102235 0.050748
vt 0.102185 0.050748
vt 0.102375 0.048367
vt 0.102835 0.050748
vt 0.103088 0.050748
vt 0.103088 0.048367
vt 0.102343 0.050304
vt 0.102012 0.050163
vt 0.102012 0.050304
vt 0.102343 0.050163
vt 0.102012 0.050444
vt 0.102343 0.050444
vt 0.102012 0.048811
vt 0.102012 0.048671
vt 0.102012 0.048952
vt 0.102343 0.048811
vt 0.102343 0.048952
vt 0.102343 0.048671
vt 0.102012 0.068825
vt 0.102012 0.068965
vt 0.061554 0.964679
vt 0.061554 0.944894
vt 0.561973 0.964679
vt 0.561973 0.944894
vt 0.939155 0.964679
vt 0.561973 0.968300
vt 0.939155 0.968300
vt 0.561973 0.971922
vt 0.939155 0.971922
vt 0.561973 0.975543
vt 0.939155 0.975543
vt 0.561973 0.979164
vt 0.939155 0.979164
vt 0.561973 0.982785
vt 0.061554 0.982786
vt 0.438736 0.979164
vt 0.438736 0.982786
vt 0.061554 0.979164
vt 0.438736 0.975543
vt 0.061554 0.975543
vt 0.438736 0.971922
vt 0.061554 0.971922
vt 0.438736 0.968300
vt 0.438736 0.964679
vt 0.101242 0.069450
vt 0.081494 0.068826
vt 0.101242 0.068826
vt 0.081494 0.069450
vt 0.081494 0.069571
vt 0.081494 0.069690
vt 0.101242 0.069571
vt 0.081494 0.069791
vt 0.101242 0.069690
vt 0.081494 0.069858
vt 0.101242 0.069791
vt 0.081494 0.069882
vt 0.101242 0.069858
vt 0.101242 0.069882
vt 0.101242 0.069443
vt 0.081494 0.069443
vt 0.081494 0.069699
vt 0.101242 0.069699
vt 0.101242 0.069807
vt 0.081494 0.069807
vt 0.101242 0.069879
vt 0.081494 0.069905
vt 0.081494 0.069879
vt 0.101242 0.069905
vt 0.101282 0.069853
vt 0.101282 0.069690
vt 0.101282 0.069791
vt 0.081466 0.069571
vt 0.081466 0.069706
vt 0.101388 0.069230
vt 0.101388 0.069172
vt 0.101388 0.069202
vt 0.101282 0.069724
vt 0.101282 0.069571
vt 0.101388 0.069912
vt 0.101388 0.069853
vt 0.101388 0.069939
vt 0.101282 0.069452
vt 0.081466 0.069690
vt 0.081466 0.069821
vt 0.101282 0.069289
vt 0.101282 0.069351
vt 0.101388 0.069712
vt 0.101388 0.069832
vt 0.101282 0.069172
vt 0.101282 0.069283
vt 0.101282 0.069259
vt 0.101282 0.069203
vt 0.081466 0.069791
vt 0.081466 0.069897
vt 0.101388 0.069289
vt 0.101388 0.069430
vt 0.101388 0.069310
vt 0.081466 0.069259
vt 0.081466 0.069283
vt 0.081466 0.069351
vt 0.081466 0.069452
vt 0.101282 0.069859
vt 0.081466 0.069859
vt 0.101282 0.069883
vt 0.081466 0.069883
vt 0.102345 0.069202
vt 0.102345 0.069230
vt 0.102345 0.069310
vt 0.102345 0.069430
vt 0.101388 0.069571
vt 0.102345 0.069571
vt 0.102345 0.069712
vt 0.102345 0.069832
vt 0.102345 0.069912
vt 0.101388 0.069940
vt 0.102345 0.069940
vt 0.101388 0.069970
vt 0.101282 0.069939
vt 0.101388 0.069724
vt 0.101388 0.069203
vt 0.101388 0.069418
vt 0.101282 0.069418
vt 0.101282 0.069970
vt 0.081466 0.069924
vt 0.081466 0.069436
vt 0.081466 0.069321
vt 0.081466 0.069245
vt 0.081466 0.069218
vt 0.080410 0.069218
vt 0.080362 0.069250
vt 0.080362 0.069224
vt 0.080343 0.069239
vt 0.080410 0.069321
vt 0.080410 0.069245
vt 0.080362 0.069326
vt 0.080343 0.069264
vt 0.080410 0.069436
vt 0.080362 0.069438
vt 0.080343 0.069336
vt 0.080362 0.069571
vt 0.080343 0.069444
vt 0.080410 0.069706
vt 0.080410 0.069571
vt 0.080343 0.069698
vt 0.080343 0.069571
vt 0.080410 0.069821
vt 0.080362 0.069704
vt 0.080343 0.069806
vt 0.080410 0.069897
vt 0.080362 0.069816
vt 0.080362 0.069892
vt 0.080362 0.069918
vt 0.080343 0.069878
vt 0.080410 0.069924
vt 0.080343 0.069903
vt 0.102360 0.070068
vt 0.100677 0.069551
vt 0.102360 0.070028
vt 0.102360 0.069074
vt 0.100677 0.069591
vt 0.102360 0.069114
vt 0.102586 0.070762
vt 0.102835 0.070762
vt 0.102586 0.070762
vt 0.102235 0.070762
vt 0.102185 0.070762
vt 0.102375 0.068380
vt 0.102586 0.068380
vt 0.102586 0.068380
vt 0.102235 0.068380
vt 0.102185 0.068380
vt 0.102375 0.070762
vt 0.102835 0.068380
vt 0.103088 0.068380
vt 0.103088 0.070762
vt 0.102343 0.068825
vt 0.102343 0.068965
vt 0.102012 0.068684
vt 0.102343 0.068684
vt 0.102012 0.070317
vt 0.102012 0.070458
vt 0.102012 0.070177
vt 0.102343 0.070317
vt 0.102343 0.070177
vt 0.102343 0.070458
vt 0.061554 0.017214
vt 0.939155 0.031699
vt 0.939155 0.982785
vt 0.061554 0.968300
s 5
g street_banner_01_large_metal_rough
usemtl metal_rough
f 81/57/1 145/58/1 82/59/1
s 6
f 114/60/5 154/61/5 115/61/5
s 7
f 69/62/5 119/63/5 70/64/5
s 5
f 145/58/1 83/65/1 82/59/1
s 7
f 60/66/5 127/67/5 61/68/5
s 5
f 83/65/1 147/69/1 84/70/1
s 6
f 114/60/5 156/71/5 155/72/5
s 5
f 147/69/1 85/73/1 84/70/1
s 7
f 60/66/5 129/74/5 128/75/5
s 5
f 150/76/1 72/77/1 71/78/1
f 148/79/1 86/77/1 85/73/1
f 72/77/1 136/79/1 73/73/1
s 6
f 113/80/5 157/81/5 156/71/5
s 8
f 148/79/26 133/82/27 149/83/27
s 5
f 136/79/1 74/70/1 73/73/1
s 7
f 67/84/5 134/85/5 68/86/5
s 9
f 86/77/27 89/87/28 104/88/27
f 105/89/26 86/77/27 104/88/27
f 84/70/25 105/89/26 106/90/25
f 83/65/18 106/90/25 107/61/18
f 82/59/17 107/61/18 108/60/17
f 81/57/16 108/60/17 109/80/16
f 80/91/15 109/80/16 110/92/15
f 79/93/14 110/92/15 111/94/14
f 112/92/13 79/93/14 111/94/14
f 77/57/12 112/92/13 113/80/12
f 76/59/11 113/80/12 114/60/11
f 75/65/10 114/60/11 115/61/10
f 74/70/31 115/61/10 116/90/31
f 73/73/30 116/90/31 117/89/30
f 72/77/29 117/89/30 118/88/29
f 89/87/28 72/77/29 118/88/29
s 10
f 88/95/28 69/62/29 70/64/28
f 87/96/29 68/86/30 69/62/29
f 90/97/30 67/84/31 68/86/30
f 91/98/31 66/99/10 67/84/31
f 92/100/10 65/101/11 66/99/10
f 93/102/11 64/66/12 65/101/11
f 94/103/12 63/68/13 64/66/12
f 95/104/13 62/105/14 63/68/13
f 96/106/14 61/68/15 62/105/14
f 97/104/15 60/66/16 61/68/15
f 98/103/16 59/101/17 60/66/16
f 99/102/17 58/99/18 59/101/17
f 100/100/18 57/84/25 58/99/18
f 101/98/25 56/86/26 57/84/25
f 102/97/26 55/62/27 56/86/26
f 103/96/27 70/64/28 55/62/27
s 7
f 61/68/5 126/107/5 62/105/5
s 5
f 143/108/1 81/57/1 80/91/1
f 142/109/1 80/91/1 79/93/1
s 7
f 65/101/5 122/99/5 66/99/5
f 62/105/5 125/67/5 63/68/5
s 5
f 78/91/1 142/109/1 79/93/1
f 140/110/1 78/91/1 77/57/1
f 139/58/1 77/57/1 76/59/1
s 7
f 70/64/5 133/82/5 55/62/5
s 6
f 112/92/5 158/111/5 157/81/5
s 5
f 138/65/1 76/59/1 75/65/1
f 74/70/1 138/65/1 75/65/1
s 7
f 57/84/5 130/99/5 58/99/5
s 8
f 123/74/11 140/110/12 139/58/11
f 143/108/15 128/75/16 144/110/16
f 147/69/25 132/85/26 148/79/26
f 122/99/10 139/58/11 138/65/10
f 126/107/14 143/108/15 142/109/14
f 130/99/18 147/69/25 146/65/18
f 119/63/28 135/83/29 150/76/28
f 128/75/16 145/58/17 144/110/16
f 124/75/12 141/108/13 140/110/12
f 133/82/27 150/76/28 149/83/27
f 134/85/30 137/69/31 136/79/30
f 129/74/17 146/65/18 145/58/17
f 125/67/13 142/109/14 141/108/13
f 120/82/29 136/79/30 135/83/29
f 121/112/31 138/65/10 137/69/31
s 6
f 110/92/5 158/111/5 111/94/5
s 7
f 55/62/5 132/85/5 56/86/5
f 59/101/5 130/99/5 129/74/5
s 6
f 109/80/5 159/81/5 110/92/5
s 7
f 67/84/5 122/99/5 121/112/5
s 6
f 108/60/5 160/71/5 109/80/5
s 7
f 56/86/5 131/112/5 57/84/5
s 6
f 107/61/5 161/72/5 108/60/5
s 7
f 68/86/5 120/82/5 69/62/5
f 63/68/5 124/75/5 64/66/5
f 64/66/5 123/74/5 65/101/5
s 5
f 86/77/1 150/76/1 71/78/1
s 6
f 115/61/5 153/113/5 116/90/5
f 116/90/5 152/114/5 117/89/5
f 89/87/5 165/115/5 104/88/5
f 117/89/5 151/115/5 118/88/5
f 104/88/5 164/114/5 105/89/5
f 118/88/5 166/116/5 89/87/5
f 106/90/5 164/114/5 163/113/5
f 106/90/5 162/61/5 107/61/5
s 11
f 171/117/35 170/118/36 169/119/37
f 173/120/38 168/121/39 170/118/36
f 174/122/40 173/120/38 171/117/35
f 176/123/41 172/124/42 173/120/38
f 177/125/43 176/123/41 174/122/40
f 176/123/41 178/126/44 175/127/45
f 177/125/43 182/128/46 179/129/47
f 179/129/47 181/130/48 178/126/44
f 183/131/49 182/128/46 180/132/50
f 185/133/51 181/130/48 182/128/46
f 183/131/49 188/134/52 185/133/51
f 188/134/52 184/135/53 185/133/51
f 189/136/54 188/134/52 186/137/55
f 188/134/52 190/138/56 187/139/57
f 192/140/58 191/141/59 189/136/54
f 194/142/60 190/138/56 191/141/59
f 192/140/58 197/141/61 194/142/60
f 194/142/60 196/138/62 193/143/63
f 198/137/64 197/141/61 195/136/65
f 197/141/61 199/139/66 196/138/62
f 198/137/64 203/133/67 200/134/68
f 200/134/68 202/135/69 199/139/66
f 201/131/70 206/128/71 203/133/67
f 206/128/71 202/135/69 203/133/67
f 207/125/72 206/128/71 204/132/73
f 206/128/71 208/126/74 205/130/75
f 207/125/72 212/123/76 209/129/77
f 212/123/76 208/126/74 209/129/77
f 210/122/78 215/120/79 212/123/76
f 212/123/76 214/124/80 211/127/81
f 213/117/82 170/118/36 215/120/79
f 215/120/79 168/121/39 214/124/80
f 166/116/28 171/117/35 169/119/37
f 168/121/39 167/130/1 214/124/80
f 172/124/42 167/130/1 168/121/39
f 165/115/27 169/119/37 213/117/82
f 151/115/29 174/122/40 171/117/35
f 175/127/45 167/130/1 172/124/42
f 174/122/40 153/113/31 177/125/43
f 178/126/44 167/130/1 175/127/45
f 153/113/31 180/132/50 177/125/43
f 181/130/48 167/130/1 178/126/44
f 154/61/10 183/131/49 180/132/50
f 184/135/53 167/130/1 181/130/48
f 155/72/11 186/137/55 183/131/49
f 187/139/57 167/130/1 184/135/53
f 186/137/55 157/81/13 189/136/54
f 190/138/56 167/130/1 187/139/57
f 157/81/13 192/140/58 189/136/54
f 193/143/63 167/130/1 190/138/56
f 158/111/14 195/136/65 192/140/58
f 196/138/62 167/130/1 193/143/63
f 159/81/15 198/137/64 195/136/65
f 199/139/66 167/130/1 196/138/62
f 160/71/16 201/131/70 198/137/64
f 202/135/69 167/130/1 199/139/66
f 161/72/17 204/132/73 201/131/70
f 205/130/75 167/130/1 202/135/69
f 162/61/18 207/125/72 204/132/73
f 208/126/74 167/130/1 205/130/75
f 163/113/25 210/122/78 207/125/72
f 211/127/81 167/130/1 208/126/74
f 164/114/26 213/117/82 210/122/78
f 214/124/80 167/130/1 211/127/81
s 12
f 216/144/83 219/145/83 218/146/83
s 13
f 218/146/30 219/145/30 221/147/30
s 14
f 217/148/16 216/144/16 220/149/16
s 15
f 221/147/84 217/148/84 220/149/84
s 16
f 223/148/85 224/147/85 222/149/85
s 17
f 224/147/26 225/145/26 227/146/26
s 18
f 223/148/12 222/149/12 226/144/12
s 19
f 225/145/86 226/144/86 227/146/86
s 20
f 250/150/14 228/151/14 230/152/14
f 242/153/14 244/154/14 230/152/14
s 21
f 241/155/28 239/156/28 231/157/28
f 243/158/28 241/155/28 231/157/28
f 245/159/28 243/158/28 231/157/28
f 247/158/28 245/159/28 231/157/28
s 20
f 238/150/14 240/160/14 230/152/14
s 21
f 249/155/28 247/158/28 231/157/28
s 22
f 237/161/87 238/150/88 236/151/89
f 239/156/88 240/160/90 238/150/88
f 241/155/90 242/153/91 240/160/90
f 243/158/91 244/154/1 242/153/91
f 245/159/1 246/153/92 244/154/1
f 247/158/92 248/160/93 246/153/92
s 20
f 240/160/14 242/153/14 230/152/14
s 22
f 249/155/93 250/150/94 248/160/93
f 251/156/94 228/151/95 250/150/94
s 21
f 237/161/28 229/161/28 231/157/28
s 20
f 228/151/14 236/151/14 230/152/14
f 236/151/14 238/150/14 230/152/14
f 244/154/14 246/153/14 230/152/14
s 21
f 237/161/28 234/162/28 229/161/28
s 22
f 229/161/96 235/163/10 228/151/95
f 236/151/89 232/162/18 237/161/87
s 20
f 228/151/14 233/163/14 236/151/14
s 23
f 234/162/5 233/163/5 235/163/5
s 21
f 239/156/28 237/161/28 231/157/28
f 229/161/28 251/156/28 231/157/28
f 251/156/28 249/155/28 231/157/28
s 20
f 246/153/14 248/160/14 230/152/14
f 248/160/14 250/150/14 230/152/14
s 24
f 253/164/97 254/165/97 252/166/97
s 25
f 255/167/14 256/165/14 254/165/14
s 26
f 257/167/98 258/166/98 256/165/98
s 27
f 259/164/99 260/168/99 258/166/99
s 28
f 261/169/28 262/168/28 260/168/28
s 29
f 263/169/100 252/166/100 262/168/100
s 30
f 264/170/1 274/171/1 276/170/1
s 31
f 266/172/100 265/173/100 264/170/100
s 32
f 268/172/28 267/174/28 266/172/28
s 33
f 270/170/99 269/174/99 268/172/99
s 34
f 272/171/98 271/173/98 270/170/98
s 35
f 274/171/14 273/175/14 272/171/14
s 36
f 264/170/97 275/175/97 274/171/97
s 37
f 523/176/1 525/177/1 4/176/1
s 39
f 415/226/1 353/227/1 352/228/1
s 40
f 386/229/5 426/230/5 425/229/5
s 41
f 340/231/5 390/232/5 341/233/5
s 39
f 416/234/1 354/235/1 353/227/1
s 41
f 332/236/5 399/237/5 398/238/5
s 39
f 417/235/1 355/239/1 354/235/1
s 40
f 385/240/5 427/241/5 426/230/5
s 39
f 355/239/1 419/242/1 356/243/1
s 41
f 330/244/5 399/237/5 331/245/5
s 39
f 421/246/1 343/247/1 342/248/1
f 356/243/1 420/249/1 357/247/1
f 406/249/1 344/243/1 343/247/1
s 40
f 384/250/5 428/251/5 427/241/5
s 42
f 403/252/12 420/249/13 419/242/12
s 39
f 407/242/1 345/239/1 344/243/1
s 41
f 338/253/5 405/252/5 339/254/5
s 43
f 357/247/13 360/255/14 375/256/13
f 356/243/12 375/256/13 376/257/12
f 355/239/11 376/257/12 377/258/11
f 354/235/10 377/258/11 378/229/10
f 353/227/31 378/229/10 379/240/31
f 352/228/30 379/240/31 380/250/30
f 351/259/29 380/250/30 381/260/29
f 350/261/28 381/260/29 382/262/28
f 349/259/27 382/262/28 383/260/27
f 348/228/26 383/260/27 384/250/26
f 347/227/25 384/250/26 385/240/25
f 346/235/18 385/240/25 386/229/18
f 345/239/17 386/229/18 387/258/17
f 344/243/16 387/258/17 388/257/16
f 343/247/15 388/257/16 389/256/15
f 342/248/14 389/256/15 360/255/14
s 44
f 359/263/14 340/231/15 341/233/14
f 358/264/15 339/254/16 340/231/15
f 361/265/16 338/253/17 339/254/16
f 362/266/17 337/267/18 338/253/17
f 363/268/18 336/244/25 337/267/18
f 364/269/25 335/245/26 336/244/25
f 365/270/26 334/236/27 335/245/26
f 366/271/27 333/272/28 334/236/27
f 367/273/28 332/236/29 333/272/28
f 368/271/29 331/245/30 332/236/29
f 369/270/30 330/244/31 331/245/30
f 370/269/31 329/267/10 330/244/31
f 371/268/10 328/253/11 329/267/10
f 372/266/11 327/254/12 328/253/11
f 373/265/12 326/231/13 327/254/12
f 374/264/13 341/233/14 326/231/13
s 41
f 332/236/5 397/274/5 333/272/5
s 39
f 414/275/1 352/228/1 351/259/1
f 350/261/1 414/275/1 351/259/1
s 41
f 337/267/5 394/276/5 393/267/5
f 334/236/5 397/274/5 396/238/5
s 39
f 412/275/1 350/261/1 349/259/1
f 348/228/1 412/275/1 349/259/1
f 347/227/1 411/226/1 348/228/1
s 41
f 326/231/5 390/232/5 404/277/5
s 40
f 382/262/5 428/251/5 383/260/5
s 39
f 346/235/1 410/234/1 347/227/1
f 345/239/1 409/235/1 346/235/1
s 41
f 328/253/5 401/267/5 329/267/5
s 42
f 410/234/25 395/237/26 411/226/26
f 398/238/29 415/226/30 414/275/29
f 402/278/11 419/242/12 418/279/11
f 393/267/18 410/234/25 409/235/18
f 397/274/28 414/275/29 413/280/28
f 401/267/10 418/279/11 417/235/10
f 390/232/14 406/249/15 421/246/14
f 415/226/30 400/276/31 416/234/31
f 395/237/26 412/275/27 411/226/26
f 404/277/13 421/246/14 420/249/13
f 405/252/16 408/279/17 407/242/16
f 400/276/31 417/235/10 416/234/31
f 396/238/27 413/280/28 412/275/27
f 391/277/15 407/242/16 406/249/15
f 392/278/17 409/235/18 408/279/17
s 40
f 382/262/5 430/251/5 429/281/5
s 41
f 327/254/5 404/277/5 403/252/5
f 329/267/5 400/276/5 330/244/5
s 40
f 380/250/5 430/251/5 381/260/5
s 41
f 338/253/5 393/267/5 392/278/5
s 40
f 379/240/5 431/241/5 380/250/5
s 41
f 328/253/5 403/252/5 402/278/5
s 40
f 378/229/5 432/230/5 379/240/5
s 41
f 339/254/5 391/277/5 340/231/5
f 334/236/5 395/237/5 335/245/5
f 336/244/5 395/237/5 394/276/5
s 39
f 357/247/1 421/246/1 342/248/1
s 40
f 387/258/5 425/229/5 424/282/5
f 387/258/5 423/283/5 388/257/5
f 360/255/5 436/284/5 375/256/5
f 388/257/5 422/284/5 389/256/5
f 376/257/5 436/284/5 435/283/5
f 360/255/5 422/284/5 437/285/5
f 377/258/5 435/283/5 434/282/5
f 377/258/5 433/229/5 378/229/5
s 45
f 440/286/58 444/287/108 441/288/109
f 444/287/108 439/289/110 441/288/109
f 445/290/64 444/287/108 442/291/111
f 447/292/112 443/293/113 444/287/108
f 448/294/114 447/292/112 445/290/64
f 450/295/115 446/296/66 447/292/112
f 448/294/114 453/297/116 450/295/115
f 453/297/116 449/298/117 450/295/115
f 454/299/72 453/297/116 451/300/73
f 453/297/116 455/301/118 452/302/119
f 457/303/78 456/304/77 454/299/72
f 456/304/77 458/305/120 455/301/118
f 460/306/121 459/307/122 457/303/78
f 462/308/123 458/305/120 459/307/122
f 460/306/121 465/309/124 462/308/123
f 465/309/124 461/310/80 462/308/123
f 466/306/35 465/309/124 463/311/125
f 468/308/38 464/312/126 465/309/124
f 466/306/35 471/307/41 468/308/38
f 471/307/41 467/310/127 468/308/38
f 469/303/40 474/304/47 471/307/41
f 471/307/41 473/301/44 470/305/45
f 475/300/50 474/304/47 472/299/128
f 474/304/47 476/302/48 473/301/44
f 478/294/49 477/297/129 475/300/50
f 477/297/129 479/298/130 476/302/48
f 481/290/55 480/295/51 478/294/49
f 480/295/51 482/296/57 479/298/130
f 484/291/131 483/292/52 481/290/55
f 483/292/52 485/293/132 482/296/57
f 440/286/58 486/287/133 484/291/131
f 486/287/133 439/289/110 485/293/132
f 437/285/14 442/291/111 440/286/58
f 439/289/110 438/302/1 485/293/132
f 443/293/113 438/302/1 439/289/110
f 436/284/13 440/286/58 484/291/131
f 422/284/15 445/290/64 442/291/111
f 446/296/66 438/302/1 443/293/113
f 423/283/16 448/294/114 445/290/64
f 449/298/117 438/302/1 446/296/66
f 424/282/17 451/300/73 448/294/114
f 452/302/119 438/302/1 449/298/117
f 425/229/18 454/299/72 451/300/73
f 455/301/118 438/302/1 452/302/119
f 426/230/25 457/303/78 454/299/72
f 458/305/120 438/302/1 455/301/118
f 427/241/26 460/306/121 457/303/78
f 461/310/80 438/302/1 458/305/120
f 428/251/27 463/311/125 460/306/121
f 464/312/126 438/302/1 461/310/80
f 429/281/28 466/306/35 463/311/125
f 467/310/127 438/302/1 464/312/126
f 430/251/29 469/303/40 466/306/35
f 470/305/45 438/302/1 467/310/127
f 431/241/30 472/299/128 469/303/40
f 473/301/44 438/302/1 470/305/45
f 432/230/31 475/300/50 472/299/128
f 476/302/48 438/302/1 473/301/44
f 433/229/10 478/294/49 475/300/50
f 479/298/130 438/302/1 476/302/48
f 434/282/11 481/290/55 478/294/49
f 482/296/57 438/302/1 479/298/130
f 435/283/12 484/291/131 481/290/55
f 485/293/132 438/302/1 482/296/57
s 46
f 487/313/134 490/314/135 489/315/134
s 47
f 489/315/16 490/314/16 492/316/16
s 48
f 488/317/30 487/313/30 491/318/30
s 49
f 490/314/136 491/318/137 492/316/137
s 50
f 493/318/138 496/314/139 495/316/138
s 51
f 495/316/12 496/314/12 498/315/12
s 52
f 494/317/26 493/318/26 497/313/26
s 53
f 498/315/85 494/317/140 497/313/85
s 54
f 521/319/28 499/320/28 501/321/28
f 513/322/28 515/323/28 501/321/28
s 55
f 512/324/14 510/325/14 502/326/14
f 514/327/14 512/324/14 502/326/14
f 516/328/14 514/327/14 502/326/14
f 518/327/14 516/328/14 502/326/14
s 54
f 509/319/28 511/329/28 501/321/28
s 55
f 520/324/14 518/327/14 502/326/14
s 56
f 508/330/96 509/319/94 507/320/95
f 510/325/94 511/329/93 509/319/94
f 512/324/93 513/322/92 511/329/93
f 514/327/92 515/323/1 513/322/92
f 516/328/1 517/322/91 515/323/1
f 518/327/91 519/329/90 517/322/91
s 54
f 511/329/28 513/322/28 501/321/28
s 56
f 520/324/90 521/319/88 519/329/90
f 522/325/88 499/320/89 521/319/88
s 55
f 508/330/14 500/330/14 502/326/14
s 54
f 499/320/28 507/320/28 501/321/28
f 507/320/28 509/319/28 501/321/28
f 515/323/28 517/322/28 501/321/28
s 55
f 508/330/14 505/331/14 500/330/14
s 56
f 500/330/87 506/332/18 499/320/89
f 507/320/95 503/331/10 508/330/96
s 54
f 499/320/28 504/332/28 507/320/28
s 57
f 505/331/5 504/332/5 506/332/5
s 55
f 510/325/14 508/330/14 502/326/14
f 500/330/14 522/325/14 502/326/14
f 522/325/14 520/324/14 502/326/14
s 54
f 517/322/28 519/329/28 501/321/28
f 519/329/28 521/319/28 501/321/28
s 58
f 524/333/99 525/177/99 523/176/99
s 59
f 526/334/28 527/177/28 525/177/28
s 60
f 528/334/100 529/176/100 527/177/100
s 61
f 530/333/97 531/335/97 529/176/97
s 62
f 532/336/14 533/335/14 531/335/14
s 63
f 534/336/98 523/176/98 533/335/98
s 64
f 535/337/1 545/338/1 3/337/1
s 65
f 537/339/98 536/340/98 535/337/98
s 66
f 539/339/14 538/341/14 537/339/14
s 67
f 541/337/97 540/341/97 539/339/97
s 68
f 543/338/100 542/340/100 541/337/100
s 69
f 545/338/28 544/342/28 543/338/28
s 70
f 535/337/99 546/342/99 545/338/99
s 71
f 252/166/1 254/165/1 277/166/1
f 254/165/1 256/165/1 277/166/1
f 256/165/1 258/166/1 277/166/1
f 258/166/1 260/168/1 277/166/1
f 260/168/1 262/168/1 277/166/1
f 262/168/1 252/166/1 277/166/1
s 30
f 274/171/1 272/171/1 276/170/1
f 272/171/1 270/170/1 276/170/1
f 270/170/1 268/172/1 276/170/1
f 268/172/1 266/172/1 276/170/1
f 266/172/1 264/170/1 276/170/1
s 37
f 525/177/1 527/177/1 4/176/1
f 527/177/1 529/176/1 4/176/1
f 529/176/1 531/335/1 4/176/1
f 531/335/1 533/335/1 4/176/1
f 533/335/1 523/176/1 4/176/1
s 64
f 545/338/1 543/338/1 3/337/1
f 543/338/1 541/337/1 3/337/1
f 541/337/1 539/339/1 3/337/1
f 539/339/1 537/339/1 3/337/1
f 537/339/1 535/337/1 3/337/1
s 5
f 81/57/1 144/110/1 145/58/1
s 6
f 114/60/5 155/72/5 154/61/5
s 7
f 69/62/5 120/82/5 119/63/5
s 5
f 145/58/1 146/65/1 83/65/1
s 7
f 60/66/5 128/75/5 127/67/5
s 5
f 83/65/1 146/65/1 147/69/1
s 6
f 114/60/5 113/80/5 156/71/5
s 5
f 147/69/1 148/79/1 85/73/1
s 7
f 60/66/5 59/101/5 129/74/5
s 5
f 150/76/1 135/83/1 72/77/1
f 148/79/1 149/83/1 86/77/1
f 72/77/1 135/83/1 136/79/1
s 6
f 113/80/5 112/92/5 157/81/5
s 8
f 148/79/26 132/85/26 133/82/27
s 5
f 136/79/1 137/69/1 74/70/1
s 7
f 67/84/5 121/112/5 134/85/5
s 9
f 86/77/27 71/78/28 89/87/28
f 105/89/26 85/73/26 86/77/27
f 84/70/25 85/73/26 105/89/26
f 83/65/18 84/70/25 106/90/25
f 82/59/17 83/65/18 107/61/18
f 81/57/16 82/59/17 108/60/17
f 80/91/15 81/57/16 109/80/16
f 79/93/14 80/91/15 110/92/15
f 112/92/13 78/91/13 79/93/14
f 77/57/12 78/91/13 112/92/13
f 76/59/11 77/57/12 113/80/12
f 75/65/10 76/59/11 114/60/11
f 74/70/31 75/65/10 115/61/10
f 73/73/30 74/70/31 116/90/31
f 72/77/29 73/73/30 117/89/30
f 89/87/28 71/78/28 72/77/29
s 10
f 88/95/28 87/96/29 69/62/29
f 87/96/29 90/97/30 68/86/30
f 90/97/30 91/98/31 67/84/31
f 91/98/31 92/100/10 66/99/10
f 92/100/10 93/102/11 65/101/11
f 93/102/11 94/103/12 64/66/12
f 94/103/12 95/104/13 63/68/13
f 95/104/13 96/106/14 62/105/14
f 96/106/14 97/104/15 61/68/15
f 97/104/15 98/103/16 60/66/16
f 98/103/16 99/102/17 59/101/17
f 99/102/17 100/100/18 58/99/18
f 100/100/18 101/98/25 57/84/25
f 101/98/25 102/97/26 56/86/26
f 102/97/26 103/96/27 55/62/27
f 103/96/27 88/95/28 70/64/28
s 7
f 61/68/5 127/67/5 126/107/5
s 5
f 143/108/1 144/110/1 81/57/1
f 142/109/1 143/108/1 80/91/1
s 7
f 65/101/5 123/74/5 122/99/5
f 62/105/5 126/107/5 125/67/5
s 5
f 78/91/1 141/108/1 142/109/1
f 140/110/1 141/108/1 78/91/1
f 139/58/1 140/110/1 77/57/1
s 7
f 70/64/5 119/63/5 133/82/5
s 6
f 112/92/5 111/94/5 158/111/5
s 5
f 138/65/1 139/58/1 76/59/1
f 74/70/1 137/69/1 138/65/1
s 7
f 57/84/5 131/112/5 130/99/5
s 8
f 123/74/11 124/75/12 140/110/12
f 143/108/15 127/67/15 128/75/16
f 147/69/25 131/112/25 132/85/26
f 122/99/10 123/74/11 139/58/11
f 126/107/14 127/67/15 143/108/15
f 130/99/18 131/112/25 147/69/25
f 119/63/28 120/82/29 135/83/29
f 128/75/16 129/74/17 145/58/17
f 124/75/12 125/67/13 141/108/13
f 133/82/27 119/63/28 150/76/28
f 134/85/30 121/112/31 137/69/31
f 129/74/17 130/99/18 146/65/18
f 125/67/13 126/107/14 142/109/14
f 120/82/29 134/85/30 136/79/30
f 121/112/31 122/99/10 138/65/10
s 6
f 110/92/5 159/81/5 158/111/5
s 7
f 55/62/5 133/82/5 132/85/5
f 59/101/5 58/99/5 130/99/5
s 6
f 109/80/5 160/71/5 159/81/5
s 7
f 67/84/5 66/99/5 122/99/5
s 6
f 108/60/5 161/72/5 160/71/5
s 7
f 56/86/5 132/85/5 131/112/5
s 6
f 107/61/5 162/61/5 161/72/5
s 7
f 68/86/5 134/85/5 120/82/5
f 63/68/5 125/67/5 124/75/5
f 64/66/5 124/75/5 123/74/5
s 5
f 86/77/1 149/83/1 150/76/1
s 6
f 115/61/5 154/61/5 153/113/5
f 116/90/5 153/113/5 152/114/5
f 89/87/5 166/116/5 165/115/5
f 117/89/5 152/114/5 151/115/5
f 104/88/5 165/115/5 164/114/5
f 118/88/5 151/115/5 166/116/5
f 106/90/5 105/89/5 164/114/5
f 106/90/5 163/113/5 162/61/5
s 11
f 171/117/35 173/120/38 170/118/36
f 173/120/38 172/124/42 168/121/39
f 174/122/40 176/123/41 173/120/38
f 176/123/41 175/127/45 172/124/42
f 177/125/43 179/129/47 176/123/41
f 176/123/41 179/129/47 178/126/44
f 177/125/43 180/132/50 182/128/46
f 179/129/47 182/128/46 181/130/48
f 183/131/49 185/133/51 182/128/46
f 185/133/51 184/135/53 181/130/48
f 183/131/49 186/137/55 188/134/52
f 188/134/52 187/139/57 184/135/53
f 189/136/54 191/141/59 188/134/52
f 188/134/52 191/141/59 190/138/56
f 192/140/58 194/142/60 191/141/59
f 194/142/60 193/143/63 190/138/56
f 192/140/58 195/136/65 197/141/61
f 194/142/60 197/141/61 196/138/62
f 198/137/64 200/134/68 197/141/61
f 197/141/61 200/134/68 199/139/66
f 198/137/64 201/131/70 203/133/67
f 200/134/68 203/133/67 202/135/69
f 201/131/70 204/132/73 206/128/71
f 206/128/71 205/130/75 202/135/69
f 207/125/72 209/129/77 206/128/71
f 206/128/71 209/129/77 208/126/74
f 207/125/72 210/122/78 212/123/76
f 212/123/76 211/127/81 208/126/74
f 210/122/78 213/117/82 215/120/79
f 212/123/76 215/120/79 214/124/80
f 213/117/82 169/119/37 170/118/36
f 215/120/79 170/118/36 168/121/39
f 166/116/28 151/115/29 171/117/35
f 165/115/27 166/116/28 169/119/37
f 151/115/29 152/114/30 174/122/40
f 174/122/40 152/114/30 153/113/31
f 153/113/31 154/61/10 180/132/50
f 154/61/10 155/72/11 183/131/49
f 155/72/11 156/71/12 186/137/55
f 186/137/55 156/71/12 157/81/13
f 157/81/13 158/111/14 192/140/58
f 158/111/14 159/81/15 195/136/65
f 159/81/15 160/71/16 198/137/64
f 160/71/16 161/72/17 201/131/70
f 161/72/17 162/61/18 204/132/73
f 162/61/18 163/113/25 207/125/72
f 163/113/25 164/114/26 210/122/78
f 164/114/26 165/115/27 213/117/82
s 12
f 216/144/83 217/148/83 219/145/83
s 15
f 221/147/84 219/145/84 217/148/84
s 16
f 223/148/85 225/145/85 224/147/85
s 19
f 225/145/86 223/148/86 226/144/86
s 22
f 237/161/87 239/156/88 238/150/88
f 239/156/88 241/155/90 240/160/90
f 241/155/90 243/158/91 242/153/91
f 243/158/91 245/159/1 244/154/1
f 245/159/1 247/158/92 246/153/92
f 247/158/92 249/155/93 248/160/93
f 249/155/93 251/156/94 250/150/94
f 251/156/94 229/161/96 228/151/95
s 21
f 237/161/28 232/162/28 234/162/28
s 22
f 229/161/96 234/162/10 235/163/10
f 236/151/89 233/163/18 232/162/18
s 20
f 228/151/14 235/163/14 233/163/14
s 23
f 234/162/5 232/162/5 233/163/5
s 24
f 253/164/97 255/167/97 254/165/97
s 25
f 255/167/14 257/167/14 256/165/14
s 26
f 257/167/98 259/164/98 258/166/98
s 27
f 259/164/99 261/169/99 260/168/99
s 28
f 261/169/28 263/169/28 262/168/28
s 29
f 263/169/100 253/164/100 252/166/100
s 31
f 266/172/100 267/174/100 265/173/100
s 32
f 268/172/28 269/174/28 267/174/28
s 33
f 270/170/99 271/173/99 269/174/99
s 34
f 272/171/98 273/175/98 271/173/98
s 35
f 274/171/14 275/175/14 273/175/14
s 36
f 264/170/97 265/173/97 275/175/97
s 39
f 415/226/1 416/234/1 353/227/1
s 40
f 386/229/5 385/240/5 426/230/5
s 41
f 340/231/5 391/277/5 390/232/5
s 39
f 416/234/1 417/235/1 354/235/1
s 41
f 332/236/5 331/245/5 399/237/5
s 39
f 417/235/1 418/279/1 355/239/1
s 40
f 385/240/5 384/250/5 427/241/5
s 39
f 355/239/1 418/279/1 419/242/1
s 41
f 330/244/5 400/276/5 399/237/5
s 39
f 421/246/1 406/249/1 343/247/1
f 356/243/1 419/242/1 420/249/1
f 406/249/1 407/242/1 344/243/1
s 40
f 384/250/5 383/260/5 428/251/5
s 42
f 403/252/12 404/277/13 420/249/13
s 39
f 407/242/1 408/279/1 345/239/1
s 41
f 338/253/5 392/278/5 405/252/5
s 43
f 357/247/13 342/248/14 360/255/14
f 356/243/12 357/247/13 375/256/13
f 355/239/11 356/243/12 376/257/12
f 354/235/10 355/239/11 377/258/11
f 353/227/31 354/235/10 378/229/10
f 352/228/30 353/227/31 379/240/31
f 351/259/29 352/228/30 380/250/30
f 350/261/28 351/259/29 381/260/29
f 349/259/27 350/261/28 382/262/28
f 348/228/26 349/259/27 383/260/27
f 347/227/25 348/228/26 384/250/26
f 346/235/18 347/227/25 385/240/25
f 345/239/17 346/235/18 386/229/18
f 344/243/16 345/239/17 387/258/17
f 343/247/15 344/243/16 388/257/16
f 342/248/14 343/247/15 389/256/15
s 44
f 359/263/14 358/264/15 340/231/15
f 358/264/15 361/265/16 339/254/16
f 361/265/16 362/266/17 338/253/17
f 362/266/17 363/268/18 337/267/18
f 363/268/18 364/269/25 336/244/25
f 364/269/25 365/270/26 335/245/26
f 365/270/26 366/271/27 334/236/27
f 366/271/27 367/273/28 333/272/28
f 367/273/28 368/271/29 332/236/29
f 368/271/29 369/270/30 331/245/30
f 369/270/30 370/269/31 330/244/31
f 370/269/31 371/268/10 329/267/10
f 371/268/10 372/266/11 328/253/11
f 372/266/11 373/265/12 327/254/12
f 373/265/12 374/264/13 326/231/13
f 374/264/13 359/263/14 341/233/14
s 41
f 332/236/5 398/238/5 397/274/5
s 39
f 414/275/1 415/226/1 352/228/1
f 350/261/1 413/280/1 414/275/1
s 41
f 337/267/5 336/244/5 394/276/5
f 334/236/5 333/272/5 397/274/5
s 39
f 412/275/1 413/280/1 350/261/1
f 348/228/1 411/226/1 412/275/1
f 347/227/1 410/234/1 411/226/1
s 41
f 326/231/5 341/233/5 390/232/5
s 40
f 382/262/5 429/281/5 428/251/5
s 39
f 346/235/1 409/235/1 410/234/1
f 345/239/1 408/279/1 409/235/1
s 41
f 328/253/5 402/278/5 401/267/5
s 42
f 410/234/25 394/276/25 395/237/26
f 398/238/29 399/237/30 415/226/30
f 402/278/11 403/252/12 419/242/12
f 393/267/18 394/276/25 410/234/25
f 397/274/28 398/238/29 414/275/29
f 401/267/10 402/278/11 418/279/11
f 390/232/14 391/277/15 406/249/15
f 415/226/30 399/237/30 400/276/31
f 395/237/26 396/238/27 412/275/27
f 404/277/13 390/232/14 421/246/14
f 405/252/16 392/278/17 408/279/17
f 400/276/31 401/267/10 417/235/10
f 396/238/27 397/274/28 413/280/28
f 391/277/15 405/252/16 407/242/16
f 392/278/17 393/267/18 409/235/18
s 40
f 382/262/5 381/260/5 430/251/5
s 41
f 327/254/5 326/231/5 404/277/5
f 329/267/5 401/267/5 400/276/5
s 40
f 380/250/5 431/241/5 430/251/5
s 41
f 338/253/5 337/267/5 393/267/5
s 40
f 379/240/5 432/230/5 431/241/5
s 41
f 328/253/5 327/254/5 403/252/5
s 40
f 378/229/5 433/229/5 432/230/5
s 41
f 339/254/5 405/252/5 391/277/5
f 334/236/5 396/238/5 395/237/5
f 336/244/5 335/245/5 395/237/5
s 39
f 357/247/1 420/249/1 421/246/1
s 40
f 387/258/5 386/229/5 425/229/5
f 387/258/5 424/282/5 423/283/5
f 360/255/5 437/285/5 436/284/5
f 388/257/5 423/283/5 422/284/5
f 376/257/5 375/256/5 436/284/5
f 360/255/5 389/256/5 422/284/5
f 377/258/5 376/257/5 435/283/5
f 377/258/5 434/282/5 433/229/5
s 45
f 440/286/58 442/291/111 444/287/108
f 444/287/108 443/293/113 439/289/110
f 445/290/64 447/292/112 444/287/108
f 447/292/112 446/296/66 443/293/113
f 448/294/114 450/295/115 447/292/112
f 450/295/115 449/298/117 446/296/66
f 448/294/114 451/300/73 453/297/116
f 453/297/116 452/302/119 449/298/117
f 454/299/72 456/304/77 453/297/116
f 453/297/116 456/304/77 455/301/118
f 457/303/78 459/307/122 456/304/77
f 456/304/77 459/307/122 458/305/120
f 460/306/121 462/308/123 459/307/122
f 462/308/123 461/310/80 458/305/120
f 460/306/121 463/311/125 465/309/124
f 465/309/124 464/312/126 461/310/80
f 466/306/35 468/308/38 465/309/124
f 468/308/38 467/310/127 464/312/126
f 466/306/35 469/303/40 471/307/41
f 471/307/41 470/305/45 467/310/127
f 469/303/40 472/299/128 474/304/47
f 471/307/41 474/304/47 473/301/44
f 475/300/50 477/297/129 474/304/47
f 474/304/47 477/297/129 476/302/48
f 478/294/49 480/295/51 477/297/129
f 477/297/129 480/295/51 479/298/130
f 481/290/55 483/292/52 480/295/51
f 480/295/51 483/292/52 482/296/57
f 484/291/131 486/287/133 483/292/52
f 483/292/52 486/287/133 485/293/132
f 440/286/58 441/288/109 486/287/133
f 486/287/133 441/288/109 439/289/110
f 437/285/14 422/284/15 442/291/111
f 436/284/13 437/285/14 440/286/58
f 422/284/15 423/283/16 445/290/64
f 423/283/16 424/282/17 448/294/114
f 424/282/17 425/229/18 451/300/73
f 425/229/18 426/230/25 454/299/72
f 426/230/25 427/241/26 457/303/78
f 427/241/26 428/251/27 460/306/121
f 428/251/27 429/281/28 463/311/125
f 429/281/28 430/251/29 466/306/35
f 430/251/29 431/241/30 469/303/40
f 431/241/30 432/230/31 472/299/128
f 432/230/31 433/229/10 475/300/50
f 433/229/10 434/282/11 478/294/49
f 434/282/11 435/283/12 481/290/55
f 435/283/12 436/284/13 484/291/131
s 46
f 487/313/134 488/317/135 490/314/135
s 49
f 490/314/136 488/317/136 491/318/137
s 50
f 493/318/138 494/317/139 496/314/139
s 53
f 498/315/85 496/314/140 494/317/140
s 56
f 508/330/96 510/325/94 509/319/94
f 510/325/94 512/324/93 511/329/93
f 512/324/93 514/327/92 513/322/92
f 514/327/92 516/328/1 515/323/1
f 516/328/1 518/327/91 517/322/91
f 518/327/91 520/324/90 519/329/90
f 520/324/90 522/325/88 521/319/88
f 522/325/88 500/330/87 499/320/89
s 55
f 508/330/14 503/331/14 505/331/14
s 56
f 500/330/87 505/331/18 506/332/18
f 507/320/95 504/332/10 503/331/10
s 54
f 499/320/28 506/332/28 504/332/28
s 57
f 505/331/5 503/331/5 504/332/5
s 58
f 524/333/99 526/334/99 525/177/99
s 59
f 526/334/28 528/334/28 527/177/28
s 60
f 528/334/100 530/333/100 529/176/100
s 61
f 530/333/97 532/336/97 531/335/97
s 62
f 532/336/14 534/336/14 533/335/14
s 63
f 534/336/98 524/333/98 523/176/98
s 65
f 537/339/98 538/341/98 536/340/98
s 66
f 539/339/14 540/341/14 538/341/14
s 67
f 541/337/97 542/340/97 540/341/97
s 68
f 543/338/100 544/342/100 542/340/100
s 69
f 545/338/28 546/342/28 544/342/28
s 70
f 535/337/99 536/340/99 546/342/99
s 1
g street_banner_01_large_regular_material
usemtl regular_material
f 1/1/1 6/2/1 5/2/1
s 3
f 278/6/5 7/7/5 8/7/5
s 4
f 34/33/20 31/34/21 32/35/21
f 35/36/22 32/35/23 31/34/23
f 37/37/24 36/33/22 35/36/22
f 39/38/25 38/39/24 37/37/24
f 41/40/26 40/41/25 39/38/25
f 43/42/27 42/43/26 41/40/26
f 45/44/28 44/45/27 43/42/27
f 47/42/29 46/46/28 45/44/28
f 49/40/30 48/45/29 47/42/29
f 51/38/31 50/43/30 49/40/30
f 53/37/32 52/41/31 51/38/31
f 34/33/20 53/37/32 33/36/33
s 3
f 10/47/5 32/35/5 7/7/5
s 1
f 9/48/1 31/34/1 33/36/1
f 11/48/34 31/34/1 6/2/1
s 3
f 12/47/5 32/35/5 36/33/5
s 1
f 11/48/34 37/37/1 35/36/34
s 3
f 12/47/5 38/39/5 14/39/5
s 1
f 15/49/1 37/37/1 13/37/1
s 3
f 14/39/5 40/41/5 16/50/5
s 1
f 17/51/34 39/38/1 15/49/1
s 3
f 16/50/5 42/43/5 18/52/5
s 1
f 19/53/1 41/40/34 17/51/34
s 3
f 20/54/5 42/43/5 44/45/5
s 1
f 21/55/1 43/42/1 19/53/1
s 3
f 22/56/5 44/45/5 46/46/5
s 1
f 23/53/1 45/44/1 21/55/1
s 3
f 22/56/5 48/45/5 24/54/5
s 1
f 25/51/1 47/42/1 23/53/1
s 3
f 24/54/5 50/43/5 26/52/5
s 1
f 27/49/1 49/40/1 25/51/1
s 3
f 26/52/5 52/41/5 28/50/5
s 1
f 27/49/1 53/37/1 51/38/1
s 3
f 28/50/5 54/39/5 30/39/5
s 1
f 9/48/1 53/37/1 29/37/1
s 3
f 10/47/5 54/39/5 34/33/5
f 8/7/5 7/7/5 32/35/5
s 1
f 5/2/1 6/2/1 31/34/1
s 38
f 305/202/8 302/203/103 303/204/103
f 306/205/104 303/204/105 302/203/105
f 308/206/106 307/202/104 306/205/104
f 310/207/11 309/208/106 308/206/106
f 312/209/12 311/210/11 310/207/11
f 314/211/13 313/212/12 312/209/12
f 316/213/14 315/214/13 314/211/13
f 318/211/15 317/215/14 316/213/14
f 320/209/16 319/214/15 318/211/15
f 322/207/17 321/212/16 320/209/16
f 324/206/107 323/210/17 322/207/17
f 305/202/8 324/206/107 304/205/8
s 3
f 281/216/5 303/204/5 278/6/5
s 1
f 280/217/1 302/203/1 304/205/1
f 282/217/1 302/203/1 1/1/1
s 3
f 283/216/5 303/204/5 307/202/5
s 1
f 282/217/1 308/206/1 306/205/1
s 3
f 283/216/5 309/208/5 285/208/5
s 1
f 286/218/1 308/206/1 284/206/1
s 3
f 287/219/5 309/208/5 311/210/5
s 1
f 286/218/1 312/209/1 310/207/1
s 3
f 287/219/5 313/212/5 289/220/5
s 1
f 288/221/1 314/211/1 312/209/1
s 3
f 289/220/5 315/214/5 291/222/5
s 1
f 292/223/1 314/211/1 290/224/1
s 3
f 293/225/5 315/214/5 317/215/5
s 1
f 292/223/1 318/211/1 316/213/1
s 3
f 293/225/5 319/214/5 295/222/5
s 1
f 296/221/1 318/211/1 294/224/1
s 3
f 297/220/5 319/214/5 321/212/5
s 1
f 298/218/1 320/209/1 296/221/1
s 3
f 299/219/5 321/212/5 323/210/5
s 1
f 298/218/1 324/206/1 322/207/1
s 3
f 299/219/5 325/208/5 301/208/5
s 1
f 280/217/1 324/206/1 300/206/1
s 3
f 281/216/5 325/208/5 305/202/5
f 279/6/5 278/6/5 303/204/5
s 1
f 2/1/1 1/1/1 302/203/1
f 1/1/1 2/1/1 6/2/1
s 3
f 278/6/5 279/6/5 7/7/5
s 4
f 34/33/20 33/36/33 31/34/21
f 35/36/22 36/33/22 32/35/23
f 37/37/24 38/39/24 36/33/22
f 39/38/25 40/41/25 38/39/24
f 41/40/26 42/43/26 40/41/25
f 43/42/27 44/45/27 42/43/26
f 45/44/28 46/46/28 44/45/27
f 47/42/29 48/45/29 46/46/28
f 49/40/30 50/43/30 48/45/29
f 51/38/31 52/41/31 50/43/30
f 53/37/32 54/39/32 52/41/31
f 34/33/20 54/39/32 53/37/32
s 3
f 10/47/5 34/33/5 32/35/5
s 1
f 9/48/1 5/2/1 31/34/1
f 11/48/34 35/36/34 31/34/1
s 3
f 12/47/5 8/7/5 32/35/5
s 1
f 11/48/34 13/37/1 37/37/1
s 3
f 12/47/5 36/33/5 38/39/5
s 1
f 15/49/1 39/38/1 37/37/1
s 3
f 14/39/5 38/39/5 40/41/5
s 1
f 17/51/34 41/40/34 39/38/1
s 3
f 16/50/5 40/41/5 42/43/5
s 1
f 19/53/1 43/42/1 41/40/34
s 3
f 20/54/5 18/52/5 42/43/5
s 1
f 21/55/1 45/44/1 43/42/1
s 3
f 22/56/5 20/54/5 44/45/5
s 1
f 23/53/1 47/42/1 45/44/1
s 3
f 22/56/5 46/46/5 48/45/5
s 1
f 25/51/1 49/40/1 47/42/1
s 3
f 24/54/5 48/45/5 50/43/5
s 1
f 27/49/1 51/38/1 49/40/1
s 3
f 26/52/5 50/43/5 52/41/5
s 1
f 27/49/1 29/37/1 53/37/1
s 3
f 28/50/5 52/41/5 54/39/5
s 1
f 9/48/1 33/36/1 53/37/1
s 3
f 10/47/5 30/39/5 54/39/5
s 38
f 305/202/8 304/205/8 302/203/103
f 306/205/104 307/202/104 303/204/105
f 308/206/106 309/208/106 307/202/104
f 310/207/11 311/210/11 309/208/106
f 312/209/12 313/212/12 311/210/11
f 314/211/13 315/214/13 313/212/12
f 316/213/14 317/215/14 315/214/13
f 318/211/15 319/214/15 317/215/14
f 320/209/16 321/212/16 319/214/15
f 322/207/17 323/210/17 321/212/16
f 324/206/107 325/208/107 323/210/17
f 305/202/8 325/208/107 324/206/107
s 3
f 281/216/5 305/202/5 303/204/5
s 1
f 280/217/1 2/1/1 302/203/1
f 282/217/1 306/205/1 302/203/1
s 3
f 283/216/5 279/6/5 303/204/5
s 1
f 282/217/1 284/206/1 308/206/1
s 3
f 283/216/5 307/202/5 309/208/5
s 1
f 286/218/1 310/207/1 308/206/1
s 3
f 287/219/5 285/208/5 309/208/5
s 1
f 286/218/1 288/221/1 312/209/1
s 3
f 287/219/5 311/210/5 313/212/5
s 1
f 288/221/1 290/224/1 314/211/1
s 3
f 289/220/5 313/212/5 315/214/5
s 1
f 292/223/1 316/213/1 314/211/1
s 3
f 293/225/5 291/222/5 315/214/5
s 1
f 292/223/1 294/224/1 318/211/1
s 3
f 293/225/5 317/215/5 319/214/5
s 1
f 296/221/1 320/209/1 318/211/1
s 3
f 297/220/5 295/222/5 319/214/5
s 1
f 298/218/1 322/207/1 320/209/1
s 3
f 299/219/5 297/220/5 321/212/5
s 1
f 298/218/1 300/206/1 324/206/1
s 3
f 299/219/5 323/210/5 325/208/5
s 1
f 280/217/1 304/205/1 324/206/1
s 3
f 281/216/5 301/208/5 325/208/5
s 2
g street_banner_01_large_street_banner
usemtl street_banner
f 2/3/2 8/4/3 6/5/4
f 279/8/6 5/9/7 7/10/7
f 5/9/7 10/11/8 7/10/7
f 8/4/3 11/12/9 6/5/4
f 12/13/9 13/14/10 11/12/9
f 14/15/10 15/16/11 13/14/10
f 16/17/11 17/18/12 15/16/11
f 18/19/12 19/20/13 17/18/12
f 20/21/13 21/22/14 19/20/13
f 22/23/14 23/24/15 21/25/14
f 24/26/15 25/27/16 23/24/15
f 26/28/16 27/29/17 25/27/16
f 28/30/17 29/31/18 27/29/17
f 29/31/18 10/11/8 9/32/19
f 2/3/2 281/178/20 278/179/101
f 279/8/6 282/180/102 1/181/6
f 283/182/102 284/183/18 282/180/102
f 285/184/18 286/185/25 284/183/18
f 287/186/25 288/187/26 286/185/25
f 289/188/26 290/189/27 288/187/26
f 291/190/27 292/191/28 290/189/27
f 293/192/28 294/193/29 292/194/28
f 295/195/29 296/196/30 294/193/29
f 297/197/30 298/198/31 296/196/30
f 299/199/31 300/200/10 298/198/31
f 300/200/10 281/178/20 280/201/20
f 2/3/2 278/179/101 8/4/3
f 279/8/6 1/181/6 5/9/7
f 5/9/7 9/32/19 10/11/8
f 8/4/3 12/13/9 11/12/9
f 12/13/9 14/15/10 13/14/10
f 14/15/10 16/17/11 15/16/11
f 16/17/11 18/19/12 17/18/12
f 18/19/12 20/21/13 19/20/13
f 20/21/13 22/343/14 21/22/14
f 22/23/14 24/26/15 23/24/15
f 24/26/15 26/28/16 25/27/16
f 26/28/16 28/30/17 27/29/17
f 28/30/17 30/344/18 29/31/18
f 29/31/18 30/344/18 10/11/8
f 2/3/2 280/201/20 281/178/20
f 279/8/6 283/182/102 282/180/102
f 283/182/102 285/184/18 284/183/18
f 285/184/18 287/186/25 286/185/25
f 287/186/25 289/188/26 288/187/26
f 289/188/26 291/190/27 290/189/27
f 291/190/27 293/345/28 292/191/28
f 293/192/28 295/195/29 294/193/29
f 295/195/29 297/197/30 296/196/30
f 297/197/30 299/199/31 298/198/31
f 299/199/31 301/346/10 300/200/10
f 300/200/10 301/346/10 281/178/20
