# Blender 4.5.2 LTS
# www.blender.org
mtllib traffic_bollard_02_yellow_medium.mtl
g traffic_bollard_02_yellow_medium_Mesh
v 0.000000 -0.015000 -0.200000
v 0.000000 0.015000 -0.200000
v 0.141421 -0.015000 -0.141421
v 0.141421 0.015000 -0.141421
v 0.200000 -0.015000 0.000000
v 0.200000 0.015000 0.000000
v 0.141421 -0.015000 0.141421
v 0.141421 0.015000 0.141421
v 0.000000 -0.015000 0.200000
v 0.000000 0.015000 0.200000
v -0.141421 -0.015000 0.141421
v -0.141421 0.015000 0.141421
v -0.200000 -0.015000 0.000000
v -0.200000 0.015000 0.000000
v -0.141421 -0.015000 -0.141421
v -0.141421 0.015000 -0.141421
v 0.000000 0.004109 -0.057150
v 0.000000 1.054556 -0.057150
v 0.014792 0.004109 -0.055203
v 0.014792 1.054556 -0.055203
v 0.028575 0.004109 -0.049493
v 0.028575 1.054556 -0.049493
v 0.040411 0.004109 -0.040411
v 0.040411 1.054556 -0.040411
v 0.049493 0.004109 -0.028575
v 0.049493 1.054556 -0.028575
v 0.055203 0.004109 -0.014792
v 0.055203 1.054556 -0.014792
v 0.057150 0.004109 0.000000
v 0.057150 1.054556 0.000000
v 0.055203 0.004109 0.014792
v 0.055203 1.054556 0.014792
v 0.049493 0.004109 0.028575
v 0.049493 1.054556 0.028575
v 0.040411 0.004109 0.040411
v 0.040411 1.054556 0.040411
v 0.028575 0.004109 0.049493
v 0.028575 1.054556 0.049493
v 0.014792 0.004109 0.055203
v 0.014792 1.054556 0.055203
v 0.000000 0.004109 0.057150
v 0.000000 1.054556 0.057150
v -0.014792 0.004109 0.055203
v -0.014792 1.054556 0.055203
v -0.028575 0.004109 0.049493
v -0.028575 1.054556 0.049493
v -0.040411 0.004109 0.040411
v -0.040411 1.054556 0.040411
v -0.049493 0.004109 0.028575
v -0.049493 1.054556 0.028575
v -0.055203 0.004109 0.014792
v -0.055203 1.054556 0.014792
v -0.057150 0.004109 0.000000
v -0.057150 1.054556 0.000000
v -0.055203 0.004109 -0.014792
v -0.055203 1.054556 -0.014792
v -0.049493 0.004109 -0.028575
v -0.049493 1.054556 -0.028575
v -0.040411 0.004109 -0.040411
v -0.040411 1.054556 -0.040411
v -0.028575 0.004109 -0.049493
v -0.028575 1.054556 -0.049493
v -0.014792 0.004109 -0.055203
v -0.014792 1.054556 -0.055203
v 0.014946 1.058833 -0.053476
v 0.000725 1.058938 -0.055207
v 0.028156 1.058758 -0.048105
v 0.039466 1.058731 -0.039466
v 0.048105 1.058758 -0.028156
v 0.053476 1.058833 -0.014946
v 0.055207 1.058938 0.000725
v 0.053456 1.058842 0.014954
v 0.048090 1.058764 0.028167
v 0.039466 1.058733 0.039466
v 0.028167 1.058764 0.048090
v 0.014954 1.058842 0.053456
v -0.000725 1.058938 0.055207
v -0.014946 1.058833 0.053476
v -0.028156 1.058758 0.048105
v -0.039466 1.058731 0.039466
v -0.048105 1.058758 0.028156
v -0.053476 1.058833 0.014946
v -0.055207 1.058938 -0.000725
v -0.053456 1.058842 -0.014954
v -0.048090 1.058764 -0.028167
v -0.039466 1.058733 -0.039466
v -0.028167 1.058764 -0.048090
v -0.014954 1.058842 -0.053456
v 0.013736 1.061857 -0.051264
v 0.000000 1.061857 -0.053072
v 0.026536 1.061857 -0.045962
v 0.037528 1.061857 -0.037528
v 0.045962 1.061857 -0.026536
v 0.051264 1.061857 -0.013736
v 0.053072 1.061857 0.000000
v 0.051264 1.061857 0.013736
v 0.045962 1.061857 0.026536
v 0.037528 1.061857 0.037528
v 0.026536 1.061857 0.045962
v 0.013736 1.061857 0.051264
v 0.000000 1.061857 0.053072
v -0.013736 1.061857 0.051264
v -0.026536 1.061857 0.045962
v -0.037528 1.061857 0.037528
v -0.045962 1.061857 0.026536
v -0.051264 1.061857 0.013736
v -0.053072 1.061857 0.000000
v -0.051264 1.061857 -0.013736
v -0.045962 1.061857 -0.026536
v -0.037528 1.061857 -0.037528
v -0.026536 1.061857 -0.045962
v -0.013736 1.061857 -0.051264
v 0.000652 1.063873 -0.046614
v 0.014799 1.065388 -0.038590
v 0.027739 1.065953 -0.027739
v 0.038590 1.065388 -0.014799
v 0.046614 1.063873 -0.000652
v -0.013203 1.065671 -0.038061
v 0.000868 1.068689 -0.027404
v 0.014718 1.069860 -0.014718
v 0.027404 1.068689 -0.000868
v 0.038061 1.065671 0.013203
v -0.026536 1.066394 -0.026536
v -0.013736 1.070070 -0.013736
v 0.000000 1.071548 0.000000
v 0.013736 1.070070 0.013736
v 0.026536 1.066394 0.026536
v -0.038061 1.065671 -0.013203
v -0.027404 1.068689 0.000868
v -0.014718 1.069860 0.014718
v -0.000868 1.068689 0.027404
v 0.013203 1.065671 0.038061
v -0.046614 1.063873 0.000652
v -0.038590 1.065388 0.014799
v -0.027739 1.065953 0.027739
v -0.014799 1.065388 0.038590
v -0.000652 1.063873 0.046614
v 0.000000 1.051048 -0.057150
v 0.014792 1.051048 -0.055203
v 0.028575 1.051048 -0.049493
v 0.040411 1.051048 -0.040411
v 0.049493 1.051048 -0.028575
v 0.055203 1.051048 -0.014792
v 0.057150 1.051048 0.000000
v 0.055203 1.051048 0.014792
v 0.049493 1.051048 0.028575
v 0.040411 1.051048 0.040411
v 0.028575 1.051048 0.049493
v 0.014792 1.051048 0.055203
v 0.000000 1.051048 0.057150
v -0.014792 1.051048 0.055203
v -0.028575 1.051048 0.049493
v -0.040411 1.051048 0.040411
v -0.049493 1.051048 0.028575
v -0.055203 1.051048 0.014792
v -0.057150 1.051048 0.000000
v -0.055203 1.051048 -0.014792
v -0.049493 1.051048 -0.028575
v -0.040411 1.051048 -0.040411
v -0.028575 1.051048 -0.049493
v -0.014792 1.051048 -0.055203
v 0.014792 0.636157 -0.055203
v 0.014792 0.625178 -0.055203
v 0.028575 0.636157 -0.049493
v 0.028575 0.625178 -0.049493
v 0.040411 0.636157 -0.040411
v 0.040411 0.625178 -0.040411
v 0.049493 0.636157 -0.028575
v 0.049493 0.625178 -0.028575
v 0.055203 0.636157 -0.014792
v 0.055203 0.625178 -0.014792
v 0.057150 0.636157 0.000000
v 0.057150 0.625178 0.000000
v 0.055203 0.636157 0.014792
v 0.055203 0.625178 0.014792
v 0.049493 0.636157 0.028575
v 0.049493 0.625178 0.028575
v 0.040411 0.636157 0.040411
v 0.040411 0.625178 0.040411
v 0.028575 0.636157 0.049493
v 0.028575 0.625178 0.049493
v 0.014792 0.636157 0.055203
v 0.014792 0.625178 0.055203
v 0.000000 0.636157 0.057150
v 0.000000 0.625178 0.057150
v -0.014792 0.636157 0.055203
v -0.014792 0.625178 0.055203
v -0.028575 0.636157 0.049493
v -0.028575 0.625178 0.049493
v -0.040411 0.636157 0.040411
v -0.040411 0.625178 0.040411
v -0.049493 0.636157 0.028575
v -0.049493 0.625178 0.028575
v -0.055203 0.636157 0.014792
v -0.055203 0.625178 0.014792
v -0.057150 0.636157 0.000000
v -0.057150 0.625178 0.000000
v -0.055203 0.636157 -0.014792
v -0.055203 0.625178 -0.014792
v -0.049493 0.636157 -0.028575
v -0.049493 0.625178 -0.028575
v -0.040411 0.636157 -0.040411
v -0.040411 0.625178 -0.040411
v -0.028575 0.636157 -0.049493
v -0.028575 0.625178 -0.049493
v -0.014792 0.636157 -0.055203
v -0.014792 0.625178 -0.055203
v 0.000000 0.625178 -0.057150
v 0.000000 0.636157 -0.057150
v 0.000000 0.835368 -0.057150
v 0.000000 0.846348 -0.057150
v 0.014792 0.846348 -0.055203
v 0.014792 0.835368 -0.055203
v 0.028575 0.846348 -0.049493
v 0.028575 0.835368 -0.049493
v 0.040411 0.846348 -0.040411
v 0.040411 0.835368 -0.040411
v 0.049493 0.846348 -0.028575
v 0.049493 0.835368 -0.028575
v 0.055203 0.846348 -0.014792
v 0.055203 0.835368 -0.014792
v 0.057150 0.846348 0.000000
v 0.057150 0.835368 0.000000
v 0.055203 0.846348 0.014792
v 0.055203 0.835368 0.014792
v 0.049493 0.846348 0.028575
v 0.049493 0.835368 0.028575
v 0.040411 0.846348 0.040411
v 0.040411 0.835368 0.040411
v 0.028575 0.846348 0.049493
v 0.028575 0.835368 0.049493
v 0.014792 0.846348 0.055203
v 0.014792 0.835368 0.055203
v 0.000000 0.846348 0.057150
v 0.000000 0.835368 0.057150
v -0.014792 0.846348 0.055203
v -0.014792 0.835368 0.055203
v -0.028575 0.846348 0.049493
v -0.028575 0.835368 0.049493
v -0.040411 0.846348 0.040411
v -0.040411 0.835368 0.040411
v -0.049493 0.846348 0.028575
v -0.049493 0.835368 0.028575
v -0.055203 0.846348 0.014792
v -0.055203 0.835368 0.014792
v -0.057150 0.846348 0.000000
v -0.057150 0.835368 0.000000
v -0.055203 0.846348 -0.014792
v -0.055203 0.835368 -0.014792
v -0.049493 0.846348 -0.028575
v -0.049493 0.835368 -0.028575
v -0.040411 0.846348 -0.040411
v -0.040411 0.835368 -0.040411
v -0.028575 0.846348 -0.049493
v -0.028575 0.835368 -0.049493
v -0.014792 0.846348 -0.055203
v -0.014792 0.835368 -0.055203
v 0.015484 0.633317 -0.057787
v 0.015484 0.628018 -0.057787
v 0.029913 0.633317 -0.051810
v 0.029913 0.628018 -0.051810
v 0.042303 0.633317 -0.042303
v 0.042303 0.628018 -0.042303
v 0.051810 0.633317 -0.029913
v 0.051810 0.628018 -0.029913
v 0.057787 0.633317 -0.015484
v 0.057787 0.628018 -0.015484
v 0.059825 0.633317 0.000000
v 0.059825 0.628018 0.000000
v 0.057787 0.633317 0.015484
v 0.057787 0.628018 0.015484
v 0.051810 0.633317 0.029913
v 0.051810 0.628018 0.029913
v 0.042303 0.633317 0.042303
v 0.042303 0.628018 0.042303
v 0.029913 0.633317 0.051810
v 0.029913 0.628018 0.051810
v 0.015484 0.633317 0.057787
v 0.015484 0.628018 0.057787
v 0.000000 0.633317 0.059825
v 0.000000 0.628018 0.059825
v -0.015484 0.633317 0.057787
v -0.015484 0.628018 0.057787
v -0.029913 0.633317 0.051810
v -0.029913 0.628018 0.051810
v -0.042303 0.633317 0.042303
v -0.042303 0.628018 0.042303
v -0.051810 0.633317 0.029913
v -0.051810 0.628018 0.029913
v -0.057787 0.633317 0.015484
v -0.057787 0.628018 0.015484
v -0.059825 0.633317 0.000000
v -0.059825 0.628018 0.000000
v -0.057787 0.633317 -0.015484
v -0.057787 0.628018 -0.015484
v -0.051810 0.633317 -0.029913
v -0.051810 0.628018 -0.029913
v -0.042303 0.633317 -0.042303
v -0.042303 0.628018 -0.042303
v -0.029913 0.633317 -0.051810
v -0.029913 0.628018 -0.051810
v -0.015484 0.633317 -0.057787
v -0.015484 0.628018 -0.057787
v 0.000000 0.628018 -0.059825
v 0.000000 0.633317 -0.059825
v 0.000000 0.838208 -0.059825
v 0.000000 0.843507 -0.059825
v 0.015484 0.843507 -0.057787
v 0.015484 0.838208 -0.057787
v 0.029913 0.843507 -0.051810
v 0.029913 0.838208 -0.051810
v 0.042303 0.843507 -0.042303
v 0.042303 0.838208 -0.042303
v 0.051810 0.843507 -0.029913
v 0.051810 0.838208 -0.029913
v 0.057787 0.843507 -0.015484
v 0.057787 0.838208 -0.015484
v 0.059825 0.843507 0.000000
v 0.059825 0.838208 0.000000
v 0.057787 0.843507 0.015484
v 0.057787 0.838208 0.015484
v 0.051810 0.843507 0.029913
v 0.051810 0.838208 0.029913
v 0.042303 0.843507 0.042303
v 0.042303 0.838208 0.042303
v 0.029913 0.843507 0.051810
v 0.029913 0.838208 0.051810
v 0.015484 0.843507 0.057787
v 0.015484 0.838208 0.057787
v 0.000000 0.843507 0.059825
v 0.000000 0.838208 0.059825
v -0.015484 0.843507 0.057787
v -0.015484 0.838208 0.057787
v -0.029913 0.843507 0.051810
v -0.029913 0.838208 0.051810
v -0.042303 0.843507 0.042303
v -0.042303 0.838208 0.042303
v -0.051810 0.843507 0.029913
v -0.051810 0.838208 0.029913
v -0.057787 0.843507 0.015484
v -0.057787 0.838208 0.015484
v -0.059825 0.843507 0.000000
v -0.059825 0.838208 0.000000
v -0.057787 0.843507 -0.015484
v -0.057787 0.838208 -0.015484
v -0.051810 0.843507 -0.029913
v -0.051810 0.838208 -0.029913
v -0.042303 0.843507 -0.042303
v -0.042303 0.838208 -0.042303
v -0.029913 0.843507 -0.051810
v -0.029913 0.838208 -0.051810
v -0.015484 0.843507 -0.057787
v -0.015484 0.838208 -0.057787
v -0.011511 1.067721 -0.007515
v -0.014907 1.097187 -0.007515
v -0.022353 1.097755 -0.007515
v -0.031664 1.093039 -0.007515
v -0.038808 1.091371 -0.007515
v -0.043300 1.092835 -0.007515
v -0.043300 1.107572 -0.007515
v -0.038808 1.115466 -0.007515
v -0.031664 1.122244 -0.007515
v -0.022353 1.127445 -0.007515
v -0.011511 1.130715 -0.007515
v -0.011511 1.092723 -0.007515
v 0.000005 1.101694 -0.007515
v 0.000005 1.131819 -0.007515
v 0.000005 1.067721 -0.007515
v 0.000005 1.093724 -0.007515
v 0.011520 1.067721 -0.007515
v 0.014917 1.097187 -0.007515
v 0.022363 1.097755 -0.007515
v 0.031674 1.093039 -0.007515
v 0.038818 1.091371 -0.007515
v 0.043309 1.092835 -0.007515
v 0.043309 1.107572 -0.007515
v 0.038818 1.115466 -0.007515
v 0.031674 1.122244 -0.007515
v 0.022363 1.127445 -0.007515
v 0.011520 1.130715 -0.007515
v 0.011520 1.092723 -0.007515
v -0.040400 1.103595 -0.007515
v -0.032963 1.107991 -0.007515
v -0.013754 1.114558 -0.007515
v -0.045075 1.100249 -0.007515
v -0.023272 1.113152 -0.007515
v -0.006019 1.107753 -0.007515
v 0.040400 1.103595 -0.007515
v 0.032963 1.107991 -0.007515
v 0.013754 1.114558 -0.007515
v 0.045075 1.100249 -0.007515
v 0.023272 1.113152 -0.007515
v -0.008836 1.113907 -0.007515
v -0.000322 1.123068 -0.007515
v 0.008839 1.114554 -0.007515
v 0.000325 1.105393 -0.007515
v -0.006477 1.120251 -0.007515
v 0.006021 1.120708 -0.007515
v 0.006479 1.108210 -0.007515
v -0.011511 1.067721 0.007509
v -0.014902 1.097088 0.007509
v -0.022311 1.097617 0.007509
v -0.031596 1.092889 0.007509
v -0.038752 1.091188 0.007509
v -0.043255 1.092618 0.007509
v -0.043659 1.107865 0.007509
v -0.038980 1.115665 0.007509
v -0.031766 1.122412 0.007509
v -0.022406 1.127599 0.007509
v -0.011552 1.130880 0.007509
v -0.011511 1.092723 0.007509
v 0.000007 1.101577 0.007509
v 0.000004 1.132035 0.007509
v 0.000005 1.067721 0.007509
v 0.000005 1.093724 0.007509
v 0.011520 1.067721 0.007509
v 0.014912 1.097088 0.007509
v 0.022321 1.097617 0.007509
v 0.031606 1.092889 0.007509
v 0.038762 1.091188 0.007509
v 0.043265 1.092618 0.007509
v 0.043669 1.107865 0.007509
v 0.038989 1.115665 0.007509
v 0.031775 1.122411 0.007509
v 0.022416 1.127599 0.007509
v 0.011562 1.130880 0.007509
v 0.011520 1.092723 0.007509
v -0.040525 1.103643 0.007509
v -0.032992 1.108009 0.007509
v -0.013772 1.114563 0.007509
v -0.045138 1.100167 0.007509
v -0.023294 1.113178 0.007509
v -0.006012 1.107612 0.007509
v 0.040525 1.103643 0.007509
v 0.032992 1.108009 0.007509
v 0.013769 1.114560 0.007509
v 0.045138 1.100167 0.007509
v 0.023294 1.113178 0.007509
v -0.008866 1.113936 0.007509
v -0.000327 1.123285 0.007509
v 0.008872 1.114595 0.007509
v 0.000327 1.105196 0.007509
v -0.006524 1.120408 0.007509
v 0.006070 1.120873 0.007509
v 0.006470 1.108077 0.007509
v 0.000000 0.015000 0.000000
v -0.000000 -0.015000 0.000000
vn 0.3827 -0.0000 -0.9239
vn 0.9239 -0.0000 -0.3827
vn 0.9239 -0.0000 0.3827
vn 0.3827 -0.0000 0.9239
vn -0.3827 -0.0000 0.9239
vn -0.9239 -0.0000 0.3827
vn -0.0000 -1.0000 -0.0000
vn -0.9239 -0.0000 -0.3827
vn -0.3827 -0.0000 -0.9239
vn -0.0021 0.2017 -0.9794
vn 0.2588 -0.0000 -0.9659
vn -0.0000 -0.0000 -1.0000
vn 0.2486 0.1800 -0.9517
vn 0.5000 -0.0000 -0.8660
vn 0.4903 0.1602 -0.8567
vn 0.7071 -0.0000 -0.7071
vn 0.6988 0.1529 -0.6988
vn 0.8660 -0.0000 -0.5000
vn 0.8567 0.1602 -0.4903
vn 0.9659 -0.0000 -0.2588
vn 0.9516 0.1788 -0.2500
vn 1.0000 -0.0000 -0.0000
vn 0.9795 0.2015 -0.0019
vn 0.9659 -0.0000 0.2588
vn 0.9515 0.1811 0.2487
vn 0.8660 -0.0000 0.5000
vn 0.8567 0.1609 0.4901
vn 0.7071 -0.0000 0.7071
vn 0.6988 0.1528 0.6988
vn 0.5000 -0.0000 0.8660
vn 0.4901 0.1609 0.8567
vn 0.2588 -0.0000 0.9659
vn 0.2498 0.1802 0.9514
vn -0.0000 -0.0000 1.0000
vn 0.0021 0.2017 0.9794
vn -0.2588 -0.0000 0.9659
vn -0.2486 0.1800 0.9517
vn -0.5000 -0.0000 0.8660
vn -0.4903 0.1602 0.8567
vn -0.7071 -0.0000 0.7071
vn -0.6988 0.1529 0.6988
vn -0.8660 -0.0000 0.5000
vn -0.8567 0.1602 0.4903
vn -0.9659 -0.0000 0.2588
vn -0.9516 0.1788 0.2500
vn -1.0000 -0.0000 -0.0000
vn -0.9795 0.2015 0.0019
vn -0.9659 -0.0000 -0.2588
vn -0.9515 0.1811 -0.2487
vn -0.8660 -0.0000 -0.5000
vn -0.8567 0.1609 -0.4901
vn -0.7071 -0.0000 -0.7071
vn -0.6988 0.1528 -0.6988
vn -0.5000 -0.0000 -0.8660
vn 0.2324 0.4928 -0.8385
vn 0.4400 0.4874 -0.7542
vn -0.4901 0.1609 -0.8567
vn -0.2588 -0.0000 -0.9659
vn -0.2498 0.1802 -0.9514
vn -0.0054 0.8019 -0.5975
vn 0.0037 0.9619 -0.2734
vn 0.1417 0.8182 -0.5572
vn 0.8673 0.4974 0.0185
vn 0.8381 0.4933 0.2328
vn 0.2334 0.4937 0.8377
vn -0.0181 0.4973 0.8674
vn -0.8381 0.4932 0.2332
vn -0.4401 0.4877 -0.7540
vn 0.8381 0.4932 -0.2332
vn 0.4400 0.4877 0.7540
vn -0.4400 0.4874 0.7542
vn -0.6184 0.4850 0.6184
vn -0.8381 0.4933 -0.2328
vn -0.7540 0.4877 -0.4401
vn 0.6184 0.4850 -0.6184
vn 0.7540 0.4877 0.4401
vn 0.0181 0.4973 -0.8674
vn -0.2324 0.4928 0.8385
vn -0.8673 0.4974 -0.0185
vn -0.2334 0.4937 -0.8377
vn -0.7542 0.4874 0.4400
vn -0.6184 0.4850 -0.6184
vn 0.7542 0.4874 -0.4400
vn 0.6184 0.4850 0.6184
vn 0.2781 0.8290 -0.4852
vn 0.3926 0.8317 -0.3926
vn 0.4853 0.8290 -0.2781
vn 0.5974 0.8019 -0.0031
vn 0.5565 0.8186 -0.1425
vn 0.5574 0.8181 0.1417
vn 0.4844 0.8298 0.2771
vn 0.3915 0.8328 0.3915
vn 0.2771 0.8298 0.4844
vn 0.0054 0.8018 0.5975
vn 0.1423 0.8184 0.5568
vn -0.1417 0.8182 0.5572
vn -0.2781 0.8290 0.4852
vn -0.3926 0.8317 0.3926
vn -0.4853 0.8290 0.2781
vn -0.5974 0.8019 0.0031
vn -0.5565 0.8186 0.1425
vn -0.5574 0.8181 -0.1417
vn -0.4844 0.8298 -0.2771
vn -0.3915 0.8328 -0.3915
vn -0.2771 0.8298 -0.4844
vn -0.1423 0.8184 -0.5568
vn -0.0831 0.9693 -0.2315
vn -0.1668 0.9718 -0.1668
vn -0.2315 0.9693 -0.0831
vn -0.2734 0.9619 0.0037
vn 0.0913 0.9682 -0.2331
vn 0.0050 0.9838 -0.1789
vn -0.0946 0.9910 -0.0946
vn -0.1789 0.9838 0.0050
vn -0.2331 0.9682 0.0913
vn 0.1716 0.9701 -0.1716
vn 0.0998 0.9900 -0.0998
vn -0.0000 1.0000 -0.0000
vn -0.0998 0.9900 0.0998
vn -0.1716 0.9701 0.1716
vn 0.2331 0.9682 -0.0913
vn 0.1789 0.9838 -0.0050
vn 0.0946 0.9910 0.0946
vn -0.0050 0.9838 0.1789
vn -0.0913 0.9682 0.2331
vn 0.2734 0.9619 -0.0037
vn 0.2315 0.9693 0.0831
vn 0.1668 0.9718 0.1668
vn 0.0831 0.9693 0.2315
vn -0.0037 0.9619 0.2734
vn -0.0000 -0.3587 -0.9335
vn 0.2416 0.3587 -0.9016
vn 0.2416 -0.3587 -0.9016
vn 0.4667 0.3587 -0.8084
vn 0.4667 -0.3587 -0.8084
vn 0.6601 0.3587 -0.6601
vn 0.6600 -0.3587 -0.6600
vn 0.8084 0.3587 -0.4667
vn 0.8084 -0.3587 -0.4667
vn 0.9016 0.3587 -0.2416
vn 0.9016 -0.3587 -0.2416
vn 0.9335 0.3587 -0.0000
vn 0.9335 -0.3587 -0.0000
vn 0.9016 0.3587 0.2416
vn 0.9016 -0.3587 0.2416
vn 0.8084 0.3587 0.4667
vn 0.8084 -0.3587 0.4667
vn 0.6600 0.3587 0.6601
vn 0.6600 -0.3587 0.6600
vn 0.4667 0.3587 0.8084
vn 0.4667 -0.3587 0.8084
vn 0.2416 0.3587 0.9016
vn 0.2416 -0.3587 0.9016
vn -0.0000 0.3587 0.9335
vn -0.0000 -0.3587 0.9335
vn -0.2416 0.3587 0.9016
vn -0.2416 -0.3587 0.9016
vn -0.4667 0.3587 0.8084
vn -0.4667 -0.3587 0.8084
vn -0.6601 0.3587 0.6601
vn -0.6600 -0.3587 0.6600
vn -0.8084 0.3587 0.4667
vn -0.8084 -0.3587 0.4667
vn -0.9016 0.3587 0.2416
vn -0.9016 -0.3587 0.2416
vn -0.9335 0.3587 -0.0000
vn -0.9335 -0.3587 -0.0000
vn -0.9016 0.3587 -0.2416
vn -0.9016 -0.3587 -0.2416
vn -0.8084 0.3587 -0.4667
vn -0.8084 -0.3587 -0.4667
vn -0.6600 0.3587 -0.6601
vn -0.6600 -0.3587 -0.6600
vn -0.4667 0.3587 -0.8084
vn -0.4667 -0.3587 -0.8084
vn -0.2416 0.3587 -0.9016
vn -0.2416 -0.3587 -0.9016
vn -0.0000 0.3587 -0.9335
vn 0.6601 0.3587 -0.6600
vn 0.6601 -0.3587 -0.6600
vn 0.9334 0.3587 -0.0000
vn -0.6601 0.3587 0.6600
vn -0.6601 -0.3587 0.6600
vn -0.9334 0.3587 -0.0000
vn 0.3640 0.6856 -0.6304
vn 0.1884 0.6856 -0.7032
vn -0.0000 0.6856 -0.7280
vn -0.0000 -0.6856 -0.7280
vn 0.1884 -0.6856 -0.7031
vn 0.5147 0.6856 -0.5147
vn 0.3640 -0.6856 -0.6304
vn 0.6304 0.6856 -0.3640
vn 0.5147 -0.6856 -0.5147
vn 0.7032 0.6856 -0.1884
vn 0.6304 -0.6856 -0.3640
vn 0.7280 0.6856 -0.0000
vn 0.7032 -0.6856 -0.1884
vn 0.7032 0.6856 0.1884
vn 0.7280 -0.6856 -0.0000
vn 0.6304 0.6856 0.3640
vn 0.7031 -0.6856 0.1884
vn 0.5147 0.6856 0.5147
vn 0.6304 -0.6856 0.3640
vn 0.3640 0.6856 0.6304
vn 0.5147 -0.6856 0.5147
vn 0.1884 0.6856 0.7032
vn 0.3640 -0.6856 0.6304
vn -0.0000 0.6856 0.7280
vn 0.1884 -0.6856 0.7031
vn -0.1884 0.6856 0.7032
vn -0.0000 -0.6856 0.7280
vn -0.3640 0.6856 0.6304
vn -0.1884 -0.6856 0.7031
vn -0.5147 0.6856 0.5147
vn -0.3640 -0.6856 0.6304
vn -0.6304 0.6856 0.3640
vn -0.5147 -0.6856 0.5147
vn -0.7032 0.6856 0.1884
vn -0.6304 -0.6856 0.3640
vn -0.7280 0.6856 -0.0000
vn -0.7032 -0.6856 0.1884
vn -0.7032 0.6856 -0.1884
vn -0.7280 -0.6856 -0.0000
vn -0.6304 0.6856 -0.3640
vn -0.7031 -0.6856 -0.1884
vn -0.5147 0.6856 -0.5147
vn -0.6304 -0.6856 -0.3640
vn -0.3640 0.6856 -0.6304
vn -0.5147 -0.6856 -0.5147
vn -0.1884 0.6856 -0.7032
vn -0.3640 -0.6856 -0.6304
vn -0.1884 -0.6856 -0.7031
vn -0.1884 0.6856 -0.7031
vn 0.1884 0.6856 -0.7031
vn 0.7279 0.6856 -0.0000
vn 0.7031 -0.6856 -0.1884
vn 0.7031 0.6856 0.1884
vn 0.1884 0.6856 0.7031
vn -0.1884 0.6856 0.7031
vn -0.7279 0.6856 -0.0000
vn -0.7031 -0.6856 0.1884
vn -0.7031 0.6856 -0.1884
vn -0.4765 -0.8792 -0.0066
vn 0.1973 -0.9803 -0.0091
vn 0.1953 -0.9807 -0.0096
vn 0.3429 -0.9393 -0.0112
vn 0.3450 -0.9386 -0.0109
vn -0.0369 -0.9993 -0.0113
vn -0.0429 -0.9990 -0.0130
vn -0.7269 -0.6868 -0.0066
vn -0.7365 -0.6763 -0.0096
vn -0.7848 0.6194 -0.0218
vn -0.9349 0.3542 -0.0246
vn -0.7784 0.6276 -0.0157
vn -0.5915 0.8061 -0.0145
vn -0.5887 0.8082 -0.0123
vn -0.3899 0.9208 -0.0115
vn -0.3890 0.9212 -0.0109
vn -0.1939 0.9809 -0.0121
vn -0.1954 0.9807 -0.0113
vn -0.0000 0.9999 -0.0126
vn -0.0000 0.9999 -0.0144
vn -0.9997 -0.0196 -0.0113
vn -1.0000 0.0022 -0.0042
vn -0.9460 -0.3243 -0.0000
vn -0.9472 -0.3206 -0.0015
vn -0.4731 -0.8810 -0.0040
vn -0.7339 0.6792 0.0051
vn -0.9994 -0.0349 0.0046
vn -0.9994 -0.0359 0.0023
vn 0.4765 -0.8792 -0.0065
vn -0.1973 -0.9803 -0.0091
vn 0.4731 -0.8810 -0.0040
vn -0.3429 -0.9393 -0.0112
vn -0.1953 -0.9807 -0.0096
vn 0.0369 -0.9993 -0.0113
vn -0.3450 -0.9385 -0.0109
vn 0.0429 -0.9990 -0.0130
vn 0.7273 -0.6863 -0.0066
vn 0.7848 0.6194 -0.0218
vn 0.9351 0.3536 -0.0246
vn 0.9326 0.3603 -0.0205
vn 0.5915 0.8062 -0.0145
vn 0.7784 0.6276 -0.0157
vn 0.3899 0.9208 -0.0115
vn 0.5888 0.8082 -0.0122
vn 0.1939 0.9809 -0.0121
vn 0.3890 0.9212 -0.0109
vn 0.1954 0.9807 -0.0113
vn 0.7370 -0.6759 -0.0096
vn 0.9997 -0.0195 -0.0112
vn 0.9472 -0.3206 -0.0015
vn 0.9460 -0.3243 -0.0000
vn -0.9324 0.3609 -0.0205
vn 0.0368 -0.9992 0.0127
vn -0.6845 -0.7290 0.0110
vn 0.0369 -0.9992 0.0144
vn 1.0000 0.0022 -0.0042
vn 0.7342 -0.6789 0.0078
vn 0.9993 0.0374 0.0044
vn 0.9993 0.0371 0.0019
vn -0.0368 0.9993 0.0100
vn 0.6836 0.7298 0.0079
vn -0.0371 0.9992 0.0131
vn 0.6825 0.7309 0.0056
vn 0.7359 -0.6770 0.0103
vn -0.6826 -0.7307 0.0085
vn -0.7347 0.6784 0.0072
vt 0.018523 0.044784
vt 0.021549 0.043234
vt 0.018523 0.043234
vt 0.021549 0.044784
vt 0.028854 0.043234
vt 0.028854 0.044784
vt 0.036160 0.043234
vt 0.036160 0.044784
vt 0.039186 0.043234
vt 0.039186 0.044784
vt 0.037341 0.728021
vt 0.037407 0.727902
vt 0.037341 0.727902
vt 0.037407 0.728021
vt 0.037600 0.727902
vt 0.037600 0.728021
vt 0.037908 0.727902
vt 0.037908 0.728021
vt 0.038310 0.727902
vt 0.038310 0.728021
vt 0.038777 0.727902
vt 0.038777 0.728021
vt 0.039279 0.727902
vt 0.039279 0.728021
vt 0.039780 0.727902
vt 0.039780 0.728021
vt 0.040248 0.727902
vt 0.040248 0.728021
vt 0.040649 0.727902
vt 0.040649 0.728021
vt 0.040957 0.727902
vt 0.040957 0.728021
vt 0.041151 0.727902
vt 0.041151 0.728021
vt 0.041217 0.727902
vt 0.041217 0.728021
vt 0.037465 0.728166
vt 0.037647 0.728163
vt 0.037479 0.728268
vt 0.037698 0.728337
vt 0.037540 0.728268
vt 0.039303 0.728169
vt 0.039786 0.728166
vt 0.041092 0.728166
vt 0.041151 0.728169
vt 0.039786 0.728166
vt 0.037648 0.728163
vt 0.038772 0.728166
vt 0.040910 0.728163
vt 0.040910 0.728163
vt 0.040617 0.728162
vt 0.038772 0.728166
vt 0.038324 0.728163
vt 0.037940 0.728162
vt 0.040234 0.728163
vt 0.037407 0.728169
vt 0.041092 0.728166
vt 0.039254 0.728169
vt 0.037466 0.728166
vt 0.040234 0.728163
vt 0.037940 0.728162
vt 0.038324 0.728163
vt 0.040617 0.728162
vt 0.037720 0.728268
vt 0.038006 0.728268
vt 0.038379 0.728268
vt 0.039279 0.728268
vt 0.038813 0.728268
vt 0.039745 0.728268
vt 0.040179 0.728268
vt 0.040551 0.728268
vt 0.040837 0.728268
vt 0.041079 0.728268
vt 0.041017 0.728268
vt 0.037988 0.728398
vt 0.038379 0.728422
vt 0.038831 0.728398
vt 0.039301 0.728337
vt 0.037970 0.728388
vt 0.038349 0.728500
vt 0.038813 0.728547
vt 0.039308 0.728500
vt 0.039781 0.728388
vt 0.038338 0.728407
vt 0.038780 0.728540
vt 0.039279 0.728597
vt 0.039778 0.728540
vt 0.040219 0.728407
vt 0.038777 0.728388
vt 0.039249 0.728500
vt 0.039745 0.728547
vt 0.040208 0.728500
vt 0.040587 0.728388
vt 0.039257 0.728337
vt 0.039727 0.728398
vt 0.040179 0.728422
vt 0.040569 0.728398
vt 0.040860 0.728337
vt 0.037407 0.713459
vt 0.037600 0.697138
vt 0.037407 0.697138
vt 0.037341 0.713459
vt 0.037341 0.697138
vt 0.024900 0.045643
vt 0.025093 0.038887
vt 0.024900 0.038887
vt 0.024834 0.045643
vt 0.024834 0.038887
vt 0.037600 0.713459
vt 0.037908 0.697138
vt 0.025093 0.045643
vt 0.025401 0.038887
vt 0.037908 0.713459
vt 0.038310 0.697138
vt 0.025401 0.045643
vt 0.025803 0.038887
vt 0.038310 0.713459
vt 0.038777 0.697138
vt 0.025803 0.045643
vt 0.026270 0.038887
vt 0.038777 0.713459
vt 0.039279 0.697138
vt 0.026270 0.045643
vt 0.026772 0.038887
vt 0.039279 0.713459
vt 0.039780 0.697138
vt 0.026772 0.045643
vt 0.027273 0.038887
vt 0.039780 0.713459
vt 0.040248 0.697138
vt 0.027273 0.045643
vt 0.027741 0.038887
vt 0.040248 0.713459
vt 0.040649 0.697138
vt 0.027741 0.045643
vt 0.028142 0.038887
vt 0.040649 0.713459
vt 0.040957 0.697138
vt 0.028142 0.045643
vt 0.028450 0.038887
vt 0.040957 0.713459
vt 0.041151 0.697138
vt 0.028450 0.045643
vt 0.028644 0.038887
vt 0.041151 0.713459
vt 0.041217 0.697138
vt 0.028644 0.045643
vt 0.028710 0.038887
vt 0.041217 0.713459
vt 0.028710 0.045643
vt 0.037407 0.720960
vt 0.037341 0.720960
vt 0.037600 0.720960
vt 0.037908 0.720960
vt 0.038310 0.720960
vt 0.038777 0.720960
vt 0.039279 0.720960
vt 0.039780 0.720960
vt 0.040248 0.720960
vt 0.040649 0.720960
vt 0.040957 0.720960
vt 0.041151 0.720960
vt 0.041217 0.720960
vt 0.037250 0.713556
vt 0.037319 0.713735
vt 0.037319 0.713556
vt 0.037522 0.713735
vt 0.037522 0.713556
vt 0.037844 0.713735
vt 0.037844 0.713556
vt 0.038264 0.713735
vt 0.038264 0.713556
vt 0.038754 0.713735
vt 0.038754 0.713556
vt 0.039279 0.713735
vt 0.039279 0.713556
vt 0.039804 0.713735
vt 0.039804 0.713556
vt 0.040293 0.713735
vt 0.040293 0.713556
vt 0.040713 0.713735
vt 0.040713 0.713556
vt 0.041036 0.713735
vt 0.041036 0.713556
vt 0.041238 0.713735
vt 0.041238 0.713556
vt 0.041308 0.713735
vt 0.041308 0.713556
vt 0.037250 0.713735
vt 0.037250 0.720684
vt 0.037319 0.720863
vt 0.037319 0.720684
vt 0.037522 0.720863
vt 0.037522 0.720684
vt 0.037844 0.720863
vt 0.037844 0.720684
vt 0.038264 0.720863
vt 0.038264 0.720684
vt 0.038754 0.720863
vt 0.038754 0.720684
vt 0.039279 0.720863
vt 0.039279 0.720684
vt 0.039804 0.720863
vt 0.039804 0.720684
vt 0.040293 0.720863
vt 0.040293 0.720684
vt 0.040713 0.720863
vt 0.040713 0.720684
vt 0.041036 0.720863
vt 0.041036 0.720684
vt 0.041238 0.720863
vt 0.041238 0.720684
vt 0.041308 0.720863
vt 0.041308 0.720684
vt 0.037250 0.720863
vt 0.037600 0.713832
vt 0.037407 0.713832
vt 0.037341 0.713832
vt 0.037908 0.713832
vt 0.038310 0.713832
vt 0.038777 0.713832
vt 0.039279 0.713832
vt 0.039780 0.713832
vt 0.040248 0.713832
vt 0.040649 0.713832
vt 0.040957 0.713832
vt 0.041151 0.713832
vt 0.041217 0.713832
vt 0.037341 0.720587
vt 0.037407 0.720587
vt 0.037600 0.720587
vt 0.037908 0.720587
vt 0.038310 0.720587
vt 0.038777 0.720587
vt 0.039279 0.720587
vt 0.039780 0.720587
vt 0.040248 0.720587
vt 0.040649 0.720587
vt 0.040957 0.720587
vt 0.041151 0.720587
vt 0.041217 0.720587
vt 0.039024 0.729684
vt 0.039024 0.729326
vt 0.039024 0.729269
vt 0.039024 0.729833
vt 0.039024 0.729486
vt 0.039024 0.729319
vt 0.039024 0.729570
vt 0.039024 0.730008
vt 0.039024 0.729466
vt 0.039024 0.729315
vt 0.039024 0.728467
vt 0.039024 0.730249
vt 0.039024 0.730056
vt 0.039024 0.730603
vt 0.039024 0.729619
vt 0.039024 0.729349
vt 0.039024 0.729825
vt 0.039024 0.730493
vt 0.039024 0.729819
vt 0.039024 0.730086
vt 0.039024 0.730316
vt 0.039024 0.730264
vt 0.039024 0.730641
vt 0.039024 0.730344
vt 0.039024 0.729840
vt 0.039024 0.730055
vt 0.039533 0.729685
vt 0.039533 0.729321
vt 0.039533 0.729833
vt 0.039533 0.729481
vt 0.039533 0.730009
vt 0.039533 0.729311
vt 0.039533 0.729568
vt 0.039533 0.729463
vt 0.039533 0.730056
vt 0.039533 0.729315
vt 0.039533 0.728467
vt 0.039533 0.729349
vt 0.039533 0.730254
vt 0.039533 0.730034
vt 0.039533 0.729615
vt 0.039533 0.729263
vt 0.039533 0.729820
vt 0.039533 0.730498
vt 0.039533 0.730056
vt 0.039533 0.729829
vt 0.039533 0.730322
vt 0.039533 0.730093
vt 0.039533 0.730270
vt 0.039533 0.730057
vt 0.039533 0.730609
vt 0.039533 0.730648
vt 0.039533 0.730351
vt 0.039533 0.729836
vt 0.039533 0.729738
vt 0.039533 0.730609
vt 0.039024 0.730033
vt 0.039024 0.729745
s 0
g traffic_bollard_02_yellow_medium_regular_material
usemtl regular_material
f 2/1/1 3/2/1 1/3/1
f 4/4/2 5/5/2 3/2/2
f 6/6/3 7/7/3 5/5/3
f 8/8/4 9/9/4 7/7/4
f 10/10/5 11/7/5 9/9/5
f 12/8/6 13/5/6 11/7/6
f 1/3/7 3/2/7 447/5/7
f 14/6/8 15/2/8 13/5/8
f 16/4/9 1/3/9 15/2/9
s 10
f 18/11/10 139/12/11 138/13/12
f 20/14/13 140/15/14 139/12/11
f 22/16/15 141/17/16 140/15/14
f 24/18/17 142/19/18 141/17/16
f 26/20/19 143/21/20 142/19/18
f 28/22/21 144/23/22 143/21/20
f 30/24/23 145/25/24 144/23/22
f 32/26/25 146/27/26 145/25/24
f 34/28/27 147/29/28 146/27/26
f 36/30/29 148/31/30 147/29/28
f 38/32/31 149/33/32 148/31/30
f 40/34/33 150/35/34 149/33/32
f 42/36/35 151/33/36 150/35/34
f 44/34/37 152/31/38 151/33/36
f 46/32/39 153/29/40 152/31/38
f 48/30/41 154/27/42 153/29/40
f 50/28/43 155/25/44 154/27/42
f 52/26/45 156/23/46 155/25/44
f 54/24/47 157/21/48 156/23/46
f 56/22/49 158/19/50 157/21/48
f 58/20/51 159/17/52 158/19/50
f 60/18/53 160/15/54 159/17/52
f 22/16/15 65/37/55 67/38/56
f 62/16/57 161/12/58 160/15/54
f 64/14/59 138/13/12 161/12/58
f 90/39/60 113/40/61 89/41/62
f 32/26/25 71/42/63 72/43/64
f 42/36/35 76/44/65 77/45/66
f 50/28/43 82/46/67 52/26/45
f 60/18/53 87/47/68 62/16/57
f 26/20/19 70/48/69 28/22/21
f 36/30/29 75/49/70 38/32/31
f 48/30/41 79/50/71 80/51/72
f 58/20/51 84/52/73 85/53/74
f 24/18/17 67/38/56 68/54/75
f 34/28/27 72/43/64 73/55/76
f 20/14/13 66/56/77 65/37/55
f 44/34/37 77/45/66 78/57/78
f 54/24/47 82/46/67 83/58/79
f 62/16/57 88/59/80 64/14/59
f 30/24/23 70/48/69 71/42/63
f 38/32/31 76/44/65 40/34/33
f 48/30/41 81/60/81 50/28/43
f 60/18/53 85/53/74 86/61/82
f 24/18/17 69/62/83 26/20/19
f 36/30/29 73/55/76 74/63/84
f 46/32/39 78/57/78 79/50/71
f 56/22/49 83/58/79 84/52/73
f 18/11/10 88/59/80 66/56/77
f 89/41/62 66/56/77 90/39/60
f 91/64/85 65/37/55 89/41/62
f 92/65/86 67/38/56 91/64/85
f 92/65/86 69/62/83 68/54/75
f 93/66/87 70/48/69 69/62/83
f 95/67/88 70/48/69 94/68/89
f 96/69/90 71/42/63 95/67/88
f 97/70/91 72/43/64 96/69/90
f 98/71/92 73/55/76 97/70/91
f 98/71/92 75/49/70 74/63/84
f 99/72/93 76/44/65 75/49/70
f 101/73/94 76/44/65 100/74/95
f 102/74/96 77/45/66 101/73/94
f 103/72/97 78/57/78 102/74/96
f 104/71/98 79/50/71 103/72/97
f 104/71/98 81/60/81 80/51/72
f 105/70/99 82/46/67 81/60/81
f 107/67/100 82/46/67 106/69/101
f 108/68/102 83/58/79 107/67/100
f 109/66/103 84/52/73 108/68/102
f 110/65/104 85/53/74 109/66/103
f 110/65/104 87/47/68 86/61/82
f 111/64/105 88/59/80 87/47/68
f 90/39/60 88/59/80 112/41/106
f 112/41/106 118/75/107 113/40/61
f 111/64/105 123/76/108 118/75/107
f 123/76/108 109/66/103 128/77/109
f 128/77/109 108/68/102 133/78/110
f 133/78/110 107/67/100 106/69/101
f 89/41/62 114/79/111 91/64/85
f 113/40/61 119/80/112 114/79/111
f 118/75/107 124/81/113 119/80/112
f 124/81/113 128/77/109 129/82/114
f 129/82/114 133/78/110 134/83/115
f 134/83/115 106/69/101 105/70/99
f 91/64/85 115/84/116 92/65/86
f 114/79/111 120/85/117 115/84/116
f 119/80/112 125/86/118 120/85/117
f 125/86/118 129/82/114 130/87/119
f 130/87/119 134/83/115 135/88/120
f 135/88/120 105/70/99 104/71/98
f 93/66/87 115/84/116 116/89/121
f 116/89/121 120/85/117 121/90/122
f 121/90/122 125/86/118 126/91/123
f 125/86/118 131/92/124 126/91/123
f 130/87/119 136/93/125 131/92/124
f 135/88/120 103/72/97 136/93/125
f 94/68/89 116/89/121 117/94/126
f 117/94/126 121/90/122 122/95/127
f 122/95/127 126/91/123 127/96/128
f 126/91/123 132/97/129 127/96/128
f 131/92/124 137/98/130 132/97/129
f 136/93/125 102/74/96 137/98/130
f 95/67/88 117/94/126 96/69/90
f 96/69/90 122/95/127 97/70/91
f 97/70/91 127/96/128 98/71/92
f 127/96/128 99/72/93 98/71/92
f 132/97/129 100/74/95 99/72/93
f 137/98/130 101/73/94 100/74/95
s 11
f 163/99/11 21/100/14 19/101/11
f 208/102/12 19/101/11 17/103/12
s 12
f 213/104/11 164/105/14 162/106/11
f 210/107/12 162/106/11 209/108/12
s 11
f 165/109/14 23/110/16 21/100/14
s 12
f 215/111/14 166/112/16 164/105/14
s 11
f 167/113/16 25/114/18 23/110/16
s 12
f 217/115/16 168/116/18 166/112/16
s 11
f 169/117/18 27/118/20 25/114/18
s 12
f 219/119/18 170/120/20 168/116/18
s 11
f 171/121/20 29/122/22 27/118/20
s 12
f 221/123/20 172/124/22 170/120/20
s 11
f 173/125/22 31/126/24 29/122/22
s 12
f 223/127/22 174/128/24 172/124/22
s 11
f 175/129/24 33/130/26 31/126/24
s 12
f 225/131/24 176/132/26 174/128/24
s 11
f 177/133/26 35/134/28 33/130/26
s 12
f 227/135/26 178/136/28 176/132/26
s 11
f 179/137/28 37/138/30 35/134/28
s 12
f 229/139/28 180/140/30 178/136/28
s 11
f 181/141/30 39/142/32 37/138/30
s 12
f 231/143/30 182/144/32 180/140/30
s 11
f 183/145/32 41/146/34 39/142/32
s 12
f 233/147/32 184/148/34 182/144/32
s 11
f 185/149/34 43/142/36 41/146/34
s 12
f 235/150/34 186/144/36 184/148/34
s 11
f 187/145/36 45/138/38 43/142/36
s 12
f 237/147/36 188/140/38 186/144/36
s 11
f 189/141/38 47/134/40 45/138/38
s 12
f 239/143/38 190/136/40 188/140/38
s 11
f 191/137/40 49/130/42 47/134/40
s 12
f 241/139/40 192/132/42 190/136/40
s 11
f 193/133/42 51/126/44 49/130/42
s 12
f 243/135/42 194/128/44 192/132/42
s 11
f 195/129/44 53/122/46 51/126/44
s 12
f 245/131/44 196/124/46 194/128/44
s 11
f 197/125/46 55/118/48 53/122/46
s 12
f 247/127/46 198/120/48 196/124/46
s 11
f 199/121/48 57/114/50 55/118/48
s 12
f 249/123/48 200/116/50 198/120/48
s 11
f 201/117/50 59/110/52 57/114/50
s 12
f 251/119/50 202/112/52 200/116/50
s 11
f 203/113/52 61/100/54 59/110/52
s 12
f 253/115/52 204/105/54 202/112/52
s 11
f 205/109/54 63/101/58 61/100/54
s 12
f 255/111/54 206/106/58 204/105/54
s 11
f 207/99/58 17/103/12 63/101/58
s 12
f 257/104/58 209/108/12 206/106/58
s 13
f 138/13/12 212/151/11 211/152/12
f 161/12/58 211/152/12 256/151/58
f 139/12/11 214/153/14 212/151/11
f 140/15/14 216/154/16 214/153/14
f 141/17/16 218/155/18 216/154/16
f 142/19/18 220/156/20 218/155/18
f 143/21/20 222/157/22 220/156/20
f 144/23/22 224/158/24 222/157/22
f 145/25/24 226/159/26 224/158/24
f 146/27/26 228/160/28 226/159/26
f 147/29/28 230/161/30 228/160/28
f 148/31/30 232/162/32 230/161/30
f 149/33/32 234/163/34 232/162/32
f 150/35/34 236/162/36 234/163/34
f 151/33/36 238/161/38 236/162/36
f 152/31/38 240/160/40 238/161/38
f 153/29/40 242/159/42 240/160/40
f 154/27/42 244/158/44 242/159/42
f 155/25/44 246/157/46 244/158/44
f 156/23/46 248/156/48 246/157/46
f 157/21/48 250/155/50 248/156/48
f 158/19/50 252/154/52 250/155/50
f 159/17/52 254/153/54 252/154/52
f 160/15/54 256/151/58 254/153/54
s 14
f 304/164/131 258/165/132 259/166/133
f 259/166/133 260/167/134 261/168/135
f 261/168/135 262/169/136 263/170/137
f 263/170/137 264/171/138 265/172/139
f 265/172/139 266/173/140 267/174/141
f 267/174/141 268/175/142 269/176/143
f 269/176/143 270/177/144 271/178/145
f 271/178/145 272/179/146 273/180/147
f 273/180/147 274/181/148 275/182/149
f 275/182/149 276/183/150 277/184/151
f 277/184/151 278/185/152 279/186/153
f 279/186/153 280/187/154 281/188/155
f 281/188/155 282/185/156 283/186/157
f 283/186/157 284/183/158 285/184/159
f 285/184/159 286/181/160 287/182/161
f 287/182/161 288/179/162 289/180/163
f 289/180/163 290/177/164 291/178/165
f 291/178/165 292/175/166 293/176/167
f 293/176/167 294/173/168 295/174/169
f 295/174/169 296/171/170 297/172/171
f 297/172/171 298/169/172 299/170/173
f 299/170/173 300/167/174 301/168/175
f 301/168/175 302/165/176 303/166/177
f 303/166/177 305/189/178 304/164/131
s 15
f 306/190/131 308/191/132 309/192/133
f 309/192/133 310/193/134 311/194/135
f 311/194/135 312/195/179 313/196/180
f 313/196/180 314/197/138 315/198/139
f 315/198/139 316/199/140 317/200/141
f 317/200/141 318/201/181 319/202/143
f 319/202/143 320/203/144 321/204/145
f 321/204/145 322/205/146 323/206/147
f 323/206/147 324/207/148 325/208/149
f 325/208/149 326/209/150 327/210/151
f 327/210/151 328/211/152 329/212/153
f 329/212/153 330/213/154 331/214/155
f 331/214/155 332/211/156 333/212/157
f 333/212/157 334/209/158 335/210/159
f 335/210/159 336/207/182 337/208/183
f 337/208/183 338/205/162 339/206/163
f 339/206/163 340/203/164 341/204/165
f 341/204/165 342/201/184 343/202/167
f 343/202/167 344/199/168 345/200/169
f 345/200/169 346/197/170 347/198/171
f 347/198/171 348/195/172 349/196/173
f 349/196/173 350/193/174 351/194/175
f 351/194/175 352/191/176 353/192/177
f 353/192/177 307/215/178 306/190/131
s 14
f 164/216/185 258/165/132 162/217/186
f 162/217/186 305/189/178 209/218/187
f 259/166/133 208/102/188 304/164/131
f 261/168/135 163/99/189 259/166/133
f 166/219/190 260/167/134 164/216/185
f 263/170/137 165/109/191 261/168/135
f 168/220/192 262/169/136 166/219/190
f 265/172/139 167/113/193 263/170/137
f 170/221/194 264/171/138 168/220/192
f 267/174/141 169/117/195 265/172/139
f 172/222/196 266/173/140 170/221/194
f 269/176/143 171/121/197 267/174/141
f 174/223/198 268/175/142 172/222/196
f 271/178/145 173/125/199 269/176/143
f 176/224/200 270/177/144 174/223/198
f 273/180/147 175/129/201 271/178/145
f 178/225/202 272/179/146 176/224/200
f 275/182/149 177/133/203 273/180/147
f 180/226/204 274/181/148 178/225/202
f 277/184/151 179/137/205 275/182/149
f 182/227/206 276/183/150 180/226/204
f 279/186/153 181/141/207 277/184/151
f 184/228/208 278/185/152 182/227/206
f 281/188/155 183/145/209 279/186/153
f 186/227/210 280/187/154 184/228/208
f 283/186/157 185/149/211 281/188/155
f 188/226/212 282/185/156 186/227/210
f 285/184/159 187/145/213 283/186/157
f 190/225/214 284/183/158 188/226/212
f 287/182/161 189/141/215 285/184/159
f 192/224/216 286/181/160 190/225/214
f 289/180/163 191/137/217 287/182/161
f 194/223/218 288/179/162 192/224/216
f 291/178/165 193/133/219 289/180/163
f 196/222/220 290/177/164 194/223/218
f 293/176/167 195/129/221 291/178/165
f 198/221/222 292/175/166 196/222/220
f 295/174/169 197/125/223 293/176/167
f 200/220/224 294/173/168 198/221/222
f 297/172/171 199/121/225 295/174/169
f 202/219/226 296/171/170 200/220/224
f 299/170/173 201/117/227 297/172/171
f 204/216/228 298/169/172 202/219/226
f 301/168/175 203/113/229 299/170/173
f 206/217/230 300/167/174 204/216/228
f 303/166/177 205/109/231 301/168/175
f 209/218/187 302/165/176 206/217/230
f 304/164/131 207/99/232 303/166/177
s 15
f 211/152/187 352/191/176 256/151/233
f 212/151/234 307/215/178 211/152/187
f 309/192/133 210/229/188 306/190/131
f 306/190/131 257/230/232 353/192/177
f 214/153/185 308/191/132 212/151/234
f 311/194/135 213/230/189 309/192/133
f 216/154/190 310/193/134 214/153/185
f 313/196/180 215/231/191 311/194/135
f 218/155/192 312/195/179 216/154/190
f 315/198/139 217/232/193 313/196/180
f 220/156/194 314/197/138 218/155/192
f 317/200/141 219/233/195 315/198/139
f 222/157/235 316/199/140 220/156/194
f 319/202/143 221/234/236 317/200/141
f 224/158/237 318/201/181 222/157/235
f 321/204/145 223/235/199 319/202/143
f 226/159/200 320/203/144 224/158/237
f 323/206/147 225/236/201 321/204/145
f 228/160/202 322/205/146 226/159/200
f 325/208/149 227/237/203 323/206/147
f 230/161/204 324/207/148 228/160/202
f 327/210/151 229/238/205 325/208/149
f 232/162/238 326/209/150 230/161/204
f 329/212/153 231/239/207 327/210/151
f 234/163/208 328/211/152 232/162/238
f 331/214/155 233/240/209 329/212/153
f 236/162/239 330/213/154 234/163/208
f 333/212/157 235/241/211 331/214/155
f 238/161/212 332/211/156 236/162/239
f 335/210/159 237/240/213 333/212/157
f 240/160/214 334/209/158 238/161/212
f 337/208/183 239/239/215 335/210/159
f 242/159/216 336/207/182 240/160/214
f 339/206/163 241/238/217 337/208/183
f 244/158/218 338/205/162 242/159/216
f 341/204/165 243/237/219 339/206/163
f 246/157/240 340/203/164 244/158/218
f 343/202/167 245/236/241 341/204/165
f 248/156/242 342/201/184 246/157/240
f 345/200/169 247/235/223 343/202/167
f 250/155/224 344/199/168 248/156/242
f 347/198/171 249/234/225 345/200/169
f 252/154/226 346/197/170 250/155/224
f 349/196/173 251/233/227 347/198/171
f 254/153/228 348/195/172 252/154/226
f 351/194/175 253/232/229 349/196/173
f 256/151/233 350/193/174 254/153/228
f 353/192/177 255/231/231 351/194/175
s 16
f 382/242/12 357/243/12 358/244/12
f 383/245/12 356/246/12 357/243/12
f 382/242/12 359/247/12 385/248/12
f 386/249/12 355/250/12 356/246/12
f 365/251/12 368/252/12 354/252/12
f 397/253/12 384/254/12 364/255/12
f 366/256/12 365/251/12 355/250/12
f 388/242/12 373/243/12 389/245/12
f 389/245/12 372/246/12 392/249/12
f 375/247/12 388/242/12 391/248/12
f 392/249/12 371/250/12 390/254/12
f 381/251/12 368/252/12 369/257/12
f 381/251/12 366/256/12 371/250/12
f 384/254/12 387/258/12 355/250/12
f 379/259/12 390/254/12 380/255/12
f 376/260/12 388/242/12 377/261/12
f 378/262/12 392/249/12 379/259/12
f 377/261/12 389/245/12 378/262/12
f 390/254/12 398/263/12 380/255/12
f 363/259/12 384/254/12 386/249/12
f 360/260/12 382/242/12 385/248/12
f 362/262/12 386/249/12 383/245/12
f 361/261/12 383/245/12 382/242/12
f 398/263/12 367/264/12 380/255/12
f 394/265/12 364/255/12 367/264/12
f 366/256/12 399/266/12 371/250/12
f 387/258/12 366/256/12 355/250/12
f 390/254/12 399/266/12 395/267/12
s 17
f 428/268/34 403/269/34 429/270/34
f 429/270/34 402/271/34 432/272/34
f 405/273/34 428/268/34 431/274/34
f 432/272/34 401/275/34 430/276/34
f 411/277/34 414/278/34 415/279/34
f 443/280/34 430/276/34 439/281/34
f 411/277/34 412/282/34 401/275/34
f 434/268/34 419/269/34 420/283/34
f 435/270/34 418/271/34 419/269/34
f 434/268/34 421/273/34 437/274/34
f 438/272/34 417/275/34 418/271/34
f 427/277/34 414/278/34 416/278/34
f 412/282/34 427/277/34 417/275/34
f 430/276/34 433/284/34 439/281/34
f 425/285/34 436/286/34 438/272/34
f 422/287/34 434/268/34 437/274/34
f 424/288/34 438/272/34 435/270/34
f 423/289/34 435/270/34 434/268/34
f 436/286/34 444/290/34 441/291/34
f 409/285/34 430/276/34 410/292/34
f 406/287/34 428/268/34 407/289/34
f 408/288/34 432/272/34 409/285/34
f 407/289/34 429/270/34 408/288/34
f 444/290/34 413/293/34 440/294/34
f 410/292/34 440/294/34 413/293/34
f 445/295/34 412/282/34 417/275/34
f 433/284/34 412/282/34 442/296/34
f 436/286/34 445/295/34 417/275/34
s 18
f 355/250/243 402/271/244 356/246/245
f 357/243/246 402/271/244 403/269/247
f 357/243/246 404/283/248 358/244/249
f 358/244/249 405/273/250 359/247/251
f 361/261/252 406/287/253 407/289/254
f 362/262/255 407/289/254 408/288/256
f 363/259/257 408/288/256 409/285/258
f 364/255/259 409/285/258 410/292/260
f 364/255/259 413/293/261 367/264/262
f 359/247/251 431/274/263 385/248/264
s 19
f 368/252/7 400/278/7 354/252/7
s 18
f 354/252/46 411/277/265 365/251/266
f 365/251/266 401/275/267 355/250/243
s 20
f 399/266/268 441/291/269 395/267/270
s 18
f 371/250/271 418/271/272 417/275/273
f 373/243/274 418/271/272 372/246/275
f 373/243/274 420/283/276 419/269/277
f 374/244/278 421/273/279 420/283/276
f 377/261/280 422/287/281 376/260/282
f 378/262/283 423/289/284 377/261/280
f 379/259/285 424/288/286 378/262/283
f 380/255/287 425/285/288 379/259/285
f 380/255/287 413/293/261 426/297/289
f 375/247/290 437/274/291 421/273/279
s 19
f 370/252/7 414/278/7 368/252/7
s 18
f 381/251/292 416/278/22 370/252/22
f 381/251/292 417/275/273 427/277/293
f 360/260/294 431/274/263 406/287/253
s 20
f 394/265/295 444/290/296 440/294/297
s 18
f 376/260/282 437/274/291 391/248/298
s 20
f 397/253/299 439/281/300 393/298/301
f 396/299/302 433/284/303 442/296/304
f 387/258/305 439/281/300 433/284/303
f 394/265/295 443/280/306 397/253/299
f 398/263/307 441/291/269 444/290/296
f 396/299/302 445/295/308 399/266/268
s 0
f 4/4/118 2/1/118 446/6/118
f 2/1/118 16/4/118 446/6/118
f 16/4/118 14/6/118 446/6/118
f 14/6/118 12/8/118 446/6/118
f 12/8/118 10/10/118 446/6/118
f 10/10/118 8/8/118 446/6/118
f 8/8/118 6/6/118 446/6/118
f 6/6/118 4/4/118 446/6/118
f 3/2/7 5/5/7 447/5/7
f 5/5/7 7/7/7 447/5/7
f 7/7/7 9/9/7 447/5/7
f 9/9/7 11/7/7 447/5/7
f 11/7/7 13/5/7 447/5/7
f 13/5/7 15/2/7 447/5/7
f 15/2/7 1/3/7 447/5/7
f 2/1/1 4/4/1 3/2/1
f 4/4/2 6/6/2 5/5/2
f 6/6/3 8/8/3 7/7/3
f 8/8/4 10/10/4 9/9/4
f 10/10/5 12/8/5 11/7/5
f 12/8/6 14/6/6 13/5/6
f 14/6/8 16/4/8 15/2/8
f 16/4/9 2/1/9 1/3/9
s 10
f 18/11/10 20/14/13 139/12/11
f 20/14/13 22/16/15 140/15/14
f 22/16/15 24/18/17 141/17/16
f 24/18/17 26/20/19 142/19/18
f 26/20/19 28/22/21 143/21/20
f 28/22/21 30/24/23 144/23/22
f 30/24/23 32/26/25 145/25/24
f 32/26/25 34/28/27 146/27/26
f 34/28/27 36/30/29 147/29/28
f 36/30/29 38/32/31 148/31/30
f 38/32/31 40/34/33 149/33/32
f 40/34/33 42/36/35 150/35/34
f 42/36/35 44/34/37 151/33/36
f 44/34/37 46/32/39 152/31/38
f 46/32/39 48/30/41 153/29/40
f 48/30/41 50/28/43 154/27/42
f 50/28/43 52/26/45 155/25/44
f 52/26/45 54/24/47 156/23/46
f 54/24/47 56/22/49 157/21/48
f 56/22/49 58/20/51 158/19/50
f 58/20/51 60/18/53 159/17/52
f 60/18/53 62/16/57 160/15/54
f 22/16/15 20/14/13 65/37/55
f 62/16/57 64/14/59 161/12/58
f 64/14/59 18/11/10 138/13/12
f 90/39/60 112/41/106 113/40/61
f 32/26/25 30/24/23 71/42/63
f 42/36/35 40/34/33 76/44/65
f 50/28/43 81/60/81 82/46/67
f 60/18/53 86/61/82 87/47/68
f 26/20/19 69/62/83 70/48/69
f 36/30/29 74/63/84 75/49/70
f 48/30/41 46/32/39 79/50/71
f 58/20/51 56/22/49 84/52/73
f 24/18/17 22/16/15 67/38/56
f 34/28/27 32/26/25 72/43/64
f 20/14/13 18/11/10 66/56/77
f 44/34/37 42/36/35 77/45/66
f 54/24/47 52/26/45 82/46/67
f 62/16/57 87/47/68 88/59/80
f 30/24/23 28/22/21 70/48/69
f 38/32/31 75/49/70 76/44/65
f 48/30/41 80/51/72 81/60/81
f 60/18/53 58/20/51 85/53/74
f 24/18/17 68/54/75 69/62/83
f 36/30/29 34/28/27 73/55/76
f 46/32/39 44/34/37 78/57/78
f 56/22/49 54/24/47 83/58/79
f 18/11/10 64/14/59 88/59/80
f 89/41/62 65/37/55 66/56/77
f 91/64/85 67/38/56 65/37/55
f 92/65/86 68/54/75 67/38/56
f 92/65/86 93/66/87 69/62/83
f 93/66/87 94/68/89 70/48/69
f 95/67/88 71/42/63 70/48/69
f 96/69/90 72/43/64 71/42/63
f 97/70/91 73/55/76 72/43/64
f 98/71/92 74/63/84 73/55/76
f 98/71/92 99/72/93 75/49/70
f 99/72/93 100/74/95 76/44/65
f 101/73/94 77/45/66 76/44/65
f 102/74/96 78/57/78 77/45/66
f 103/72/97 79/50/71 78/57/78
f 104/71/98 80/51/72 79/50/71
f 104/71/98 105/70/99 81/60/81
f 105/70/99 106/69/101 82/46/67
f 107/67/100 83/58/79 82/46/67
f 108/68/102 84/52/73 83/58/79
f 109/66/103 85/53/74 84/52/73
f 110/65/104 86/61/82 85/53/74
f 110/65/104 111/64/105 87/47/68
f 111/64/105 112/41/106 88/59/80
f 90/39/60 66/56/77 88/59/80
f 112/41/106 111/64/105 118/75/107
f 111/64/105 110/65/104 123/76/108
f 123/76/108 110/65/104 109/66/103
f 128/77/109 109/66/103 108/68/102
f 133/78/110 108/68/102 107/67/100
f 89/41/62 113/40/61 114/79/111
f 113/40/61 118/75/107 119/80/112
f 118/75/107 123/76/108 124/81/113
f 124/81/113 123/76/108 128/77/109
f 129/82/114 128/77/109 133/78/110
f 134/83/115 133/78/110 106/69/101
f 91/64/85 114/79/111 115/84/116
f 114/79/111 119/80/112 120/85/117
f 119/80/112 124/81/113 125/86/118
f 125/86/118 124/81/113 129/82/114
f 130/87/119 129/82/114 134/83/115
f 135/88/120 134/83/115 105/70/99
f 93/66/87 92/65/86 115/84/116
f 116/89/121 115/84/116 120/85/117
f 121/90/122 120/85/117 125/86/118
f 125/86/118 130/87/119 131/92/124
f 130/87/119 135/88/120 136/93/125
f 135/88/120 104/71/98 103/72/97
f 94/68/89 93/66/87 116/89/121
f 117/94/126 116/89/121 121/90/122
f 122/95/127 121/90/122 126/91/123
f 126/91/123 131/92/124 132/97/129
f 131/92/124 136/93/125 137/98/130
f 136/93/125 103/72/97 102/74/96
f 95/67/88 94/68/89 117/94/126
f 96/69/90 117/94/126 122/95/127
f 97/70/91 122/95/127 127/96/128
f 127/96/128 132/97/129 99/72/93
f 132/97/129 137/98/130 100/74/95
f 137/98/130 102/74/96 101/73/94
s 11
f 163/99/11 165/109/14 21/100/14
f 208/102/12 163/99/11 19/101/11
s 12
f 213/104/11 215/111/14 164/105/14
f 210/107/12 213/104/11 162/106/11
s 11
f 165/109/14 167/113/16 23/110/16
s 12
f 215/111/14 217/115/16 166/112/16
s 11
f 167/113/16 169/117/18 25/114/18
s 12
f 217/115/16 219/119/18 168/116/18
s 11
f 169/117/18 171/121/20 27/118/20
s 12
f 219/119/18 221/123/20 170/120/20
s 11
f 171/121/20 173/125/22 29/122/22
s 12
f 221/123/20 223/127/22 172/124/22
s 11
f 173/125/22 175/129/24 31/126/24
s 12
f 223/127/22 225/131/24 174/128/24
s 11
f 175/129/24 177/133/26 33/130/26
s 12
f 225/131/24 227/135/26 176/132/26
s 11
f 177/133/26 179/137/28 35/134/28
s 12
f 227/135/26 229/139/28 178/136/28
s 11
f 179/137/28 181/141/30 37/138/30
s 12
f 229/139/28 231/143/30 180/140/30
s 11
f 181/141/30 183/145/32 39/142/32
s 12
f 231/143/30 233/147/32 182/144/32
s 11
f 183/145/32 185/149/34 41/146/34
s 12
f 233/147/32 235/150/34 184/148/34
s 11
f 185/149/34 187/145/36 43/142/36
s 12
f 235/150/34 237/147/36 186/144/36
s 11
f 187/145/36 189/141/38 45/138/38
s 12
f 237/147/36 239/143/38 188/140/38
s 11
f 189/141/38 191/137/40 47/134/40
s 12
f 239/143/38 241/139/40 190/136/40
s 11
f 191/137/40 193/133/42 49/130/42
s 12
f 241/139/40 243/135/42 192/132/42
s 11
f 193/133/42 195/129/44 51/126/44
s 12
f 243/135/42 245/131/44 194/128/44
s 11
f 195/129/44 197/125/46 53/122/46
s 12
f 245/131/44 247/127/46 196/124/46
s 11
f 197/125/46 199/121/48 55/118/48
s 12
f 247/127/46 249/123/48 198/120/48
s 11
f 199/121/48 201/117/50 57/114/50
s 12
f 249/123/48 251/119/50 200/116/50
s 11
f 201/117/50 203/113/52 59/110/52
s 12
f 251/119/50 253/115/52 202/112/52
s 11
f 203/113/52 205/109/54 61/100/54
s 12
f 253/115/52 255/111/54 204/105/54
s 11
f 205/109/54 207/99/58 63/101/58
s 12
f 255/111/54 257/104/58 206/106/58
s 11
f 207/99/58 208/102/12 17/103/12
s 12
f 257/104/58 210/107/12 209/108/12
s 13
f 138/13/12 139/12/11 212/151/11
f 161/12/58 138/13/12 211/152/12
f 139/12/11 140/15/14 214/153/14
f 140/15/14 141/17/16 216/154/16
f 141/17/16 142/19/18 218/155/18
f 142/19/18 143/21/20 220/156/20
f 143/21/20 144/23/22 222/157/22
f 144/23/22 145/25/24 224/158/24
f 145/25/24 146/27/26 226/159/26
f 146/27/26 147/29/28 228/160/28
f 147/29/28 148/31/30 230/161/30
f 148/31/30 149/33/32 232/162/32
f 149/33/32 150/35/34 234/163/34
f 150/35/34 151/33/36 236/162/36
f 151/33/36 152/31/38 238/161/38
f 152/31/38 153/29/40 240/160/40
f 153/29/40 154/27/42 242/159/42
f 154/27/42 155/25/44 244/158/44
f 155/25/44 156/23/46 246/157/46
f 156/23/46 157/21/48 248/156/48
f 157/21/48 158/19/50 250/155/50
f 158/19/50 159/17/52 252/154/52
f 159/17/52 160/15/54 254/153/54
f 160/15/54 161/12/58 256/151/58
s 14
f 304/164/131 305/189/178 258/165/132
f 259/166/133 258/165/132 260/167/134
f 261/168/135 260/167/134 262/169/136
f 263/170/137 262/169/136 264/171/138
f 265/172/139 264/171/138 266/173/140
f 267/174/141 266/173/140 268/175/142
f 269/176/143 268/175/142 270/177/144
f 271/178/145 270/177/144 272/179/146
f 273/180/147 272/179/146 274/181/148
f 275/182/149 274/181/148 276/183/150
f 277/184/151 276/183/150 278/185/152
f 279/186/153 278/185/152 280/187/154
f 281/188/155 280/187/154 282/185/156
f 283/186/157 282/185/156 284/183/158
f 285/184/159 284/183/158 286/181/160
f 287/182/161 286/181/160 288/179/162
f 289/180/163 288/179/162 290/177/164
f 291/178/165 290/177/164 292/175/166
f 293/176/167 292/175/166 294/173/168
f 295/174/169 294/173/168 296/171/170
f 297/172/171 296/171/170 298/169/172
f 299/170/173 298/169/172 300/167/174
f 301/168/175 300/167/174 302/165/176
f 303/166/177 302/165/176 305/189/178
s 15
f 306/190/131 307/215/178 308/191/132
f 309/192/133 308/191/132 310/193/134
f 311/194/135 310/193/134 312/195/179
f 313/196/180 312/195/179 314/197/138
f 315/198/139 314/197/138 316/199/140
f 317/200/141 316/199/140 318/201/181
f 319/202/143 318/201/181 320/203/144
f 321/204/145 320/203/144 322/205/146
f 323/206/147 322/205/146 324/207/148
f 325/208/149 324/207/148 326/209/150
f 327/210/151 326/209/150 328/211/152
f 329/212/153 328/211/152 330/213/154
f 331/214/155 330/213/154 332/211/156
f 333/212/157 332/211/156 334/209/158
f 335/210/159 334/209/158 336/207/182
f 337/208/183 336/207/182 338/205/162
f 339/206/163 338/205/162 340/203/164
f 341/204/165 340/203/164 342/201/184
f 343/202/167 342/201/184 344/199/168
f 345/200/169 344/199/168 346/197/170
f 347/198/171 346/197/170 348/195/172
f 349/196/173 348/195/172 350/193/174
f 351/194/175 350/193/174 352/191/176
f 353/192/177 352/191/176 307/215/178
s 14
f 164/216/185 260/167/134 258/165/132
f 162/217/186 258/165/132 305/189/178
f 259/166/133 163/99/189 208/102/188
f 261/168/135 165/109/191 163/99/189
f 166/219/190 262/169/136 260/167/134
f 263/170/137 167/113/193 165/109/191
f 168/220/192 264/171/138 262/169/136
f 265/172/139 169/117/195 167/113/193
f 170/221/194 266/173/140 264/171/138
f 267/174/141 171/121/197 169/117/195
f 172/222/196 268/175/142 266/173/140
f 269/176/143 173/125/199 171/121/197
f 174/223/198 270/177/144 268/175/142
f 271/178/145 175/129/201 173/125/199
f 176/224/200 272/179/146 270/177/144
f 273/180/147 177/133/203 175/129/201
f 178/225/202 274/181/148 272/179/146
f 275/182/149 179/137/205 177/133/203
f 180/226/204 276/183/150 274/181/148
f 277/184/151 181/141/207 179/137/205
f 182/227/206 278/185/152 276/183/150
f 279/186/153 183/145/209 181/141/207
f 184/228/208 280/187/154 278/185/152
f 281/188/155 185/149/211 183/145/209
f 186/227/210 282/185/156 280/187/154
f 283/186/157 187/145/213 185/149/211
f 188/226/212 284/183/158 282/185/156
f 285/184/159 189/141/215 187/145/213
f 190/225/214 286/181/160 284/183/158
f 287/182/161 191/137/217 189/141/215
f 192/224/216 288/179/162 286/181/160
f 289/180/163 193/133/219 191/137/217
f 194/223/218 290/177/164 288/179/162
f 291/178/165 195/129/221 193/133/219
f 196/222/220 292/175/166 290/177/164
f 293/176/167 197/125/223 195/129/221
f 198/221/222 294/173/168 292/175/166
f 295/174/169 199/121/225 197/125/223
f 200/220/224 296/171/170 294/173/168
f 297/172/171 201/117/227 199/121/225
f 202/219/226 298/169/172 296/171/170
f 299/170/173 203/113/229 201/117/227
f 204/216/228 300/167/174 298/169/172
f 301/168/175 205/109/231 203/113/229
f 206/217/230 302/165/176 300/167/174
f 303/166/177 207/99/232 205/109/231
f 209/218/187 305/189/178 302/165/176
f 304/164/131 208/102/188 207/99/232
s 15
f 211/152/187 307/215/178 352/191/176
f 212/151/234 308/191/132 307/215/178
f 309/192/133 213/230/189 210/229/188
f 306/190/131 210/229/188 257/230/232
f 214/153/185 310/193/134 308/191/132
f 311/194/135 215/231/191 213/230/189
f 216/154/190 312/195/179 310/193/134
f 313/196/180 217/232/193 215/231/191
f 218/155/192 314/197/138 312/195/179
f 315/198/139 219/233/195 217/232/193
f 220/156/194 316/199/140 314/197/138
f 317/200/141 221/234/236 219/233/195
f 222/157/235 318/201/181 316/199/140
f 319/202/143 223/235/199 221/234/236
f 224/158/237 320/203/144 318/201/181
f 321/204/145 225/236/201 223/235/199
f 226/159/200 322/205/146 320/203/144
f 323/206/147 227/237/203 225/236/201
f 228/160/202 324/207/148 322/205/146
f 325/208/149 229/238/205 227/237/203
f 230/161/204 326/209/150 324/207/148
f 327/210/151 231/239/207 229/238/205
f 232/162/238 328/211/152 326/209/150
f 329/212/153 233/240/209 231/239/207
f 234/163/208 330/213/154 328/211/152
f 331/214/155 235/241/211 233/240/209
f 236/162/239 332/211/156 330/213/154
f 333/212/157 237/240/213 235/241/211
f 238/161/212 334/209/158 332/211/156
f 335/210/159 239/239/215 237/240/213
f 240/160/214 336/207/182 334/209/158
f 337/208/183 241/238/217 239/239/215
f 242/159/216 338/205/162 336/207/182
f 339/206/163 243/237/219 241/238/217
f 244/158/218 340/203/164 338/205/162
f 341/204/165 245/236/241 243/237/219
f 246/157/240 342/201/184 340/203/164
f 343/202/167 247/235/223 245/236/241
f 248/156/242 344/199/168 342/201/184
f 345/200/169 249/234/225 247/235/223
f 250/155/224 346/197/170 344/199/168
f 347/198/171 251/233/227 249/234/225
f 252/154/226 348/195/172 346/197/170
f 349/196/173 253/232/229 251/233/227
f 254/153/228 350/193/174 348/195/172
f 351/194/175 255/231/231 253/232/229
f 256/151/233 352/191/176 350/193/174
f 353/192/177 257/230/232 255/231/231
s 16
f 382/242/12 383/245/12 357/243/12
f 383/245/12 386/249/12 356/246/12
f 382/242/12 358/244/12 359/247/12
f 386/249/12 384/254/12 355/250/12
f 365/251/12 369/257/12 368/252/12
f 397/253/12 393/298/12 384/254/12
f 366/256/12 369/257/12 365/251/12
f 388/242/12 374/244/12 373/243/12
f 389/245/12 373/243/12 372/246/12
f 375/247/12 374/244/12 388/242/12
f 392/249/12 372/246/12 371/250/12
f 381/251/12 370/252/12 368/252/12
f 381/251/12 369/257/12 366/256/12
f 384/254/12 393/298/12 387/258/12
f 379/259/12 392/249/12 390/254/12
f 376/260/12 391/248/12 388/242/12
f 378/262/12 389/245/12 392/249/12
f 377/261/12 388/242/12 389/245/12
f 390/254/12 395/267/12 398/263/12
f 363/259/12 364/255/12 384/254/12
f 360/260/12 361/261/12 382/242/12
f 362/262/12 363/259/12 386/249/12
f 361/261/12 362/262/12 383/245/12
f 398/263/12 394/265/12 367/264/12
f 394/265/12 397/253/12 364/255/12
f 366/256/12 396/299/12 399/266/12
f 387/258/12 396/299/12 366/256/12
f 390/254/12 371/250/12 399/266/12
s 17
f 428/268/34 404/283/34 403/269/34
f 429/270/34 403/269/34 402/271/34
f 405/273/34 404/283/34 428/268/34
f 432/272/34 402/271/34 401/275/34
f 411/277/34 400/278/34 414/278/34
f 443/280/34 410/292/34 430/276/34
f 411/277/34 415/279/34 412/282/34
f 434/268/34 435/270/34 419/269/34
f 435/270/34 438/272/34 418/271/34
f 434/268/34 420/283/34 421/273/34
f 438/272/34 436/286/34 417/275/34
f 427/277/34 415/279/34 414/278/34
f 412/282/34 415/279/34 427/277/34
f 430/276/34 401/275/34 433/284/34
f 425/285/34 426/297/34 436/286/34
f 422/287/34 423/289/34 434/268/34
f 424/288/34 425/285/34 438/272/34
f 423/289/34 424/288/34 435/270/34
f 436/286/34 426/297/34 444/290/34
f 409/285/34 432/272/34 430/276/34
f 406/287/34 431/274/34 428/268/34
f 408/288/34 429/270/34 432/272/34
f 407/289/34 428/268/34 429/270/34
f 444/290/34 426/297/34 413/293/34
f 410/292/34 443/280/34 440/294/34
f 445/295/34 442/296/34 412/282/34
f 433/284/34 401/275/34 412/282/34
f 436/286/34 441/291/34 445/295/34
s 18
f 355/250/243 401/275/267 402/271/244
f 357/243/246 356/246/245 402/271/244
f 357/243/246 403/269/247 404/283/248
f 358/244/249 404/283/248 405/273/250
f 361/261/252 360/260/294 406/287/253
f 362/262/255 361/261/252 407/289/254
f 363/259/257 362/262/255 408/288/256
f 364/255/259 363/259/257 409/285/258
f 364/255/259 410/292/260 413/293/261
f 359/247/251 405/273/250 431/274/263
s 19
f 368/252/7 414/278/7 400/278/7
s 18
f 354/252/46 400/278/46 411/277/265
f 365/251/266 411/277/265 401/275/267
s 20
f 399/266/268 445/295/308 441/291/269
s 18
f 371/250/271 372/246/275 418/271/272
f 373/243/274 419/269/277 418/271/272
f 373/243/274 374/244/278 420/283/276
f 374/244/278 375/247/290 421/273/279
f 377/261/280 423/289/284 422/287/281
f 378/262/283 424/288/286 423/289/284
f 379/259/285 425/285/288 424/288/286
f 380/255/287 426/297/289 425/285/288
f 380/255/287 367/264/262 413/293/261
f 375/247/290 391/248/298 437/274/291
s 19
f 370/252/7 416/278/7 414/278/7
s 18
f 381/251/292 427/277/293 416/278/22
f 381/251/292 371/250/271 417/275/273
f 360/260/294 385/248/264 431/274/263
s 20
f 394/265/295 398/263/307 444/290/296
s 18
f 376/260/282 422/287/281 437/274/291
s 20
f 397/253/299 443/280/306 439/281/300
f 396/299/302 387/258/305 433/284/303
f 387/258/305 393/298/301 439/281/300
f 394/265/295 440/294/297 443/280/306
f 398/263/307 395/267/270 441/291/269
f 396/299/302 442/296/304 445/295/308
