# Blender 4.5.2 LTS
# www.blender.org
mtllib traffic_bollard_01_yellow_large.mtl
g traffic_bollard_01_yellow_large_Mesh
v -0.101600 0.000000 -0.101600
v -0.101600 0.010000 -0.101600
v -0.063500 0.009816 -0.071650
v -0.063500 0.013544 -0.071650
v -0.056442 0.009816 -0.067575
v -0.056442 0.013544 -0.067575
v -0.056442 0.009816 -0.059425
v -0.056442 0.013544 -0.059425
v -0.063500 0.009816 -0.055350
v -0.063500 0.013544 -0.055350
v -0.070558 0.009816 -0.059425
v -0.070558 0.013544 -0.059425
v -0.070558 0.009816 -0.067575
v -0.070558 0.013544 -0.067575
v -0.061705 0.016859 -0.065295
v -0.060391 0.015001 -0.066609
v -0.059910 0.012462 -0.067090
v -0.060962 0.016859 -0.063500
v -0.059103 0.015001 -0.063500
v -0.058423 0.012462 -0.063500
v -0.061705 0.016859 -0.061705
v -0.060391 0.015001 -0.060391
v -0.059910 0.012462 -0.059910
v -0.063500 0.016859 -0.060962
v -0.063500 0.015001 -0.059103
v -0.063500 0.012462 -0.058423
v -0.065295 0.016859 -0.061705
v -0.066609 0.015001 -0.060391
v -0.067090 0.012462 -0.059910
v -0.066038 0.016859 -0.063500
v -0.067897 0.015001 -0.063500
v -0.068577 0.012462 -0.063500
v -0.065295 0.016859 -0.065295
v -0.066609 0.015001 -0.066609
v -0.067090 0.012462 -0.067090
v -0.063500 0.016859 -0.066038
v -0.063500 0.017539 -0.063500
v -0.063500 0.015001 -0.067897
v -0.063500 0.012462 -0.068577
v 0.101600 0.000000 -0.101600
v 0.101600 0.010000 -0.101600
v 0.063500 0.009816 -0.071650
v 0.063500 0.013544 -0.071650
v 0.056442 0.009816 -0.067575
v 0.056442 0.013544 -0.067575
v 0.056442 0.009816 -0.059425
v 0.056442 0.013544 -0.059425
v 0.063500 0.009816 -0.055350
v 0.063500 0.013544 -0.055350
v 0.070558 0.009816 -0.059425
v 0.070558 0.013544 -0.059425
v 0.070558 0.009816 -0.067575
v 0.070558 0.013544 -0.067575
v 0.061705 0.016859 -0.065295
v 0.060391 0.015001 -0.066609
v 0.059910 0.012462 -0.067090
v 0.060962 0.016859 -0.063500
v 0.059103 0.015001 -0.063500
v 0.058423 0.012462 -0.063500
v 0.061705 0.016859 -0.061705
v 0.060391 0.015001 -0.060391
v 0.059910 0.012462 -0.059910
v 0.063500 0.016859 -0.060962
v 0.063500 0.015001 -0.059103
v 0.063500 0.012462 -0.058423
v 0.065295 0.016859 -0.061705
v 0.066609 0.015001 -0.060391
v 0.067090 0.012462 -0.059910
v 0.066038 0.016859 -0.063500
v 0.067897 0.015001 -0.063500
v 0.068577 0.012462 -0.063500
v 0.065295 0.016859 -0.065295
v 0.066609 0.015001 -0.066609
v 0.067090 0.012462 -0.067090
v 0.063500 0.016859 -0.066038
v 0.063500 0.017539 -0.063500
v 0.063500 0.015001 -0.067897
v 0.063500 0.012462 -0.068577
v -0.101600 0.000000 0.101600
v -0.101600 0.010000 0.101600
v -0.063500 0.009816 0.071650
v -0.063500 0.013544 0.071650
v -0.056442 0.009816 0.067575
v -0.056442 0.013544 0.067575
v -0.056442 0.009816 0.059425
v -0.056442 0.013544 0.059425
v -0.063500 0.009816 0.055350
v -0.063500 0.013544 0.055350
v -0.070558 0.009816 0.059425
v -0.070558 0.013544 0.059425
v -0.070558 0.009816 0.067575
v -0.070558 0.013544 0.067575
v -0.061705 0.016859 0.065295
v -0.060391 0.015001 0.066609
v -0.059910 0.012462 0.067090
v -0.060962 0.016859 0.063500
v -0.059103 0.015001 0.063500
v -0.058423 0.012462 0.063500
v -0.061705 0.016859 0.061705
v -0.060391 0.015001 0.060391
v -0.059910 0.012462 0.059910
v -0.063500 0.016859 0.060962
v -0.063500 0.015001 0.059103
v -0.063500 0.012462 0.058423
v -0.065295 0.016859 0.061705
v -0.066609 0.015001 0.060391
v -0.067090 0.012462 0.059910
v -0.066038 0.016859 0.063500
v -0.067897 0.015001 0.063500
v -0.068577 0.012462 0.063500
v -0.065295 0.016859 0.065295
v -0.066609 0.015001 0.066609
v -0.067090 0.012462 0.067090
v -0.063500 0.016859 0.066038
v -0.063500 0.017539 0.063500
v -0.063500 0.015001 0.067897
v -0.063500 0.012462 0.068577
v 0.101600 0.000000 0.101600
v 0.101600 0.010000 0.101600
v 0.063500 0.009816 0.071650
v 0.063500 0.013544 0.071650
v 0.056442 0.009816 0.067575
v 0.056442 0.013544 0.067575
v 0.056442 0.009816 0.059425
v 0.056442 0.013544 0.059425
v 0.063500 0.009816 0.055350
v 0.063500 0.013544 0.055350
v 0.070558 0.009816 0.059425
v 0.070558 0.013544 0.059425
v 0.070558 0.009816 0.067575
v 0.070558 0.013544 0.067575
v 0.061705 0.016859 0.065295
v 0.060391 0.015001 0.066609
v 0.059910 0.012462 0.067090
v 0.060962 0.016859 0.063500
v 0.059103 0.015001 0.063500
v 0.058423 0.012462 0.063500
v 0.061705 0.016859 0.061705
v 0.060391 0.015001 0.060391
v 0.059910 0.012462 0.059910
v 0.063500 0.016859 0.060962
v 0.063500 0.015001 0.059103
v 0.063500 0.012462 0.058423
v 0.065295 0.016859 0.061705
v 0.066609 0.015001 0.060391
v 0.067090 0.012462 0.059910
v 0.066038 0.016859 0.063500
v 0.067897 0.015001 0.063500
v 0.068577 0.012462 0.063500
v 0.065295 0.016859 0.065295
v 0.066609 0.015001 0.066609
v 0.067090 0.012462 0.067090
v 0.063500 0.016859 0.066038
v 0.063500 0.017539 0.063500
v 0.063500 0.015001 0.067897
v 0.063500 0.012462 0.068577
v 0.000000 0.004109 -0.057150
v 0.000000 1.219200 -0.057150
v 0.014792 0.004109 -0.055203
v 0.014792 1.219200 -0.055203
v 0.028575 0.004109 -0.049493
v 0.028575 1.219200 -0.049493
v 0.040411 0.004109 -0.040411
v 0.040411 1.219200 -0.040411
v 0.049493 0.004109 -0.028575
v 0.049493 1.219200 -0.028575
v 0.055203 0.004109 -0.014792
v 0.055203 1.219200 -0.014792
v 0.057150 0.004109 0.000000
v 0.057150 1.219200 0.000000
v 0.055203 0.004109 0.014792
v 0.055203 1.219200 0.014792
v 0.049493 0.004109 0.028575
v 0.049493 1.219200 0.028575
v 0.040411 0.004109 0.040411
v 0.040411 1.219200 0.040411
v 0.028575 0.004109 0.049493
v 0.028575 1.219200 0.049493
v 0.014792 0.004109 0.055203
v 0.014792 1.219200 0.055203
v 0.000000 0.004109 0.057150
v 0.000000 1.219200 0.057150
v -0.014792 0.004109 0.055203
v -0.014792 1.219200 0.055203
v -0.028575 0.004109 0.049493
v -0.028575 1.219200 0.049493
v -0.040411 0.004109 0.040411
v -0.040411 1.219200 0.040411
v -0.049493 0.004109 0.028575
v -0.049493 1.219200 0.028575
v -0.055203 0.004109 0.014792
v -0.055203 1.219200 0.014792
v -0.057150 0.004109 0.000000
v -0.057150 1.219200 0.000000
v -0.055203 0.004109 -0.014792
v -0.055203 1.219200 -0.014792
v -0.049493 0.004109 -0.028575
v -0.049493 1.219200 -0.028575
v -0.040411 0.004109 -0.040411
v -0.040411 1.219200 -0.040411
v -0.028575 0.004109 -0.049493
v -0.028575 1.219200 -0.049493
v -0.014792 0.004109 -0.055203
v -0.014792 1.219200 -0.055203
v 0.014946 1.223477 -0.053476
v 0.000725 1.223582 -0.055207
v 0.028156 1.223402 -0.048105
v 0.039466 1.223375 -0.039466
v 0.048105 1.223402 -0.028156
v 0.053476 1.223477 -0.014946
v 0.055207 1.223582 0.000725
v 0.053456 1.223486 0.014954
v 0.048090 1.223407 0.028167
v 0.039466 1.223377 0.039466
v 0.028167 1.223407 0.048090
v 0.014954 1.223486 0.053456
v -0.000725 1.223582 0.055207
v -0.014946 1.223477 0.053476
v -0.028156 1.223402 0.048105
v -0.039466 1.223375 0.039466
v -0.048105 1.223402 0.028156
v -0.053476 1.223477 0.014946
v -0.055207 1.223582 -0.000725
v -0.053456 1.223486 -0.014954
v -0.048090 1.223407 -0.028167
v -0.039466 1.223377 -0.039466
v -0.028167 1.223407 -0.048090
v -0.014954 1.223486 -0.053456
v 0.013736 1.226501 -0.051264
v 0.000000 1.226501 -0.053072
v 0.026536 1.226501 -0.045962
v 0.037528 1.226501 -0.037528
v 0.045962 1.226501 -0.026536
v 0.051264 1.226501 -0.013736
v 0.053072 1.226501 0.000000
v 0.051264 1.226501 0.013736
v 0.045962 1.226501 0.026536
v 0.037528 1.226501 0.037528
v 0.026536 1.226501 0.045962
v 0.013736 1.226501 0.051264
v 0.000000 1.226501 0.053072
v -0.013736 1.226501 0.051264
v -0.026536 1.226501 0.045962
v -0.037528 1.226501 0.037528
v -0.045962 1.226501 0.026536
v -0.051264 1.226501 0.013736
v -0.053072 1.226501 0.000000
v -0.051264 1.226501 -0.013736
v -0.045962 1.226501 -0.026536
v -0.037528 1.226501 -0.037528
v -0.026536 1.226501 -0.045962
v -0.013736 1.226501 -0.051264
v 0.000652 1.228516 -0.046614
v 0.014799 1.230032 -0.038590
v 0.027739 1.230597 -0.027739
v 0.038590 1.230032 -0.014799
v 0.046614 1.228517 -0.000652
v -0.013203 1.230315 -0.038061
v 0.000868 1.233333 -0.027404
v 0.014718 1.234504 -0.014718
v 0.027404 1.233333 -0.000868
v 0.038061 1.230315 0.013203
v -0.026536 1.231037 -0.026536
v -0.013736 1.234714 -0.013736
v 0.000000 1.236192 0.000000
v 0.013736 1.234714 0.013736
v 0.026536 1.231037 0.026536
v -0.038061 1.230315 -0.013203
v -0.027404 1.233333 0.000868
v -0.014718 1.234504 0.014718
v -0.000868 1.233333 0.027404
v 0.013203 1.230315 0.038061
v -0.046614 1.228517 0.000652
v -0.038590 1.230032 0.014799
v -0.027739 1.230597 0.027739
v -0.014799 1.230032 0.038590
v -0.000652 1.228517 0.046614
v 0.000000 1.215692 -0.057150
v 0.014792 1.215692 -0.055203
v 0.028575 1.215692 -0.049493
v 0.040411 1.215692 -0.040411
v 0.049493 1.215692 -0.028575
v 0.055203 1.215692 -0.014792
v 0.057150 1.215692 0.000000
v 0.055203 1.215692 0.014792
v 0.049493 1.215692 0.028575
v 0.040411 1.215692 0.040411
v 0.028575 1.215692 0.049493
v 0.014792 1.215692 0.055203
v 0.000000 1.215692 0.057150
v -0.014792 1.215692 0.055203
v -0.028575 1.215692 0.049493
v -0.040411 1.215692 0.040411
v -0.049493 1.215692 0.028575
v -0.055203 1.215692 0.014792
v -0.057150 1.215692 0.000000
v -0.055203 1.215692 -0.014792
v -0.049493 1.215692 -0.028575
v -0.040411 1.215692 -0.040411
v -0.028575 1.215692 -0.049493
v -0.014792 1.215692 -0.055203
v 0.014792 1.042609 -0.055203
v 0.014792 0.869526 -0.055203
v 0.014792 0.696442 -0.055203
v 0.014792 0.523359 -0.055203
v 0.028575 1.042609 -0.049493
v 0.028575 0.869526 -0.049493
v 0.028575 0.696442 -0.049493
v 0.028575 0.523359 -0.049493
v 0.040411 1.042609 -0.040411
v 0.040411 0.869526 -0.040411
v 0.040411 0.696442 -0.040411
v 0.040411 0.523359 -0.040411
v 0.049493 1.042609 -0.028575
v 0.049493 0.869526 -0.028575
v 0.049493 0.696442 -0.028575
v 0.049493 0.523359 -0.028575
v 0.055203 1.042609 -0.014792
v 0.055203 0.869526 -0.014792
v 0.055203 0.696442 -0.014792
v 0.055203 0.523359 -0.014792
v 0.057150 1.042609 0.000000
v 0.057150 0.869526 0.000000
v 0.057150 0.696442 0.000000
v 0.057150 0.523359 0.000000
v 0.055203 1.042609 0.014792
v 0.055203 0.869526 0.014792
v 0.055203 0.696442 0.014792
v 0.055203 0.523359 0.014792
v 0.049493 1.042609 0.028575
v 0.049493 0.869526 0.028575
v 0.049493 0.696442 0.028575
v 0.049493 0.523359 0.028575
v 0.040411 1.042609 0.040411
v 0.040411 0.869526 0.040411
v 0.040411 0.696442 0.040411
v 0.040411 0.523359 0.040411
v 0.028575 1.042609 0.049493
v 0.028575 0.869526 0.049493
v 0.028575 0.696442 0.049493
v 0.028575 0.523359 0.049493
v 0.014792 1.042609 0.055203
v 0.014792 0.869526 0.055203
v 0.014792 0.696442 0.055203
v 0.014792 0.523359 0.055203
v 0.000000 1.042609 0.057150
v 0.000000 0.869526 0.057150
v 0.000000 0.696442 0.057150
v 0.000000 0.523359 0.057150
v -0.014792 1.042609 0.055203
v -0.014792 0.869526 0.055203
v -0.014792 0.696442 0.055203
v -0.014792 0.523359 0.055203
v -0.028575 1.042609 0.049493
v -0.028575 0.869526 0.049493
v -0.028575 0.696442 0.049493
v -0.028575 0.523359 0.049493
v -0.040411 1.042609 0.040411
v -0.040411 0.869526 0.040411
v -0.040411 0.696442 0.040411
v -0.040411 0.523359 0.040411
v -0.049493 1.042609 0.028575
v -0.049493 0.869526 0.028575
v -0.049493 0.696442 0.028575
v -0.049493 0.523359 0.028575
v -0.055203 1.042609 0.014792
v -0.055203 0.869526 0.014792
v -0.055203 0.696442 0.014792
v -0.055203 0.523359 0.014792
v -0.057150 1.042609 0.000000
v -0.057150 0.869526 0.000000
v -0.057150 0.696442 0.000000
v -0.057150 0.523359 0.000000
v -0.055203 1.042609 -0.014792
v -0.055203 0.869526 -0.014792
v -0.055203 0.696442 -0.014792
v -0.055203 0.523359 -0.014792
v -0.049493 1.042609 -0.028575
v -0.049493 0.869526 -0.028575
v -0.049493 0.696442 -0.028575
v -0.049493 0.523359 -0.028575
v -0.040411 1.042609 -0.040411
v -0.040411 0.869526 -0.040411
v -0.040411 0.696442 -0.040411
v -0.040411 0.523359 -0.040411
v -0.028575 1.042609 -0.049493
v -0.028575 0.869526 -0.049493
v -0.028575 0.696442 -0.049493
v -0.028575 0.523359 -0.049493
v -0.014792 1.042609 -0.055203
v -0.014792 0.869526 -0.055203
v -0.014792 0.696442 -0.055203
v -0.014792 0.523359 -0.055203
v 0.000000 0.523359 -0.057150
v 0.000000 0.696442 -0.057150
v 0.000000 0.869526 -0.057150
v 0.000000 1.042609 -0.057150
v -0.063500 0.013544 -0.063500
v -0.063500 0.009816 -0.063500
v 0.063500 0.013544 -0.063500
v 0.063500 0.009816 -0.063500
v -0.063500 0.013544 0.063500
v -0.063500 0.009816 0.063500
v 0.063500 0.013544 0.063500
v 0.063500 0.009816 0.063500
vn 0.5000 -0.0000 -0.8660
vn 0.8660 -0.0000 -0.5000
vn 0.3855 0.8383 -0.3855
vn 0.8803 0.4744 -0.0000
vn 0.6225 0.4744 -0.6225
vn 0.8660 -0.0000 0.5000
vn -0.0000 1.0000 -0.0000
vn 0.5452 0.8383 -0.0000
vn 0.5000 -0.0000 0.8660
vn -0.0000 0.8383 -0.5452
vn -0.5000 -0.0000 0.8660
vn -0.8660 -0.0000 0.5000
vn -0.0000 -1.0000 -0.0000
vn -0.0000 0.4744 -0.8803
vn -0.8660 -0.0000 -0.5000
vn -0.0000 0.2588 -0.9659
vn 0.6830 0.2588 -0.6830
vn -0.5000 -0.0000 -0.8660
vn 0.9659 0.2588 -0.0000
vn 0.3855 0.8383 0.3855
vn 0.6225 0.4744 0.6225
vn 0.6830 0.2588 0.6830
vn -0.0000 0.4744 0.8803
vn -0.0000 0.2588 0.9659
vn -0.0000 0.8383 0.5452
vn -0.6225 0.4744 0.6225
vn -0.6830 0.2588 0.6830
vn -0.3855 0.8383 0.3855
vn -0.5452 0.8383 -0.0000
vn -0.8803 0.4744 -0.0000
vn -0.9659 0.2588 -0.0000
vn -0.3855 0.8383 -0.3855
vn -0.6225 0.4744 -0.6225
vn -0.6830 0.2588 -0.6830
vn -0.0000 -0.0000 1.0000
vn -1.0000 -0.0000 -0.0000
vn -0.0000 -0.0000 -1.0000
vn 1.0000 -0.0000 -0.0000
vn -0.0021 0.2017 -0.9794
vn 0.2588 -0.0000 -0.9659
vn 0.2486 0.1800 -0.9517
vn 0.4903 0.1602 -0.8567
vn 0.7071 -0.0000 -0.7071
vn 0.6988 0.1529 -0.6988
vn 0.8567 0.1602 -0.4903
vn 0.9659 -0.0000 -0.2588
vn 0.9516 0.1788 -0.2500
vn 0.9795 0.2015 -0.0019
vn 0.9659 -0.0000 0.2588
vn 0.9515 0.1811 0.2487
vn 0.8567 0.1609 0.4901
vn 0.7071 -0.0000 0.7071
vn 0.6988 0.1528 0.6988
vn 0.4901 0.1609 0.8567
vn 0.2588 -0.0000 0.9659
vn 0.2498 0.1802 0.9514
vn 0.0021 0.2017 0.9794
vn -0.2588 -0.0000 0.9659
vn -0.2486 0.1800 0.9517
vn -0.4903 0.1602 0.8567
vn -0.7071 -0.0000 0.7071
vn -0.6988 0.1529 0.6988
vn -0.8567 0.1602 0.4903
vn -0.9659 -0.0000 0.2588
vn -0.9516 0.1788 0.2500
vn -0.9795 0.2015 0.0019
vn -0.9659 -0.0000 -0.2588
vn -0.9515 0.1811 -0.2487
vn -0.8567 0.1609 -0.4901
vn -0.7071 -0.0000 -0.7071
vn -0.6988 0.1528 -0.6988
vn 0.2323 0.4928 -0.8385
vn 0.4400 0.4873 -0.7542
vn -0.4901 0.1609 -0.8567
vn -0.2588 -0.0000 -0.9659
vn -0.2498 0.1802 -0.9514
vn -0.0054 0.8019 -0.5975
vn 0.0037 0.9619 -0.2734
vn 0.1417 0.8182 -0.5572
vn 0.8673 0.4974 0.0185
vn 0.8381 0.4933 0.2328
vn 0.2334 0.4937 0.8377
vn -0.0181 0.4973 0.8674
vn -0.8380 0.4932 0.2332
vn -0.4401 0.4877 -0.7540
vn 0.8380 0.4932 -0.2332
vn 0.4401 0.4877 0.7540
vn -0.4400 0.4873 0.7542
vn -0.6184 0.4850 0.6184
vn -0.8381 0.4933 -0.2328
vn -0.7540 0.4877 -0.4401
vn 0.6184 0.4850 -0.6184
vn 0.7540 0.4877 0.4401
vn 0.0181 0.4973 -0.8674
vn -0.2323 0.4928 0.8385
vn -0.8673 0.4974 -0.0185
vn -0.2334 0.4937 -0.8377
vn -0.7542 0.4874 0.4400
vn -0.6184 0.4850 -0.6184
vn 0.7542 0.4874 -0.4400
vn 0.6184 0.4850 0.6184
vn 0.2781 0.8290 -0.4852
vn 0.3926 0.8317 -0.3926
vn 0.4852 0.8290 -0.2781
vn 0.5974 0.8019 -0.0031
vn 0.5565 0.8186 -0.1425
vn 0.5574 0.8181 0.1417
vn 0.4844 0.8298 0.2771
vn 0.3915 0.8328 0.3915
vn 0.2771 0.8298 0.4844
vn 0.0054 0.8018 0.5975
vn 0.1423 0.8184 0.5568
vn -0.1417 0.8182 0.5572
vn -0.2781 0.8290 0.4852
vn -0.3926 0.8317 0.3926
vn -0.4852 0.8290 0.2781
vn -0.5974 0.8019 0.0031
vn -0.5565 0.8186 0.1425
vn -0.5574 0.8181 -0.1417
vn -0.4844 0.8298 -0.2771
vn -0.3914 0.8328 -0.3915
vn -0.2771 0.8298 -0.4844
vn -0.1423 0.8184 -0.5568
vn -0.0831 0.9693 -0.2315
vn -0.1668 0.9718 -0.1668
vn -0.2315 0.9693 -0.0831
vn -0.2734 0.9619 0.0037
vn 0.0913 0.9682 -0.2331
vn 0.0050 0.9838 -0.1789
vn -0.0946 0.9910 -0.0946
vn -0.1789 0.9838 0.0050
vn -0.2331 0.9682 0.0913
vn 0.1716 0.9701 -0.1716
vn 0.0998 0.9900 -0.0998
vn -0.0998 0.9900 0.0998
vn -0.1716 0.9701 0.1716
vn 0.2331 0.9682 -0.0913
vn 0.1789 0.9838 -0.0050
vn 0.0946 0.9910 0.0946
vn -0.0050 0.9838 0.1789
vn -0.0913 0.9682 0.2331
vn 0.2734 0.9619 -0.0037
vn 0.2315 0.9693 0.0831
vn 0.1668 0.9718 0.1668
vn 0.0831 0.9693 0.2315
vn -0.0037 0.9619 0.2734
vt 0.031884 0.674410
vt 0.031976 0.674194
vt 0.031884 0.674194
vt 0.031907 0.674603
vt 0.031941 0.674495
vt 0.031924 0.674495
vt 0.031976 0.674410
vt 0.031884 0.674643
vt 0.031917 0.674603
vt 0.031884 0.674603
vt 0.031792 0.674194
vt 0.031884 0.674495
vt 0.031792 0.674410
vt 0.031884 0.674347
vt 0.031930 0.674347
vt 0.033445 0.674410
vt 0.033537 0.674410
vt 0.031950 0.674347
vt 0.031843 0.674495
vt 0.031837 0.674347
vt 0.031860 0.674603
vt 0.031851 0.674603
vt 0.031827 0.674495
vt 0.031818 0.674347
vt 0.031388 0.673622
vt 0.034032 0.673622
vt 0.033445 0.674194
vt 0.033537 0.674194
vt 0.033496 0.674495
vt 0.033504 0.674603
vt 0.033513 0.674603
vt 0.033537 0.674643
vt 0.033537 0.674603
vt 0.033628 0.674194
vt 0.033537 0.674495
vt 0.033628 0.674410
vt 0.033537 0.674347
vt 0.033490 0.674347
vt 0.033479 0.674495
vt 0.033470 0.674347
vt 0.033577 0.674495
vt 0.033583 0.674347
vt 0.033560 0.674603
vt 0.033570 0.674603
vt 0.033603 0.674347
vt 0.033594 0.674495
vt 0.031388 0.674204
vt 0.034032 0.674204
vt 0.032710 0.744548
vt 0.032903 0.744344
vt 0.032710 0.744344
vt 0.032903 0.744548
vt 0.033082 0.744344
vt 0.033082 0.744548
vt 0.033236 0.744344
vt 0.033236 0.744548
vt 0.033354 0.744344
vt 0.033354 0.744548
vt 0.033429 0.744344
vt 0.033429 0.744548
vt 0.033454 0.744344
vt 0.033454 0.744548
vt 0.032518 0.744344
vt 0.032518 0.744548
vt 0.032338 0.744344
vt 0.032338 0.744548
vt 0.032184 0.744344
vt 0.032184 0.744548
vt 0.032066 0.744344
vt 0.032066 0.744548
vt 0.031992 0.744344
vt 0.031992 0.744548
vt 0.031966 0.744344
vt 0.031966 0.744548
vt 0.032905 0.744797
vt 0.033077 0.744793
vt 0.032710 0.744973
vt 0.032719 0.745090
vt 0.032889 0.744973
vt 0.033429 0.744803
vt 0.033406 0.744798
vt 0.032905 0.744798
vt 0.032701 0.744803
vt 0.032014 0.744797
vt 0.032344 0.744793
vt 0.033406 0.744797
vt 0.033077 0.744793
vt 0.032344 0.744793
vt 0.032197 0.744791
vt 0.032014 0.744798
vt 0.032084 0.744793
vt 0.033224 0.744791
vt 0.033336 0.744793
vt 0.032720 0.744803
vt 0.032516 0.744797
vt 0.031992 0.744803
vt 0.032516 0.744798
vt 0.032084 0.744793
vt 0.032197 0.744791
vt 0.033336 0.744793
vt 0.033224 0.744791
vt 0.033056 0.744973
vt 0.033199 0.744973
vt 0.033308 0.744973
vt 0.033401 0.744973
vt 0.033377 0.744973
vt 0.032531 0.744973
vt 0.032365 0.744973
vt 0.032222 0.744973
vt 0.032112 0.744973
vt 0.032019 0.744973
vt 0.032043 0.744973
vt 0.032538 0.745195
vt 0.032365 0.745237
vt 0.032215 0.745195
vt 0.032103 0.745090
vt 0.032903 0.745178
vt 0.032721 0.745370
vt 0.032531 0.745451
vt 0.032354 0.745370
vt 0.032208 0.745178
vt 0.033071 0.745211
vt 0.032902 0.745439
vt 0.032710 0.745537
vt 0.032519 0.745439
vt 0.032349 0.745211
vt 0.033212 0.745178
vt 0.033067 0.745370
vt 0.032889 0.745451
vt 0.032699 0.745370
vt 0.032518 0.745178
vt 0.033317 0.745090
vt 0.033205 0.745195
vt 0.033056 0.745237
vt 0.032882 0.745195
vt 0.032702 0.745090
vt 0.032710 0.734275
vt 0.032518 0.734275
vt 0.032338 0.734275
vt 0.032184 0.734275
vt 0.032066 0.734275
vt 0.031992 0.734275
vt 0.031966 0.734275
vt 0.032903 0.734275
vt 0.033082 0.734275
vt 0.033236 0.734275
vt 0.033354 0.734275
vt 0.033429 0.734275
vt 0.033454 0.734275
vt 0.033082 0.704068
vt 0.032903 0.673862
vt 0.032903 0.704068
vt 0.034676 0.044647
vt 0.034869 0.034578
vt 0.034676 0.034578
vt 0.032710 0.724206
vt 0.032903 0.714137
vt 0.032710 0.714137
vt 0.034676 0.064785
vt 0.034869 0.054716
vt 0.034676 0.054716
vt 0.033236 0.704068
vt 0.033082 0.673862
vt 0.034869 0.044647
vt 0.035048 0.034578
vt 0.032903 0.724206
vt 0.033082 0.714137
vt 0.034869 0.064785
vt 0.035048 0.054716
vt 0.033354 0.704068
vt 0.033236 0.673862
vt 0.035048 0.044647
vt 0.035202 0.034578
vt 0.033082 0.724206
vt 0.033236 0.714137
vt 0.035048 0.064785
vt 0.035202 0.054716
vt 0.033429 0.704068
vt 0.033354 0.673862
vt 0.035202 0.044647
vt 0.035320 0.034578
vt 0.033236 0.724206
vt 0.033354 0.714137
vt 0.035202 0.064785
vt 0.035320 0.054716
vt 0.033454 0.704068
vt 0.033429 0.673862
vt 0.035320 0.044647
vt 0.035395 0.034578
vt 0.033354 0.724206
vt 0.033429 0.714137
vt 0.035320 0.064785
vt 0.035395 0.054716
vt 0.033454 0.673862
vt 0.035395 0.044647
vt 0.035420 0.034578
vt 0.033429 0.724206
vt 0.033454 0.714137
vt 0.035395 0.064785
vt 0.035420 0.054716
vt 0.035420 0.044647
vt 0.033454 0.724206
vt 0.035420 0.064785
vt 0.032710 0.704068
vt 0.032518 0.704068
vt 0.032710 0.673862
vt 0.032338 0.704068
vt 0.032518 0.673862
vt 0.034484 0.034578
vt 0.032518 0.714137
vt 0.034484 0.054716
vt 0.032184 0.704068
vt 0.032338 0.673862
vt 0.034484 0.044647
vt 0.034304 0.034578
vt 0.032518 0.724206
vt 0.032338 0.714137
vt 0.034484 0.064785
vt 0.034304 0.054716
vt 0.032066 0.704068
vt 0.032184 0.673862
vt 0.034304 0.044647
vt 0.034150 0.034578
vt 0.032338 0.724206
vt 0.032184 0.714137
vt 0.034304 0.064785
vt 0.034150 0.054716
vt 0.031992 0.704068
vt 0.032066 0.673862
vt 0.034150 0.044647
vt 0.034032 0.034578
vt 0.032184 0.724206
vt 0.032066 0.714137
vt 0.034150 0.064785
vt 0.034032 0.054716
vt 0.031966 0.704068
vt 0.031992 0.673862
vt 0.034032 0.044647
vt 0.033958 0.034578
vt 0.032066 0.724206
vt 0.031992 0.714137
vt 0.034032 0.064785
vt 0.033958 0.054716
vt 0.031966 0.673862
vt 0.033958 0.044647
vt 0.033933 0.034578
vt 0.031992 0.724206
vt 0.031966 0.714137
vt 0.033958 0.064785
vt 0.033933 0.054716
vt 0.033933 0.044647
vt 0.031966 0.724206
vt 0.033933 0.064785
s 1
g traffic_bollard_01_yellow_large_regular_material
usemtl regular_material
f 4/1/1 5/2/2 3/3/1
s 2
f 15/4/3 19/5/4 16/6/5
s 1
f 6/7/2 7/2/6 5/2/2
s 2
f 15/4/3 37/8/7 18/9/8
s 1
f 8/7/6 9/3/9 7/2/6
s 2
f 36/10/10 37/8/7 15/4/3
s 3
f 10/1/11 11/11/12 9/3/11
s 4
f 3/3/13 5/2/13 399/3/13
s 2
f 36/10/10 16/6/5 38/12/14
s 3
f 12/13/12 13/11/15 11/11/12
s 2
f 39/14/16 16/6/5 17/15/17
s 3
f 14/13/15 3/3/18 13/11/15
s 5
f 45/16/7 47/16/7 400/17/7
s 2
f 17/15/17 19/5/4 20/18/19
f 19/5/4 21/4/20 22/6/21
f 20/18/19 22/6/21 23/15/22
f 18/9/8 37/8/7 21/4/20
f 21/4/20 25/12/23 22/6/21
f 22/6/21 26/14/24 23/15/22
f 21/4/20 37/8/7 24/10/25
f 24/10/25 28/19/26 25/12/23
f 25/12/23 29/20/27 26/14/24
f 24/10/25 37/8/7 27/21/28
f 28/19/26 30/22/29 31/23/30
f 28/19/26 32/24/31 29/20/27
f 27/21/28 37/8/7 30/22/29
f 31/23/30 33/21/32 34/19/33
f 31/23/30 35/20/34 32/24/31
f 30/22/29 37/8/7 33/21/32
f 34/19/33 39/14/16 35/20/34
f 33/21/32 37/8/7 36/10/10
f 34/19/33 36/10/10 38/12/14
s 6
f 1/25/13 118/26/13 79/25/13
s 7
f 44/27/15 43/17/18 42/28/18
s 8
f 55/29/33 57/30/29 54/31/32
s 7
f 46/27/12 45/16/15 44/27/15
s 8
f 54/31/32 57/30/29 76/32/7
s 7
f 48/28/11 47/16/12 46/27/12
s 8
f 75/33/10 54/31/32 76/32/7
s 9
f 50/34/6 49/17/9 48/28/9
s 10
f 42/28/13 52/34/13 401/28/13
s 8
f 55/29/33 75/33/10 77/35/14
s 9
f 52/34/2 51/36/6 50/34/6
s 8
f 78/37/16 55/29/33 77/35/14
s 9
f 42/28/1 53/36/2 52/34/2
s 11
f 84/7/7 86/7/7 402/1/7
s 8
f 56/38/34 58/39/30 55/29/33
f 58/39/30 60/31/28 57/30/29
f 59/40/31 61/29/26 58/39/30
f 57/30/29 60/31/28 76/32/7
f 64/35/23 60/31/28 61/29/26
f 65/37/24 61/29/26 62/38/27
f 60/31/28 63/33/25 76/32/7
f 67/41/21 63/33/25 64/35/23
f 68/42/22 64/35/23 65/37/24
f 63/33/25 66/43/20 76/32/7
f 67/41/21 69/44/8 66/43/20
f 71/45/19 67/41/21 68/42/22
f 66/43/20 69/44/8 76/32/7
f 70/46/4 72/43/3 69/44/8
f 74/42/17 70/46/4 71/45/19
f 69/44/8 72/43/3 76/32/7
f 78/37/16 73/41/5 74/42/17
f 72/43/3 75/33/10 76/32/7
f 77/35/14 72/43/3 73/41/5
s 12
f 80/47/35 118/26/35 119/48/35
s 13
f 2/47/36 79/25/36 80/47/36
s 14
f 40/26/37 2/47/37 41/48/37
s 15
f 83/2/6 82/1/9 81/3/9
s 16
f 94/6/21 96/9/8 93/4/20
s 15
f 85/2/2 84/7/6 83/2/6
s 16
f 93/4/20 96/9/8 115/8/7
s 15
f 87/3/1 86/7/2 85/2/2
s 16
f 114/10/25 93/4/20 115/8/7
s 17
f 89/11/15 88/1/18 87/3/18
s 18
f 81/3/13 91/11/13 403/3/13
s 16
f 94/6/21 114/10/25 116/12/23
s 17
f 91/11/12 90/13/15 89/11/15
s 16
f 117/14/24 94/6/21 116/12/23
s 17
f 81/3/11 92/13/12 91/11/12
s 19
f 123/16/7 121/17/7 404/17/7
s 16
f 95/15/22 97/5/4 94/6/21
f 97/5/4 99/4/3 96/9/8
f 98/18/19 100/6/5 97/5/4
f 96/9/8 99/4/3 115/8/7
f 103/12/14 99/4/3 100/6/5
f 104/14/16 100/6/5 101/15/17
f 99/4/3 102/10/10 115/8/7
f 106/19/33 102/10/10 103/12/14
f 107/20/34 103/12/14 104/14/16
f 102/10/10 105/21/32 115/8/7
f 106/19/33 108/22/29 105/21/32
f 110/24/31 106/19/33 107/20/34
f 105/21/32 108/22/29 115/8/7
f 109/23/30 111/21/28 108/22/29
f 113/20/27 109/23/30 110/24/31
f 108/22/29 111/21/28 115/8/7
f 117/14/24 112/19/26 113/20/27
f 111/21/28 114/10/25 115/8/7
f 116/12/23 111/21/28 112/19/26
s 20
f 119/48/7 2/47/7 80/47/7
s 21
f 121/17/11 122/27/12 120/28/11
s 22
f 132/31/28 136/39/30 133/29/26
s 21
f 123/16/12 124/27/15 122/27/12
s 22
f 132/31/28 154/32/7 135/30/29
s 21
f 125/16/15 126/28/18 124/27/15
s 22
f 153/33/25 154/32/7 132/31/28
s 23
f 127/17/1 128/34/2 126/28/1
s 24
f 120/28/13 122/27/13 405/28/13
s 22
f 153/33/25 133/29/26 155/35/23
s 23
f 129/36/2 130/34/6 128/34/2
s 22
f 156/37/24 133/29/26 134/38/27
s 23
f 131/36/6 120/28/9 130/34/6
s 22
f 134/38/27 136/39/30 137/40/31
f 136/39/30 138/31/32 139/29/33
f 137/40/31 139/29/33 140/38/34
f 135/30/29 154/32/7 138/31/32
f 138/31/32 142/35/14 139/29/33
f 139/29/33 143/37/16 140/38/34
f 138/31/32 154/32/7 141/33/10
f 141/33/10 145/41/5 142/35/14
f 142/35/14 146/42/17 143/37/16
f 141/33/10 154/32/7 144/43/3
f 145/41/5 147/44/8 148/46/4
f 145/41/5 149/45/19 146/42/17
f 144/43/3 154/32/7 147/44/8
f 148/46/4 150/43/20 151/41/21
f 148/46/4 152/42/22 149/45/19
f 147/44/8 154/32/7 150/43/20
f 151/41/21 156/37/24 152/42/22
f 150/43/20 154/32/7 153/33/25
f 151/41/21 153/33/25 155/35/23
s 25
f 118/26/38 41/48/38 119/48/38
s 26
f 158/49/39 279/50/40 278/51/37
f 160/52/41 280/53/1 279/50/40
f 162/54/42 281/55/43 280/53/1
f 164/56/44 282/57/2 281/55/43
f 166/58/45 283/59/46 282/57/2
f 168/60/47 284/61/38 283/59/46
f 170/62/48 285/59/49 284/61/38
f 172/60/50 286/57/6 285/59/49
f 174/58/51 287/55/52 286/57/6
f 176/56/53 288/53/9 287/55/52
f 178/54/54 289/50/55 288/53/9
f 180/52/56 290/51/35 289/50/55
f 182/49/57 291/63/58 290/51/35
f 184/64/59 292/65/11 291/63/58
f 186/66/60 293/67/61 292/65/11
f 188/68/62 294/69/12 293/67/61
f 190/70/63 295/71/64 294/69/12
f 192/72/65 296/73/36 295/71/64
f 194/74/66 297/71/67 296/73/36
f 196/72/68 298/69/15 297/71/67
f 198/70/69 299/67/70 298/69/15
f 200/68/71 300/65/18 299/67/70
f 162/54/42 205/75/72 207/76/73
f 202/66/74 301/63/75 300/65/18
f 204/64/76 278/51/37 301/63/75
f 230/77/77 253/78/78 229/79/79
f 172/60/50 211/80/80 212/81/81
f 182/49/57 216/82/82 217/83/83
f 190/70/63 222/84/84 192/72/65
f 200/68/71 227/85/85 202/66/74
f 166/58/45 210/86/86 168/60/47
f 176/56/53 215/87/87 178/54/54
f 188/68/62 219/88/88 220/89/89
f 198/70/69 224/90/90 225/91/91
f 164/56/44 207/76/73 208/92/92
f 174/58/51 212/81/81 213/93/93
f 160/52/41 206/94/94 205/75/72
f 184/64/59 217/83/83 218/95/95
f 194/74/66 222/84/84 223/96/96
f 202/66/74 228/97/97 204/64/76
f 170/62/48 210/86/86 211/80/80
f 178/54/54 216/82/82 180/52/56
f 188/68/62 221/98/98 190/70/63
f 200/68/71 225/91/91 226/99/99
f 164/56/44 209/100/100 166/58/45
f 176/56/53 213/93/93 214/101/101
f 186/66/60 218/95/95 219/88/88
f 196/72/68 223/96/96 224/90/90
f 158/49/39 228/97/97 206/94/94
f 229/79/79 206/94/94 230/77/77
f 231/102/102 205/75/72 229/79/79
f 232/103/103 207/76/73 231/102/102
f 232/103/103 209/100/100 208/92/92
f 233/104/104 210/86/86 209/100/100
f 235/105/105 210/86/86 234/106/106
f 236/106/107 211/80/80 235/105/105
f 237/104/108 212/81/81 236/106/107
f 238/103/109 213/93/93 237/104/108
f 238/103/109 215/87/87 214/101/101
f 239/102/110 216/82/82 215/87/87
f 241/77/111 216/82/82 240/79/112
f 242/107/113 217/83/83 241/77/111
f 243/108/114 218/95/95 242/107/113
f 244/109/115 219/88/88 243/108/114
f 244/109/115 221/98/98 220/89/89
f 245/110/116 222/84/84 221/98/98
f 247/111/117 222/84/84 246/112/118
f 248/112/119 223/96/96 247/111/117
f 249/110/120 224/90/90 248/112/119
f 250/109/121 225/91/91 249/110/120
f 250/109/121 227/85/85 226/99/99
f 251/108/122 228/97/97 227/85/85
f 230/77/77 228/97/97 252/107/123
f 252/107/123 258/113/124 253/78/78
f 251/108/122 263/114/125 258/113/124
f 263/114/125 249/110/120 268/115/126
f 268/115/126 248/112/119 273/116/127
f 273/116/127 247/111/117 246/112/118
f 229/79/79 254/117/128 231/102/102
f 253/78/78 259/118/129 254/117/128
f 258/113/124 264/119/130 259/118/129
f 264/119/130 268/115/126 269/120/131
f 269/120/131 273/116/127 274/121/132
f 274/121/132 246/112/118 245/110/116
f 231/102/102 255/122/133 232/103/103
f 254/117/128 260/123/134 255/122/133
f 259/118/129 265/124/7 260/123/134
f 265/124/7 269/120/131 270/125/135
f 270/125/135 274/121/132 275/126/136
f 275/126/136 245/110/116 244/109/115
f 233/104/104 255/122/133 256/127/137
f 256/127/137 260/123/134 261/128/138
f 261/128/138 265/124/7 266/129/139
f 265/124/7 271/130/140 266/129/139
f 270/125/135 276/131/141 271/130/140
f 275/126/136 243/108/114 276/131/141
f 234/106/106 256/127/137 257/132/142
f 257/132/142 261/128/138 262/133/143
f 262/133/143 266/129/139 267/134/144
f 266/129/139 272/135/145 267/134/144
f 271/130/140 277/136/146 272/135/145
f 276/131/141 242/107/113 277/136/146
f 235/105/105 257/132/142 236/106/107
f 236/106/107 262/133/143 237/104/108
f 237/104/108 267/134/144 238/103/109
f 267/134/144 239/102/110 238/103/109
f 272/135/145 240/79/112 239/102/110
f 277/136/146 241/77/111 240/79/112
f 301/63/75 397/137/37 390/138/75
f 300/65/18 390/138/75 386/139/18
f 299/67/70 386/139/18 382/140/70
f 298/69/15 382/140/70 378/141/15
f 297/71/67 378/141/15 374/142/67
f 296/73/36 374/142/67 370/143/36
f 295/71/64 370/143/36 366/142/64
f 294/69/12 366/142/64 362/141/12
f 293/67/61 362/141/12 358/140/61
f 292/65/11 358/140/61 354/139/11
f 291/63/58 354/139/11 350/138/58
f 290/51/35 350/138/58 346/137/35
f 289/50/55 346/137/35 342/144/55
f 288/53/9 342/144/55 338/145/9
f 287/55/52 338/145/9 334/146/52
f 286/57/6 334/146/52 330/147/6
f 285/59/49 330/147/6 326/148/49
f 284/61/38 326/148/49 322/149/38
f 283/59/46 322/149/38 318/148/46
f 282/57/2 318/148/46 314/147/2
f 281/55/43 314/147/2 310/146/43
f 280/53/1 310/146/43 306/145/1
f 279/50/40 306/145/1 302/144/40
f 278/51/37 302/144/40 397/137/37
f 309/150/1 159/151/40 305/152/40
f 395/153/37 305/154/40 394/155/37
f 396/156/37 304/157/40 395/158/37
f 397/159/37 303/160/40 396/161/37
f 313/162/43 161/163/1 309/150/1
f 304/164/40 309/165/1 305/154/40
f 303/166/40 308/167/1 304/157/40
f 302/168/40 307/169/1 303/160/40
f 317/170/2 163/171/43 313/162/43
f 308/172/1 313/173/43 309/165/1
f 307/174/1 312/175/43 308/167/1
f 306/176/1 311/177/43 307/169/1
f 321/178/46 165/179/2 317/170/2
f 312/180/43 317/181/2 313/173/43
f 311/182/43 316/183/2 312/175/43
f 310/184/43 315/185/2 311/177/43
f 325/186/38 167/187/46 321/178/46
f 316/188/2 321/189/46 317/181/2
f 315/190/2 320/191/46 316/183/2
f 314/192/2 319/193/46 315/185/2
f 329/178/49 169/194/38 325/186/38
f 320/195/46 325/196/38 321/189/46
f 319/197/46 324/198/38 320/191/46
f 318/199/46 323/200/38 319/193/46
f 333/170/6 171/187/49 329/178/49
f 324/201/38 329/189/49 325/196/38
f 323/202/38 328/191/49 324/198/38
f 322/203/38 327/193/49 323/200/38
f 337/162/52 173/179/6 333/170/6
f 328/195/49 333/181/6 329/189/49
f 327/197/49 332/183/6 328/191/49
f 326/199/49 331/185/6 327/193/49
f 341/150/9 175/171/52 337/162/52
f 332/188/6 337/173/52 333/181/6
f 331/190/6 336/175/52 332/183/6
f 330/192/6 335/177/52 331/185/6
f 345/152/55 177/163/9 341/150/9
f 336/180/52 341/165/9 337/173/52
f 335/182/52 340/167/9 336/175/52
f 334/184/52 339/169/9 335/177/52
f 349/204/35 179/151/55 345/152/55
f 340/172/9 345/154/55 341/165/9
f 339/174/9 344/157/55 340/167/9
f 338/176/9 343/160/55 339/169/9
f 353/205/58 181/206/35 349/204/35
f 344/164/55 349/155/35 345/154/55
f 343/166/55 348/158/35 344/157/55
f 342/168/55 347/161/35 343/160/55
f 357/207/11 183/208/58 353/205/58
f 348/153/35 353/209/58 349/155/35
f 347/156/35 352/210/58 348/158/35
f 346/159/35 351/211/58 347/161/35
f 361/212/61 185/213/11 357/207/11
f 352/214/58 357/215/11 353/209/58
f 351/216/58 356/217/11 352/210/58
f 350/218/58 355/219/11 351/211/58
f 365/220/12 187/221/61 361/212/61
f 356/222/11 361/223/61 357/215/11
f 355/224/11 360/225/61 356/217/11
f 354/226/11 359/227/61 355/219/11
f 369/228/64 189/229/12 365/220/12
f 360/230/61 365/231/12 361/223/61
f 359/232/61 364/233/12 360/225/61
f 358/234/61 363/235/12 359/227/61
f 373/236/36 191/237/64 369/228/64
f 364/238/12 369/239/64 365/231/12
f 363/240/12 368/241/64 364/233/12
f 362/242/12 367/243/64 363/235/12
f 377/228/67 193/244/36 373/236/36
f 368/245/64 373/246/36 369/239/64
f 367/247/64 372/248/36 368/241/64
f 366/249/64 371/250/36 367/243/64
f 381/220/15 195/237/67 377/228/67
f 372/251/36 377/239/67 373/246/36
f 371/252/36 376/241/67 372/248/36
f 370/253/36 375/243/67 371/250/36
f 385/212/70 197/229/15 381/220/15
f 376/245/67 381/231/15 377/239/67
f 375/247/67 380/233/15 376/241/67
f 374/249/67 379/235/15 375/243/67
f 389/207/18 199/221/70 385/212/70
f 380/238/15 385/223/70 381/231/15
f 379/240/15 384/225/70 380/233/15
f 378/242/15 383/227/70 379/235/15
f 393/205/75 201/213/18 389/207/18
f 384/230/70 389/215/18 385/223/70
f 383/232/70 388/217/18 384/225/70
f 382/234/70 387/219/18 383/227/70
f 394/204/37 203/208/75 393/205/75
f 388/222/18 393/209/75 389/215/18
f 387/224/18 392/210/75 388/217/18
f 386/226/18 391/211/75 387/219/18
f 394/204/37 159/151/40 157/206/37
f 392/214/75 394/155/37 393/209/75
f 391/216/75 395/158/37 392/210/75
f 390/218/75 396/161/37 391/211/75
s 27
f 6/7/7 4/1/7 398/1/7
f 4/1/7 14/13/7 398/1/7
f 14/13/7 12/13/7 398/1/7
f 12/13/7 10/1/7 398/1/7
f 10/1/7 8/7/7 398/1/7
f 8/7/7 6/7/7 398/1/7
s 4
f 5/2/13 7/2/13 399/3/13
f 7/2/13 9/3/13 399/3/13
f 9/3/13 11/11/13 399/3/13
f 11/11/13 13/11/13 399/3/13
f 13/11/13 3/3/13 399/3/13
s 5
f 47/16/7 49/17/7 400/17/7
f 49/17/7 51/36/7 400/17/7
f 51/36/7 53/36/7 400/17/7
f 53/36/7 43/17/7 400/17/7
f 43/17/7 45/16/7 400/17/7
s 10
f 52/34/13 50/34/13 401/28/13
f 50/34/13 48/28/13 401/28/13
f 48/28/13 46/27/13 401/28/13
f 46/27/13 44/27/13 401/28/13
f 44/27/13 42/28/13 401/28/13
s 11
f 86/7/7 88/1/7 402/1/7
f 88/1/7 90/13/7 402/1/7
f 90/13/7 92/13/7 402/1/7
f 92/13/7 82/1/7 402/1/7
f 82/1/7 84/7/7 402/1/7
s 18
f 91/11/13 89/11/13 403/3/13
f 89/11/13 87/3/13 403/3/13
f 87/3/13 85/2/13 403/3/13
f 85/2/13 83/2/13 403/3/13
f 83/2/13 81/3/13 403/3/13
s 19
f 121/17/7 131/36/7 404/17/7
f 131/36/7 129/36/7 404/17/7
f 129/36/7 127/17/7 404/17/7
f 127/17/7 125/16/7 404/17/7
f 125/16/7 123/16/7 404/17/7
s 24
f 122/27/13 124/27/13 405/28/13
f 124/27/13 126/28/13 405/28/13
f 126/28/13 128/34/13 405/28/13
f 128/34/13 130/34/13 405/28/13
f 130/34/13 120/28/13 405/28/13
s 1
f 4/1/1 6/7/2 5/2/2
s 2
f 15/4/3 18/9/8 19/5/4
s 1
f 6/7/2 8/7/6 7/2/6
f 8/7/6 10/1/9 9/3/9
s 3
f 10/1/11 12/13/12 11/11/12
s 2
f 36/10/10 15/4/3 16/6/5
s 3
f 12/13/12 14/13/15 13/11/15
s 2
f 39/14/16 38/12/14 16/6/5
s 3
f 14/13/15 4/1/18 3/3/18
s 2
f 17/15/17 16/6/5 19/5/4
f 19/5/4 18/9/8 21/4/20
f 20/18/19 19/5/4 22/6/21
f 21/4/20 24/10/25 25/12/23
f 22/6/21 25/12/23 26/14/24
f 24/10/25 27/21/28 28/19/26
f 25/12/23 28/19/26 29/20/27
f 28/19/26 27/21/28 30/22/29
f 28/19/26 31/23/30 32/24/31
f 31/23/30 30/22/29 33/21/32
f 31/23/30 34/19/33 35/20/34
f 34/19/33 38/12/14 39/14/16
f 34/19/33 33/21/32 36/10/10
s 6
f 1/25/13 40/26/13 118/26/13
s 7
f 44/27/15 45/16/15 43/17/18
s 8
f 55/29/33 58/39/30 57/30/29
s 7
f 46/27/12 47/16/12 45/16/15
f 48/28/11 49/17/11 47/16/12
s 9
f 50/34/6 51/36/6 49/17/9
s 8
f 55/29/33 54/31/32 75/33/10
s 9
f 52/34/2 53/36/2 51/36/6
s 8
f 78/37/16 56/38/34 55/29/33
s 9
f 42/28/1 43/17/1 53/36/2
s 8
f 56/38/34 59/40/31 58/39/30
f 58/39/30 61/29/26 60/31/28
f 59/40/31 62/38/27 61/29/26
f 64/35/23 63/33/25 60/31/28
f 65/37/24 64/35/23 61/29/26
f 67/41/21 66/43/20 63/33/25
f 68/42/22 67/41/21 64/35/23
f 67/41/21 70/46/4 69/44/8
f 71/45/19 70/46/4 67/41/21
f 70/46/4 73/41/5 72/43/3
f 74/42/17 73/41/5 70/46/4
f 78/37/16 77/35/14 73/41/5
f 77/35/14 75/33/10 72/43/3
s 12
f 80/47/35 79/25/35 118/26/35
s 13
f 2/47/36 1/25/36 79/25/36
s 14
f 40/26/37 1/25/37 2/47/37
s 15
f 83/2/6 84/7/6 82/1/9
s 16
f 94/6/21 97/5/4 96/9/8
s 15
f 85/2/2 86/7/2 84/7/6
f 87/3/1 88/1/1 86/7/2
s 17
f 89/11/15 90/13/15 88/1/18
s 16
f 94/6/21 93/4/20 114/10/25
s 17
f 91/11/12 92/13/12 90/13/15
s 16
f 117/14/24 95/15/22 94/6/21
s 17
f 81/3/11 82/1/11 92/13/12
s 16
f 95/15/22 98/18/19 97/5/4
f 97/5/4 100/6/5 99/4/3
f 98/18/19 101/15/17 100/6/5
f 103/12/14 102/10/10 99/4/3
f 104/14/16 103/12/14 100/6/5
f 106/19/33 105/21/32 102/10/10
f 107/20/34 106/19/33 103/12/14
f 106/19/33 109/23/30 108/22/29
f 110/24/31 109/23/30 106/19/33
f 109/23/30 112/19/26 111/21/28
f 113/20/27 112/19/26 109/23/30
f 117/14/24 116/12/23 112/19/26
f 116/12/23 114/10/25 111/21/28
s 20
f 119/48/7 41/48/7 2/47/7
s 21
f 121/17/11 123/16/12 122/27/12
s 22
f 132/31/28 135/30/29 136/39/30
s 21
f 123/16/12 125/16/15 124/27/15
f 125/16/15 127/17/18 126/28/18
s 23
f 127/17/1 129/36/2 128/34/2
s 22
f 153/33/25 132/31/28 133/29/26
s 23
f 129/36/2 131/36/6 130/34/6
s 22
f 156/37/24 155/35/23 133/29/26
s 23
f 131/36/6 121/17/9 120/28/9
s 22
f 134/38/27 133/29/26 136/39/30
f 136/39/30 135/30/29 138/31/32
f 137/40/31 136/39/30 139/29/33
f 138/31/32 141/33/10 142/35/14
f 139/29/33 142/35/14 143/37/16
f 141/33/10 144/43/3 145/41/5
f 142/35/14 145/41/5 146/42/17
f 145/41/5 144/43/3 147/44/8
f 145/41/5 148/46/4 149/45/19
f 148/46/4 147/44/8 150/43/20
f 148/46/4 151/41/21 152/42/22
f 151/41/21 155/35/23 156/37/24
f 151/41/21 150/43/20 153/33/25
s 25
f 118/26/38 40/26/38 41/48/38
s 26
f 158/49/39 160/52/41 279/50/40
f 160/52/41 162/54/42 280/53/1
f 162/54/42 164/56/44 281/55/43
f 164/56/44 166/58/45 282/57/2
f 166/58/45 168/60/47 283/59/46
f 168/60/47 170/62/48 284/61/38
f 170/62/48 172/60/50 285/59/49
f 172/60/50 174/58/51 286/57/6
f 174/58/51 176/56/53 287/55/52
f 176/56/53 178/54/54 288/53/9
f 178/54/54 180/52/56 289/50/55
f 180/52/56 182/49/57 290/51/35
f 182/49/57 184/64/59 291/63/58
f 184/64/59 186/66/60 292/65/11
f 186/66/60 188/68/62 293/67/61
f 188/68/62 190/70/63 294/69/12
f 190/70/63 192/72/65 295/71/64
f 192/72/65 194/74/66 296/73/36
f 194/74/66 196/72/68 297/71/67
f 196/72/68 198/70/69 298/69/15
f 198/70/69 200/68/71 299/67/70
f 200/68/71 202/66/74 300/65/18
f 162/54/42 160/52/41 205/75/72
f 202/66/74 204/64/76 301/63/75
f 204/64/76 158/49/39 278/51/37
f 230/77/77 252/107/123 253/78/78
f 172/60/50 170/62/48 211/80/80
f 182/49/57 180/52/56 216/82/82
f 190/70/63 221/98/98 222/84/84
f 200/68/71 226/99/99 227/85/85
f 166/58/45 209/100/100 210/86/86
f 176/56/53 214/101/101 215/87/87
f 188/68/62 186/66/60 219/88/88
f 198/70/69 196/72/68 224/90/90
f 164/56/44 162/54/42 207/76/73
f 174/58/51 172/60/50 212/81/81
f 160/52/41 158/49/39 206/94/94
f 184/64/59 182/49/57 217/83/83
f 194/74/66 192/72/65 222/84/84
f 202/66/74 227/85/85 228/97/97
f 170/62/48 168/60/47 210/86/86
f 178/54/54 215/87/87 216/82/82
f 188/68/62 220/89/89 221/98/98
f 200/68/71 198/70/69 225/91/91
f 164/56/44 208/92/92 209/100/100
f 176/56/53 174/58/51 213/93/93
f 186/66/60 184/64/59 218/95/95
f 196/72/68 194/74/66 223/96/96
f 158/49/39 204/64/76 228/97/97
f 229/79/79 205/75/72 206/94/94
f 231/102/102 207/76/73 205/75/72
f 232/103/103 208/92/92 207/76/73
f 232/103/103 233/104/104 209/100/100
f 233/104/104 234/106/106 210/86/86
f 235/105/105 211/80/80 210/86/86
f 236/106/107 212/81/81 211/80/80
f 237/104/108 213/93/93 212/81/81
f 238/103/109 214/101/101 213/93/93
f 238/103/109 239/102/110 215/87/87
f 239/102/110 240/79/112 216/82/82
f 241/77/111 217/83/83 216/82/82
f 242/107/113 218/95/95 217/83/83
f 243/108/114 219/88/88 218/95/95
f 244/109/115 220/89/89 219/88/88
f 244/109/115 245/110/116 221/98/98
f 245/110/116 246/112/118 222/84/84
f 247/111/117 223/96/96 222/84/84
f 248/112/119 224/90/90 223/96/96
f 249/110/120 225/91/91 224/90/90
f 250/109/121 226/99/99 225/91/91
f 250/109/121 251/108/122 227/85/85
f 251/108/122 252/107/123 228/97/97
f 230/77/77 206/94/94 228/97/97
f 252/107/123 251/108/122 258/113/124
f 251/108/122 250/109/121 263/114/125
f 263/114/125 250/109/121 249/110/120
f 268/115/126 249/110/120 248/112/119
f 273/116/127 248/112/119 247/111/117
f 229/79/79 253/78/78 254/117/128
f 253/78/78 258/113/124 259/118/129
f 258/113/124 263/114/125 264/119/130
f 264/119/130 263/114/125 268/115/126
f 269/120/131 268/115/126 273/116/127
f 274/121/132 273/116/127 246/112/118
f 231/102/102 254/117/128 255/122/133
f 254/117/128 259/118/129 260/123/134
f 259/118/129 264/119/130 265/124/7
f 265/124/7 264/119/130 269/120/131
f 270/125/135 269/120/131 274/121/132
f 275/126/136 274/121/132 245/110/116
f 233/104/104 232/103/103 255/122/133
f 256/127/137 255/122/133 260/123/134
f 261/128/138 260/123/134 265/124/7
f 265/124/7 270/125/135 271/130/140
f 270/125/135 275/126/136 276/131/141
f 275/126/136 244/109/115 243/108/114
f 234/106/106 233/104/104 256/127/137
f 257/132/142 256/127/137 261/128/138
f 262/133/143 261/128/138 266/129/139
f 266/129/139 271/130/140 272/135/145
f 271/130/140 276/131/141 277/136/146
f 276/131/141 243/108/114 242/107/113
f 235/105/105 234/106/106 257/132/142
f 236/106/107 257/132/142 262/133/143
f 237/104/108 262/133/143 267/134/144
f 267/134/144 272/135/145 239/102/110
f 272/135/145 277/136/146 240/79/112
f 277/136/146 242/107/113 241/77/111
f 301/63/75 278/51/37 397/137/37
f 300/65/18 301/63/75 390/138/75
f 299/67/70 300/65/18 386/139/18
f 298/69/15 299/67/70 382/140/70
f 297/71/67 298/69/15 378/141/15
f 296/73/36 297/71/67 374/142/67
f 295/71/64 296/73/36 370/143/36
f 294/69/12 295/71/64 366/142/64
f 293/67/61 294/69/12 362/141/12
f 292/65/11 293/67/61 358/140/61
f 291/63/58 292/65/11 354/139/11
f 290/51/35 291/63/58 350/138/58
f 289/50/55 290/51/35 346/137/35
f 288/53/9 289/50/55 342/144/55
f 287/55/52 288/53/9 338/145/9
f 286/57/6 287/55/52 334/146/52
f 285/59/49 286/57/6 330/147/6
f 284/61/38 285/59/49 326/148/49
f 283/59/46 284/61/38 322/149/38
f 282/57/2 283/59/46 318/148/46
f 281/55/43 282/57/2 314/147/2
f 280/53/1 281/55/43 310/146/43
f 279/50/40 280/53/1 306/145/1
f 278/51/37 279/50/40 302/144/40
f 309/150/1 161/163/1 159/151/40
f 395/153/37 304/164/40 305/154/40
f 396/156/37 303/166/40 304/157/40
f 397/159/37 302/168/40 303/160/40
f 313/162/43 163/171/43 161/163/1
f 304/164/40 308/172/1 309/165/1
f 303/166/40 307/174/1 308/167/1
f 302/168/40 306/176/1 307/169/1
f 317/170/2 165/179/2 163/171/43
f 308/172/1 312/180/43 313/173/43
f 307/174/1 311/182/43 312/175/43
f 306/176/1 310/184/43 311/177/43
f 321/178/46 167/187/46 165/179/2
f 312/180/43 316/188/2 317/181/2
f 311/182/43 315/190/2 316/183/2
f 310/184/43 314/192/2 315/185/2
f 325/186/38 169/194/38 167/187/46
f 316/188/2 320/195/46 321/189/46
f 315/190/2 319/197/46 320/191/46
f 314/192/2 318/199/46 319/193/46
f 329/178/49 171/187/49 169/194/38
f 320/195/46 324/201/38 325/196/38
f 319/197/46 323/202/38 324/198/38
f 318/199/46 322/203/38 323/200/38
f 333/170/6 173/179/6 171/187/49
f 324/201/38 328/195/49 329/189/49
f 323/202/38 327/197/49 328/191/49
f 322/203/38 326/199/49 327/193/49
f 337/162/52 175/171/52 173/179/6
f 328/195/49 332/188/6 333/181/6
f 327/197/49 331/190/6 332/183/6
f 326/199/49 330/192/6 331/185/6
f 341/150/9 177/163/9 175/171/52
f 332/188/6 336/180/52 337/173/52
f 331/190/6 335/182/52 336/175/52
f 330/192/6 334/184/52 335/177/52
f 345/152/55 179/151/55 177/163/9
f 336/180/52 340/172/9 341/165/9
f 335/182/52 339/174/9 340/167/9
f 334/184/52 338/176/9 339/169/9
f 349/204/35 181/206/35 179/151/55
f 340/172/9 344/164/55 345/154/55
f 339/174/9 343/166/55 344/157/55
f 338/176/9 342/168/55 343/160/55
f 353/205/58 183/208/58 181/206/35
f 344/164/55 348/153/35 349/155/35
f 343/166/55 347/156/35 348/158/35
f 342/168/55 346/159/35 347/161/35
f 357/207/11 185/213/11 183/208/58
f 348/153/35 352/214/58 353/209/58
f 347/156/35 351/216/58 352/210/58
f 346/159/35 350/218/58 351/211/58
f 361/212/61 187/221/61 185/213/11
f 352/214/58 356/222/11 357/215/11
f 351/216/58 355/224/11 356/217/11
f 350/218/58 354/226/11 355/219/11
f 365/220/12 189/229/12 187/221/61
f 356/222/11 360/230/61 361/223/61
f 355/224/11 359/232/61 360/225/61
f 354/226/11 358/234/61 359/227/61
f 369/228/64 191/237/64 189/229/12
f 360/230/61 364/238/12 365/231/12
f 359/232/61 363/240/12 364/233/12
f 358/234/61 362/242/12 363/235/12
f 373/236/36 193/244/36 191/237/64
f 364/238/12 368/245/64 369/239/64
f 363/240/12 367/247/64 368/241/64
f 362/242/12 366/249/64 367/243/64
f 377/228/67 195/237/67 193/244/36
f 368/245/64 372/251/36 373/246/36
f 367/247/64 371/252/36 372/248/36
f 366/249/64 370/253/36 371/250/36
f 381/220/15 197/229/15 195/237/67
f 372/251/36 376/245/67 377/239/67
f 371/252/36 375/247/67 376/241/67
f 370/253/36 374/249/67 375/243/67
f 385/212/70 199/221/70 197/229/15
f 376/245/67 380/238/15 381/231/15
f 375/247/67 379/240/15 380/233/15
f 374/249/67 378/242/15 379/235/15
f 389/207/18 201/213/18 199/221/70
f 380/238/15 384/230/70 385/223/70
f 379/240/15 383/232/70 384/225/70
f 378/242/15 382/234/70 383/227/70
f 393/205/75 203/208/75 201/213/18
f 384/230/70 388/222/18 389/215/18
f 383/232/70 387/224/18 388/217/18
f 382/234/70 386/226/18 387/219/18
f 394/204/37 157/206/37 203/208/75
f 388/222/18 392/214/75 393/209/75
f 387/224/18 391/216/75 392/210/75
f 386/226/18 390/218/75 391/211/75
f 394/204/37 305/152/40 159/151/40
f 392/214/75 395/153/37 394/155/37
f 391/216/75 396/156/37 395/158/37
f 390/218/75 397/159/37 396/161/37
