# Blender 4.5.2 LTS
# www.blender.org
mtllib traffic_bollard_02_orange_large.mtl
g traffic_bollard_02_orange_large_Mesh
v 0.000000 -0.015000 -0.200000
v 0.000000 0.015000 -0.200000
v 0.141421 -0.015000 -0.141421
v 0.141421 0.015000 -0.141421
v 0.200000 -0.015000 0.000000
v 0.200000 0.015000 0.000000
v 0.141421 -0.015000 0.141421
v 0.141421 0.015000 0.141421
v 0.000000 -0.015000 0.200000
v 0.000000 0.015000 0.200000
v -0.141421 -0.015000 0.141421
v -0.141421 0.015000 0.141421
v -0.200000 -0.015000 0.000000
v -0.200000 0.015000 0.000000
v -0.141421 -0.015000 -0.141421
v -0.141421 0.015000 -0.141421
v 0.000000 0.004109 -0.057150
v 0.000000 1.219200 -0.057150
v 0.014792 0.004109 -0.055203
v 0.014792 1.219200 -0.055203
v 0.028575 0.004109 -0.049493
v 0.028575 1.219200 -0.049493
v 0.040411 0.004109 -0.040411
v 0.040411 1.219200 -0.040411
v 0.049493 0.004109 -0.028575
v 0.049493 1.219200 -0.028575
v 0.055203 0.004109 -0.014792
v 0.055203 1.219200 -0.014792
v 0.057150 0.004109 0.000000
v 0.057150 1.219200 0.000000
v 0.055203 0.004109 0.014792
v 0.055203 1.219200 0.014792
v 0.049493 0.004109 0.028575
v 0.049493 1.219200 0.028575
v 0.040411 0.004109 0.040411
v 0.040411 1.219200 0.040411
v 0.028575 0.004109 0.049493
v 0.028575 1.219200 0.049493
v 0.014792 0.004109 0.055203
v 0.014792 1.219200 0.055203
v 0.000000 0.004109 0.057150
v 0.000000 1.219200 0.057150
v -0.014792 0.004109 0.055203
v -0.014792 1.219200 0.055203
v -0.028575 0.004109 0.049493
v -0.028575 1.219200 0.049493
v -0.040411 0.004109 0.040411
v -0.040411 1.219200 0.040411
v -0.049493 0.004109 0.028575
v -0.049493 1.219200 0.028575
v -0.055203 0.004109 0.014792
v -0.055203 1.219200 0.014792
v -0.057150 0.004109 0.000000
v -0.057150 1.219200 0.000000
v -0.055203 0.004109 -0.014792
v -0.055203 1.219200 -0.014792
v -0.049493 0.004109 -0.028575
v -0.049493 1.219200 -0.028575
v -0.040411 0.004109 -0.040411
v -0.040411 1.219200 -0.040411
v -0.028575 0.004109 -0.049493
v -0.028575 1.219200 -0.049493
v -0.014792 0.004109 -0.055203
v -0.014792 1.219200 -0.055203
v 0.014946 1.223477 -0.053476
v 0.000725 1.223582 -0.055207
v 0.028156 1.223402 -0.048105
v 0.039466 1.223375 -0.039466
v 0.048105 1.223402 -0.028156
v 0.053476 1.223477 -0.014946
v 0.055207 1.223582 0.000725
v 0.053456 1.223486 0.014954
v 0.048090 1.223407 0.028167
v 0.039466 1.223377 0.039466
v 0.028167 1.223407 0.048090
v 0.014954 1.223486 0.053456
v -0.000725 1.223582 0.055207
v -0.014946 1.223477 0.053476
v -0.028156 1.223402 0.048105
v -0.039466 1.223375 0.039466
v -0.048105 1.223402 0.028156
v -0.053476 1.223477 0.014946
v -0.055207 1.223582 -0.000725
v -0.053456 1.223486 -0.014954
v -0.048090 1.223407 -0.028167
v -0.039466 1.223377 -0.039466
v -0.028167 1.223407 -0.048090
v -0.014954 1.223486 -0.053456
v 0.013736 1.226501 -0.051264
v 0.000000 1.226501 -0.053072
v 0.026536 1.226501 -0.045962
v 0.037528 1.226501 -0.037528
v 0.045962 1.226501 -0.026536
v 0.051264 1.226501 -0.013736
v 0.053072 1.226501 0.000000
v 0.051264 1.226501 0.013736
v 0.045962 1.226501 0.026536
v 0.037528 1.226501 0.037528
v 0.026536 1.226501 0.045962
v 0.013736 1.226501 0.051264
v 0.000000 1.226501 0.053072
v -0.013736 1.226501 0.051264
v -0.026536 1.226501 0.045962
v -0.037528 1.226501 0.037528
v -0.045962 1.226501 0.026536
v -0.051264 1.226501 0.013736
v -0.053072 1.226501 0.000000
v -0.051264 1.226501 -0.013736
v -0.045962 1.226501 -0.026536
v -0.037528 1.226501 -0.037528
v -0.026536 1.226501 -0.045962
v -0.013736 1.226501 -0.051264
v 0.000652 1.228516 -0.046614
v 0.014799 1.230031 -0.038590
v 0.027739 1.230597 -0.027739
v 0.038590 1.230032 -0.014799
v 0.046614 1.228517 -0.000652
v -0.013203 1.230315 -0.038061
v 0.000868 1.233333 -0.027404
v 0.014718 1.234504 -0.014718
v 0.027404 1.233333 -0.000868
v 0.038061 1.230315 0.013203
v -0.026536 1.231037 -0.026536
v -0.013736 1.234714 -0.013736
v 0.000000 1.236192 0.000000
v 0.013736 1.234714 0.013736
v 0.026536 1.231037 0.026536
v -0.038061 1.230315 -0.013203
v -0.027404 1.233333 0.000868
v -0.014718 1.234504 0.014718
v -0.000868 1.233333 0.027404
v 0.013203 1.230315 0.038061
v -0.046614 1.228517 0.000652
v -0.038590 1.230032 0.014799
v -0.027739 1.230597 0.027739
v -0.014799 1.230032 0.038590
v -0.000652 1.228517 0.046614
v 0.000000 1.215692 -0.057150
v 0.014792 1.215692 -0.055203
v 0.028575 1.215692 -0.049493
v 0.040411 1.215692 -0.040411
v 0.049493 1.215692 -0.028575
v 0.055203 1.215692 -0.014792
v 0.057150 1.215692 0.000000
v 0.055203 1.215692 0.014792
v 0.049493 1.215692 0.028575
v 0.040411 1.215692 0.040411
v 0.028575 1.215692 0.049493
v 0.014792 1.215692 0.055203
v 0.000000 1.215692 0.057150
v -0.014792 1.215692 0.055203
v -0.028575 1.215692 0.049493
v -0.040411 1.215692 0.040411
v -0.049493 1.215692 0.028575
v -0.055203 1.215692 0.014792
v -0.057150 1.215692 0.000000
v -0.055203 1.215692 -0.014792
v -0.049493 1.215692 -0.028575
v -0.040411 1.215692 -0.040411
v -0.028575 1.215692 -0.049493
v -0.014792 1.215692 -0.055203
v 0.014792 0.800801 -0.055203
v 0.014792 0.789821 -0.055203
v 0.028575 0.800801 -0.049493
v 0.028575 0.789821 -0.049493
v 0.040411 0.800801 -0.040411
v 0.040411 0.789821 -0.040411
v 0.049493 0.800801 -0.028575
v 0.049493 0.789821 -0.028575
v 0.055203 0.800801 -0.014792
v 0.055203 0.789821 -0.014792
v 0.057150 0.800801 0.000000
v 0.057150 0.789821 0.000000
v 0.055203 0.800801 0.014792
v 0.055203 0.789821 0.014792
v 0.049493 0.800801 0.028575
v 0.049493 0.789821 0.028575
v 0.040411 0.800801 0.040411
v 0.040411 0.789821 0.040411
v 0.028575 0.800801 0.049493
v 0.028575 0.789821 0.049493
v 0.014792 0.800801 0.055203
v 0.014792 0.789821 0.055203
v 0.000000 0.800801 0.057150
v 0.000000 0.789821 0.057150
v -0.014792 0.800801 0.055203
v -0.014792 0.789821 0.055203
v -0.028575 0.800801 0.049493
v -0.028575 0.789821 0.049493
v -0.040411 0.800801 0.040411
v -0.040411 0.789821 0.040411
v -0.049493 0.800801 0.028575
v -0.049493 0.789821 0.028575
v -0.055203 0.800801 0.014792
v -0.055203 0.789821 0.014792
v -0.057150 0.800801 0.000000
v -0.057150 0.789821 0.000000
v -0.055203 0.800801 -0.014792
v -0.055203 0.789821 -0.014792
v -0.049493 0.800801 -0.028575
v -0.049493 0.789821 -0.028575
v -0.040411 0.800801 -0.040411
v -0.040411 0.789821 -0.040411
v -0.028575 0.800801 -0.049493
v -0.028575 0.789821 -0.049493
v -0.014792 0.800801 -0.055203
v -0.014792 0.789821 -0.055203
v 0.000000 0.789821 -0.057150
v 0.000000 0.800801 -0.057150
v 0.000000 1.000012 -0.057150
v 0.000000 1.010992 -0.057150
v 0.014792 1.010992 -0.055203
v 0.014792 1.000012 -0.055203
v 0.028575 1.010992 -0.049493
v 0.028575 1.000012 -0.049493
v 0.040411 1.010992 -0.040411
v 0.040411 1.000012 -0.040411
v 0.049493 1.010992 -0.028575
v 0.049493 1.000012 -0.028575
v 0.055203 1.010992 -0.014792
v 0.055203 1.000012 -0.014792
v 0.057150 1.010992 0.000000
v 0.057150 1.000012 0.000000
v 0.055203 1.010992 0.014792
v 0.055203 1.000012 0.014792
v 0.049493 1.010992 0.028575
v 0.049493 1.000012 0.028575
v 0.040411 1.010992 0.040411
v 0.040411 1.000012 0.040411
v 0.028575 1.010992 0.049493
v 0.028575 1.000012 0.049493
v 0.014792 1.010992 0.055203
v 0.014792 1.000012 0.055203
v 0.000000 1.010992 0.057150
v 0.000000 1.000012 0.057150
v -0.014792 1.010992 0.055203
v -0.014792 1.000012 0.055203
v -0.028575 1.010992 0.049493
v -0.028575 1.000012 0.049493
v -0.040411 1.010992 0.040411
v -0.040411 1.000012 0.040411
v -0.049493 1.010992 0.028575
v -0.049493 1.000012 0.028575
v -0.055203 1.010992 0.014792
v -0.055203 1.000012 0.014792
v -0.057150 1.010992 0.000000
v -0.057150 1.000012 0.000000
v -0.055203 1.010992 -0.014792
v -0.055203 1.000012 -0.014792
v -0.049493 1.010992 -0.028575
v -0.049493 1.000012 -0.028575
v -0.040411 1.010992 -0.040411
v -0.040411 1.000012 -0.040411
v -0.028575 1.010992 -0.049493
v -0.028575 1.000012 -0.049493
v -0.014792 1.010992 -0.055203
v -0.014792 1.000012 -0.055203
v 0.015484 0.797961 -0.057787
v 0.015484 0.792662 -0.057787
v 0.029913 0.797961 -0.051810
v 0.029913 0.792662 -0.051810
v 0.042303 0.797961 -0.042303
v 0.042303 0.792662 -0.042303
v 0.051810 0.797961 -0.029913
v 0.051810 0.792662 -0.029913
v 0.057787 0.797961 -0.015484
v 0.057787 0.792662 -0.015484
v 0.059825 0.797961 0.000000
v 0.059825 0.792662 0.000000
v 0.057787 0.797961 0.015484
v 0.057787 0.792662 0.015484
v 0.051810 0.797961 0.029913
v 0.051810 0.792662 0.029913
v 0.042303 0.797961 0.042303
v 0.042303 0.792662 0.042303
v 0.029913 0.797961 0.051810
v 0.029913 0.792662 0.051810
v 0.015484 0.797961 0.057787
v 0.015484 0.792662 0.057787
v 0.000000 0.797961 0.059825
v 0.000000 0.792662 0.059825
v -0.015484 0.797961 0.057787
v -0.015484 0.792662 0.057787
v -0.029913 0.797961 0.051810
v -0.029913 0.792662 0.051810
v -0.042303 0.797961 0.042303
v -0.042303 0.792662 0.042303
v -0.051810 0.797961 0.029913
v -0.051810 0.792662 0.029913
v -0.057787 0.797961 0.015484
v -0.057787 0.792662 0.015484
v -0.059825 0.797961 0.000000
v -0.059825 0.792662 0.000000
v -0.057787 0.797961 -0.015484
v -0.057787 0.792662 -0.015484
v -0.051810 0.797961 -0.029913
v -0.051810 0.792662 -0.029913
v -0.042303 0.797961 -0.042303
v -0.042303 0.792662 -0.042303
v -0.029913 0.797961 -0.051810
v -0.029913 0.792662 -0.051810
v -0.015484 0.797961 -0.057787
v -0.015484 0.792662 -0.057787
v 0.000000 0.792662 -0.059825
v 0.000000 0.797961 -0.059825
v 0.000000 1.002852 -0.059825
v 0.000000 1.008151 -0.059825
v 0.015484 1.008151 -0.057787
v 0.015484 1.002852 -0.057787
v 0.029913 1.008151 -0.051810
v 0.029913 1.002852 -0.051810
v 0.042303 1.008151 -0.042303
v 0.042303 1.002852 -0.042303
v 0.051810 1.008151 -0.029913
v 0.051810 1.002852 -0.029913
v 0.057787 1.008151 -0.015484
v 0.057787 1.002852 -0.015484
v 0.059825 1.008151 0.000000
v 0.059825 1.002852 0.000000
v 0.057787 1.008151 0.015484
v 0.057787 1.002852 0.015484
v 0.051810 1.008151 0.029913
v 0.051810 1.002852 0.029913
v 0.042303 1.008151 0.042303
v 0.042303 1.002852 0.042303
v 0.029913 1.008151 0.051810
v 0.029913 1.002852 0.051810
v 0.015484 1.008151 0.057787
v 0.015484 1.002852 0.057787
v 0.000000 1.008151 0.059825
v 0.000000 1.002852 0.059825
v -0.015484 1.008151 0.057787
v -0.015484 1.002852 0.057787
v -0.029913 1.008151 0.051810
v -0.029913 1.002852 0.051810
v -0.042303 1.008151 0.042303
v -0.042303 1.002852 0.042303
v -0.051810 1.008151 0.029913
v -0.051810 1.002852 0.029913
v -0.057787 1.008151 0.015484
v -0.057787 1.002852 0.015484
v -0.059825 1.008151 0.000000
v -0.059825 1.002852 0.000000
v -0.057787 1.008151 -0.015484
v -0.057787 1.002852 -0.015484
v -0.051810 1.008151 -0.029913
v -0.051810 1.002852 -0.029913
v -0.042303 1.008151 -0.042303
v -0.042303 1.002852 -0.042303
v -0.029913 1.008151 -0.051810
v -0.029913 1.002852 -0.051810
v -0.015484 1.008151 -0.057787
v -0.015484 1.002852 -0.057787
v -0.011511 1.232365 -0.007515
v -0.014907 1.261831 -0.007515
v -0.022353 1.262398 -0.007515
v -0.031664 1.257683 -0.007515
v -0.038808 1.256015 -0.007515
v -0.043300 1.257479 -0.007515
v -0.043300 1.272216 -0.007515
v -0.038808 1.280110 -0.007515
v -0.031664 1.286888 -0.007515
v -0.022353 1.292089 -0.007515
v -0.011511 1.295359 -0.007515
v -0.011511 1.257367 -0.007515
v 0.000005 1.266338 -0.007515
v 0.000005 1.296463 -0.007515
v 0.000005 1.232365 -0.007515
v 0.000005 1.258367 -0.007515
v 0.011520 1.232365 -0.007515
v 0.014917 1.261831 -0.007515
v 0.022363 1.262398 -0.007515
v 0.031674 1.257683 -0.007515
v 0.038818 1.256015 -0.007515
v 0.043309 1.257479 -0.007515
v 0.043309 1.272216 -0.007515
v 0.038818 1.280110 -0.007515
v 0.031674 1.286888 -0.007515
v 0.022363 1.292089 -0.007515
v 0.011520 1.295359 -0.007515
v 0.011520 1.257367 -0.007515
v -0.040400 1.268238 -0.007515
v -0.032963 1.272634 -0.007515
v -0.013754 1.279202 -0.007515
v -0.045075 1.264893 -0.007515
v -0.023272 1.277796 -0.007515
v -0.006019 1.272397 -0.007515
v 0.040400 1.268238 -0.007515
v 0.032963 1.272634 -0.007515
v 0.013754 1.279202 -0.007515
v 0.045075 1.264893 -0.007515
v 0.023272 1.277796 -0.007515
v -0.008836 1.278551 -0.007515
v -0.000322 1.287712 -0.007515
v 0.008839 1.279198 -0.007515
v 0.000325 1.270037 -0.007515
v -0.006477 1.284895 -0.007515
v 0.006021 1.285352 -0.007515
v 0.006479 1.272854 -0.007515
v -0.011511 1.232365 0.007509
v -0.014902 1.261732 0.007509
v -0.022311 1.262261 0.007509
v -0.031596 1.257533 0.007509
v -0.038752 1.255832 0.007509
v -0.043255 1.257262 0.007509
v -0.043659 1.272509 0.007509
v -0.038980 1.280309 0.007509
v -0.031766 1.287055 0.007509
v -0.022406 1.292242 0.007509
v -0.011552 1.295524 0.007509
v -0.011511 1.257367 0.007509
v 0.000007 1.266221 0.007509
v 0.000004 1.296679 0.007509
v 0.000005 1.232365 0.007509
v 0.000005 1.258367 0.007509
v 0.011520 1.232365 0.007509
v 0.014912 1.261732 0.007509
v 0.022321 1.262261 0.007509
v 0.031606 1.257533 0.007509
v 0.038762 1.255832 0.007509
v 0.043265 1.257262 0.007509
v 0.043669 1.272509 0.007509
v 0.038989 1.280309 0.007509
v 0.031775 1.287055 0.007509
v 0.022416 1.292242 0.007509
v 0.011562 1.295524 0.007509
v 0.011520 1.257367 0.007509
v -0.040525 1.268287 0.007509
v -0.032992 1.272653 0.007509
v -0.013772 1.279207 0.007509
v -0.045138 1.264811 0.007509
v -0.023294 1.277821 0.007509
v -0.006012 1.272256 0.007509
v 0.040525 1.268287 0.007509
v 0.032992 1.272653 0.007509
v 0.013769 1.279204 0.007509
v 0.045138 1.264811 0.007509
v 0.023294 1.277821 0.007509
v -0.008866 1.278580 0.007509
v -0.000327 1.287929 0.007509
v 0.008872 1.279239 0.007509
v 0.000327 1.269840 0.007509
v -0.006524 1.285052 0.007509
v 0.006070 1.285517 0.007509
v 0.006470 1.272721 0.007509
v 0.000000 0.015000 0.000000
v -0.000000 -0.015000 0.000000
vn 0.3827 -0.0000 -0.9239
vn 0.9239 -0.0000 -0.3827
vn 0.9239 -0.0000 0.3827
vn 0.3827 -0.0000 0.9239
vn -0.3827 -0.0000 0.9239
vn -0.9239 -0.0000 0.3827
vn -0.0000 -1.0000 -0.0000
vn -0.9239 -0.0000 -0.3827
vn -0.3827 -0.0000 -0.9239
vn -0.0021 0.2017 -0.9794
vn 0.2588 -0.0000 -0.9659
vn -0.0000 -0.0000 -1.0000
vn 0.2486 0.1800 -0.9517
vn 0.5000 -0.0000 -0.8660
vn 0.4903 0.1602 -0.8567
vn 0.7071 -0.0000 -0.7071
vn 0.6988 0.1529 -0.6988
vn 0.8660 -0.0000 -0.5000
vn 0.8567 0.1602 -0.4903
vn 0.9659 -0.0000 -0.2588
vn 0.9516 0.1788 -0.2500
vn 1.0000 -0.0000 -0.0000
vn 0.9795 0.2015 -0.0019
vn 0.9659 -0.0000 0.2588
vn 0.9515 0.1811 0.2487
vn 0.8660 -0.0000 0.5000
vn 0.8567 0.1609 0.4901
vn 0.7071 -0.0000 0.7071
vn 0.6988 0.1528 0.6988
vn 0.5000 -0.0000 0.8660
vn 0.4901 0.1609 0.8567
vn 0.2588 -0.0000 0.9659
vn 0.2498 0.1802 0.9514
vn -0.0000 -0.0000 1.0000
vn 0.0021 0.2017 0.9794
vn -0.2588 -0.0000 0.9659
vn -0.2486 0.1800 0.9517
vn -0.5000 -0.0000 0.8660
vn -0.4903 0.1602 0.8567
vn -0.7071 -0.0000 0.7071
vn -0.6988 0.1529 0.6988
vn -0.8660 -0.0000 0.5000
vn -0.8567 0.1602 0.4903
vn -0.9659 -0.0000 0.2588
vn -0.9516 0.1788 0.2500
vn -1.0000 -0.0000 -0.0000
vn -0.9795 0.2015 0.0019
vn -0.9659 -0.0000 -0.2588
vn -0.9515 0.1811 -0.2487
vn -0.8660 -0.0000 -0.5000
vn -0.8567 0.1609 -0.4901
vn -0.7071 -0.0000 -0.7071
vn -0.6988 0.1528 -0.6988
vn -0.5000 -0.0000 -0.8660
vn 0.2323 0.4928 -0.8385
vn 0.4400 0.4874 -0.7542
vn -0.4901 0.1609 -0.8567
vn -0.2588 -0.0000 -0.9659
vn -0.2498 0.1802 -0.9514
vn -0.0054 0.8019 -0.5975
vn 0.0037 0.9619 -0.2734
vn 0.1417 0.8182 -0.5572
vn 0.8673 0.4974 0.0185
vn 0.8381 0.4933 0.2328
vn 0.2334 0.4937 0.8377
vn -0.0181 0.4973 0.8674
vn -0.8380 0.4932 0.2332
vn -0.4401 0.4877 -0.7540
vn 0.8380 0.4932 -0.2332
vn 0.4401 0.4877 0.7540
vn -0.4400 0.4874 0.7542
vn -0.6184 0.4850 0.6184
vn -0.8381 0.4933 -0.2328
vn -0.7540 0.4877 -0.4401
vn 0.6184 0.4850 -0.6184
vn 0.7540 0.4877 0.4401
vn 0.0181 0.4973 -0.8674
vn -0.2323 0.4928 0.8385
vn -0.8673 0.4974 -0.0185
vn -0.2334 0.4937 -0.8377
vn -0.7542 0.4874 0.4400
vn -0.6184 0.4850 -0.6184
vn 0.7542 0.4874 -0.4400
vn 0.6184 0.4850 0.6184
vn 0.2780 0.8290 -0.4852
vn 0.3926 0.8317 -0.3926
vn 0.4852 0.8290 -0.2781
vn 0.5974 0.8019 -0.0031
vn 0.5565 0.8186 -0.1425
vn 0.5574 0.8181 0.1417
vn 0.4844 0.8298 0.2771
vn 0.3915 0.8328 0.3915
vn 0.2771 0.8298 0.4844
vn 0.0054 0.8018 0.5975
vn 0.1423 0.8184 0.5568
vn -0.1417 0.8182 0.5572
vn -0.2781 0.8290 0.4852
vn -0.3926 0.8317 0.3926
vn -0.4852 0.8290 0.2781
vn -0.5974 0.8019 0.0031
vn -0.5565 0.8186 0.1425
vn -0.5574 0.8181 -0.1417
vn -0.4844 0.8298 -0.2771
vn -0.3915 0.8328 -0.3915
vn -0.2771 0.8298 -0.4844
vn -0.1423 0.8184 -0.5568
vn -0.0831 0.9693 -0.2315
vn -0.1668 0.9718 -0.1668
vn -0.2315 0.9693 -0.0831
vn -0.2734 0.9619 0.0037
vn 0.0913 0.9682 -0.2331
vn 0.0050 0.9838 -0.1789
vn -0.0946 0.9910 -0.0946
vn -0.1789 0.9838 0.0050
vn -0.2331 0.9682 0.0913
vn 0.1716 0.9701 -0.1716
vn 0.0998 0.9900 -0.0998
vn -0.0000 1.0000 -0.0000
vn -0.0998 0.9900 0.0998
vn -0.1716 0.9701 0.1716
vn 0.2331 0.9682 -0.0913
vn 0.1789 0.9838 -0.0050
vn 0.0946 0.9910 0.0946
vn -0.0050 0.9838 0.1789
vn -0.0913 0.9682 0.2331
vn 0.2734 0.9619 -0.0037
vn 0.2315 0.9693 0.0831
vn 0.1668 0.9718 0.1668
vn 0.0831 0.9693 0.2315
vn -0.0037 0.9619 0.2734
vn -0.0000 -0.3587 -0.9335
vn 0.2416 0.3587 -0.9016
vn 0.2416 -0.3587 -0.9016
vn 0.4667 0.3587 -0.8084
vn 0.4667 -0.3587 -0.8084
vn 0.6600 0.3587 -0.6601
vn 0.6600 -0.3587 -0.6600
vn 0.8084 0.3587 -0.4667
vn 0.8084 -0.3587 -0.4667
vn 0.9016 0.3587 -0.2416
vn 0.9016 -0.3587 -0.2416
vn 0.9335 0.3587 -0.0000
vn 0.9335 -0.3587 -0.0000
vn 0.9016 0.3587 0.2416
vn 0.9016 -0.3587 0.2416
vn 0.8084 0.3587 0.4667
vn 0.8084 -0.3587 0.4667
vn 0.6600 0.3587 0.6601
vn 0.6601 -0.3587 0.6600
vn 0.4667 0.3587 0.8084
vn 0.4667 -0.3587 0.8084
vn 0.2416 0.3587 0.9016
vn 0.2416 -0.3587 0.9016
vn -0.0000 0.3587 0.9335
vn -0.0000 -0.3587 0.9335
vn -0.2416 0.3587 0.9016
vn -0.2416 -0.3587 0.9016
vn -0.4667 0.3587 0.8084
vn -0.4667 -0.3587 0.8084
vn -0.6600 0.3587 0.6601
vn -0.6600 -0.3587 0.6600
vn -0.8084 0.3587 0.4667
vn -0.8084 -0.3587 0.4667
vn -0.9016 0.3587 0.2416
vn -0.9016 -0.3587 0.2416
vn -0.9335 0.3587 -0.0000
vn -0.9335 -0.3587 -0.0000
vn -0.9016 0.3587 -0.2416
vn -0.9016 -0.3587 -0.2416
vn -0.8084 0.3587 -0.4667
vn -0.8084 -0.3587 -0.4667
vn -0.6600 0.3587 -0.6601
vn -0.6601 -0.3587 -0.6600
vn -0.4667 0.3587 -0.8084
vn -0.4667 -0.3587 -0.8084
vn -0.2416 0.3587 -0.9016
vn -0.2416 -0.3587 -0.9016
vn -0.0000 0.3587 -0.9335
vn 0.6600 0.3587 -0.6600
vn 0.6600 -0.3587 -0.6601
vn -0.6600 0.3587 0.6600
vn -0.6600 -0.3587 0.6601
vn 0.3640 0.6856 -0.6304
vn 0.1884 0.6856 -0.7032
vn -0.0000 0.6856 -0.7280
vn -0.0000 -0.6856 -0.7280
vn 0.1884 -0.6856 -0.7031
vn 0.5147 0.6856 -0.5147
vn 0.3640 -0.6856 -0.6304
vn 0.6304 0.6856 -0.3640
vn 0.5147 -0.6856 -0.5147
vn 0.7032 0.6856 -0.1884
vn 0.6304 -0.6856 -0.3640
vn 0.7280 0.6856 -0.0000
vn 0.7032 -0.6856 -0.1884
vn 0.7032 0.6856 0.1884
vn 0.7280 -0.6856 -0.0000
vn 0.6304 0.6856 0.3640
vn 0.7031 -0.6856 0.1884
vn 0.5147 0.6856 0.5147
vn 0.6304 -0.6856 0.3640
vn 0.3640 0.6856 0.6304
vn 0.5147 -0.6856 0.5147
vn 0.1884 0.6856 0.7032
vn 0.3640 -0.6856 0.6304
vn -0.0000 0.6856 0.7280
vn 0.1884 -0.6856 0.7031
vn -0.1884 0.6856 0.7032
vn -0.0000 -0.6856 0.7280
vn -0.3640 0.6856 0.6304
vn -0.1884 -0.6856 0.7031
vn -0.5147 0.6856 0.5147
vn -0.3640 -0.6856 0.6304
vn -0.6304 0.6856 0.3640
vn -0.5147 -0.6856 0.5147
vn -0.7032 0.6856 0.1884
vn -0.6304 -0.6856 0.3640
vn -0.7280 0.6856 -0.0000
vn -0.7032 -0.6856 0.1884
vn -0.7032 0.6856 -0.1884
vn -0.7280 -0.6856 -0.0000
vn -0.6304 0.6856 -0.3640
vn -0.7031 -0.6856 -0.1884
vn -0.5147 0.6856 -0.5147
vn -0.6304 -0.6856 -0.3640
vn -0.3640 0.6856 -0.6304
vn -0.5147 -0.6856 -0.5147
vn -0.1884 0.6856 -0.7032
vn -0.3640 -0.6856 -0.6304
vn -0.1884 -0.6856 -0.7031
vn -0.1884 0.6856 -0.7031
vn 0.1884 0.6856 -0.7031
vn 0.7031 0.6856 -0.1884
vn 0.1884 0.6856 0.7031
vn -0.1884 0.6856 0.7031
vn -0.7031 0.6856 0.1884
vn -0.4765 -0.8792 -0.0066
vn 0.1973 -0.9803 -0.0091
vn 0.1952 -0.9807 -0.0096
vn 0.3429 -0.9393 -0.0112
vn 0.3450 -0.9386 -0.0109
vn -0.0369 -0.9993 -0.0113
vn -0.0429 -0.9990 -0.0130
vn -0.7269 -0.6867 -0.0066
vn -0.7365 -0.6763 -0.0096
vn -0.7848 0.6194 -0.0218
vn -0.9349 0.3542 -0.0246
vn -0.7784 0.6276 -0.0157
vn -0.5915 0.8061 -0.0145
vn -0.5887 0.8082 -0.0122
vn -0.3899 0.9208 -0.0115
vn -0.3890 0.9212 -0.0109
vn -0.1939 0.9809 -0.0121
vn -0.1954 0.9807 -0.0113
vn -0.0000 0.9999 -0.0126
vn -0.0000 0.9999 -0.0144
vn -0.9997 -0.0196 -0.0113
vn -1.0000 0.0022 -0.0042
vn -0.9460 -0.3243 -0.0000
vn -0.9472 -0.3206 -0.0015
vn -0.4731 -0.8810 -0.0040
vn -0.7339 0.6792 0.0051
vn -0.9994 -0.0349 0.0046
vn -0.9994 -0.0359 0.0023
vn 0.4764 -0.8792 -0.0065
vn -0.1973 -0.9803 -0.0091
vn 0.4731 -0.8810 -0.0040
vn -0.3429 -0.9393 -0.0112
vn -0.1952 -0.9807 -0.0096
vn 0.0369 -0.9993 -0.0113
vn -0.3450 -0.9386 -0.0109
vn 0.0429 -0.9990 -0.0130
vn 0.7273 -0.6863 -0.0066
vn 0.7848 0.6194 -0.0218
vn 0.9351 0.3536 -0.0246
vn 0.9326 0.3603 -0.0205
vn 0.5915 0.8061 -0.0145
vn 0.7784 0.6276 -0.0157
vn 0.3899 0.9208 -0.0115
vn 0.5888 0.8082 -0.0122
vn 0.1939 0.9809 -0.0121
vn 0.3890 0.9212 -0.0109
vn 0.1954 0.9807 -0.0113
vn 0.7370 -0.6759 -0.0096
vn 0.9997 -0.0195 -0.0112
vn 0.9472 -0.3206 -0.0015
vn 0.9460 -0.3243 -0.0000
vn -0.9324 0.3609 -0.0205
vn 0.0367 -0.9992 0.0127
vn -0.6845 -0.7290 0.0110
vn 0.0370 -0.9992 0.0144
vn 1.0000 0.0022 -0.0042
vn 0.7342 -0.6789 0.0078
vn 0.9993 0.0374 0.0044
vn 0.9993 0.0371 0.0019
vn -0.0368 0.9993 0.0100
vn 0.6836 0.7298 0.0079
vn -0.0371 0.9992 0.0131
vn 0.6825 0.7309 0.0056
vn 0.7359 -0.6770 0.0104
vn -0.6826 -0.7307 0.0085
vn -0.7347 0.6784 0.0072
vt 0.018523 0.044784
vt 0.021549 0.043234
vt 0.018523 0.043234
vt 0.021549 0.044784
vt 0.028854 0.043234
vt 0.028854 0.044784
vt 0.036160 0.043234
vt 0.036160 0.044784
vt 0.039186 0.043234
vt 0.039186 0.044784
vt 0.033220 0.869502
vt 0.033286 0.869383
vt 0.033220 0.869383
vt 0.033286 0.869502
vt 0.033479 0.869383
vt 0.033479 0.869502
vt 0.033787 0.869383
vt 0.033787 0.869502
vt 0.034189 0.869383
vt 0.034189 0.869502
vt 0.034656 0.869383
vt 0.034656 0.869502
vt 0.035158 0.869383
vt 0.035158 0.869502
vt 0.035660 0.869383
vt 0.035660 0.869502
vt 0.036127 0.869383
vt 0.036127 0.869502
vt 0.036528 0.869383
vt 0.036528 0.869502
vt 0.036836 0.869383
vt 0.036836 0.869502
vt 0.037030 0.869383
vt 0.037030 0.869502
vt 0.037096 0.869383
vt 0.037096 0.869502
vt 0.033344 0.869647
vt 0.033527 0.869644
vt 0.033358 0.869749
vt 0.033577 0.869818
vt 0.033419 0.869749
vt 0.035183 0.869650
vt 0.035665 0.869647
vt 0.036971 0.869647
vt 0.037030 0.869650
vt 0.035665 0.869647
vt 0.033527 0.869644
vt 0.034651 0.869647
vt 0.036789 0.869644
vt 0.036789 0.869644
vt 0.036496 0.869643
vt 0.034651 0.869647
vt 0.034203 0.869644
vt 0.033820 0.869643
vt 0.036113 0.869644
vt 0.033286 0.869650
vt 0.036971 0.869647
vt 0.035133 0.869650
vt 0.033345 0.869647
vt 0.036113 0.869644
vt 0.033820 0.869643
vt 0.034203 0.869644
vt 0.036496 0.869643
vt 0.033599 0.869749
vt 0.033885 0.869749
vt 0.034258 0.869749
vt 0.035158 0.869749
vt 0.034692 0.869749
vt 0.035624 0.869749
vt 0.036058 0.869749
vt 0.036431 0.869749
vt 0.036717 0.869749
vt 0.036958 0.869749
vt 0.036896 0.869749
vt 0.033867 0.869879
vt 0.034258 0.869903
vt 0.034710 0.869879
vt 0.035180 0.869818
vt 0.033849 0.869869
vt 0.034229 0.869981
vt 0.034692 0.870028
vt 0.035187 0.869981
vt 0.035660 0.869869
vt 0.034217 0.869888
vt 0.034659 0.870021
vt 0.035158 0.870078
vt 0.035657 0.870021
vt 0.036099 0.869888
vt 0.034656 0.869869
vt 0.035129 0.869981
vt 0.035624 0.870028
vt 0.036087 0.869981
vt 0.036467 0.869869
vt 0.035136 0.869818
vt 0.035606 0.869879
vt 0.036058 0.869903
vt 0.036449 0.869879
vt 0.036739 0.869818
vt 0.033286 0.854940
vt 0.033479 0.838619
vt 0.033286 0.838619
vt 0.033220 0.854940
vt 0.033220 0.838619
vt 0.082736 0.083236
vt 0.082929 0.076480
vt 0.082736 0.076480
vt 0.082670 0.083236
vt 0.082670 0.076480
vt 0.033479 0.854940
vt 0.033787 0.838619
vt 0.082929 0.083236
vt 0.083237 0.076480
vt 0.033787 0.854940
vt 0.034189 0.838619
vt 0.083237 0.083236
vt 0.083639 0.076480
vt 0.034189 0.854940
vt 0.034656 0.838619
vt 0.083639 0.083236
vt 0.084106 0.076480
vt 0.034656 0.854940
vt 0.035158 0.838619
vt 0.084106 0.083236
vt 0.084608 0.076480
vt 0.035158 0.854940
vt 0.035660 0.838619
vt 0.084608 0.083236
vt 0.085109 0.076480
vt 0.035660 0.854940
vt 0.036127 0.838619
vt 0.085109 0.083236
vt 0.085577 0.076480
vt 0.036127 0.854940
vt 0.036528 0.838619
vt 0.085577 0.083236
vt 0.085978 0.076480
vt 0.036528 0.854940
vt 0.036836 0.838619
vt 0.085978 0.083236
vt 0.086286 0.076480
vt 0.036836 0.854940
vt 0.037030 0.838619
vt 0.086286 0.083236
vt 0.086480 0.076480
vt 0.037030 0.854940
vt 0.037096 0.838619
vt 0.086480 0.083236
vt 0.086546 0.076480
vt 0.037096 0.854940
vt 0.086546 0.083236
vt 0.033286 0.862441
vt 0.033220 0.862441
vt 0.033479 0.862441
vt 0.033787 0.862441
vt 0.034189 0.862441
vt 0.034656 0.862441
vt 0.035158 0.862441
vt 0.035660 0.862441
vt 0.036127 0.862441
vt 0.036528 0.862441
vt 0.036836 0.862441
vt 0.037030 0.862441
vt 0.037096 0.862441
vt 0.033129 0.855037
vt 0.033198 0.855216
vt 0.033198 0.855037
vt 0.033401 0.855216
vt 0.033401 0.855037
vt 0.033723 0.855216
vt 0.033723 0.855037
vt 0.034144 0.855216
vt 0.034144 0.855037
vt 0.034633 0.855216
vt 0.034633 0.855037
vt 0.035158 0.855216
vt 0.035158 0.855037
vt 0.035683 0.855216
vt 0.035683 0.855037
vt 0.036172 0.855216
vt 0.036172 0.855037
vt 0.036593 0.855216
vt 0.036593 0.855037
vt 0.036915 0.855216
vt 0.036915 0.855037
vt 0.037118 0.855216
vt 0.037118 0.855037
vt 0.037187 0.855216
vt 0.037187 0.855037
vt 0.033129 0.855216
vt 0.033129 0.862165
vt 0.033198 0.862345
vt 0.033198 0.862165
vt 0.033401 0.862345
vt 0.033401 0.862165
vt 0.033723 0.862345
vt 0.033723 0.862165
vt 0.034144 0.862345
vt 0.034144 0.862165
vt 0.034633 0.862345
vt 0.034633 0.862165
vt 0.035158 0.862345
vt 0.035158 0.862165
vt 0.035683 0.862345
vt 0.035683 0.862165
vt 0.036172 0.862345
vt 0.036172 0.862165
vt 0.036593 0.862345
vt 0.036593 0.862165
vt 0.036915 0.862345
vt 0.036915 0.862165
vt 0.037118 0.862345
vt 0.037118 0.862165
vt 0.037187 0.862345
vt 0.037187 0.862165
vt 0.033129 0.862345
vt 0.033479 0.855313
vt 0.033286 0.855313
vt 0.033220 0.855313
vt 0.033787 0.855313
vt 0.034189 0.855313
vt 0.034656 0.855313
vt 0.035158 0.855313
vt 0.035660 0.855313
vt 0.036127 0.855313
vt 0.036528 0.855313
vt 0.036836 0.855313
vt 0.037030 0.855313
vt 0.037096 0.855313
vt 0.033220 0.862068
vt 0.033286 0.862068
vt 0.033479 0.862068
vt 0.033787 0.862068
vt 0.034189 0.862068
vt 0.034656 0.862068
vt 0.035158 0.862068
vt 0.035660 0.862068
vt 0.036127 0.862068
vt 0.036528 0.862068
vt 0.036836 0.862068
vt 0.037030 0.862068
vt 0.037096 0.862068
vt 0.034903 0.871165
vt 0.034903 0.870807
vt 0.034903 0.870750
vt 0.034903 0.871314
vt 0.034903 0.870967
vt 0.034903 0.870800
vt 0.034903 0.871051
vt 0.034903 0.871489
vt 0.034903 0.870947
vt 0.034903 0.870796
vt 0.034903 0.869948
vt 0.034903 0.871730
vt 0.034903 0.871537
vt 0.034903 0.872084
vt 0.034903 0.871100
vt 0.034903 0.870830
vt 0.034903 0.871306
vt 0.034903 0.871974
vt 0.034903 0.871300
vt 0.034903 0.871567
vt 0.034903 0.871797
vt 0.034903 0.871745
vt 0.034903 0.872122
vt 0.034903 0.871825
vt 0.034903 0.871321
vt 0.034903 0.871536
vt 0.035413 0.871166
vt 0.035413 0.870802
vt 0.035413 0.871314
vt 0.035413 0.870962
vt 0.035413 0.871490
vt 0.035413 0.870793
vt 0.035413 0.871049
vt 0.035413 0.870944
vt 0.035413 0.871537
vt 0.035413 0.870796
vt 0.035413 0.869948
vt 0.035413 0.870830
vt 0.035413 0.871735
vt 0.035413 0.871515
vt 0.035413 0.871096
vt 0.035413 0.870744
vt 0.035413 0.871301
vt 0.035413 0.871979
vt 0.035413 0.871537
vt 0.035413 0.871310
vt 0.035413 0.871803
vt 0.035413 0.871574
vt 0.035413 0.871751
vt 0.035413 0.871538
vt 0.035413 0.872090
vt 0.035413 0.872129
vt 0.035413 0.871832
vt 0.035413 0.871317
vt 0.035413 0.871219
vt 0.035413 0.872090
vt 0.034903 0.871514
vt 0.034903 0.871226
s 0
g traffic_bollard_02_orange_large_regular_material
usemtl regular_material
f 2/1/1 3/2/1 1/3/1
f 4/4/2 5/5/2 3/2/2
f 6/6/3 7/7/3 5/5/3
f 8/8/4 9/9/4 7/7/4
f 10/10/5 11/7/5 9/9/5
f 12/8/6 13/5/6 11/7/6
f 1/3/7 3/2/7 447/5/7
f 14/6/8 15/2/8 13/5/8
f 16/4/9 1/3/9 15/2/9
s 10
f 18/11/10 139/12/11 138/13/12
f 20/14/13 140/15/14 139/12/11
f 22/16/15 141/17/16 140/15/14
f 24/18/17 142/19/18 141/17/16
f 26/20/19 143/21/20 142/19/18
f 28/22/21 144/23/22 143/21/20
f 30/24/23 145/25/24 144/23/22
f 32/26/25 146/27/26 145/25/24
f 34/28/27 147/29/28 146/27/26
f 36/30/29 148/31/30 147/29/28
f 38/32/31 149/33/32 148/31/30
f 40/34/33 150/35/34 149/33/32
f 42/36/35 151/33/36 150/35/34
f 44/34/37 152/31/38 151/33/36
f 46/32/39 153/29/40 152/31/38
f 48/30/41 154/27/42 153/29/40
f 50/28/43 155/25/44 154/27/42
f 52/26/45 156/23/46 155/25/44
f 54/24/47 157/21/48 156/23/46
f 56/22/49 158/19/50 157/21/48
f 58/20/51 159/17/52 158/19/50
f 60/18/53 160/15/54 159/17/52
f 22/16/15 65/37/55 67/38/56
f 62/16/57 161/12/58 160/15/54
f 64/14/59 138/13/12 161/12/58
f 90/39/60 113/40/61 89/41/62
f 32/26/25 71/42/63 72/43/64
f 42/36/35 76/44/65 77/45/66
f 50/28/43 82/46/67 52/26/45
f 60/18/53 87/47/68 62/16/57
f 26/20/19 70/48/69 28/22/21
f 36/30/29 75/49/70 38/32/31
f 48/30/41 79/50/71 80/51/72
f 58/20/51 84/52/73 85/53/74
f 24/18/17 67/38/56 68/54/75
f 34/28/27 72/43/64 73/55/76
f 20/14/13 66/56/77 65/37/55
f 44/34/37 77/45/66 78/57/78
f 54/24/47 82/46/67 83/58/79
f 62/16/57 88/59/80 64/14/59
f 30/24/23 70/48/69 71/42/63
f 38/32/31 76/44/65 40/34/33
f 48/30/41 81/60/81 50/28/43
f 60/18/53 85/53/74 86/61/82
f 24/18/17 69/62/83 26/20/19
f 36/30/29 73/55/76 74/63/84
f 46/32/39 78/57/78 79/50/71
f 56/22/49 83/58/79 84/52/73
f 18/11/10 88/59/80 66/56/77
f 89/41/62 66/56/77 90/39/60
f 91/64/85 65/37/55 89/41/62
f 92/65/86 67/38/56 91/64/85
f 92/65/86 69/62/83 68/54/75
f 93/66/87 70/48/69 69/62/83
f 95/67/88 70/48/69 94/68/89
f 96/69/90 71/42/63 95/67/88
f 97/70/91 72/43/64 96/69/90
f 98/71/92 73/55/76 97/70/91
f 98/71/92 75/49/70 74/63/84
f 99/72/93 76/44/65 75/49/70
f 101/73/94 76/44/65 100/74/95
f 102/74/96 77/45/66 101/73/94
f 103/72/97 78/57/78 102/74/96
f 104/71/98 79/50/71 103/72/97
f 104/71/98 81/60/81 80/51/72
f 105/70/99 82/46/67 81/60/81
f 107/67/100 82/46/67 106/69/101
f 108/68/102 83/58/79 107/67/100
f 109/66/103 84/52/73 108/68/102
f 110/65/104 85/53/74 109/66/103
f 110/65/104 87/47/68 86/61/82
f 111/64/105 88/59/80 87/47/68
f 90/39/60 88/59/80 112/41/106
f 112/41/106 118/75/107 113/40/61
f 111/64/105 123/76/108 118/75/107
f 123/76/108 109/66/103 128/77/109
f 128/77/109 108/68/102 133/78/110
f 133/78/110 107/67/100 106/69/101
f 89/41/62 114/79/111 91/64/85
f 113/40/61 119/80/112 114/79/111
f 118/75/107 124/81/113 119/80/112
f 124/81/113 128/77/109 129/82/114
f 129/82/114 133/78/110 134/83/115
f 134/83/115 106/69/101 105/70/99
f 91/64/85 115/84/116 92/65/86
f 114/79/111 120/85/117 115/84/116
f 119/80/112 125/86/118 120/85/117
f 125/86/118 129/82/114 130/87/119
f 130/87/119 134/83/115 135/88/120
f 135/88/120 105/70/99 104/71/98
f 93/66/87 115/84/116 116/89/121
f 116/89/121 120/85/117 121/90/122
f 121/90/122 125/86/118 126/91/123
f 125/86/118 131/92/124 126/91/123
f 130/87/119 136/93/125 131/92/124
f 135/88/120 103/72/97 136/93/125
f 94/68/89 116/89/121 117/94/126
f 117/94/126 121/90/122 122/95/127
f 122/95/127 126/91/123 127/96/128
f 126/91/123 132/97/129 127/96/128
f 131/92/124 137/98/130 132/97/129
f 136/93/125 102/74/96 137/98/130
f 95/67/88 117/94/126 96/69/90
f 96/69/90 122/95/127 97/70/91
f 97/70/91 127/96/128 98/71/92
f 127/96/128 99/72/93 98/71/92
f 132/97/129 100/74/95 99/72/93
f 137/98/130 101/73/94 100/74/95
s 11
f 163/99/11 21/100/14 19/101/11
f 208/102/12 19/101/11 17/103/12
s 12
f 213/104/11 164/105/14 162/106/11
f 210/107/12 162/106/11 209/108/12
s 11
f 165/109/14 23/110/16 21/100/14
s 12
f 215/111/14 166/112/16 164/105/14
s 11
f 167/113/16 25/114/18 23/110/16
s 12
f 217/115/16 168/116/18 166/112/16
s 11
f 169/117/18 27/118/20 25/114/18
s 12
f 219/119/18 170/120/20 168/116/18
s 11
f 171/121/20 29/122/22 27/118/20
s 12
f 221/123/20 172/124/22 170/120/20
s 11
f 173/125/22 31/126/24 29/122/22
s 12
f 223/127/22 174/128/24 172/124/22
s 11
f 175/129/24 33/130/26 31/126/24
s 12
f 225/131/24 176/132/26 174/128/24
s 11
f 177/133/26 35/134/28 33/130/26
s 12
f 227/135/26 178/136/28 176/132/26
s 11
f 179/137/28 37/138/30 35/134/28
s 12
f 229/139/28 180/140/30 178/136/28
s 11
f 181/141/30 39/142/32 37/138/30
s 12
f 231/143/30 182/144/32 180/140/30
s 11
f 183/145/32 41/146/34 39/142/32
s 12
f 233/147/32 184/148/34 182/144/32
s 11
f 185/149/34 43/142/36 41/146/34
s 12
f 235/150/34 186/144/36 184/148/34
s 11
f 187/145/36 45/138/38 43/142/36
s 12
f 237/147/36 188/140/38 186/144/36
s 11
f 189/141/38 47/134/40 45/138/38
s 12
f 239/143/38 190/136/40 188/140/38
s 11
f 191/137/40 49/130/42 47/134/40
s 12
f 241/139/40 192/132/42 190/136/40
s 11
f 193/133/42 51/126/44 49/130/42
s 12
f 243/135/42 194/128/44 192/132/42
s 11
f 195/129/44 53/122/46 51/126/44
s 12
f 245/131/44 196/124/46 194/128/44
s 11
f 197/125/46 55/118/48 53/122/46
s 12
f 247/127/46 198/120/48 196/124/46
s 11
f 199/121/48 57/114/50 55/118/48
s 12
f 249/123/48 200/116/50 198/120/48
s 11
f 201/117/50 59/110/52 57/114/50
s 12
f 251/119/50 202/112/52 200/116/50
s 11
f 203/113/52 61/100/54 59/110/52
s 12
f 253/115/52 204/105/54 202/112/52
s 11
f 205/109/54 63/101/58 61/100/54
s 12
f 255/111/54 206/106/58 204/105/54
s 11
f 207/99/58 17/103/12 63/101/58
s 12
f 257/104/58 209/108/12 206/106/58
s 13
f 138/13/12 212/151/11 211/152/12
f 161/12/58 211/152/12 256/151/58
f 139/12/11 214/153/14 212/151/11
f 140/15/14 216/154/16 214/153/14
f 141/17/16 218/155/18 216/154/16
f 142/19/18 220/156/20 218/155/18
f 143/21/20 222/157/22 220/156/20
f 144/23/22 224/158/24 222/157/22
f 145/25/24 226/159/26 224/158/24
f 146/27/26 228/160/28 226/159/26
f 147/29/28 230/161/30 228/160/28
f 148/31/30 232/162/32 230/161/30
f 149/33/32 234/163/34 232/162/32
f 150/35/34 236/162/36 234/163/34
f 151/33/36 238/161/38 236/162/36
f 152/31/38 240/160/40 238/161/38
f 153/29/40 242/159/42 240/160/40
f 154/27/42 244/158/44 242/159/42
f 155/25/44 246/157/46 244/158/44
f 156/23/46 248/156/48 246/157/46
f 157/21/48 250/155/50 248/156/48
f 158/19/50 252/154/52 250/155/50
f 159/17/52 254/153/54 252/154/52
f 160/15/54 256/151/58 254/153/54
s 14
f 304/164/131 258/165/132 259/166/133
f 259/166/133 260/167/134 261/168/135
f 261/168/135 262/169/136 263/170/137
f 263/170/137 264/171/138 265/172/139
f 265/172/139 266/173/140 267/174/141
f 267/174/141 268/175/142 269/176/143
f 269/176/143 270/177/144 271/178/145
f 271/178/145 272/179/146 273/180/147
f 273/180/147 274/181/148 275/182/149
f 275/182/149 276/183/150 277/184/151
f 277/184/151 278/185/152 279/186/153
f 279/186/153 280/187/154 281/188/155
f 281/188/155 282/185/156 283/186/157
f 283/186/157 284/183/158 285/184/159
f 285/184/159 286/181/160 287/182/161
f 287/182/161 288/179/162 289/180/163
f 289/180/163 290/177/164 291/178/165
f 291/178/165 292/175/166 293/176/167
f 293/176/167 294/173/168 295/174/169
f 295/174/169 296/171/170 297/172/171
f 297/172/171 298/169/172 299/170/173
f 299/170/173 300/167/174 301/168/175
f 301/168/175 302/165/176 303/166/177
f 303/166/177 305/189/178 304/164/131
s 15
f 306/190/131 308/191/132 309/192/133
f 309/192/133 310/193/134 311/194/135
f 311/194/135 312/195/179 313/196/180
f 313/196/180 314/197/138 315/198/139
f 315/198/139 316/199/140 317/200/141
f 317/200/141 318/201/142 319/202/143
f 319/202/143 320/203/144 321/204/145
f 321/204/145 322/205/146 323/206/147
f 323/206/147 324/207/148 325/208/149
f 325/208/149 326/209/150 327/210/151
f 327/210/151 328/211/152 329/212/153
f 329/212/153 330/213/154 331/214/155
f 331/214/155 332/211/156 333/212/157
f 333/212/157 334/209/158 335/210/159
f 335/210/159 336/207/181 337/208/182
f 337/208/182 338/205/162 339/206/163
f 339/206/163 340/203/164 341/204/165
f 341/204/165 342/201/166 343/202/167
f 343/202/167 344/199/168 345/200/169
f 345/200/169 346/197/170 347/198/171
f 347/198/171 348/195/172 349/196/173
f 349/196/173 350/193/174 351/194/175
f 351/194/175 352/191/176 353/192/177
f 353/192/177 307/215/178 306/190/131
s 14
f 164/216/183 258/165/132 162/217/184
f 162/217/184 305/189/178 209/218/185
f 259/166/133 208/102/186 304/164/131
f 261/168/135 163/99/187 259/166/133
f 166/219/188 260/167/134 164/216/183
f 263/170/137 165/109/189 261/168/135
f 168/220/190 262/169/136 166/219/188
f 265/172/139 167/113/191 263/170/137
f 170/221/192 264/171/138 168/220/190
f 267/174/141 169/117/193 265/172/139
f 172/222/194 266/173/140 170/221/192
f 269/176/143 171/121/195 267/174/141
f 174/223/196 268/175/142 172/222/194
f 271/178/145 173/125/197 269/176/143
f 176/224/198 270/177/144 174/223/196
f 273/180/147 175/129/199 271/178/145
f 178/225/200 272/179/146 176/224/198
f 275/182/149 177/133/201 273/180/147
f 180/226/202 274/181/148 178/225/200
f 277/184/151 179/137/203 275/182/149
f 182/227/204 276/183/150 180/226/202
f 279/186/153 181/141/205 277/184/151
f 184/228/206 278/185/152 182/227/204
f 281/188/155 183/145/207 279/186/153
f 186/227/208 280/187/154 184/228/206
f 283/186/157 185/149/209 281/188/155
f 188/226/210 282/185/156 186/227/208
f 285/184/159 187/145/211 283/186/157
f 190/225/212 284/183/158 188/226/210
f 287/182/161 189/141/213 285/184/159
f 192/224/214 286/181/160 190/225/212
f 289/180/163 191/137/215 287/182/161
f 194/223/216 288/179/162 192/224/214
f 291/178/165 193/133/217 289/180/163
f 196/222/218 290/177/164 194/223/216
f 293/176/167 195/129/219 291/178/165
f 198/221/220 292/175/166 196/222/218
f 295/174/169 197/125/221 293/176/167
f 200/220/222 294/173/168 198/221/220
f 297/172/171 199/121/223 295/174/169
f 202/219/224 296/171/170 200/220/222
f 299/170/173 201/117/225 297/172/171
f 204/216/226 298/169/172 202/219/224
f 301/168/175 203/113/227 299/170/173
f 206/217/228 300/167/174 204/216/226
f 303/166/177 205/109/229 301/168/175
f 209/218/185 302/165/176 206/217/228
f 304/164/131 207/99/230 303/166/177
s 15
f 211/152/185 352/191/176 256/151/231
f 212/151/232 307/215/178 211/152/185
f 309/192/133 210/229/186 306/190/131
f 306/190/131 257/230/230 353/192/177
f 212/151/232 310/193/134 308/191/132
f 311/194/135 213/230/187 309/192/133
f 216/154/188 310/193/134 214/153/183
f 313/196/180 215/231/189 311/194/135
f 218/155/190 312/195/179 216/154/188
f 315/198/139 217/232/191 313/196/180
f 218/155/190 316/199/140 314/197/138
f 317/200/141 219/233/193 315/198/139
f 222/157/194 316/199/140 220/156/233
f 319/202/143 221/234/195 317/200/141
f 224/158/196 318/201/142 222/157/194
f 321/204/145 223/235/197 319/202/143
f 224/158/196 322/205/146 320/203/144
f 323/206/147 225/236/199 321/204/145
f 228/160/200 322/205/146 226/159/198
f 325/208/149 227/237/201 323/206/147
f 230/161/202 324/207/148 228/160/200
f 327/210/151 229/238/203 325/208/149
f 230/161/202 328/211/152 326/209/150
f 329/212/153 231/239/205 327/210/151
f 234/163/206 328/211/152 232/162/234
f 331/214/155 233/240/207 329/212/153
f 236/162/235 330/213/154 234/163/206
f 333/212/157 235/241/209 331/214/155
f 236/162/235 334/209/158 332/211/156
f 335/210/159 237/240/211 333/212/157
f 240/160/212 334/209/158 238/161/210
f 337/208/182 239/239/213 335/210/159
f 242/159/214 336/207/181 240/160/212
f 339/206/163 241/238/215 337/208/182
f 242/159/214 340/203/164 338/205/162
f 341/204/165 243/237/217 339/206/163
f 246/157/218 340/203/164 244/158/236
f 343/202/167 245/236/219 341/204/165
f 248/156/220 342/201/166 246/157/218
f 345/200/169 247/235/221 343/202/167
f 248/156/220 346/197/170 344/199/168
f 347/198/171 249/234/223 345/200/169
f 252/154/224 346/197/170 250/155/222
f 349/196/173 251/233/225 347/198/171
f 254/153/226 348/195/172 252/154/224
f 351/194/175 253/232/227 349/196/173
f 254/153/226 352/191/176 350/193/174
f 353/192/177 255/231/229 351/194/175
s 16
f 382/242/12 357/243/12 358/244/12
f 383/245/12 356/246/12 357/243/12
f 382/242/12 359/247/12 385/248/12
f 386/249/12 355/250/12 356/246/12
f 365/251/12 368/252/12 354/252/12
f 397/253/12 384/254/12 364/255/12
f 366/256/12 365/251/12 355/250/12
f 388/242/12 373/243/12 389/245/12
f 389/245/12 372/246/12 392/249/12
f 375/247/12 388/242/12 391/248/12
f 392/249/12 371/250/12 390/254/12
f 381/251/12 368/252/12 369/257/12
f 381/251/12 366/256/12 371/250/12
f 384/254/12 387/258/12 355/250/12
f 379/259/12 390/254/12 380/255/12
f 376/260/12 388/242/12 377/261/12
f 378/262/12 392/249/12 379/259/12
f 377/261/12 389/245/12 378/262/12
f 390/254/12 398/263/12 380/255/12
f 363/259/12 384/254/12 386/249/12
f 360/260/12 382/242/12 385/248/12
f 362/262/12 386/249/12 383/245/12
f 361/261/12 383/245/12 382/242/12
f 398/263/12 367/264/12 380/255/12
f 394/265/12 364/255/12 367/264/12
f 366/256/12 399/266/12 371/250/12
f 387/258/12 366/256/12 355/250/12
f 390/254/12 399/266/12 395/267/12
s 17
f 428/268/34 403/269/34 429/270/34
f 429/270/34 402/271/34 432/272/34
f 405/273/34 428/268/34 431/274/34
f 432/272/34 401/275/34 430/276/34
f 411/277/34 414/278/34 415/279/34
f 443/280/34 430/276/34 439/281/34
f 411/277/34 412/282/34 401/275/34
f 434/268/34 419/269/34 420/283/34
f 435/270/34 418/271/34 419/269/34
f 434/268/34 421/273/34 437/274/34
f 438/272/34 417/275/34 418/271/34
f 427/277/34 414/278/34 416/278/34
f 412/282/34 427/277/34 417/275/34
f 430/276/34 433/284/34 439/281/34
f 425/285/34 436/286/34 438/272/34
f 422/287/34 434/268/34 437/274/34
f 424/288/34 438/272/34 435/270/34
f 423/289/34 435/270/34 434/268/34
f 436/286/34 444/290/34 441/291/34
f 409/285/34 430/276/34 410/292/34
f 406/287/34 428/268/34 407/289/34
f 408/288/34 432/272/34 409/285/34
f 407/289/34 429/270/34 408/288/34
f 444/290/34 413/293/34 440/294/34
f 410/292/34 440/294/34 413/293/34
f 445/295/34 412/282/34 417/275/34
f 433/284/34 412/282/34 442/296/34
f 436/286/34 445/295/34 417/275/34
s 18
f 355/250/237 402/271/238 356/246/239
f 357/243/240 402/271/238 403/269/241
f 357/243/240 404/283/242 358/244/243
f 358/244/243 405/273/244 359/247/245
f 361/261/246 406/287/247 407/289/248
f 362/262/249 407/289/248 408/288/250
f 363/259/251 408/288/250 409/285/252
f 364/255/253 409/285/252 410/292/254
f 364/255/253 413/293/255 367/264/256
f 359/247/245 431/274/257 385/248/258
s 19
f 368/252/7 400/278/7 354/252/7
s 18
f 354/252/46 411/277/259 365/251/260
f 365/251/260 401/275/261 355/250/237
s 20
f 399/266/262 441/291/263 395/267/264
s 18
f 371/250/265 418/271/266 417/275/267
f 373/243/268 418/271/266 372/246/269
f 373/243/268 420/283/270 419/269/271
f 374/244/272 421/273/273 420/283/270
f 377/261/274 422/287/275 376/260/276
f 378/262/277 423/289/278 377/261/274
f 379/259/279 424/288/280 378/262/277
f 380/255/281 425/285/282 379/259/279
f 380/255/281 413/293/255 426/297/283
f 375/247/284 437/274/285 421/273/273
s 19
f 370/252/7 414/278/7 368/252/7
s 18
f 381/251/286 416/278/22 370/252/22
f 381/251/286 417/275/267 427/277/287
f 360/260/288 431/274/257 406/287/247
s 20
f 394/265/289 444/290/290 440/294/291
s 18
f 376/260/276 437/274/285 391/248/292
s 20
f 397/253/293 439/281/294 393/298/295
f 396/299/296 433/284/297 442/296/298
f 387/258/299 439/281/294 433/284/297
f 394/265/289 443/280/300 397/253/293
f 398/263/301 441/291/263 444/290/290
f 396/299/296 445/295/302 399/266/262
s 0
f 4/4/118 2/1/118 446/6/118
f 2/1/118 16/4/118 446/6/118
f 16/4/118 14/6/118 446/6/118
f 14/6/118 12/8/118 446/6/118
f 12/8/118 10/10/118 446/6/118
f 10/10/118 8/8/118 446/6/118
f 8/8/118 6/6/118 446/6/118
f 6/6/118 4/4/118 446/6/118
f 3/2/7 5/5/7 447/5/7
f 5/5/7 7/7/7 447/5/7
f 7/7/7 9/9/7 447/5/7
f 9/9/7 11/7/7 447/5/7
f 11/7/7 13/5/7 447/5/7
f 13/5/7 15/2/7 447/5/7
f 15/2/7 1/3/7 447/5/7
f 2/1/1 4/4/1 3/2/1
f 4/4/2 6/6/2 5/5/2
f 6/6/3 8/8/3 7/7/3
f 8/8/4 10/10/4 9/9/4
f 10/10/5 12/8/5 11/7/5
f 12/8/6 14/6/6 13/5/6
f 14/6/8 16/4/8 15/2/8
f 16/4/9 2/1/9 1/3/9
s 10
f 18/11/10 20/14/13 139/12/11
f 20/14/13 22/16/15 140/15/14
f 22/16/15 24/18/17 141/17/16
f 24/18/17 26/20/19 142/19/18
f 26/20/19 28/22/21 143/21/20
f 28/22/21 30/24/23 144/23/22
f 30/24/23 32/26/25 145/25/24
f 32/26/25 34/28/27 146/27/26
f 34/28/27 36/30/29 147/29/28
f 36/30/29 38/32/31 148/31/30
f 38/32/31 40/34/33 149/33/32
f 40/34/33 42/36/35 150/35/34
f 42/36/35 44/34/37 151/33/36
f 44/34/37 46/32/39 152/31/38
f 46/32/39 48/30/41 153/29/40
f 48/30/41 50/28/43 154/27/42
f 50/28/43 52/26/45 155/25/44
f 52/26/45 54/24/47 156/23/46
f 54/24/47 56/22/49 157/21/48
f 56/22/49 58/20/51 158/19/50
f 58/20/51 60/18/53 159/17/52
f 60/18/53 62/16/57 160/15/54
f 22/16/15 20/14/13 65/37/55
f 62/16/57 64/14/59 161/12/58
f 64/14/59 18/11/10 138/13/12
f 90/39/60 112/41/106 113/40/61
f 32/26/25 30/24/23 71/42/63
f 42/36/35 40/34/33 76/44/65
f 50/28/43 81/60/81 82/46/67
f 60/18/53 86/61/82 87/47/68
f 26/20/19 69/62/83 70/48/69
f 36/30/29 74/63/84 75/49/70
f 48/30/41 46/32/39 79/50/71
f 58/20/51 56/22/49 84/52/73
f 24/18/17 22/16/15 67/38/56
f 34/28/27 32/26/25 72/43/64
f 20/14/13 18/11/10 66/56/77
f 44/34/37 42/36/35 77/45/66
f 54/24/47 52/26/45 82/46/67
f 62/16/57 87/47/68 88/59/80
f 30/24/23 28/22/21 70/48/69
f 38/32/31 75/49/70 76/44/65
f 48/30/41 80/51/72 81/60/81
f 60/18/53 58/20/51 85/53/74
f 24/18/17 68/54/75 69/62/83
f 36/30/29 34/28/27 73/55/76
f 46/32/39 44/34/37 78/57/78
f 56/22/49 54/24/47 83/58/79
f 18/11/10 64/14/59 88/59/80
f 89/41/62 65/37/55 66/56/77
f 91/64/85 67/38/56 65/37/55
f 92/65/86 68/54/75 67/38/56
f 92/65/86 93/66/87 69/62/83
f 93/66/87 94/68/89 70/48/69
f 95/67/88 71/42/63 70/48/69
f 96/69/90 72/43/64 71/42/63
f 97/70/91 73/55/76 72/43/64
f 98/71/92 74/63/84 73/55/76
f 98/71/92 99/72/93 75/49/70
f 99/72/93 100/74/95 76/44/65
f 101/73/94 77/45/66 76/44/65
f 102/74/96 78/57/78 77/45/66
f 103/72/97 79/50/71 78/57/78
f 104/71/98 80/51/72 79/50/71
f 104/71/98 105/70/99 81/60/81
f 105/70/99 106/69/101 82/46/67
f 107/67/100 83/58/79 82/46/67
f 108/68/102 84/52/73 83/58/79
f 109/66/103 85/53/74 84/52/73
f 110/65/104 86/61/82 85/53/74
f 110/65/104 111/64/105 87/47/68
f 111/64/105 112/41/106 88/59/80
f 90/39/60 66/56/77 88/59/80
f 112/41/106 111/64/105 118/75/107
f 111/64/105 110/65/104 123/76/108
f 123/76/108 110/65/104 109/66/103
f 128/77/109 109/66/103 108/68/102
f 133/78/110 108/68/102 107/67/100
f 89/41/62 113/40/61 114/79/111
f 113/40/61 118/75/107 119/80/112
f 118/75/107 123/76/108 124/81/113
f 124/81/113 123/76/108 128/77/109
f 129/82/114 128/77/109 133/78/110
f 134/83/115 133/78/110 106/69/101
f 91/64/85 114/79/111 115/84/116
f 114/79/111 119/80/112 120/85/117
f 119/80/112 124/81/113 125/86/118
f 125/86/118 124/81/113 129/82/114
f 130/87/119 129/82/114 134/83/115
f 135/88/120 134/83/115 105/70/99
f 93/66/87 92/65/86 115/84/116
f 116/89/121 115/84/116 120/85/117
f 121/90/122 120/85/117 125/86/118
f 125/86/118 130/87/119 131/92/124
f 130/87/119 135/88/120 136/93/125
f 135/88/120 104/71/98 103/72/97
f 94/68/89 93/66/87 116/89/121
f 117/94/126 116/89/121 121/90/122
f 122/95/127 121/90/122 126/91/123
f 126/91/123 131/92/124 132/97/129
f 131/92/124 136/93/125 137/98/130
f 136/93/125 103/72/97 102/74/96
f 95/67/88 94/68/89 117/94/126
f 96/69/90 117/94/126 122/95/127
f 97/70/91 122/95/127 127/96/128
f 127/96/128 132/97/129 99/72/93
f 132/97/129 137/98/130 100/74/95
f 137/98/130 102/74/96 101/73/94
s 11
f 163/99/11 165/109/14 21/100/14
f 208/102/12 163/99/11 19/101/11
s 12
f 213/104/11 215/111/14 164/105/14
f 210/107/12 213/104/11 162/106/11
s 11
f 165/109/14 167/113/16 23/110/16
s 12
f 215/111/14 217/115/16 166/112/16
s 11
f 167/113/16 169/117/18 25/114/18
s 12
f 217/115/16 219/119/18 168/116/18
s 11
f 169/117/18 171/121/20 27/118/20
s 12
f 219/119/18 221/123/20 170/120/20
s 11
f 171/121/20 173/125/22 29/122/22
s 12
f 221/123/20 223/127/22 172/124/22
s 11
f 173/125/22 175/129/24 31/126/24
s 12
f 223/127/22 225/131/24 174/128/24
s 11
f 175/129/24 177/133/26 33/130/26
s 12
f 225/131/24 227/135/26 176/132/26
s 11
f 177/133/26 179/137/28 35/134/28
s 12
f 227/135/26 229/139/28 178/136/28
s 11
f 179/137/28 181/141/30 37/138/30
s 12
f 229/139/28 231/143/30 180/140/30
s 11
f 181/141/30 183/145/32 39/142/32
s 12
f 231/143/30 233/147/32 182/144/32
s 11
f 183/145/32 185/149/34 41/146/34
s 12
f 233/147/32 235/150/34 184/148/34
s 11
f 185/149/34 187/145/36 43/142/36
s 12
f 235/150/34 237/147/36 186/144/36
s 11
f 187/145/36 189/141/38 45/138/38
s 12
f 237/147/36 239/143/38 188/140/38
s 11
f 189/141/38 191/137/40 47/134/40
s 12
f 239/143/38 241/139/40 190/136/40
s 11
f 191/137/40 193/133/42 49/130/42
s 12
f 241/139/40 243/135/42 192/132/42
s 11
f 193/133/42 195/129/44 51/126/44
s 12
f 243/135/42 245/131/44 194/128/44
s 11
f 195/129/44 197/125/46 53/122/46
s 12
f 245/131/44 247/127/46 196/124/46
s 11
f 197/125/46 199/121/48 55/118/48
s 12
f 247/127/46 249/123/48 198/120/48
s 11
f 199/121/48 201/117/50 57/114/50
s 12
f 249/123/48 251/119/50 200/116/50
s 11
f 201/117/50 203/113/52 59/110/52
s 12
f 251/119/50 253/115/52 202/112/52
s 11
f 203/113/52 205/109/54 61/100/54
s 12
f 253/115/52 255/111/54 204/105/54
s 11
f 205/109/54 207/99/58 63/101/58
s 12
f 255/111/54 257/104/58 206/106/58
s 11
f 207/99/58 208/102/12 17/103/12
s 12
f 257/104/58 210/107/12 209/108/12
s 13
f 138/13/12 139/12/11 212/151/11
f 161/12/58 138/13/12 211/152/12
f 139/12/11 140/15/14 214/153/14
f 140/15/14 141/17/16 216/154/16
f 141/17/16 142/19/18 218/155/18
f 142/19/18 143/21/20 220/156/20
f 143/21/20 144/23/22 222/157/22
f 144/23/22 145/25/24 224/158/24
f 145/25/24 146/27/26 226/159/26
f 146/27/26 147/29/28 228/160/28
f 147/29/28 148/31/30 230/161/30
f 148/31/30 149/33/32 232/162/32
f 149/33/32 150/35/34 234/163/34
f 150/35/34 151/33/36 236/162/36
f 151/33/36 152/31/38 238/161/38
f 152/31/38 153/29/40 240/160/40
f 153/29/40 154/27/42 242/159/42
f 154/27/42 155/25/44 244/158/44
f 155/25/44 156/23/46 246/157/46
f 156/23/46 157/21/48 248/156/48
f 157/21/48 158/19/50 250/155/50
f 158/19/50 159/17/52 252/154/52
f 159/17/52 160/15/54 254/153/54
f 160/15/54 161/12/58 256/151/58
s 14
f 304/164/131 305/189/178 258/165/132
f 259/166/133 258/165/132 260/167/134
f 261/168/135 260/167/134 262/169/136
f 263/170/137 262/169/136 264/171/138
f 265/172/139 264/171/138 266/173/140
f 267/174/141 266/173/140 268/175/142
f 269/176/143 268/175/142 270/177/144
f 271/178/145 270/177/144 272/179/146
f 273/180/147 272/179/146 274/181/148
f 275/182/149 274/181/148 276/183/150
f 277/184/151 276/183/150 278/185/152
f 279/186/153 278/185/152 280/187/154
f 281/188/155 280/187/154 282/185/156
f 283/186/157 282/185/156 284/183/158
f 285/184/159 284/183/158 286/181/160
f 287/182/161 286/181/160 288/179/162
f 289/180/163 288/179/162 290/177/164
f 291/178/165 290/177/164 292/175/166
f 293/176/167 292/175/166 294/173/168
f 295/174/169 294/173/168 296/171/170
f 297/172/171 296/171/170 298/169/172
f 299/170/173 298/169/172 300/167/174
f 301/168/175 300/167/174 302/165/176
f 303/166/177 302/165/176 305/189/178
s 15
f 306/190/131 307/215/178 308/191/132
f 309/192/133 308/191/132 310/193/134
f 311/194/135 310/193/134 312/195/179
f 313/196/180 312/195/179 314/197/138
f 315/198/139 314/197/138 316/199/140
f 317/200/141 316/199/140 318/201/142
f 319/202/143 318/201/142 320/203/144
f 321/204/145 320/203/144 322/205/146
f 323/206/147 322/205/146 324/207/148
f 325/208/149 324/207/148 326/209/150
f 327/210/151 326/209/150 328/211/152
f 329/212/153 328/211/152 330/213/154
f 331/214/155 330/213/154 332/211/156
f 333/212/157 332/211/156 334/209/158
f 335/210/159 334/209/158 336/207/181
f 337/208/182 336/207/181 338/205/162
f 339/206/163 338/205/162 340/203/164
f 341/204/165 340/203/164 342/201/166
f 343/202/167 342/201/166 344/199/168
f 345/200/169 344/199/168 346/197/170
f 347/198/171 346/197/170 348/195/172
f 349/196/173 348/195/172 350/193/174
f 351/194/175 350/193/174 352/191/176
f 353/192/177 352/191/176 307/215/178
s 14
f 164/216/183 260/167/134 258/165/132
f 162/217/184 258/165/132 305/189/178
f 259/166/133 163/99/187 208/102/186
f 261/168/135 165/109/189 163/99/187
f 166/219/188 262/169/136 260/167/134
f 263/170/137 167/113/191 165/109/189
f 168/220/190 264/171/138 262/169/136
f 265/172/139 169/117/193 167/113/191
f 170/221/192 266/173/140 264/171/138
f 267/174/141 171/121/195 169/117/193
f 172/222/194 268/175/142 266/173/140
f 269/176/143 173/125/197 171/121/195
f 174/223/196 270/177/144 268/175/142
f 271/178/145 175/129/199 173/125/197
f 176/224/198 272/179/146 270/177/144
f 273/180/147 177/133/201 175/129/199
f 178/225/200 274/181/148 272/179/146
f 275/182/149 179/137/203 177/133/201
f 180/226/202 276/183/150 274/181/148
f 277/184/151 181/141/205 179/137/203
f 182/227/204 278/185/152 276/183/150
f 279/186/153 183/145/207 181/141/205
f 184/228/206 280/187/154 278/185/152
f 281/188/155 185/149/209 183/145/207
f 186/227/208 282/185/156 280/187/154
f 283/186/157 187/145/211 185/149/209
f 188/226/210 284/183/158 282/185/156
f 285/184/159 189/141/213 187/145/211
f 190/225/212 286/181/160 284/183/158
f 287/182/161 191/137/215 189/141/213
f 192/224/214 288/179/162 286/181/160
f 289/180/163 193/133/217 191/137/215
f 194/223/216 290/177/164 288/179/162
f 291/178/165 195/129/219 193/133/217
f 196/222/218 292/175/166 290/177/164
f 293/176/167 197/125/221 195/129/219
f 198/221/220 294/173/168 292/175/166
f 295/174/169 199/121/223 197/125/221
f 200/220/222 296/171/170 294/173/168
f 297/172/171 201/117/225 199/121/223
f 202/219/224 298/169/172 296/171/170
f 299/170/173 203/113/227 201/117/225
f 204/216/226 300/167/174 298/169/172
f 301/168/175 205/109/229 203/113/227
f 206/217/228 302/165/176 300/167/174
f 303/166/177 207/99/230 205/109/229
f 209/218/185 305/189/178 302/165/176
f 304/164/131 208/102/186 207/99/230
s 15
f 211/152/185 307/215/178 352/191/176
f 212/151/232 308/191/132 307/215/178
f 309/192/133 213/230/187 210/229/186
f 306/190/131 210/229/186 257/230/230
f 212/151/232 214/153/183 310/193/134
f 311/194/135 215/231/189 213/230/187
f 216/154/188 312/195/179 310/193/134
f 313/196/180 217/232/191 215/231/189
f 218/155/190 314/197/138 312/195/179
f 315/198/139 219/233/193 217/232/191
f 218/155/190 220/156/233 316/199/140
f 317/200/141 221/234/195 219/233/193
f 222/157/194 318/201/142 316/199/140
f 319/202/143 223/235/197 221/234/195
f 224/158/196 320/203/144 318/201/142
f 321/204/145 225/236/199 223/235/197
f 224/158/196 226/159/198 322/205/146
f 323/206/147 227/237/201 225/236/199
f 228/160/200 324/207/148 322/205/146
f 325/208/149 229/238/203 227/237/201
f 230/161/202 326/209/150 324/207/148
f 327/210/151 231/239/205 229/238/203
f 230/161/202 232/162/234 328/211/152
f 329/212/153 233/240/207 231/239/205
f 234/163/206 330/213/154 328/211/152
f 331/214/155 235/241/209 233/240/207
f 236/162/235 332/211/156 330/213/154
f 333/212/157 237/240/211 235/241/209
f 236/162/235 238/161/210 334/209/158
f 335/210/159 239/239/213 237/240/211
f 240/160/212 336/207/181 334/209/158
f 337/208/182 241/238/215 239/239/213
f 242/159/214 338/205/162 336/207/181
f 339/206/163 243/237/217 241/238/215
f 242/159/214 244/158/236 340/203/164
f 341/204/165 245/236/219 243/237/217
f 246/157/218 342/201/166 340/203/164
f 343/202/167 247/235/221 245/236/219
f 248/156/220 344/199/168 342/201/166
f 345/200/169 249/234/223 247/235/221
f 248/156/220 250/155/222 346/197/170
f 347/198/171 251/233/225 249/234/223
f 252/154/224 348/195/172 346/197/170
f 349/196/173 253/232/227 251/233/225
f 254/153/226 350/193/174 348/195/172
f 351/194/175 255/231/229 253/232/227
f 254/153/226 256/151/231 352/191/176
f 353/192/177 257/230/230 255/231/229
s 16
f 382/242/12 383/245/12 357/243/12
f 383/245/12 386/249/12 356/246/12
f 382/242/12 358/244/12 359/247/12
f 386/249/12 384/254/12 355/250/12
f 365/251/12 369/257/12 368/252/12
f 397/253/12 393/298/12 384/254/12
f 366/256/12 369/257/12 365/251/12
f 388/242/12 374/244/12 373/243/12
f 389/245/12 373/243/12 372/246/12
f 375/247/12 374/244/12 388/242/12
f 392/249/12 372/246/12 371/250/12
f 381/251/12 370/252/12 368/252/12
f 381/251/12 369/257/12 366/256/12
f 384/254/12 393/298/12 387/258/12
f 379/259/12 392/249/12 390/254/12
f 376/260/12 391/248/12 388/242/12
f 378/262/12 389/245/12 392/249/12
f 377/261/12 388/242/12 389/245/12
f 390/254/12 395/267/12 398/263/12
f 363/259/12 364/255/12 384/254/12
f 360/260/12 361/261/12 382/242/12
f 362/262/12 363/259/12 386/249/12
f 361/261/12 362/262/12 383/245/12
f 398/263/12 394/265/12 367/264/12
f 394/265/12 397/253/12 364/255/12
f 366/256/12 396/299/12 399/266/12
f 387/258/12 396/299/12 366/256/12
f 390/254/12 371/250/12 399/266/12
s 17
f 428/268/34 404/283/34 403/269/34
f 429/270/34 403/269/34 402/271/34
f 405/273/34 404/283/34 428/268/34
f 432/272/34 402/271/34 401/275/34
f 411/277/34 400/278/34 414/278/34
f 443/280/34 410/292/34 430/276/34
f 411/277/34 415/279/34 412/282/34
f 434/268/34 435/270/34 419/269/34
f 435/270/34 438/272/34 418/271/34
f 434/268/34 420/283/34 421/273/34
f 438/272/34 436/286/34 417/275/34
f 427/277/34 415/279/34 414/278/34
f 412/282/34 415/279/34 427/277/34
f 430/276/34 401/275/34 433/284/34
f 425/285/34 426/297/34 436/286/34
f 422/287/34 423/289/34 434/268/34
f 424/288/34 425/285/34 438/272/34
f 423/289/34 424/288/34 435/270/34
f 436/286/34 426/297/34 444/290/34
f 409/285/34 432/272/34 430/276/34
f 406/287/34 431/274/34 428/268/34
f 408/288/34 429/270/34 432/272/34
f 407/289/34 428/268/34 429/270/34
f 444/290/34 426/297/34 413/293/34
f 410/292/34 443/280/34 440/294/34
f 445/295/34 442/296/34 412/282/34
f 433/284/34 401/275/34 412/282/34
f 436/286/34 441/291/34 445/295/34
s 18
f 355/250/237 401/275/261 402/271/238
f 357/243/240 356/246/239 402/271/238
f 357/243/240 403/269/241 404/283/242
f 358/244/243 404/283/242 405/273/244
f 361/261/246 360/260/288 406/287/247
f 362/262/249 361/261/246 407/289/248
f 363/259/251 362/262/249 408/288/250
f 364/255/253 363/259/251 409/285/252
f 364/255/253 410/292/254 413/293/255
f 359/247/245 405/273/244 431/274/257
s 19
f 368/252/7 414/278/7 400/278/7
s 18
f 354/252/46 400/278/46 411/277/259
f 365/251/260 411/277/259 401/275/261
s 20
f 399/266/262 445/295/302 441/291/263
s 18
f 371/250/265 372/246/269 418/271/266
f 373/243/268 419/269/271 418/271/266
f 373/243/268 374/244/272 420/283/270
f 374/244/272 375/247/284 421/273/273
f 377/261/274 423/289/278 422/287/275
f 378/262/277 424/288/280 423/289/278
f 379/259/279 425/285/282 424/288/280
f 380/255/281 426/297/283 425/285/282
f 380/255/281 367/264/256 413/293/255
f 375/247/284 391/248/292 437/274/285
s 19
f 370/252/7 416/278/7 414/278/7
s 18
f 381/251/286 427/277/287 416/278/22
f 381/251/286 371/250/265 417/275/267
f 360/260/288 385/248/258 431/274/257
s 20
f 394/265/289 398/263/301 444/290/290
s 18
f 376/260/276 422/287/275 437/274/285
s 20
f 397/253/293 443/280/300 439/281/294
f 396/299/296 387/258/299 433/284/297
f 387/258/299 393/298/295 439/281/294
f 394/265/289 440/294/291 443/280/300
f 398/263/301 395/267/264 441/291/263
f 396/299/296 442/296/298 445/295/302
